<svg width="293" height="174" viewBox="0 0 293 174" fill="none" xmlns="http://www.w3.org/2000/svg">
<path d="M5.55957 126H4.55957V127H5.55957V126ZM5.55957 85.1338V84.1338H4.55957V85.1338H5.55957ZM14.1123 118.92H13.1123V119.92H14.1123V118.92ZM14.1123 92.1855V91.1855H13.1123V92.1855H14.1123ZM6.55957 126V85.1338H4.55957V126H6.55957ZM5.55957 86.1338H21.1641V84.1338H5.55957V86.1338ZM21.1641 86.1338C27.0824 86.1338 31.6681 87.8898 34.7771 91.0878C37.8898 94.2895 39.6484 99.0661 39.6484 105.354H41.6484C41.6484 98.7005 39.7821 93.3668 36.2111 89.6937C32.6366 86.0169 27.4801 84.1338 21.1641 84.1338V86.1338ZM39.6484 105.354V105.411H41.6484V105.354H39.6484ZM39.6484 105.411C39.6484 111.716 37.8954 116.59 34.7786 119.882C31.6687 123.167 27.0841 125 21.1641 125V127C27.5067 127 32.6643 125.024 36.2309 121.257C39.7906 117.497 41.6484 112.077 41.6484 105.411H39.6484ZM21.1641 125H5.55957V127H21.1641V125ZM14.1123 119.92H20.1445V117.92H14.1123V119.92ZM20.1445 119.92C24.1759 119.92 27.4278 118.688 29.654 116.153C31.8609 113.64 32.9258 109.997 32.9258 105.439H30.9258C30.9258 109.718 29.9233 112.815 28.1512 114.833C26.3984 116.829 23.7596 117.92 20.1445 117.92V119.92ZM32.9258 105.439V105.383H30.9258V105.439H32.9258ZM32.9258 105.383C32.9258 100.965 31.8177 97.3946 29.5933 94.9191C27.3543 92.4274 24.1109 91.1855 20.1445 91.1855V93.1855C23.6831 93.1855 26.3303 94.2801 28.1057 96.2559C29.8956 98.2479 30.9258 101.276 30.9258 105.383H32.9258ZM20.1445 91.1855H14.1123V93.1855H20.1445V91.1855ZM13.1123 92.1855V118.92H15.1123V92.1855H13.1123ZM73.415 112.774V113.774H74.415V112.774H73.415ZM52.5146 112.774V111.774H51.497L51.5148 112.792L52.5146 112.774ZM65.5137 116.881L66.4575 117.211L66.46 117.204L66.4624 117.197L65.5137 116.881ZM65.5703 116.711V115.711H64.8496L64.6216 116.395L65.5703 116.711ZM73.1602 116.711L74.1249 116.974L74.4694 115.711H73.1602V116.711ZM73.0752 117.022L72.1104 116.759L72.1025 116.788L72.0963 116.818L73.0752 117.022ZM52.5996 107.563L51.6081 107.434L51.46 108.563H52.5996V107.563ZM65.4854 107.563V108.563H66.6143L66.478 107.443L65.4854 107.563ZM59.2832 125.623C54.862 125.623 51.4128 124.194 49.0645 121.706C46.7096 119.212 45.3584 115.543 45.3584 110.877H43.3584C43.3584 115.924 44.8251 120.129 47.6103 123.079C50.4021 126.036 54.4154 127.623 59.2832 127.623V125.623ZM45.3584 110.877V110.849H43.3584V110.877H45.3584ZM45.3584 110.849C45.3584 106.214 46.7221 102.517 49.0515 99.9893C51.373 97.47 54.7392 96.0176 58.9434 96.0176V94.0176C54.2549 94.0176 50.3286 95.652 47.5808 98.634C44.8409 101.607 43.3584 105.826 43.3584 110.849H45.3584ZM58.9434 96.0176C63.1546 96.0176 66.4952 97.4397 68.7867 99.8671C71.0843 102.301 72.415 105.839 72.415 110.226H74.415C74.415 105.436 72.9562 101.37 70.2411 98.4942C67.5199 95.6116 63.6247 94.0176 58.9434 94.0176V96.0176ZM72.415 110.226V112.774H74.415V110.226H72.415ZM73.415 111.774H52.5146V113.774H73.415V111.774ZM51.5148 112.792C51.5603 115.384 52.2911 117.561 53.6941 119.101C55.1094 120.655 57.1084 121.449 59.4531 121.449V119.449C57.5781 119.449 56.1504 118.828 55.1726 117.754C54.1826 116.668 53.554 115.007 53.5145 112.757L51.5148 112.792ZM59.4531 121.449C63.2308 121.449 65.7079 119.353 66.4575 117.211L64.5698 116.551C64.13 117.807 62.4724 119.449 59.4531 119.449V121.449ZM66.4624 117.197L66.519 117.027L64.6216 116.395L64.565 116.565L66.4624 117.197ZM65.5703 117.711H73.1602V115.711H65.5703V117.711ZM72.1954 116.448L72.1104 116.759L74.04 117.286L74.1249 116.974L72.1954 116.448ZM72.0963 116.818C71.2572 120.835 67.4694 125.623 59.2832 125.623V127.623C68.4291 127.623 73.024 122.159 74.0541 117.227L72.0963 116.818ZM59.085 100.191C57.1535 100.191 55.4114 100.84 54.0786 102.115C52.752 103.383 51.9003 105.203 51.6081 107.434L53.5911 107.693C53.837 105.817 54.5287 104.451 55.4607 103.56C56.3865 102.675 57.618 102.191 59.085 102.191V100.191ZM52.5996 108.563H65.4854V106.563H52.5996V108.563ZM66.478 107.443C66.2027 105.179 65.3854 103.352 64.0734 102.086C62.7534 100.812 61.0196 100.191 59.085 100.191V102.191C60.5771 102.191 61.7886 102.661 62.6847 103.525C63.5887 104.398 64.2582 105.757 64.4927 107.684L66.478 107.443ZM84.5732 126L83.6282 126.327L83.8611 127H84.5732V126ZM74.0664 95.6406V94.6406H72.6621L73.1214 95.9677L74.0664 95.6406ZM82.9023 95.6406L83.8665 95.3753L83.6643 94.6406H82.9023V95.6406ZM89.2461 118.693L88.2819 118.959L88.4841 119.693H89.2461V118.693ZM89.416 118.693V119.693H90.1807L90.3811 118.955L89.416 118.693ZM95.6748 95.6406V94.6406H94.9101L94.7097 95.3786L95.6748 95.6406ZM104.312 95.6406L105.258 95.9653L105.713 94.6406H104.312V95.6406ZM93.8906 126V127H94.6046L94.8364 126.325L93.8906 126ZM85.5182 125.673L75.0114 95.3136L73.1214 95.9677L83.6282 126.327L85.5182 125.673ZM74.0664 96.6406H82.9023V94.6406H74.0664V96.6406ZM81.9382 95.9059L88.2819 118.959L90.2103 118.428L83.8665 95.3753L81.9382 95.9059ZM89.2461 119.693H89.416V117.693H89.2461V119.693ZM90.3811 118.955L96.6399 95.9026L94.7097 95.3786L88.451 118.431L90.3811 118.955ZM95.6748 96.6406H104.312V94.6406H95.6748V96.6406ZM103.367 95.3159L92.9448 125.675L94.8364 126.325L105.258 95.9653L103.367 95.3159ZM93.8906 125H84.5732V127H93.8906V125ZM107.909 126H106.909V127H107.909V126ZM107.909 85.1338V84.1338H106.909V85.1338H107.909ZM132.01 109.914L131.643 108.984L130.598 109.395L131.128 110.386L132.01 109.914ZM140.619 126V127H142.289L141.501 125.528L140.619 126ZM130.934 126L130.044 126.457L130.323 127H130.934V126ZM123.315 111.188L124.205 110.731L123.926 110.188H123.315V111.188ZM116.462 111.188V110.188H115.462V111.188H116.462ZM116.462 126V127H117.462V126H116.462ZM116.462 104.703H115.462V105.703H116.462V104.703ZM116.462 91.8174V90.8174H115.462V91.8174H116.462ZM108.909 126V85.1338H106.909V126H108.909ZM107.909 86.1338H124.788V84.1338H107.909V86.1338ZM124.788 86.1338C129.207 86.1338 132.596 87.306 134.869 89.3409C137.126 91.3627 138.401 94.3423 138.401 98.2178H140.401C140.401 93.8804 138.958 90.318 136.203 87.851C133.462 85.3971 129.545 84.1338 124.788 84.1338V86.1338ZM138.401 98.2178V98.2744H140.401V98.2178H138.401ZM138.401 98.2744C138.401 103.296 135.747 107.368 131.643 108.984L132.376 110.845C137.335 108.892 140.401 104.015 140.401 98.2744H138.401ZM131.128 110.386L139.737 126.472L141.501 125.528L132.891 109.442L131.128 110.386ZM140.619 125H130.934V127H140.619V125ZM131.823 125.543L124.205 110.731L122.426 111.646L130.044 126.457L131.823 125.543ZM123.315 110.188H116.462V112.188H123.315V110.188ZM115.462 111.188V126H117.462V111.188H115.462ZM116.462 125H107.909V127H116.462V125ZM116.462 105.703H123.854V103.703H116.462V105.703ZM123.854 105.703C126.162 105.703 128.132 105.047 129.532 103.723C130.939 102.393 131.65 100.502 131.65 98.2744H129.65C129.65 100.068 129.088 101.391 128.158 102.27C127.221 103.156 125.793 103.703 123.854 103.703V105.703ZM131.65 98.2744V98.2178H129.65V98.2744H131.65ZM131.65 98.2178C131.65 96.0241 130.889 94.1441 129.457 92.8184C128.034 91.5002 126.045 90.8174 123.74 90.8174V92.8174C125.656 92.8174 127.121 93.3807 128.098 94.2856C129.067 95.183 129.65 96.5033 129.65 98.2178H131.65ZM123.74 90.8174H116.462V92.8174H123.74V90.8174ZM115.462 91.8174V104.703H117.462V91.8174H115.462ZM144.527 126H143.527V127H144.527V126ZM144.527 95.6406V94.6406H143.527V95.6406H144.527ZM152.797 95.6406H153.797V94.6406H152.797V95.6406ZM152.797 126V127H153.797V126H152.797ZM148.662 90.7324C146.709 90.7324 145.244 89.2134 145.244 87.4277H143.244C143.244 90.3433 145.63 92.7324 148.662 92.7324V90.7324ZM145.244 87.4277C145.244 85.6421 146.709 84.123 148.662 84.123V82.123C145.63 82.123 143.244 84.5122 143.244 87.4277H145.244ZM148.662 84.123C150.615 84.123 152.08 85.6421 152.08 87.4277H154.08C154.08 84.5122 151.694 82.123 148.662 82.123V84.123ZM152.08 87.4277C152.08 89.2134 150.615 90.7324 148.662 90.7324V92.7324C151.694 92.7324 154.08 90.3433 154.08 87.4277H152.08ZM145.527 126V95.6406H143.527V126H145.527ZM144.527 96.6406H152.797V94.6406H144.527V96.6406ZM151.797 95.6406V126H153.797V95.6406H151.797ZM152.797 125H144.527V127H152.797V125ZM166.985 120.817L167.895 120.402L167.628 119.817H166.985V120.817ZM166.815 120.817V119.817H165.815V120.817H166.815ZM166.815 126V127H167.815V126H166.815ZM158.546 126H157.546V127H158.546V126ZM158.546 85.1338V84.1338H157.546V85.1338H158.546ZM166.815 85.1338H167.815V84.1338H166.815V85.1338ZM166.815 100.908H165.815V101.908H166.815V100.908ZM166.985 100.908V101.908H167.63L167.896 101.321L166.985 100.908ZM176.331 125.623C172.349 125.623 169.37 123.631 167.895 120.402L166.076 121.233C167.886 125.197 171.591 127.623 176.331 127.623V125.623ZM166.985 119.817H166.815V121.817H166.985V119.817ZM165.815 120.817V126H167.815V120.817H165.815ZM166.815 125H158.546V127H166.815V125ZM159.546 126V85.1338H157.546V126H159.546ZM158.546 86.1338H166.815V84.1338H158.546V86.1338ZM165.815 85.1338V100.908H167.815V85.1338H165.815ZM166.815 101.908H166.985V99.9082H166.815V101.908ZM167.896 101.321C169.401 98.0061 172.409 96.0176 176.359 96.0176V94.0176C171.644 94.0176 167.912 96.4471 166.075 100.495L167.896 101.321ZM176.359 96.0176C179.885 96.0176 182.673 97.3671 184.605 99.8174C186.558 102.296 187.707 105.996 187.707 110.792H189.707C189.707 105.704 188.491 101.517 186.175 98.5793C183.837 95.6133 180.452 94.0176 176.359 94.0176V96.0176ZM187.707 110.792V110.82H189.707V110.792H187.707ZM187.707 110.82C187.707 115.602 186.559 119.309 184.6 121.799C182.665 124.261 179.869 125.623 176.331 125.623V127.623C180.44 127.623 183.832 126.012 186.173 123.036C188.491 120.088 189.707 115.895 189.707 110.82H187.707ZM173.584 120.77C175.948 120.77 177.923 119.768 179.279 117.967C180.612 116.196 181.296 113.725 181.296 110.82H179.296C179.296 113.438 178.677 115.442 177.681 116.764C176.707 118.058 175.327 118.77 173.584 118.77V120.77ZM181.296 110.82V110.792H179.296V110.82H181.296ZM181.296 110.792C181.296 107.874 180.613 105.408 179.277 103.646C177.918 101.854 175.942 100.871 173.584 100.871V102.871C175.332 102.871 176.712 103.574 177.683 104.854C178.676 106.165 179.296 108.159 179.296 110.792H181.296ZM173.584 100.871C171.27 100.871 169.288 101.885 167.91 103.671C166.549 105.436 165.815 107.9 165.815 110.792H167.815C167.815 108.218 168.469 106.221 169.494 104.893C170.503 103.585 171.905 102.871 173.584 102.871V100.871ZM165.815 110.792V110.82H167.815V110.792H165.815ZM165.815 110.82C165.815 113.723 166.54 116.194 167.898 117.964C169.274 119.757 171.257 120.77 173.584 120.77V118.77C171.89 118.77 170.489 118.055 169.485 116.747C168.464 115.416 167.815 113.412 167.815 110.82H165.815ZM220.907 112.774V113.774H221.907V112.774H220.907ZM200.007 112.774V111.774H198.989L199.007 112.792L200.007 112.774ZM213.006 116.881L213.95 117.211L213.952 117.204L213.955 117.197L213.006 116.881ZM213.062 116.711V115.711H212.342L212.114 116.395L213.062 116.711ZM220.652 116.711L221.617 116.974L221.962 115.711H220.652V116.711ZM220.567 117.022L219.603 116.759L219.595 116.788L219.589 116.818L220.567 117.022ZM200.092 107.563L199.1 107.434L198.952 108.563H200.092V107.563ZM212.978 107.563V108.563H214.107L213.97 107.443L212.978 107.563ZM206.775 125.623C202.354 125.623 198.905 124.194 196.557 121.706C194.202 119.212 192.851 115.543 192.851 110.877H190.851C190.851 115.924 192.317 120.129 195.102 123.079C197.894 126.036 201.908 127.623 206.775 127.623V125.623ZM192.851 110.877V110.849H190.851V110.877H192.851ZM192.851 110.849C192.851 106.214 194.214 102.517 196.544 99.9893C198.865 97.47 202.231 96.0176 206.436 96.0176V94.0176C201.747 94.0176 197.821 95.652 195.073 98.634C192.333 101.607 190.851 105.826 190.851 110.849H192.851ZM206.436 96.0176C210.647 96.0176 213.987 97.4397 216.279 99.8671C218.577 102.301 219.907 105.839 219.907 110.226H221.907C221.907 105.436 220.448 101.37 217.733 98.4942C215.012 95.6116 211.117 94.0176 206.436 94.0176V96.0176ZM219.907 110.226V112.774H221.907V110.226H219.907ZM220.907 111.774H200.007V113.774H220.907V111.774ZM199.007 112.792C199.052 115.384 199.783 117.561 201.186 119.101C202.602 120.655 204.601 121.449 206.945 121.449V119.449C205.07 119.449 203.643 118.828 202.665 117.754C201.675 116.668 201.046 115.007 201.007 112.757L199.007 112.792ZM206.945 121.449C210.723 121.449 213.2 119.353 213.95 117.211L212.062 116.551C211.622 117.807 209.965 119.449 206.945 119.449V121.449ZM213.955 117.197L214.011 117.027L212.114 116.395L212.057 116.565L213.955 117.197ZM213.062 117.711H220.652V115.711H213.062V117.711ZM219.688 116.448L219.603 116.759L221.532 117.286L221.617 116.974L219.688 116.448ZM219.589 116.818C218.749 120.835 214.962 125.623 206.775 125.623V127.623C215.921 127.623 220.516 122.159 221.546 117.227L219.589 116.818ZM206.577 100.191C204.646 100.191 202.904 100.84 201.571 102.115C200.244 103.383 199.393 105.203 199.1 107.434L201.083 107.693C201.329 105.817 202.021 104.451 202.953 103.56C203.879 102.675 205.11 102.191 206.577 102.191V100.191ZM200.092 108.563H212.978V106.563H200.092V108.563ZM213.97 107.443C213.695 105.179 212.878 103.352 211.566 102.086C210.246 100.812 208.512 100.191 206.577 100.191V102.191C208.069 102.191 209.281 102.661 210.177 103.525C211.081 104.398 211.75 105.757 211.985 107.684L213.97 107.443ZM225.354 126H224.354V127H225.354V126ZM225.354 95.6406V94.6406H224.354V95.6406H225.354ZM233.623 95.6406H234.623V94.6406H233.623V95.6406ZM233.623 126V127H234.623V126H233.623ZM229.488 90.7324C227.536 90.7324 226.07 89.2134 226.07 87.4277H224.07C224.07 90.3433 226.457 92.7324 229.488 92.7324V90.7324ZM226.07 87.4277C226.07 85.6421 227.536 84.123 229.488 84.123V82.123C226.457 82.123 224.07 84.5122 224.07 87.4277H226.07ZM229.488 84.123C231.441 84.123 232.906 85.6421 232.906 87.4277H234.906C234.906 84.5122 232.52 82.123 229.488 82.123V84.123ZM232.906 87.4277C232.906 89.2134 231.441 90.7324 229.488 90.7324V92.7324C232.52 92.7324 234.906 90.3433 234.906 87.4277H232.906ZM226.354 126V95.6406H224.354V126H226.354ZM225.354 96.6406H233.623V94.6406H225.354V96.6406ZM232.623 95.6406V126H234.623V95.6406H232.623ZM233.623 125H225.354V127H233.623V125ZM239.174 126H238.174V127H239.174V126ZM239.174 95.6406V94.6406H238.174V95.6406H239.174ZM247.443 95.6406H248.443V94.6406H247.443V95.6406ZM247.443 100.937H246.443V101.937H247.443V100.937ZM247.613 100.937V101.937H248.4L248.585 101.172L247.613 100.937ZM256.902 95.3291H257.902V94.5653L257.165 94.3643L256.902 95.3291ZM256.902 102.607L256.518 103.53L257.902 104.107V102.607H256.902ZM247.443 126V127H248.443V126H247.443ZM240.174 126V95.6406H238.174V126H240.174ZM239.174 96.6406H247.443V94.6406H239.174V96.6406ZM246.443 95.6406V100.937H248.443V95.6406H246.443ZM247.443 101.937H247.613V99.9365H247.443V101.937ZM248.585 101.172C249 99.4592 249.753 98.1798 250.734 97.3319C251.707 96.4912 252.97 96.0176 254.523 96.0176V94.0176C252.537 94.0176 250.797 94.6343 249.427 95.8185C248.065 96.9955 247.132 98.6756 246.641 100.701L248.585 101.172ZM254.523 96.0176C255.333 96.0176 256.094 96.145 256.639 96.2939L257.165 94.3643C256.465 94.1733 255.527 94.0176 254.523 94.0176V96.0176ZM255.902 95.3291V102.607H257.902V95.3291H255.902ZM257.287 101.684C256.433 101.328 255.149 101.154 253.9 101.154V103.154C255.031 103.154 256.013 103.32 256.518 103.53L257.287 101.684ZM253.9 101.154C251.661 101.154 249.756 101.828 248.418 103.235C247.086 104.635 246.443 106.626 246.443 109.008H248.443C248.443 106.972 248.99 105.536 249.867 104.614C250.738 103.698 252.062 103.154 253.9 103.154V101.154ZM246.443 109.008V126H248.443V109.008H246.443ZM247.443 125H239.174V127H247.443V125ZM273.215 125.623C268.817 125.623 265.338 124.219 262.955 121.736C260.568 119.248 259.177 115.568 259.177 110.82H257.177C257.177 115.957 258.688 120.178 261.512 123.12C264.34 126.068 268.38 127.623 273.215 127.623V125.623ZM259.177 110.82V110.764H257.177V110.82H259.177ZM259.177 110.764C259.177 106.082 260.598 102.413 263.003 99.921C265.404 97.4318 268.881 96.0176 273.187 96.0176V94.0176C268.43 94.0176 264.401 95.5911 261.564 98.5324C258.729 101.47 257.177 105.675 257.177 110.764H259.177ZM273.187 96.0176C277.51 96.0176 281.001 97.4201 283.411 99.9022C285.825 102.387 287.253 106.054 287.253 110.764H289.253C289.253 105.646 287.694 101.44 284.846 98.5087C281.996 95.5746 277.954 94.0176 273.187 94.0176V96.0176ZM287.253 110.764V110.82H289.253V110.764H287.253ZM287.253 110.82C287.253 115.58 285.849 119.26 283.455 121.745C281.064 124.226 277.584 125.623 273.215 125.623V127.623C278.021 127.623 282.06 126.075 284.895 123.133C287.726 120.194 289.253 115.973 289.253 110.82H287.253ZM273.243 121.138C275.572 121.138 277.525 120.136 278.861 118.284C280.172 116.468 280.842 113.908 280.842 110.82H278.842C278.842 113.652 278.223 115.75 277.24 117.113C276.282 118.44 274.935 119.138 273.243 119.138V121.138ZM280.842 110.82V110.764H278.842V110.82H280.842ZM280.842 110.764C280.842 107.698 280.155 105.151 278.828 103.343C277.478 101.503 275.514 100.503 273.187 100.503V102.503C274.881 102.503 276.244 103.202 277.216 104.527C278.212 105.883 278.842 107.967 278.842 110.764H280.842ZM273.187 100.503C270.87 100.503 268.92 101.505 267.581 103.347C266.267 105.155 265.588 107.7 265.588 110.764H267.588C267.588 107.965 268.212 105.88 269.199 104.523C270.161 103.2 271.51 102.503 273.187 102.503V100.503ZM265.588 110.764V110.82H267.588V110.764H265.588ZM265.588 110.82C265.588 113.921 266.257 116.483 267.578 118.298C268.925 120.149 270.893 121.138 273.243 121.138V119.138C271.515 119.138 270.155 118.441 269.195 117.121C268.207 115.763 267.588 113.667 267.588 110.82H265.588Z" fill="url(#paint0_linear_2049_95)"/>
<mask id="path-2-outside-1_2049_95" maskUnits="userSpaceOnUse" x="9" y="105" width="275" height="46" fill="black">
<rect fill="white" x="9" y="105" width="275" height="46"/>
<path d="M10 148.877V108.011H25.0523C36.8538 108.011 43.8472 115.289 43.8472 128.231V128.288C43.8472 141.259 36.8811 148.877 25.0523 148.877H10ZM18.2501 141.797H24.0689C31.4448 141.797 35.4332 137.152 35.4332 128.316V128.26C35.4332 119.735 31.3082 115.062 24.0689 115.062H18.2501V141.797ZM61.8226 149.5C52.8622 149.5 47.4259 143.468 47.4259 133.754V133.726C47.4259 124.068 52.9168 117.895 61.4948 117.895C70.0727 117.895 75.4543 123.927 75.4543 133.103V135.651H55.2935C55.3755 140.494 57.9161 143.326 61.9865 143.326C65.2647 143.326 67.2589 141.457 67.8326 139.758L67.8872 139.588H75.2085L75.1265 139.899C74.225 144.374 70.1819 149.5 61.8226 149.5ZM61.6313 124.068C58.3532 124.068 55.8945 126.334 55.3755 130.44H67.8053C67.3135 126.249 64.9368 124.068 61.6313 124.068ZM86.2177 148.877L76.0827 118.518H84.6059L90.7252 141.57H90.8891L96.9264 118.518H105.258L95.2054 148.877H86.2177ZM108.728 148.877V108.011H125.01C133.861 108.011 139.106 112.882 139.106 121.095V121.151C139.106 126.532 136.347 131.007 131.976 132.791L140.28 148.877H130.938L123.589 134.065H116.978V148.877H108.728ZM116.978 127.58H124.108C128.206 127.58 130.664 125.173 130.664 121.151V121.095C130.664 117.187 128.069 114.694 123.999 114.694H116.978V127.58ZM148.039 114.609C145.635 114.609 143.777 112.655 143.777 110.305C143.777 107.954 145.635 106 148.039 106C150.443 106 152.3 107.954 152.3 110.305C152.3 112.655 150.443 114.609 148.039 114.609ZM144.05 148.877V118.518H152.027V148.877H144.05ZM174.729 149.5C170.522 149.5 167.298 147.291 165.714 143.694H165.55V148.877H157.573V108.011H165.55V123.785H165.714C167.325 120.104 170.576 117.895 174.756 117.895C182.104 117.895 186.667 123.785 186.667 133.669V133.697C186.667 143.553 182.104 149.5 174.729 149.5ZM172.079 142.646C176.04 142.646 178.553 139.22 178.553 133.697V133.669C178.553 128.118 176.04 124.748 172.079 124.748C168.227 124.748 165.55 128.203 165.55 133.669V133.697C165.55 139.191 168.2 142.646 172.079 142.646ZM204.096 149.5C195.135 149.5 189.699 143.468 189.699 133.754V133.726C189.699 124.068 195.19 117.895 203.768 117.895C212.346 117.895 217.727 123.927 217.727 133.103V135.651H197.567C197.649 140.494 200.189 143.326 204.26 143.326C207.538 143.326 209.532 141.457 210.106 139.758L210.16 139.588H217.482L217.4 139.899C216.498 144.374 212.455 149.5 204.096 149.5ZM203.904 124.068C200.626 124.068 198.168 126.334 197.649 130.44H210.078C209.587 126.249 207.21 124.068 203.904 124.068ZM226.005 114.609C223.601 114.609 221.743 112.655 221.743 110.305C221.743 107.954 223.601 106 226.005 106C228.409 106 230.266 107.954 230.266 110.305C230.266 112.655 228.409 114.609 226.005 114.609ZM222.016 148.877V118.518H229.993V148.877H222.016ZM235.348 148.877V118.518H243.325V123.813H243.488C244.363 120.075 246.739 117.895 250.154 117.895C251.028 117.895 251.848 118.036 252.449 118.206V125.484C251.793 125.201 250.7 125.031 249.553 125.031C245.619 125.031 243.325 127.467 243.325 131.885V148.877H235.348ZM268.184 149.5C259.278 149.5 253.678 143.581 253.678 133.697V133.641C253.678 123.87 259.415 117.895 268.157 117.895C276.926 117.895 282.69 123.813 282.69 133.641V133.697C282.69 143.609 277.035 149.5 268.184 149.5ZM268.211 143.015C272.091 143.015 274.577 139.616 274.577 133.697V133.641C274.577 127.778 272.036 124.38 268.157 124.38C264.305 124.38 261.792 127.778 261.792 133.641V133.697C261.792 139.645 264.278 143.015 268.211 143.015Z"/>
</mask>
<path d="M10 148.877V108.011H25.0523C36.8538 108.011 43.8472 115.289 43.8472 128.231V128.288C43.8472 141.259 36.8811 148.877 25.0523 148.877H10ZM18.2501 141.797H24.0689C31.4448 141.797 35.4332 137.152 35.4332 128.316V128.26C35.4332 119.735 31.3082 115.062 24.0689 115.062H18.2501V141.797ZM61.8226 149.5C52.8622 149.5 47.4259 143.468 47.4259 133.754V133.726C47.4259 124.068 52.9168 117.895 61.4948 117.895C70.0727 117.895 75.4543 123.927 75.4543 133.103V135.651H55.2935C55.3755 140.494 57.9161 143.326 61.9865 143.326C65.2647 143.326 67.2589 141.457 67.8326 139.758L67.8872 139.588H75.2085L75.1265 139.899C74.225 144.374 70.1819 149.5 61.8226 149.5ZM61.6313 124.068C58.3532 124.068 55.8945 126.334 55.3755 130.44H67.8053C67.3135 126.249 64.9368 124.068 61.6313 124.068ZM86.2177 148.877L76.0827 118.518H84.6059L90.7252 141.57H90.8891L96.9264 118.518H105.258L95.2054 148.877H86.2177ZM108.728 148.877V108.011H125.01C133.861 108.011 139.106 112.882 139.106 121.095V121.151C139.106 126.532 136.347 131.007 131.976 132.791L140.28 148.877H130.938L123.589 134.065H116.978V148.877H108.728ZM116.978 127.58H124.108C128.206 127.58 130.664 125.173 130.664 121.151V121.095C130.664 117.187 128.069 114.694 123.999 114.694H116.978V127.58ZM148.039 114.609C145.635 114.609 143.777 112.655 143.777 110.305C143.777 107.954 145.635 106 148.039 106C150.443 106 152.3 107.954 152.3 110.305C152.3 112.655 150.443 114.609 148.039 114.609ZM144.05 148.877V118.518H152.027V148.877H144.05ZM174.729 149.5C170.522 149.5 167.298 147.291 165.714 143.694H165.55V148.877H157.573V108.011H165.55V123.785H165.714C167.325 120.104 170.576 117.895 174.756 117.895C182.104 117.895 186.667 123.785 186.667 133.669V133.697C186.667 143.553 182.104 149.5 174.729 149.5ZM172.079 142.646C176.04 142.646 178.553 139.22 178.553 133.697V133.669C178.553 128.118 176.04 124.748 172.079 124.748C168.227 124.748 165.55 128.203 165.55 133.669V133.697C165.55 139.191 168.2 142.646 172.079 142.646ZM204.096 149.5C195.135 149.5 189.699 143.468 189.699 133.754V133.726C189.699 124.068 195.19 117.895 203.768 117.895C212.346 117.895 217.727 123.927 217.727 133.103V135.651H197.567C197.649 140.494 200.189 143.326 204.26 143.326C207.538 143.326 209.532 141.457 210.106 139.758L210.16 139.588H217.482L217.4 139.899C216.498 144.374 212.455 149.5 204.096 149.5ZM203.904 124.068C200.626 124.068 198.168 126.334 197.649 130.44H210.078C209.587 126.249 207.21 124.068 203.904 124.068ZM226.005 114.609C223.601 114.609 221.743 112.655 221.743 110.305C221.743 107.954 223.601 106 226.005 106C228.409 106 230.266 107.954 230.266 110.305C230.266 112.655 228.409 114.609 226.005 114.609ZM222.016 148.877V118.518H229.993V148.877H222.016ZM235.348 148.877V118.518H243.325V123.813H243.488C244.363 120.075 246.739 117.895 250.154 117.895C251.028 117.895 251.848 118.036 252.449 118.206V125.484C251.793 125.201 250.7 125.031 249.553 125.031C245.619 125.031 243.325 127.467 243.325 131.885V148.877H235.348ZM268.184 149.5C259.278 149.5 253.678 143.581 253.678 133.697V133.641C253.678 123.87 259.415 117.895 268.157 117.895C276.926 117.895 282.69 123.813 282.69 133.641V133.697C282.69 143.609 277.035 149.5 268.184 149.5ZM268.211 143.015C272.091 143.015 274.577 139.616 274.577 133.697V133.641C274.577 127.778 272.036 124.38 268.157 124.38C264.305 124.38 261.792 127.778 261.792 133.641V133.697C261.792 139.645 264.278 143.015 268.211 143.015Z" stroke="url(#paint1_linear_2049_95)" stroke-width="2" mask="url(#path-2-outside-1_2049_95)"/>
<mask id="path-3-outside-2_2049_95" maskUnits="userSpaceOnUse" x="14" y="128.5" width="265" height="46" fill="black">
<rect fill="white" x="14" y="128.5" width="265" height="46"/>
<path d="M15 172.377V131.511H29.5003C40.869 131.511 47.606 138.789 47.606 151.731V151.788C47.606 164.759 40.8953 172.377 29.5003 172.377H15ZM22.9475 165.297H28.5529C35.6584 165.297 39.5005 160.652 39.5005 151.816V151.76C39.5005 143.235 35.5268 138.562 28.5529 138.562H22.9475V165.297ZM64.9222 173C56.2904 173 51.0534 166.968 51.0534 157.254V157.226C51.0534 147.568 56.343 141.395 64.6064 141.395C72.8697 141.395 78.054 147.427 78.054 156.603V159.151H58.6325C58.7115 163.994 61.1589 166.826 65.0801 166.826C68.238 166.826 70.1591 164.957 70.7118 163.258L70.7644 163.088H77.8172L77.7382 163.399C76.8698 167.874 72.975 173 64.9222 173ZM64.7379 147.568C61.58 147.568 59.2115 149.834 58.7115 153.94H70.6854C70.2117 149.749 67.9222 147.568 64.7379 147.568ZM88.4227 172.377L78.6593 142.018H86.87L92.7649 165.07H92.9228L98.7387 142.018H106.765L97.0808 172.377H88.4227ZM110.107 172.377V131.511H125.792C134.318 131.511 139.371 136.382 139.371 144.595V144.651C139.371 150.032 136.713 154.507 132.503 156.291L140.503 172.377H131.503L124.423 157.565H118.055V172.377H110.107ZM118.055 151.08H124.923C128.871 151.08 131.239 148.673 131.239 144.651V144.595C131.239 140.687 128.739 138.194 124.818 138.194H118.055V151.08ZM147.977 138.109C145.661 138.109 143.871 136.155 143.871 133.805C143.871 131.454 145.661 129.5 147.977 129.5C150.292 129.5 152.082 131.454 152.082 133.805C152.082 136.155 150.292 138.109 147.977 138.109ZM144.134 172.377V142.018H151.819V172.377H144.134ZM173.688 173C169.635 173 166.53 170.791 165.003 167.194H164.845V172.377H157.161V131.511H164.845V147.285H165.003C166.556 143.604 169.688 141.395 173.714 141.395C180.793 141.395 185.188 147.285 185.188 157.169V157.197C185.188 167.053 180.793 173 173.688 173ZM171.135 166.146C174.951 166.146 177.372 162.72 177.372 157.197V157.169C177.372 151.618 174.951 148.248 171.135 148.248C167.424 148.248 164.845 151.703 164.845 157.169V157.197C164.845 162.691 167.398 166.146 171.135 166.146ZM201.978 173C193.346 173 188.109 166.968 188.109 157.254V157.226C188.109 147.568 193.399 141.395 201.662 141.395C209.925 141.395 215.11 147.427 215.11 156.603V159.151H195.688C195.767 163.994 198.215 166.826 202.136 166.826C205.294 166.826 207.215 164.957 207.767 163.258L207.82 163.088H214.873L214.794 163.399C213.925 167.874 210.031 173 201.978 173ZM201.794 147.568C198.636 147.568 196.267 149.834 195.767 153.94H207.741C207.267 149.749 204.978 147.568 201.794 147.568ZM223.084 138.109C220.768 138.109 218.978 136.155 218.978 133.805C218.978 131.454 220.768 129.5 223.084 129.5C225.399 129.5 227.189 131.454 227.189 133.805C227.189 136.155 225.399 138.109 223.084 138.109ZM219.241 172.377V142.018H226.926V172.377H219.241ZM232.084 172.377V142.018H239.768V147.313H239.926C240.768 143.575 243.058 141.395 246.347 141.395C247.189 141.395 247.979 141.536 248.558 141.706V148.984C247.926 148.701 246.874 148.531 245.768 148.531C241.979 148.531 239.768 150.967 239.768 155.385V172.377H232.084ZM263.716 173C255.137 173 249.742 167.081 249.742 157.197V157.141C249.742 147.37 255.268 141.395 263.69 141.395C272.137 141.395 277.69 147.313 277.69 157.141V157.197C277.69 167.109 272.243 173 263.716 173ZM263.742 166.515C267.479 166.515 269.874 163.116 269.874 157.197V157.141C269.874 151.278 267.427 147.88 263.69 147.88C259.979 147.88 257.558 151.278 257.558 157.141V157.197C257.558 163.145 259.953 166.515 263.742 166.515Z"/>
</mask>
<path d="M15 172.377V131.511H29.5003C40.869 131.511 47.606 138.789 47.606 151.731V151.788C47.606 164.759 40.8953 172.377 29.5003 172.377H15ZM22.9475 165.297H28.5529C35.6584 165.297 39.5005 160.652 39.5005 151.816V151.76C39.5005 143.235 35.5268 138.562 28.5529 138.562H22.9475V165.297ZM64.9222 173C56.2904 173 51.0534 166.968 51.0534 157.254V157.226C51.0534 147.568 56.343 141.395 64.6064 141.395C72.8697 141.395 78.054 147.427 78.054 156.603V159.151H58.6325C58.7115 163.994 61.1589 166.826 65.0801 166.826C68.238 166.826 70.1591 164.957 70.7118 163.258L70.7644 163.088H77.8172L77.7382 163.399C76.8698 167.874 72.975 173 64.9222 173ZM64.7379 147.568C61.58 147.568 59.2115 149.834 58.7115 153.94H70.6854C70.2117 149.749 67.9222 147.568 64.7379 147.568ZM88.4227 172.377L78.6593 142.018H86.87L92.7649 165.07H92.9228L98.7387 142.018H106.765L97.0808 172.377H88.4227ZM110.107 172.377V131.511H125.792C134.318 131.511 139.371 136.382 139.371 144.595V144.651C139.371 150.032 136.713 154.507 132.503 156.291L140.503 172.377H131.503L124.423 157.565H118.055V172.377H110.107ZM118.055 151.08H124.923C128.871 151.08 131.239 148.673 131.239 144.651V144.595C131.239 140.687 128.739 138.194 124.818 138.194H118.055V151.08ZM147.977 138.109C145.661 138.109 143.871 136.155 143.871 133.805C143.871 131.454 145.661 129.5 147.977 129.5C150.292 129.5 152.082 131.454 152.082 133.805C152.082 136.155 150.292 138.109 147.977 138.109ZM144.134 172.377V142.018H151.819V172.377H144.134ZM173.688 173C169.635 173 166.53 170.791 165.003 167.194H164.845V172.377H157.161V131.511H164.845V147.285H165.003C166.556 143.604 169.688 141.395 173.714 141.395C180.793 141.395 185.188 147.285 185.188 157.169V157.197C185.188 167.053 180.793 173 173.688 173ZM171.135 166.146C174.951 166.146 177.372 162.72 177.372 157.197V157.169C177.372 151.618 174.951 148.248 171.135 148.248C167.424 148.248 164.845 151.703 164.845 157.169V157.197C164.845 162.691 167.398 166.146 171.135 166.146ZM201.978 173C193.346 173 188.109 166.968 188.109 157.254V157.226C188.109 147.568 193.399 141.395 201.662 141.395C209.925 141.395 215.11 147.427 215.11 156.603V159.151H195.688C195.767 163.994 198.215 166.826 202.136 166.826C205.294 166.826 207.215 164.957 207.767 163.258L207.82 163.088H214.873L214.794 163.399C213.925 167.874 210.031 173 201.978 173ZM201.794 147.568C198.636 147.568 196.267 149.834 195.767 153.94H207.741C207.267 149.749 204.978 147.568 201.794 147.568ZM223.084 138.109C220.768 138.109 218.978 136.155 218.978 133.805C218.978 131.454 220.768 129.5 223.084 129.5C225.399 129.5 227.189 131.454 227.189 133.805C227.189 136.155 225.399 138.109 223.084 138.109ZM219.241 172.377V142.018H226.926V172.377H219.241ZM232.084 172.377V142.018H239.768V147.313H239.926C240.768 143.575 243.058 141.395 246.347 141.395C247.189 141.395 247.979 141.536 248.558 141.706V148.984C247.926 148.701 246.874 148.531 245.768 148.531C241.979 148.531 239.768 150.967 239.768 155.385V172.377H232.084ZM263.716 173C255.137 173 249.742 167.081 249.742 157.197V157.141C249.742 147.37 255.268 141.395 263.69 141.395C272.137 141.395 277.69 147.313 277.69 157.141V157.197C277.69 167.109 272.243 173 263.716 173ZM263.742 166.515C267.479 166.515 269.874 163.116 269.874 157.197V157.141C269.874 151.278 267.427 147.88 263.69 147.88C259.979 147.88 257.558 151.278 257.558 157.141V157.197C257.558 163.145 259.953 166.515 263.742 166.515Z" stroke="url(#paint2_linear_2049_95)" stroke-width="2" mask="url(#path-3-outside-2_2049_95)"/>
<path d="M5.55957 89H4.55957V90H5.55957V89ZM5.55957 48.1338V47.1338H4.55957V48.1338H5.55957ZM14.1123 81.9199H13.1123V82.9199H14.1123V81.9199ZM14.1123 55.1855V54.1855H13.1123V55.1855H14.1123ZM6.55957 89V48.1338H4.55957V89H6.55957ZM5.55957 49.1338H21.1641V47.1338H5.55957V49.1338ZM21.1641 49.1338C27.0824 49.1338 31.6681 50.8898 34.7771 54.0878C37.8898 57.2895 39.6484 62.0661 39.6484 68.3545H41.6484C41.6484 61.7005 39.7821 56.3668 36.2111 52.6937C32.6366 49.0169 27.4801 47.1338 21.1641 47.1338V49.1338ZM39.6484 68.3545V68.4111H41.6484V68.3545H39.6484ZM39.6484 68.4111C39.6484 74.7158 37.8954 79.5901 34.7786 82.8821C31.6687 86.1667 27.0841 88 21.1641 88V90C27.5067 90 32.6643 88.0242 36.2309 84.2571C39.7906 80.4973 41.6484 75.0771 41.6484 68.4111H39.6484ZM21.1641 88H5.55957V90H21.1641V88ZM14.1123 82.9199H20.1445V80.9199H14.1123V82.9199ZM20.1445 82.9199C24.1759 82.9199 27.4278 81.6882 29.654 79.153C31.8609 76.6398 32.9258 72.9967 32.9258 68.4395H30.9258C30.9258 72.7182 29.9233 75.8153 28.1512 77.8333C26.3984 79.8294 23.7596 80.9199 20.1445 80.9199V82.9199ZM32.9258 68.4395V68.3828H30.9258V68.4395H32.9258ZM32.9258 68.3828C32.9258 63.9652 31.8177 60.3946 29.5933 57.9191C27.3543 55.4274 24.1109 54.1855 20.1445 54.1855V56.1855C23.6831 56.1855 26.3303 57.2801 28.1057 59.2559C29.8956 61.2479 30.9258 64.276 30.9258 68.3828H32.9258ZM20.1445 54.1855H14.1123V56.1855H20.1445V54.1855ZM13.1123 55.1855V81.9199H15.1123V55.1855H13.1123ZM73.415 75.7744V76.7744H74.415V75.7744H73.415ZM52.5146 75.7744V74.7744H51.497L51.5148 75.792L52.5146 75.7744ZM65.5137 79.8809L66.4575 80.2112L66.46 80.2042L66.4624 80.1971L65.5137 79.8809ZM65.5703 79.7109V78.7109H64.8496L64.6216 79.3947L65.5703 79.7109ZM73.1602 79.7109L74.1249 79.9741L74.4694 78.7109H73.1602V79.7109ZM73.0752 80.0225L72.1104 79.7593L72.1025 79.7885L72.0963 79.818L73.0752 80.0225ZM52.5996 70.5635L51.6081 70.4336L51.46 71.5635H52.5996V70.5635ZM65.4854 70.5635V71.5635H66.6143L66.478 70.4427L65.4854 70.5635ZM59.2832 88.623C54.862 88.623 51.4128 87.1936 49.0645 84.7062C46.7096 82.2118 45.3584 78.5433 45.3584 73.877H43.3584C43.3584 78.9244 44.8251 83.129 47.6103 86.0792C50.4021 89.0364 54.4154 90.623 59.2832 90.623V88.623ZM45.3584 73.877V73.8486H43.3584V73.877H45.3584ZM45.3584 73.8486C45.3584 69.214 46.7221 65.5172 49.0515 62.9893C51.373 60.47 54.7392 59.0176 58.9434 59.0176V57.0176C54.2549 57.0176 50.3286 58.652 47.5808 61.634C44.8409 64.6073 43.3584 68.826 43.3584 73.8486H45.3584ZM58.9434 59.0176C63.1546 59.0176 66.4952 60.4397 68.7867 62.8671C71.0843 65.301 72.415 68.8395 72.415 73.2256H74.415C74.415 68.4359 72.9562 64.3704 70.2411 61.4942C67.5199 58.6116 63.6247 57.0176 58.9434 57.0176V59.0176ZM72.415 73.2256V75.7744H74.415V73.2256H72.415ZM73.415 74.7744H52.5146V76.7744H73.415V74.7744ZM51.5148 75.792C51.5603 78.3842 52.2911 80.5613 53.6941 82.1013C55.1094 83.6547 57.1084 84.4492 59.4531 84.4492V82.4492C57.5781 82.4492 56.1504 81.8277 55.1726 80.7544C54.1826 79.6677 53.554 78.0074 53.5145 75.7569L51.5148 75.792ZM59.4531 84.4492C63.2308 84.4492 65.7079 82.353 66.4575 80.2112L64.5698 79.5505C64.13 80.8071 62.4724 82.4492 59.4531 82.4492V84.4492ZM66.4624 80.1971L66.519 80.0272L64.6216 79.3947L64.565 79.5646L66.4624 80.1971ZM65.5703 80.7109H73.1602V78.7109H65.5703V80.7109ZM72.1954 79.4478L72.1104 79.7593L74.04 80.2856L74.1249 79.9741L72.1954 79.4478ZM72.0963 79.818C71.2572 83.8354 67.4694 88.623 59.2832 88.623V90.623C68.4291 90.623 73.024 85.1587 74.0541 80.2269L72.0963 79.818ZM59.085 63.1914C57.1535 63.1914 55.4114 63.8404 54.0786 65.1147C52.752 66.3831 51.9003 68.2032 51.6081 70.4336L53.5911 70.6934C53.837 68.8173 54.5287 67.4514 55.4607 66.5603C56.3865 65.6752 57.618 65.1914 59.085 65.1914V63.1914ZM52.5996 71.5635H65.4854V69.5635H52.5996V71.5635ZM66.478 70.4427C66.2027 68.179 65.3854 66.352 64.0734 65.086C62.7534 63.8125 61.0196 63.1914 59.085 63.1914V65.1914C60.5771 65.1914 61.7886 65.6607 62.6847 66.5253C63.5887 67.3975 64.2582 68.7566 64.4927 70.6842L66.478 70.4427ZM84.5732 89L83.6282 89.3271L83.8611 90H84.5732V89ZM74.0664 58.6406V57.6406H72.6621L73.1214 58.9677L74.0664 58.6406ZM82.9023 58.6406L83.8665 58.3753L83.6643 57.6406H82.9023V58.6406ZM89.2461 81.6934L88.2819 81.9587L88.4841 82.6934H89.2461V81.6934ZM89.416 81.6934V82.6934H90.1807L90.3811 81.9554L89.416 81.6934ZM95.6748 58.6406V57.6406H94.9101L94.7097 58.3786L95.6748 58.6406ZM104.312 58.6406L105.258 58.9653L105.713 57.6406H104.312V58.6406ZM93.8906 89V90H94.6046L94.8364 89.3247L93.8906 89ZM85.5182 88.6729L75.0114 58.3136L73.1214 58.9677L83.6282 89.3271L85.5182 88.6729ZM74.0664 59.6406H82.9023V57.6406H74.0664V59.6406ZM81.9382 58.9059L88.2819 81.9587L90.2103 81.428L83.8665 58.3753L81.9382 58.9059ZM89.2461 82.6934H89.416V80.6934H89.2461V82.6934ZM90.3811 81.9554L96.6399 58.9026L94.7097 58.3786L88.451 81.4313L90.3811 81.9554ZM95.6748 59.6406H104.312V57.6406H95.6748V59.6406ZM103.367 58.3159L92.9448 88.6753L94.8364 89.3247L105.258 58.9653L103.367 58.3159ZM93.8906 88H84.5732V90H93.8906V88ZM107.909 89H106.909V90H107.909V89ZM107.909 48.1338V47.1338H106.909V48.1338H107.909ZM132.01 72.9141L131.643 71.9836L130.598 72.3953L131.128 73.3859L132.01 72.9141ZM140.619 89V90H142.289L141.501 88.5281L140.619 89ZM130.934 89L130.044 89.4574L130.323 90H130.934V89ZM123.315 74.1885L124.205 73.7311L123.926 73.1885H123.315V74.1885ZM116.462 74.1885V73.1885H115.462V74.1885H116.462ZM116.462 89V90H117.462V89H116.462ZM116.462 67.7031H115.462V68.7031H116.462V67.7031ZM116.462 54.8174V53.8174H115.462V54.8174H116.462ZM108.909 89V48.1338H106.909V89H108.909ZM107.909 49.1338H124.788V47.1338H107.909V49.1338ZM124.788 49.1338C129.207 49.1338 132.596 50.306 134.869 52.3409C137.126 54.3627 138.401 57.3423 138.401 61.2178H140.401C140.401 56.8804 138.958 53.318 136.203 50.851C133.462 48.3971 129.545 47.1338 124.788 47.1338V49.1338ZM138.401 61.2178V61.2744H140.401V61.2178H138.401ZM138.401 61.2744C138.401 66.2959 135.747 70.368 131.643 71.9836L132.376 73.8445C137.335 71.8918 140.401 67.0146 140.401 61.2744H138.401ZM131.128 73.3859L139.737 89.4719L141.501 88.5281L132.891 72.4422L131.128 73.3859ZM140.619 88H130.934V90H140.619V88ZM131.823 88.5426L124.205 73.7311L122.426 74.6459L130.044 89.4574L131.823 88.5426ZM123.315 73.1885H116.462V75.1885H123.315V73.1885ZM115.462 74.1885V89H117.462V74.1885H115.462ZM116.462 88H107.909V90H116.462V88ZM116.462 68.7031H123.854V66.7031H116.462V68.7031ZM123.854 68.7031C126.162 68.7031 128.132 68.0467 129.532 66.7235C130.939 65.3935 131.65 63.5019 131.65 61.2744H129.65C129.65 63.0685 129.088 64.3912 128.158 65.2702C127.221 66.156 125.793 66.7031 123.854 66.7031V68.7031ZM131.65 61.2744V61.2178H129.65V61.2744H131.65ZM131.65 61.2178C131.65 59.0241 130.889 57.1441 129.457 55.8184C128.034 54.5002 126.045 53.8174 123.74 53.8174V55.8174C125.656 55.8174 127.121 56.3807 128.098 57.2856C129.067 58.183 129.65 59.5033 129.65 61.2178H131.65ZM123.74 53.8174H116.462V55.8174H123.74V53.8174ZM115.462 54.8174V67.7031H117.462V54.8174H115.462ZM144.527 89H143.527V90H144.527V89ZM144.527 58.6406V57.6406H143.527V58.6406H144.527ZM152.797 58.6406H153.797V57.6406H152.797V58.6406ZM152.797 89V90H153.797V89H152.797ZM148.662 53.7324C146.709 53.7324 145.244 52.2134 145.244 50.4277H143.244C143.244 53.3433 145.63 55.7324 148.662 55.7324V53.7324ZM145.244 50.4277C145.244 48.6421 146.709 47.123 148.662 47.123V45.123C145.63 45.123 143.244 47.5122 143.244 50.4277H145.244ZM148.662 47.123C150.615 47.123 152.08 48.6421 152.08 50.4277H154.08C154.08 47.5122 151.694 45.123 148.662 45.123V47.123ZM152.08 50.4277C152.08 52.2134 150.615 53.7324 148.662 53.7324V55.7324C151.694 55.7324 154.08 53.3433 154.08 50.4277H152.08ZM145.527 89V58.6406H143.527V89H145.527ZM144.527 59.6406H152.797V57.6406H144.527V59.6406ZM151.797 58.6406V89H153.797V58.6406H151.797ZM152.797 88H144.527V90H152.797V88ZM166.985 83.8174L167.895 83.402L167.628 82.8174H166.985V83.8174ZM166.815 83.8174V82.8174H165.815V83.8174H166.815ZM166.815 89V90H167.815V89H166.815ZM158.546 89H157.546V90H158.546V89ZM158.546 48.1338V47.1338H157.546V48.1338H158.546ZM166.815 48.1338H167.815V47.1338H166.815V48.1338ZM166.815 63.9082H165.815V64.9082H166.815V63.9082ZM166.985 63.9082V64.9082H167.63L167.896 64.3215L166.985 63.9082ZM176.331 88.623C172.349 88.623 169.37 86.6314 167.895 83.402L166.076 84.2328C167.886 88.1968 171.591 90.623 176.331 90.623V88.623ZM166.985 82.8174H166.815V84.8174H166.985V82.8174ZM165.815 83.8174V89H167.815V83.8174H165.815ZM166.815 88H158.546V90H166.815V88ZM159.546 89V48.1338H157.546V89H159.546ZM158.546 49.1338H166.815V47.1338H158.546V49.1338ZM165.815 48.1338V63.9082H167.815V48.1338H165.815ZM166.815 64.9082H166.985V62.9082H166.815V64.9082ZM167.896 64.3215C169.401 61.0061 172.409 59.0176 176.359 59.0176V57.0176C171.644 57.0176 167.912 59.4471 166.075 63.4949L167.896 64.3215ZM176.359 59.0176C179.885 59.0176 182.673 60.3671 184.605 62.8174C186.558 65.296 187.707 68.996 187.707 73.792H189.707C189.707 68.7042 188.491 64.517 186.175 61.5793C183.837 58.6133 180.452 57.0176 176.359 57.0176V59.0176ZM187.707 73.792V73.8203H189.707V73.792H187.707ZM187.707 73.8203C187.707 78.6016 186.559 82.3095 184.6 84.7993C182.665 87.2609 179.869 88.623 176.331 88.623V90.623C180.44 90.623 183.832 89.0116 186.173 86.0357C188.491 83.088 189.707 78.8945 189.707 73.8203H187.707ZM173.584 83.7695C175.948 83.7695 177.923 82.768 179.279 80.9673C180.612 79.1962 181.296 76.725 181.296 73.8203H179.296C179.296 76.4381 178.677 78.4415 177.681 79.7644C176.707 81.0577 175.327 81.7695 173.584 81.7695V83.7695ZM181.296 73.8203V73.792H179.296V73.8203H181.296ZM181.296 73.792C181.296 70.8742 180.613 68.4081 179.277 66.6459C177.918 64.8537 175.942 63.8711 173.584 63.8711V65.8711C175.332 65.8711 176.712 66.5735 177.683 67.8541C178.676 69.1647 179.296 71.159 179.296 73.792H181.296ZM173.584 63.8711C171.27 63.8711 169.288 64.8848 167.91 66.6712C166.549 68.4365 165.815 70.8999 165.815 73.792H167.815C167.815 71.2183 168.469 69.2212 169.494 67.8925C170.503 66.5849 171.905 65.8711 173.584 65.8711V63.8711ZM165.815 73.792V73.8203H167.815V73.792H165.815ZM165.815 73.8203C165.815 76.7232 166.54 79.1938 167.898 80.9639C169.274 82.7567 171.257 83.7695 173.584 83.7695V81.7695C171.89 81.7695 170.489 81.0548 169.485 79.7466C168.464 78.4156 167.815 76.4115 167.815 73.8203H165.815ZM220.907 75.7744V76.7744H221.907V75.7744H220.907ZM200.007 75.7744V74.7744H198.989L199.007 75.792L200.007 75.7744ZM213.006 79.8809L213.95 80.2112L213.952 80.2042L213.955 80.1971L213.006 79.8809ZM213.062 79.7109V78.7109H212.342L212.114 79.3947L213.062 79.7109ZM220.652 79.7109L221.617 79.9741L221.962 78.7109H220.652V79.7109ZM220.567 80.0225L219.603 79.7593L219.595 79.7885L219.589 79.818L220.567 80.0225ZM200.092 70.5635L199.1 70.4336L198.952 71.5635H200.092V70.5635ZM212.978 70.5635V71.5635H214.107L213.97 70.4427L212.978 70.5635ZM206.775 88.623C202.354 88.623 198.905 87.1936 196.557 84.7062C194.202 82.2118 192.851 78.5433 192.851 73.877H190.851C190.851 78.9244 192.317 83.129 195.102 86.0792C197.894 89.0364 201.908 90.623 206.775 90.623V88.623ZM192.851 73.877V73.8486H190.851V73.877H192.851ZM192.851 73.8486C192.851 69.214 194.214 65.5172 196.544 62.9893C198.865 60.47 202.231 59.0176 206.436 59.0176V57.0176C201.747 57.0176 197.821 58.652 195.073 61.634C192.333 64.6073 190.851 68.826 190.851 73.8486H192.851ZM206.436 59.0176C210.647 59.0176 213.987 60.4397 216.279 62.8671C218.577 65.301 219.907 68.8395 219.907 73.2256H221.907C221.907 68.4359 220.448 64.3704 217.733 61.4942C215.012 58.6116 211.117 57.0176 206.436 57.0176V59.0176ZM219.907 73.2256V75.7744H221.907V73.2256H219.907ZM220.907 74.7744H200.007V76.7744H220.907V74.7744ZM199.007 75.792C199.052 78.3842 199.783 80.5613 201.186 82.1013C202.602 83.6547 204.601 84.4492 206.945 84.4492V82.4492C205.07 82.4492 203.643 81.8277 202.665 80.7544C201.675 79.6677 201.046 78.0074 201.007 75.7569L199.007 75.792ZM206.945 84.4492C210.723 84.4492 213.2 82.353 213.95 80.2112L212.062 79.5505C211.622 80.8071 209.965 82.4492 206.945 82.4492V84.4492ZM213.955 80.1971L214.011 80.0272L212.114 79.3947L212.057 79.5646L213.955 80.1971ZM213.062 80.7109H220.652V78.7109H213.062V80.7109ZM219.688 79.4478L219.603 79.7593L221.532 80.2856L221.617 79.9741L219.688 79.4478ZM219.589 79.818C218.749 83.8354 214.962 88.623 206.775 88.623V90.623C215.921 90.623 220.516 85.1587 221.546 80.2269L219.589 79.818ZM206.577 63.1914C204.646 63.1914 202.904 63.8404 201.571 65.1147C200.244 66.3831 199.393 68.2032 199.1 70.4336L201.083 70.6934C201.329 68.8173 202.021 67.4514 202.953 66.5603C203.879 65.6752 205.11 65.1914 206.577 65.1914V63.1914ZM200.092 71.5635H212.978V69.5635H200.092V71.5635ZM213.97 70.4427C213.695 68.179 212.878 66.352 211.566 65.086C210.246 63.8125 208.512 63.1914 206.577 63.1914V65.1914C208.069 65.1914 209.281 65.6607 210.177 66.5253C211.081 67.3975 211.75 68.7566 211.985 70.6842L213.97 70.4427ZM225.354 89H224.354V90H225.354V89ZM225.354 58.6406V57.6406H224.354V58.6406H225.354ZM233.623 58.6406H234.623V57.6406H233.623V58.6406ZM233.623 89V90H234.623V89H233.623ZM229.488 53.7324C227.536 53.7324 226.07 52.2134 226.07 50.4277H224.07C224.07 53.3433 226.457 55.7324 229.488 55.7324V53.7324ZM226.07 50.4277C226.07 48.6421 227.536 47.123 229.488 47.123V45.123C226.457 45.123 224.07 47.5122 224.07 50.4277H226.07ZM229.488 47.123C231.441 47.123 232.906 48.6421 232.906 50.4277H234.906C234.906 47.5122 232.52 45.123 229.488 45.123V47.123ZM232.906 50.4277C232.906 52.2134 231.441 53.7324 229.488 53.7324V55.7324C232.52 55.7324 234.906 53.3433 234.906 50.4277H232.906ZM226.354 89V58.6406H224.354V89H226.354ZM225.354 59.6406H233.623V57.6406H225.354V59.6406ZM232.623 58.6406V89H234.623V58.6406H232.623ZM233.623 88H225.354V90H233.623V88ZM239.174 89H238.174V90H239.174V89ZM239.174 58.6406V57.6406H238.174V58.6406H239.174ZM247.443 58.6406H248.443V57.6406H247.443V58.6406ZM247.443 63.9365H246.443V64.9365H247.443V63.9365ZM247.613 63.9365V64.9365H248.4L248.585 64.1721L247.613 63.9365ZM256.902 58.3291H257.902V57.5653L257.165 57.3643L256.902 58.3291ZM256.902 65.6074L256.518 66.5305L257.902 67.1074V65.6074H256.902ZM247.443 89V90H248.443V89H247.443ZM240.174 89V58.6406H238.174V89H240.174ZM239.174 59.6406H247.443V57.6406H239.174V59.6406ZM246.443 58.6406V63.9365H248.443V58.6406H246.443ZM247.443 64.9365H247.613V62.9365H247.443V64.9365ZM248.585 64.1721C249 62.4592 249.753 61.1798 250.734 60.3319C251.707 59.4912 252.97 59.0176 254.523 59.0176V57.0176C252.537 57.0176 250.797 57.6343 249.427 58.8185C248.065 59.9955 247.132 61.6756 246.641 63.7009L248.585 64.1721ZM254.523 59.0176C255.333 59.0176 256.094 59.145 256.639 59.2939L257.165 57.3643C256.465 57.1733 255.527 57.0176 254.523 57.0176V59.0176ZM255.902 58.3291V65.6074H257.902V58.3291H255.902ZM257.287 64.6843C256.433 64.3283 255.149 64.1543 253.9 64.1543V66.1543C255.031 66.1543 256.013 66.3201 256.518 66.5305L257.287 64.6843ZM253.9 64.1543C251.661 64.1543 249.756 64.828 248.418 66.2351C247.086 67.6351 246.443 69.6261 246.443 72.0078H248.443C248.443 69.9715 248.99 68.5358 249.867 67.6135C250.738 66.6984 252.062 66.1543 253.9 66.1543V64.1543ZM246.443 72.0078V89H248.443V72.0078H246.443ZM247.443 88H239.174V90H247.443V88ZM273.215 88.623C268.817 88.623 265.338 87.2188 262.955 84.7357C260.568 82.2481 259.177 78.5678 259.177 73.8203H257.177C257.177 78.9566 258.688 83.1777 261.512 86.1205C264.34 89.0678 268.38 90.623 273.215 90.623V88.623ZM259.177 73.8203V73.7637H257.177V73.8203H259.177ZM259.177 73.7637C259.177 69.082 260.598 65.4134 263.003 62.921C265.404 60.4318 268.881 59.0176 273.187 59.0176V57.0176C268.43 57.0176 264.401 58.5911 261.564 61.5324C258.729 64.4704 257.177 68.6748 257.177 73.7637H259.177ZM273.187 59.0176C277.51 59.0176 281.001 60.4201 283.411 62.9022C285.825 65.3867 287.253 69.0537 287.253 73.7637H289.253C289.253 68.6465 287.694 64.4405 284.846 61.5087C281.996 58.5746 277.954 57.0176 273.187 57.0176V59.0176ZM287.253 73.7637V73.8203H289.253V73.7637H287.253ZM287.253 73.8203C287.253 78.58 285.849 82.2602 283.455 84.7449C281.064 87.2258 277.584 88.623 273.215 88.623V90.623C278.021 90.623 282.06 89.075 284.895 86.1325C287.726 83.1939 289.253 78.9727 289.253 73.8203H287.253ZM273.243 84.1377C275.572 84.1377 277.525 83.1359 278.861 81.2838C280.172 79.4678 280.842 76.908 280.842 73.8203H278.842C278.842 76.6516 278.223 78.7505 277.24 80.1134C276.282 81.4403 274.935 82.1377 273.243 82.1377V84.1377ZM280.842 73.8203V73.7637H278.842V73.8203H280.842ZM280.842 73.7637C280.842 70.6982 280.155 68.1513 278.828 66.3433C277.478 64.5026 275.514 63.5029 273.187 63.5029V65.5029C274.881 65.5029 276.244 66.2025 277.216 67.5265C278.212 68.8834 278.842 70.9668 278.842 73.7637H280.842ZM273.187 63.5029C270.87 63.5029 268.92 64.5054 267.581 66.3469C266.267 68.1546 265.588 70.7003 265.588 73.7637H267.588C267.588 70.9648 268.212 68.8801 269.199 67.523C270.161 66.1996 271.51 65.5029 273.187 65.5029V63.5029ZM265.588 73.7637V73.8203H267.588V73.7637H265.588ZM265.588 73.8203C265.588 76.921 266.257 79.4832 267.578 81.2976C268.925 83.1493 270.893 84.1377 273.243 84.1377V82.1377C271.515 82.1377 270.155 81.441 269.195 80.1208C268.207 78.7634 267.588 76.6669 267.588 73.8203H265.588Z" fill="url(#paint3_linear_2049_95)"/>
<mask id="path-5-outside-3_2049_95" maskUnits="userSpaceOnUse" x="9" y="23.5" width="275" height="46" fill="black">
<rect fill="white" x="9" y="23.5" width="275" height="46"/>
<path d="M10 67.377V26.5107H25.0523C36.8538 26.5107 43.8472 33.7891 43.8472 46.7314V46.7881C43.8472 59.7588 36.8811 67.377 25.0523 67.377H10ZM18.2501 60.2969H24.0689C31.4448 60.2969 35.4332 55.6523 35.4332 46.8164V46.7598C35.4332 38.2354 31.3082 33.5625 24.0689 33.5625H18.2501V60.2969ZM61.8226 68C52.8622 68 47.4259 61.9678 47.4259 52.2539V52.2256C47.4259 42.5684 52.9168 36.3945 61.4948 36.3945C70.0727 36.3945 75.4543 42.4268 75.4543 51.6025V54.1514H55.2935C55.3755 58.9941 57.9161 61.8262 61.9865 61.8262C65.2647 61.8262 67.2589 59.957 67.8326 58.2578L67.8872 58.0879H75.2085L75.1265 58.3994C74.225 62.874 70.1819 68 61.8226 68ZM61.6313 42.5684C58.3532 42.5684 55.8945 44.834 55.3755 48.9404H67.8053C67.3135 44.749 64.9368 42.5684 61.6313 42.5684ZM86.2177 67.377L76.0827 37.0176H84.6059L90.7252 60.0703H90.8891L96.9264 37.0176H105.258L95.2054 67.377H86.2177ZM108.728 67.377V26.5107H125.01C133.861 26.5107 139.106 31.3818 139.106 39.5947V39.6514C139.106 45.0322 136.347 49.5068 131.976 51.291L140.28 67.377H130.938L123.589 52.5654H116.978V67.377H108.728ZM116.978 46.0801H124.108C128.206 46.0801 130.664 43.6729 130.664 39.6514V39.5947C130.664 35.6865 128.069 33.1943 123.999 33.1943H116.978V46.0801ZM148.039 33.1094C145.635 33.1094 143.777 31.1553 143.777 28.8047C143.777 26.4541 145.635 24.5 148.039 24.5C150.443 24.5 152.3 26.4541 152.3 28.8047C152.3 31.1553 150.443 33.1094 148.039 33.1094ZM144.05 67.377V37.0176H152.027V67.377H144.05ZM174.729 68C170.522 68 167.298 65.791 165.714 62.1943H165.55V67.377H157.573V26.5107H165.55V42.2852H165.714C167.325 38.6035 170.576 36.3945 174.756 36.3945C182.104 36.3945 186.667 42.2852 186.667 52.1689V52.1973C186.667 62.0527 182.104 68 174.729 68ZM172.079 61.1465C176.04 61.1465 178.553 57.7197 178.553 52.1973V52.1689C178.553 46.6182 176.04 43.248 172.079 43.248C168.227 43.248 165.55 46.7031 165.55 52.1689V52.1973C165.55 57.6914 168.2 61.1465 172.079 61.1465ZM204.096 68C195.135 68 189.699 61.9678 189.699 52.2539V52.2256C189.699 42.5684 195.19 36.3945 203.768 36.3945C212.346 36.3945 217.727 42.4268 217.727 51.6025V54.1514H197.567C197.649 58.9941 200.189 61.8262 204.26 61.8262C207.538 61.8262 209.532 59.957 210.106 58.2578L210.16 58.0879H217.482L217.4 58.3994C216.498 62.874 212.455 68 204.096 68ZM203.904 42.5684C200.626 42.5684 198.168 44.834 197.649 48.9404H210.078C209.587 44.749 207.21 42.5684 203.904 42.5684ZM226.005 33.1094C223.601 33.1094 221.743 31.1553 221.743 28.8047C221.743 26.4541 223.601 24.5 226.005 24.5C228.409 24.5 230.266 26.4541 230.266 28.8047C230.266 31.1553 228.409 33.1094 226.005 33.1094ZM222.016 67.377V37.0176H229.993V67.377H222.016ZM235.348 67.377V37.0176H243.325V42.3135H243.488C244.363 38.5752 246.739 36.3945 250.154 36.3945C251.028 36.3945 251.848 36.5361 252.449 36.7061V43.9844C251.793 43.7012 250.7 43.5312 249.553 43.5312C245.619 43.5312 243.325 45.9668 243.325 50.3848V67.377H235.348ZM268.184 68C259.278 68 253.678 62.0811 253.678 52.1973V52.1406C253.678 42.3701 259.415 36.3945 268.157 36.3945C276.926 36.3945 282.69 42.3135 282.69 52.1406V52.1973C282.69 62.1094 277.035 68 268.184 68ZM268.211 61.5146C272.091 61.5146 274.577 58.1162 274.577 52.1973V52.1406C274.577 46.2783 272.036 42.8799 268.157 42.8799C264.305 42.8799 261.792 46.2783 261.792 52.1406V52.1973C261.792 58.1445 264.278 61.5146 268.211 61.5146Z"/>
</mask>
<path d="M10 67.377V26.5107H25.0523C36.8538 26.5107 43.8472 33.7891 43.8472 46.7314V46.7881C43.8472 59.7588 36.8811 67.377 25.0523 67.377H10ZM18.2501 60.2969H24.0689C31.4448 60.2969 35.4332 55.6523 35.4332 46.8164V46.7598C35.4332 38.2354 31.3082 33.5625 24.0689 33.5625H18.2501V60.2969ZM61.8226 68C52.8622 68 47.4259 61.9678 47.4259 52.2539V52.2256C47.4259 42.5684 52.9168 36.3945 61.4948 36.3945C70.0727 36.3945 75.4543 42.4268 75.4543 51.6025V54.1514H55.2935C55.3755 58.9941 57.9161 61.8262 61.9865 61.8262C65.2647 61.8262 67.2589 59.957 67.8326 58.2578L67.8872 58.0879H75.2085L75.1265 58.3994C74.225 62.874 70.1819 68 61.8226 68ZM61.6313 42.5684C58.3532 42.5684 55.8945 44.834 55.3755 48.9404H67.8053C67.3135 44.749 64.9368 42.5684 61.6313 42.5684ZM86.2177 67.377L76.0827 37.0176H84.6059L90.7252 60.0703H90.8891L96.9264 37.0176H105.258L95.2054 67.377H86.2177ZM108.728 67.377V26.5107H125.01C133.861 26.5107 139.106 31.3818 139.106 39.5947V39.6514C139.106 45.0322 136.347 49.5068 131.976 51.291L140.28 67.377H130.938L123.589 52.5654H116.978V67.377H108.728ZM116.978 46.0801H124.108C128.206 46.0801 130.664 43.6729 130.664 39.6514V39.5947C130.664 35.6865 128.069 33.1943 123.999 33.1943H116.978V46.0801ZM148.039 33.1094C145.635 33.1094 143.777 31.1553 143.777 28.8047C143.777 26.4541 145.635 24.5 148.039 24.5C150.443 24.5 152.3 26.4541 152.3 28.8047C152.3 31.1553 150.443 33.1094 148.039 33.1094ZM144.05 67.377V37.0176H152.027V67.377H144.05ZM174.729 68C170.522 68 167.298 65.791 165.714 62.1943H165.55V67.377H157.573V26.5107H165.55V42.2852H165.714C167.325 38.6035 170.576 36.3945 174.756 36.3945C182.104 36.3945 186.667 42.2852 186.667 52.1689V52.1973C186.667 62.0527 182.104 68 174.729 68ZM172.079 61.1465C176.04 61.1465 178.553 57.7197 178.553 52.1973V52.1689C178.553 46.6182 176.04 43.248 172.079 43.248C168.227 43.248 165.55 46.7031 165.55 52.1689V52.1973C165.55 57.6914 168.2 61.1465 172.079 61.1465ZM204.096 68C195.135 68 189.699 61.9678 189.699 52.2539V52.2256C189.699 42.5684 195.19 36.3945 203.768 36.3945C212.346 36.3945 217.727 42.4268 217.727 51.6025V54.1514H197.567C197.649 58.9941 200.189 61.8262 204.26 61.8262C207.538 61.8262 209.532 59.957 210.106 58.2578L210.16 58.0879H217.482L217.4 58.3994C216.498 62.874 212.455 68 204.096 68ZM203.904 42.5684C200.626 42.5684 198.168 44.834 197.649 48.9404H210.078C209.587 44.749 207.21 42.5684 203.904 42.5684ZM226.005 33.1094C223.601 33.1094 221.743 31.1553 221.743 28.8047C221.743 26.4541 223.601 24.5 226.005 24.5C228.409 24.5 230.266 26.4541 230.266 28.8047C230.266 31.1553 228.409 33.1094 226.005 33.1094ZM222.016 67.377V37.0176H229.993V67.377H222.016ZM235.348 67.377V37.0176H243.325V42.3135H243.488C244.363 38.5752 246.739 36.3945 250.154 36.3945C251.028 36.3945 251.848 36.5361 252.449 36.7061V43.9844C251.793 43.7012 250.7 43.5312 249.553 43.5312C245.619 43.5312 243.325 45.9668 243.325 50.3848V67.377H235.348ZM268.184 68C259.278 68 253.678 62.0811 253.678 52.1973V52.1406C253.678 42.3701 259.415 36.3945 268.157 36.3945C276.926 36.3945 282.69 42.3135 282.69 52.1406V52.1973C282.69 62.1094 277.035 68 268.184 68ZM268.211 61.5146C272.091 61.5146 274.577 58.1162 274.577 52.1973V52.1406C274.577 46.2783 272.036 42.8799 268.157 42.8799C264.305 42.8799 261.792 46.2783 261.792 52.1406V52.1973C261.792 58.1445 264.278 61.5146 268.211 61.5146Z" stroke="url(#paint4_linear_2049_95)" stroke-width="2" mask="url(#path-5-outside-3_2049_95)"/>
<mask id="path-6-outside-4_2049_95" maskUnits="userSpaceOnUse" x="14" y="0" width="265" height="46" fill="black">
<rect fill="white" x="14" width="265" height="46"/>
<path d="M15 43.877V3.01074H29.5003C40.869 3.01074 47.606 10.2891 47.606 23.2314V23.2881C47.606 36.2588 40.8953 43.877 29.5003 43.877H15ZM22.9475 36.7969H28.5529C35.6584 36.7969 39.5005 32.1523 39.5005 23.3164V23.2598C39.5005 14.7354 35.5268 10.0625 28.5529 10.0625H22.9475V36.7969ZM64.9222 44.5C56.2904 44.5 51.0534 38.4678 51.0534 28.7539V28.7256C51.0534 19.0684 56.343 12.8945 64.6064 12.8945C72.8697 12.8945 78.054 18.9268 78.054 28.1025V30.6514H58.6325C58.7115 35.4941 61.1589 38.3262 65.0801 38.3262C68.238 38.3262 70.1591 36.457 70.7118 34.7578L70.7644 34.5879H77.8172L77.7382 34.8994C76.8698 39.374 72.975 44.5 64.9222 44.5ZM64.7379 19.0684C61.58 19.0684 59.2115 21.334 58.7115 25.4404H70.6854C70.2117 21.249 67.9222 19.0684 64.7379 19.0684ZM88.4227 43.877L78.6593 13.5176H86.87L92.7649 36.5703H92.9228L98.7387 13.5176H106.765L97.0808 43.877H88.4227ZM110.107 43.877V3.01074H125.792C134.318 3.01074 139.371 7.88184 139.371 16.0947V16.1514C139.371 21.5322 136.713 26.0068 132.503 27.791L140.503 43.877H131.503L124.423 29.0654H118.055V43.877H110.107ZM118.055 22.5801H124.923C128.871 22.5801 131.239 20.1729 131.239 16.1514V16.0947C131.239 12.1865 128.739 9.69434 124.818 9.69434H118.055V22.5801ZM147.977 9.60938C145.661 9.60938 143.871 7.65527 143.871 5.30469C143.871 2.9541 145.661 1 147.977 1C150.292 1 152.082 2.9541 152.082 5.30469C152.082 7.65527 150.292 9.60938 147.977 9.60938ZM144.134 43.877V13.5176H151.819V43.877H144.134ZM173.688 44.5C169.635 44.5 166.53 42.291 165.003 38.6943H164.845V43.877H157.161V3.01074H164.845V18.7852H165.003C166.556 15.1035 169.688 12.8945 173.714 12.8945C180.793 12.8945 185.188 18.7852 185.188 28.6689V28.6973C185.188 38.5527 180.793 44.5 173.688 44.5ZM171.135 37.6465C174.951 37.6465 177.372 34.2197 177.372 28.6973V28.6689C177.372 23.1182 174.951 19.748 171.135 19.748C167.424 19.748 164.845 23.2031 164.845 28.6689V28.6973C164.845 34.1914 167.398 37.6465 171.135 37.6465ZM201.978 44.5C193.346 44.5 188.109 38.4678 188.109 28.7539V28.7256C188.109 19.0684 193.399 12.8945 201.662 12.8945C209.925 12.8945 215.11 18.9268 215.11 28.1025V30.6514H195.688C195.767 35.4941 198.215 38.3262 202.136 38.3262C205.294 38.3262 207.215 36.457 207.767 34.7578L207.82 34.5879H214.873L214.794 34.8994C213.925 39.374 210.031 44.5 201.978 44.5ZM201.794 19.0684C198.636 19.0684 196.267 21.334 195.767 25.4404H207.741C207.267 21.249 204.978 19.0684 201.794 19.0684ZM223.084 9.60938C220.768 9.60938 218.978 7.65527 218.978 5.30469C218.978 2.9541 220.768 1 223.084 1C225.399 1 227.189 2.9541 227.189 5.30469C227.189 7.65527 225.399 9.60938 223.084 9.60938ZM219.241 43.877V13.5176H226.926V43.877H219.241ZM232.084 43.877V13.5176H239.768V18.8135H239.926C240.768 15.0752 243.058 12.8945 246.347 12.8945C247.189 12.8945 247.979 13.0361 248.558 13.2061V20.4844C247.926 20.2012 246.874 20.0312 245.768 20.0312C241.979 20.0312 239.768 22.4668 239.768 26.8848V43.877H232.084ZM263.716 44.5C255.137 44.5 249.742 38.5811 249.742 28.6973V28.6406C249.742 18.8701 255.268 12.8945 263.69 12.8945C272.137 12.8945 277.69 18.8135 277.69 28.6406V28.6973C277.69 38.6094 272.243 44.5 263.716 44.5ZM263.742 38.0146C267.479 38.0146 269.874 34.6162 269.874 28.6973V28.6406C269.874 22.7783 267.427 19.3799 263.69 19.3799C259.979 19.3799 257.558 22.7783 257.558 28.6406V28.6973C257.558 34.6445 259.953 38.0146 263.742 38.0146Z"/>
</mask>
<path d="M15 43.877V3.01074H29.5003C40.869 3.01074 47.606 10.2891 47.606 23.2314V23.2881C47.606 36.2588 40.8953 43.877 29.5003 43.877H15ZM22.9475 36.7969H28.5529C35.6584 36.7969 39.5005 32.1523 39.5005 23.3164V23.2598C39.5005 14.7354 35.5268 10.0625 28.5529 10.0625H22.9475V36.7969ZM64.9222 44.5C56.2904 44.5 51.0534 38.4678 51.0534 28.7539V28.7256C51.0534 19.0684 56.343 12.8945 64.6064 12.8945C72.8697 12.8945 78.054 18.9268 78.054 28.1025V30.6514H58.6325C58.7115 35.4941 61.1589 38.3262 65.0801 38.3262C68.238 38.3262 70.1591 36.457 70.7118 34.7578L70.7644 34.5879H77.8172L77.7382 34.8994C76.8698 39.374 72.975 44.5 64.9222 44.5ZM64.7379 19.0684C61.58 19.0684 59.2115 21.334 58.7115 25.4404H70.6854C70.2117 21.249 67.9222 19.0684 64.7379 19.0684ZM88.4227 43.877L78.6593 13.5176H86.87L92.7649 36.5703H92.9228L98.7387 13.5176H106.765L97.0808 43.877H88.4227ZM110.107 43.877V3.01074H125.792C134.318 3.01074 139.371 7.88184 139.371 16.0947V16.1514C139.371 21.5322 136.713 26.0068 132.503 27.791L140.503 43.877H131.503L124.423 29.0654H118.055V43.877H110.107ZM118.055 22.5801H124.923C128.871 22.5801 131.239 20.1729 131.239 16.1514V16.0947C131.239 12.1865 128.739 9.69434 124.818 9.69434H118.055V22.5801ZM147.977 9.60938C145.661 9.60938 143.871 7.65527 143.871 5.30469C143.871 2.9541 145.661 1 147.977 1C150.292 1 152.082 2.9541 152.082 5.30469C152.082 7.65527 150.292 9.60938 147.977 9.60938ZM144.134 43.877V13.5176H151.819V43.877H144.134ZM173.688 44.5C169.635 44.5 166.53 42.291 165.003 38.6943H164.845V43.877H157.161V3.01074H164.845V18.7852H165.003C166.556 15.1035 169.688 12.8945 173.714 12.8945C180.793 12.8945 185.188 18.7852 185.188 28.6689V28.6973C185.188 38.5527 180.793 44.5 173.688 44.5ZM171.135 37.6465C174.951 37.6465 177.372 34.2197 177.372 28.6973V28.6689C177.372 23.1182 174.951 19.748 171.135 19.748C167.424 19.748 164.845 23.2031 164.845 28.6689V28.6973C164.845 34.1914 167.398 37.6465 171.135 37.6465ZM201.978 44.5C193.346 44.5 188.109 38.4678 188.109 28.7539V28.7256C188.109 19.0684 193.399 12.8945 201.662 12.8945C209.925 12.8945 215.11 18.9268 215.11 28.1025V30.6514H195.688C195.767 35.4941 198.215 38.3262 202.136 38.3262C205.294 38.3262 207.215 36.457 207.767 34.7578L207.82 34.5879H214.873L214.794 34.8994C213.925 39.374 210.031 44.5 201.978 44.5ZM201.794 19.0684C198.636 19.0684 196.267 21.334 195.767 25.4404H207.741C207.267 21.249 204.978 19.0684 201.794 19.0684ZM223.084 9.60938C220.768 9.60938 218.978 7.65527 218.978 5.30469C218.978 2.9541 220.768 1 223.084 1C225.399 1 227.189 2.9541 227.189 5.30469C227.189 7.65527 225.399 9.60938 223.084 9.60938ZM219.241 43.877V13.5176H226.926V43.877H219.241ZM232.084 43.877V13.5176H239.768V18.8135H239.926C240.768 15.0752 243.058 12.8945 246.347 12.8945C247.189 12.8945 247.979 13.0361 248.558 13.2061V20.4844C247.926 20.2012 246.874 20.0312 245.768 20.0312C241.979 20.0312 239.768 22.4668 239.768 26.8848V43.877H232.084ZM263.716 44.5C255.137 44.5 249.742 38.5811 249.742 28.6973V28.6406C249.742 18.8701 255.268 12.8945 263.69 12.8945C272.137 12.8945 277.69 18.8135 277.69 28.6406V28.6973C277.69 38.6094 272.243 44.5 263.716 44.5ZM263.742 38.0146C267.479 38.0146 269.874 34.6162 269.874 28.6973V28.6406C269.874 22.7783 267.427 19.3799 263.69 19.3799C259.979 19.3799 257.558 22.7783 257.558 28.6406V28.6973C257.558 34.6445 259.953 38.0146 263.742 38.0146Z" stroke="url(#paint5_linear_2049_95)" stroke-width="2" mask="url(#path-6-outside-4_2049_95)"/>
<path d="M0 106V65.1338H16.1563C28.8233 65.1338 36.3297 72.4121 36.3297 85.3545V85.4111C36.3297 98.3818 28.8526 106 16.1563 106H0ZM8.85518 98.9199H15.1007C23.0176 98.9199 27.2986 94.2754 27.2986 85.4395V85.3828C27.2986 76.8584 22.871 72.1855 15.1007 72.1855H8.85518V98.9199Z" fill="url(#paint6_linear_2049_95)"/>
<path d="M55.6234 106.623C46.0059 106.623 40.1708 100.591 40.1708 90.877V90.8486C40.1708 81.1914 46.0645 75.0176 55.2716 75.0176C64.4786 75.0176 70.255 81.0498 70.255 90.2256V92.7744H48.6155C48.7035 97.6172 51.4304 100.449 55.7993 100.449C59.318 100.449 61.4584 98.5801 62.0742 96.8809L62.1328 96.7109H69.9911L69.9031 97.0225C68.9355 101.497 64.5959 106.623 55.6234 106.623ZM55.4182 81.1914C51.8995 81.1914 49.2606 83.457 48.7035 87.5635H62.0449C61.5171 83.3721 58.9661 81.1914 55.4182 81.1914Z" fill="url(#paint7_linear_2049_95)"/>
<path d="M81.8078 106L70.9294 75.6406H80.0778L86.6459 98.6934H86.8218L93.3019 75.6406H102.245L91.4546 106H81.8078Z" fill="url(#paint8_linear_2049_95)"/>
<path d="M105.969 106V65.1338H123.445C132.945 65.1338 138.575 70.0049 138.575 78.2178V78.2744C138.575 83.6553 135.613 88.1299 130.922 89.9141L139.836 106H129.808L121.92 91.1885H114.824V106H105.969ZM114.824 84.7031H122.477C126.875 84.7031 129.514 82.2959 129.514 78.2744V78.2178C129.514 74.3096 126.729 71.8174 122.36 71.8174H114.824V84.7031Z" fill="url(#paint9_linear_2049_95)"/>
<path d="M148.163 71.7324C145.583 71.7324 143.589 69.7783 143.589 67.4277C143.589 65.0771 145.583 63.123 148.163 63.123C150.743 63.123 152.737 65.0771 152.737 67.4277C152.737 69.7783 150.743 71.7324 148.163 71.7324ZM143.882 106V75.6406H152.444V106H143.882Z" fill="url(#paint10_linear_2049_95)"/>
<path d="M176.81 106.623C172.295 106.623 168.835 104.414 167.134 100.817H166.958V106H158.396V65.1338H166.958V80.9082H167.134C168.864 77.2266 172.353 75.0176 176.84 75.0176C184.727 75.0176 189.624 80.9082 189.624 90.792V90.8203C189.624 100.676 184.727 106.623 176.81 106.623ZM173.966 99.7695C178.218 99.7695 180.915 96.3428 180.915 90.8203V90.792C180.915 85.2412 178.218 81.8711 173.966 81.8711C169.832 81.8711 166.958 85.3262 166.958 90.792V90.8203C166.958 96.3145 169.802 99.7695 173.966 99.7695Z" fill="url(#paint11_linear_2049_95)"/>
<path d="M208.331 106.623C198.714 106.623 192.879 100.591 192.879 90.877V90.8486C192.879 81.1914 198.772 75.0176 207.979 75.0176C217.186 75.0176 222.963 81.0498 222.963 90.2256V92.7744H201.323C201.411 97.6172 204.138 100.449 208.507 100.449C212.026 100.449 214.166 98.5801 214.782 96.8809L214.841 96.7109H222.699L222.611 97.0225C221.643 101.497 217.304 106.623 208.331 106.623ZM208.126 81.1914C204.607 81.1914 201.968 83.457 201.411 87.5635H214.753C214.225 83.3721 211.674 81.1914 208.126 81.1914Z" fill="url(#paint12_linear_2049_95)"/>
<path d="M231.847 71.7324C229.267 71.7324 227.273 69.7783 227.273 67.4277C227.273 65.0771 229.267 63.123 231.847 63.123C234.428 63.123 236.422 65.0771 236.422 67.4277C236.422 69.7783 234.428 71.7324 231.847 71.7324ZM227.566 106V75.6406H236.128V106H227.566Z" fill="url(#paint13_linear_2049_95)"/>
<path d="M241.875 106V75.6406H250.437V80.9365H250.613C251.552 77.1982 254.103 75.0176 257.768 75.0176C258.706 75.0176 259.586 75.1592 260.231 75.3291V82.6074C259.527 82.3242 258.354 82.1543 257.123 82.1543C252.9 82.1543 250.437 84.5898 250.437 89.0078V106H241.875Z" fill="url(#paint14_linear_2049_95)"/>
<path d="M277.12 106.623C267.561 106.623 261.55 100.704 261.55 90.8203V90.7637C261.55 80.9932 267.708 75.0176 277.091 75.0176C286.503 75.0176 292.69 80.9365 292.69 90.7637V90.8203C292.69 100.732 286.62 106.623 277.12 106.623ZM277.149 100.138C281.313 100.138 283.981 96.7393 283.981 90.8203V90.7637C283.981 84.9014 281.255 81.5029 277.091 81.5029C272.956 81.5029 270.259 84.9014 270.259 90.7637V90.8203C270.259 96.7676 272.927 100.138 277.149 100.138Z" fill="url(#paint15_linear_2049_95)"/>
<defs>
<linearGradient id="paint0_linear_2049_95" x1="146" y1="85" x2="146" y2="126" gradientUnits="userSpaceOnUse">
<stop offset="0.453125" stop-color="#C4C4C4" stop-opacity="0"/>
<stop offset="1" stop-color="#D9D9D9"/>
</linearGradient>
<linearGradient id="paint1_linear_2049_95" x1="146.345" y1="106" x2="146.345" y2="149.5" gradientUnits="userSpaceOnUse">
<stop offset="0.453125" stop-color="#C4C4C4" stop-opacity="0"/>
<stop offset="1" stop-color="#D9D9D9"/>
</linearGradient>
<linearGradient id="paint2_linear_2049_95" x1="146.345" y1="129.5" x2="146.345" y2="173" gradientUnits="userSpaceOnUse">
<stop offset="0.453125" stop-color="#C4C4C4" stop-opacity="0"/>
<stop offset="1" stop-color="#D9D9D9"/>
</linearGradient>
<linearGradient id="paint3_linear_2049_95" x1="146" y1="48" x2="146" y2="89" gradientUnits="userSpaceOnUse">
<stop stop-color="#D9D9D9"/>
<stop offset="0.916667" stop-color="#DDDDDD" stop-opacity="0"/>
</linearGradient>
<linearGradient id="paint4_linear_2049_95" x1="146.345" y1="24.5" x2="146.345" y2="68" gradientUnits="userSpaceOnUse">
<stop stop-color="#D9D9D9"/>
<stop offset="0.916667" stop-color="#DDDDDD" stop-opacity="0"/>
</linearGradient>
<linearGradient id="paint5_linear_2049_95" x1="146.345" y1="1" x2="146.345" y2="44.5" gradientUnits="userSpaceOnUse">
<stop stop-color="#D9D9D9"/>
<stop offset="0.916667" stop-color="#DDDDDD" stop-opacity="0"/>
</linearGradient>
<linearGradient id="paint6_linear_2049_95" x1="-9.66754" y1="107.31" x2="302.785" y2="-3.17295" gradientUnits="userSpaceOnUse">
<stop stop-color="#FF3D7B"/>
<stop offset="1" stop-color="#FFD876"/>
</linearGradient>
<linearGradient id="paint7_linear_2049_95" x1="-9.66754" y1="107.31" x2="302.785" y2="-3.17295" gradientUnits="userSpaceOnUse">
<stop stop-color="#FF3D7B"/>
<stop offset="1" stop-color="#FFD876"/>
</linearGradient>
<linearGradient id="paint8_linear_2049_95" x1="-9.66754" y1="107.31" x2="302.785" y2="-3.17295" gradientUnits="userSpaceOnUse">
<stop stop-color="#FF3D7B"/>
<stop offset="1" stop-color="#FFD876"/>
</linearGradient>
<linearGradient id="paint9_linear_2049_95" x1="-9.66754" y1="107.31" x2="302.785" y2="-3.17295" gradientUnits="userSpaceOnUse">
<stop stop-color="#FF3D7B"/>
<stop offset="1" stop-color="#FFD876"/>
</linearGradient>
<linearGradient id="paint10_linear_2049_95" x1="-9.66754" y1="107.31" x2="302.785" y2="-3.17295" gradientUnits="userSpaceOnUse">
<stop stop-color="#FF3D7B"/>
<stop offset="1" stop-color="#FFD876"/>
</linearGradient>
<linearGradient id="paint11_linear_2049_95" x1="-9.66754" y1="107.31" x2="302.785" y2="-3.17295" gradientUnits="userSpaceOnUse">
<stop stop-color="#FF3D7B"/>
<stop offset="1" stop-color="#FFD876"/>
</linearGradient>
<linearGradient id="paint12_linear_2049_95" x1="-9.66754" y1="107.31" x2="302.785" y2="-3.17295" gradientUnits="userSpaceOnUse">
<stop stop-color="#FF3D7B"/>
<stop offset="1" stop-color="#FFD876"/>
</linearGradient>
<linearGradient id="paint13_linear_2049_95" x1="-9.66754" y1="107.31" x2="302.785" y2="-3.17295" gradientUnits="userSpaceOnUse">
<stop stop-color="#FF3D7B"/>
<stop offset="1" stop-color="#FFD876"/>
</linearGradient>
<linearGradient id="paint14_linear_2049_95" x1="-9.66754" y1="107.31" x2="302.785" y2="-3.17295" gradientUnits="userSpaceOnUse">
<stop stop-color="#FF3D7B"/>
<stop offset="1" stop-color="#FFD876"/>
</linearGradient>
<linearGradient id="paint15_linear_2049_95" x1="-9.66754" y1="107.31" x2="302.785" y2="-3.17295" gradientUnits="userSpaceOnUse">
<stop stop-color="#FF3D7B"/>
<stop offset="1" stop-color="#FFD876"/>
</linearGradient>
</defs>
</svg>
