<svg width="23" height="26" viewBox="0 0 23 26" fill="none" xmlns="http://www.w3.org/2000/svg">
<path d="M22.3133 0.937775L20.3176 23.2952L11.3466 25.7822L2.40037 23.2987L0.406738 0.937775H22.3133Z" fill="#264DE4"/>
<path d="M18.6088 21.8715L20.3143 2.76611H11.3599V23.8812L18.6088 21.8715Z" fill="#2965F1"/>
<path d="M4.97705 11.0594L5.22285 13.8019H11.36V11.0594H4.97705Z" fill="white"/>
<path d="M11.3602 5.50858H11.3507H4.4834L4.7327 8.25108H11.3602V5.50858Z" fill="white"/>
<path d="M11.3598 21.0352V18.1819L11.3478 18.1851L8.29348 17.3603L8.09823 15.1731H6.61407H5.34521L5.72943 19.4792L11.3472 21.0387L11.3598 21.0352Z" fill="white"/>
<path d="M14.7276 13.8019L14.4093 17.3586L11.3506 18.1842V21.0374L16.9728 19.4792L17.0141 19.0159L17.6585 11.7958L17.7254 11.0594L18.2205 5.50858H11.3506V8.25108H15.215L14.9655 11.0594H11.3506V13.8019H14.7276Z" fill="white"/>
</svg>
