<svg width="345" height="532" viewBox="0 0 345 532" fill="none" xmlns="http://www.w3.org/2000/svg">
<g opacity="0.55">
<path d="M343.988 532H345V531.242H343.988V532Z" fill="#86868B"/>
<path d="M323.754 532H324.765V531.242H323.754V532Z" fill="#86868B"/>
<path d="M303.519 532H304.531V531.242H303.519V532Z" fill="#86868B"/>
<path d="M283.284 532H284.296V531.242H283.284V532Z" fill="#86868B"/>
<path d="M263.05 532H264.062V531.242H263.05V532Z" fill="#86868B"/>
<path d="M242.815 532H243.827V531.242H242.815V532Z" fill="#86868B"/>
<path d="M222.581 532H223.592V531.242H222.581V532Z" fill="#86868B"/>
<path d="M202.346 532H203.358V531.242H202.346V532Z" fill="#86868B"/>
<path d="M182.111 532H183.123V531.242H182.111V532Z" fill="#86868B"/>
<path d="M161.877 532H162.889V531.242H161.877V532Z" fill="#86868B"/>
<path d="M141.642 532H142.654V531.242H141.642V532Z" fill="#86868B"/>
<path d="M121.408 532H122.419V531.242H121.408V532Z" fill="#86868B"/>
<path d="M101.173 532H102.185V531.242H101.173V532Z" fill="#86868B"/>
<path d="M80.9384 532H81.9501V531.242H80.9384V532Z" fill="#86868B"/>
<path d="M60.7038 532H61.7155V531.242H60.7038V532Z" fill="#86868B"/>
<path d="M343.988 516.831H345V516.072H343.988V516.831Z" fill="#86868B"/>
<path d="M323.754 516.831H324.765V516.072H323.754V516.831Z" fill="#86868B"/>
<path d="M303.519 516.831H304.531V516.072H303.519V516.831Z" fill="#86868B"/>
<path d="M283.284 516.831H284.296V516.072H283.284V516.831Z" fill="#86868B"/>
<path d="M263.05 516.831H264.062V516.072H263.05V516.831Z" fill="#86868B"/>
<path d="M242.815 516.831H243.827V516.072H242.815V516.831Z" fill="#86868B"/>
<path d="M222.581 516.831H223.592V516.072H222.581V516.831Z" fill="#86868B"/>
<path d="M202.346 516.831H203.358V516.072H202.346V516.831Z" fill="#86868B"/>
<path d="M182.111 516.831H183.123V516.072H182.111V516.831Z" fill="#86868B"/>
<path d="M161.877 516.831H162.889V516.072H161.877V516.831Z" fill="#86868B"/>
<path d="M141.642 516.831H142.654V516.072H141.642V516.831Z" fill="#86868B"/>
<path d="M121.408 516.831H122.419V516.072H121.408V516.831Z" fill="#86868B"/>
<path d="M101.173 516.831H102.185V516.072H101.173V516.831Z" fill="#86868B"/>
<path d="M80.9384 516.831H81.9501V516.072H80.9384V516.831Z" fill="#86868B"/>
<path d="M60.7038 516.831H61.7155V516.072H60.7038V516.831Z" fill="#86868B"/>
<path d="M343.988 501.662H345V500.903H343.988V501.662Z" fill="#86868B"/>
<path d="M182.111 501.662H183.123V500.903H182.111V501.662Z" fill="#86868B"/>
<path d="M161.877 501.662H162.889V500.903H161.877V501.662Z" fill="#86868B"/>
<path d="M141.642 501.662H142.654V500.903H141.642V501.662Z" fill="#86868B"/>
<path d="M121.408 501.662H122.419V500.903H121.408V501.662Z" fill="#86868B"/>
<path d="M101.173 501.662H102.185V500.903H101.173V501.662Z" fill="#86868B"/>
<path d="M80.9384 501.662H81.9501V500.903H80.9384V501.662Z" fill="#86868B"/>
<path d="M60.7038 501.662H61.7155V500.903H60.7038V501.662Z" fill="#86868B"/>
<path d="M343.988 486.493H345V485.734H343.988V486.493Z" fill="#86868B"/>
<path d="M141.642 486.493H142.654V485.734H141.642V486.493Z" fill="#86868B"/>
<path d="M121.408 486.493H122.419V485.734H121.408V486.493Z" fill="#86868B"/>
<path d="M101.173 486.493H102.185V485.734H101.173V486.493Z" fill="#86868B"/>
<path d="M80.9384 486.493H81.9501V485.734H80.9384V486.493Z" fill="#86868B"/>
<path d="M60.7038 486.493H61.7155V485.734H60.7038V486.493Z" fill="#86868B"/>
<path d="M40.4692 486.493H41.481V485.734H40.4692V486.493Z" fill="#86868B"/>
<path d="M20.2346 486.493H21.2463V485.734H20.2346V486.493Z" fill="#86868B"/>
<path d="M0 486.493H1.01175V485.734H0V486.493Z" fill="#86868B"/>
<path d="M343.988 471.323H345V470.565H343.988V471.323Z" fill="#86868B"/>
<path d="M141.642 471.323H142.654V470.565H141.642V471.323Z" fill="#86868B"/>
<path d="M121.408 471.323H122.419V470.565H121.408V471.323Z" fill="#86868B"/>
<path d="M101.173 471.323H102.185V470.565H101.173V471.323Z" fill="#86868B"/>
<path d="M80.9384 471.323H81.9501V470.565H80.9384V471.323Z" fill="#86868B"/>
<path d="M60.7038 471.323H61.7155V470.565H60.7038V471.323Z" fill="#86868B"/>
<path d="M40.4692 471.323H41.481V470.565H40.4692V471.323Z" fill="#86868B"/>
<path d="M20.2346 471.323H21.2463V470.565H20.2346V471.323Z" fill="#86868B"/>
<path d="M0 471.323H1.01175V470.565H0V471.323Z" fill="#86868B"/>
<path d="M343.988 456.154H345V455.396H343.988V456.154Z" fill="#86868B"/>
<path d="M323.754 456.154H324.765V455.396H323.754V456.154Z" fill="#86868B"/>
<path d="M303.519 456.154H304.531V455.396H303.519V456.154Z" fill="#86868B"/>
<path d="M283.284 456.154H284.296V455.396H283.284V456.154Z" fill="#86868B"/>
<path d="M263.05 456.154H264.062V455.396H263.05V456.154Z" fill="#86868B"/>
<path d="M242.815 456.154H243.827V455.396H242.815V456.154Z" fill="#86868B"/>
<path d="M222.581 456.154H223.592V455.396H222.581V456.154Z" fill="#86868B"/>
<path d="M141.642 456.154H142.654V455.396H141.642V456.154Z" fill="#86868B"/>
<path d="M121.408 456.154H122.419V455.396H121.408V456.154Z" fill="#86868B"/>
<path d="M101.173 456.154H102.185V455.396H101.173V456.154Z" fill="#86868B"/>
<path d="M80.9384 456.154H81.9501V455.396H80.9384V456.154Z" fill="#86868B"/>
<path d="M60.7038 456.154H61.7155V455.396H60.7038V456.154Z" fill="#86868B"/>
<path d="M40.4692 456.154H41.481V455.396H40.4692V456.154Z" fill="#86868B"/>
<path d="M20.2346 456.154H21.2463V455.396H20.2346V456.154Z" fill="#86868B"/>
<path d="M0 456.154H1.01175V455.396H0V456.154Z" fill="#86868B"/>
<path d="M343.988 440.985H345V440.227H343.988V440.985Z" fill="#86868B"/>
<path d="M323.754 440.985H324.765V440.227H323.754V440.985Z" fill="#86868B"/>
<path d="M303.519 440.985H304.531V440.227H303.519V440.985Z" fill="#86868B"/>
<path d="M283.284 440.985H284.296V440.227H283.284V440.985Z" fill="#86868B"/>
<path d="M263.05 440.985H264.062V440.227H263.05V440.985Z" fill="#86868B"/>
<path d="M242.815 440.985H243.827V440.227H242.815V440.985Z" fill="#86868B"/>
<path d="M222.581 440.985H223.592V440.227H222.581V440.985Z" fill="#86868B"/>
<path d="M202.346 440.985H203.358V440.227H202.346V440.985Z" fill="#86868B"/>
<path d="M182.111 440.985H183.123V440.227H182.111V440.985Z" fill="#86868B"/>
<path d="M161.877 440.985H162.889V440.227H161.877V440.985Z" fill="#86868B"/>
<path d="M141.642 440.985H142.654V440.227H141.642V440.985Z" fill="#86868B"/>
<path d="M121.408 440.985H122.419V440.227H121.408V440.985Z" fill="#86868B"/>
<path d="M101.173 440.985H102.185V440.227H101.173V440.985Z" fill="#86868B"/>
<path d="M80.9384 440.985H81.9501V440.227H80.9384V440.985Z" fill="#86868B"/>
<path d="M60.7038 440.985H61.7155V440.227H60.7038V440.985Z" fill="#86868B"/>
<path d="M40.4692 440.985H41.481V440.227H40.4692V440.985Z" fill="#86868B"/>
<path d="M20.2346 440.985H21.2463V440.227H20.2346V440.985Z" fill="#86868B"/>
<path d="M0 440.985H1.01175V440.227H0V440.985Z" fill="#86868B"/>
<path d="M343.988 425.816H345V425.057H343.988V425.816Z" fill="#86868B"/>
<path d="M323.754 425.816H324.765V425.057H323.754V425.816Z" fill="#86868B"/>
<path d="M303.519 425.816H304.531V425.057H303.519V425.816Z" fill="#86868B"/>
<path d="M283.284 425.816H284.296V425.057H283.284V425.816Z" fill="#86868B"/>
<path d="M263.05 425.816H264.062V425.057H263.05V425.816Z" fill="#86868B"/>
<path d="M242.815 425.816H243.827V425.057H242.815V425.816Z" fill="#86868B"/>
<path d="M222.581 425.816H223.592V425.057H222.581V425.816Z" fill="#86868B"/>
<path d="M202.346 425.816H203.358V425.057H202.346V425.816Z" fill="#86868B"/>
<path d="M182.111 425.816H183.123V425.057H182.111V425.816Z" fill="#86868B"/>
<path d="M161.877 425.816H162.889V425.057H161.877V425.816Z" fill="#86868B"/>
<path d="M141.642 425.816H142.654V425.057H141.642V425.816Z" fill="#86868B"/>
<path d="M121.408 425.816H122.419V425.057H121.408V425.816Z" fill="#86868B"/>
<path d="M101.173 425.816H102.185V425.057H101.173V425.816Z" fill="#86868B"/>
<path d="M80.9384 425.816H81.9501V425.057H80.9384V425.816Z" fill="#86868B"/>
<path d="M60.7038 425.816H61.7155V425.057H60.7038V425.816Z" fill="#86868B"/>
<path d="M40.4692 425.816H41.481V425.057H40.4692V425.816Z" fill="#86868B"/>
<path d="M20.2346 425.816H21.2463V425.057H20.2346V425.816Z" fill="#86868B"/>
<path d="M0 425.816H1.01175V425.057H0V425.816Z" fill="#86868B"/>
<path d="M343.988 410.647H345V409.888H343.988V410.647Z" fill="#86868B"/>
<path d="M323.754 410.647H324.765V409.888H323.754V410.647Z" fill="#86868B"/>
<path d="M303.519 410.647H304.531V409.888H303.519V410.647Z" fill="#86868B"/>
<path d="M283.284 410.647H284.296V409.888H283.284V410.647Z" fill="#86868B"/>
<path d="M263.05 410.647H264.062V409.888H263.05V410.647Z" fill="#86868B"/>
<path d="M242.815 410.647H243.827V409.888H242.815V410.647Z" fill="#86868B"/>
<path d="M222.581 410.647H223.592V409.888H222.581V410.647Z" fill="#86868B"/>
<path d="M202.346 410.647H203.358V409.888H202.346V410.647Z" fill="#86868B"/>
<path d="M182.111 410.647H183.123V409.888H182.111V410.647Z" fill="#86868B"/>
<path d="M161.877 410.647H162.889V409.888H161.877V410.647Z" fill="#86868B"/>
<path d="M141.642 410.647H142.654V409.888H141.642V410.647Z" fill="#86868B"/>
<path d="M121.408 410.647H122.419V409.888H121.408V410.647Z" fill="#86868B"/>
<path d="M101.173 410.647H102.185V409.888H101.173V410.647Z" fill="#86868B"/>
<path d="M80.9384 410.647H81.9501V409.888H80.9384V410.647Z" fill="#86868B"/>
<path d="M60.7038 410.647H61.7155V409.888H60.7038V410.647Z" fill="#86868B"/>
<path d="M40.4692 410.647H41.481V409.888H40.4692V410.647Z" fill="#86868B"/>
<path d="M20.2346 410.647H21.2463V409.888H20.2346V410.647Z" fill="#86868B"/>
<path d="M0 410.647H1.01175V409.888H0V410.647Z" fill="#86868B"/>
<path d="M343.988 394.719H345V393.961H343.988V394.719Z" fill="#86868B"/>
<path d="M323.754 394.719H324.765V393.961H323.754V394.719Z" fill="#86868B"/>
<path d="M303.519 394.719H304.531V393.961H303.519V394.719Z" fill="#86868B"/>
<path d="M283.284 394.719H284.296V393.961H283.284V394.719Z" fill="#86868B"/>
<path d="M182.111 394.719H183.123V393.961H182.111V394.719Z" fill="#86868B"/>
<path d="M161.877 394.719H162.889V393.961H161.877V394.719Z" fill="#86868B"/>
<path d="M141.642 394.719H142.654V393.961H141.642V394.719Z" fill="#86868B"/>
<path d="M121.408 394.719H122.419V393.961H121.408V394.719Z" fill="#86868B"/>
<path d="M101.173 394.719H102.185V393.961H101.173V394.719Z" fill="#86868B"/>
<path d="M80.9384 394.719H81.9501V393.961H80.9384V394.719Z" fill="#86868B"/>
<path d="M343.988 379.55H345V378.792H343.988V379.55Z" fill="#86868B"/>
<path d="M323.754 379.55H324.765V378.792H323.754V379.55Z" fill="#86868B"/>
<path d="M303.519 379.55H304.531V378.792H303.519V379.55Z" fill="#86868B"/>
<path d="M283.284 379.55H284.296V378.792H283.284V379.55Z" fill="#86868B"/>
<path d="M182.111 379.55H183.123V378.792H182.111V379.55Z" fill="#86868B"/>
<path d="M161.877 379.55H162.889V378.792H161.877V379.55Z" fill="#86868B"/>
<path d="M141.642 379.55H142.654V378.792H141.642V379.55Z" fill="#86868B"/>
<path d="M121.408 379.55H122.419V378.792H121.408V379.55Z" fill="#86868B"/>
<path d="M101.173 379.55H102.185V378.792H101.173V379.55Z" fill="#86868B"/>
<path d="M80.9384 379.55H81.9501V378.792H80.9384V379.55Z" fill="#86868B"/>
<path d="M343.988 364.381H345V363.622H343.988V364.381Z" fill="#86868B"/>
<path d="M323.754 364.381H324.765V363.622H323.754V364.381Z" fill="#86868B"/>
<path d="M303.519 364.381H304.531V363.622H303.519V364.381Z" fill="#86868B"/>
<path d="M283.284 364.381H284.296V363.622H283.284V364.381Z" fill="#86868B"/>
<path d="M182.111 364.381H183.123V363.622H182.111V364.381Z" fill="#86868B"/>
<path d="M161.877 364.381H162.889V363.622H161.877V364.381Z" fill="#86868B"/>
<path d="M141.642 364.381H142.654V363.622H141.642V364.381Z" fill="#86868B"/>
<path d="M121.408 364.381H122.419V363.622H121.408V364.381Z" fill="#86868B"/>
<path d="M101.173 364.381H102.185V363.622H101.173V364.381Z" fill="#86868B"/>
<path d="M80.9384 364.381H81.9501V363.622H80.9384V364.381Z" fill="#86868B"/>
<path d="M343.988 349.212H345V348.453H343.988V349.212Z" fill="#86868B"/>
<path d="M323.754 349.212H324.765V348.453H323.754V349.212Z" fill="#86868B"/>
<path d="M303.519 349.212H304.531V348.453H303.519V349.212Z" fill="#86868B"/>
<path d="M283.284 349.212H284.296V348.453H283.284V349.212Z" fill="#86868B"/>
<path d="M182.111 349.212H183.123V348.453H182.111V349.212Z" fill="#86868B"/>
<path d="M161.877 349.212H162.889V348.453H161.877V349.212Z" fill="#86868B"/>
<path d="M141.642 349.212H142.654V348.453H141.642V349.212Z" fill="#86868B"/>
<path d="M121.408 349.212H122.419V348.453H121.408V349.212Z" fill="#86868B"/>
<path d="M101.173 349.212H102.185V348.453H101.173V349.212Z" fill="#86868B"/>
<path d="M80.9384 349.212H81.9501V348.453H80.9384V349.212Z" fill="#86868B"/>
<path d="M343.988 334.043H345V333.284H343.988V334.043Z" fill="#86868B"/>
<path d="M323.754 334.043H324.765V333.284H323.754V334.043Z" fill="#86868B"/>
<path d="M303.519 334.043H304.531V333.284H303.519V334.043Z" fill="#86868B"/>
<path d="M283.284 334.043H284.296V333.284H283.284V334.043Z" fill="#86868B"/>
<path d="M182.111 334.043H183.123V333.284H182.111V334.043Z" fill="#86868B"/>
<path d="M161.877 334.043H162.889V333.284H161.877V334.043Z" fill="#86868B"/>
<path d="M141.642 334.043H142.654V333.284H141.642V334.043Z" fill="#86868B"/>
<path d="M121.408 334.043H122.419V333.284H121.408V334.043Z" fill="#86868B"/>
<path d="M101.173 334.043H102.185V333.284H101.173V334.043Z" fill="#86868B"/>
<path d="M80.9384 334.043H81.9501V333.284H80.9384V334.043Z" fill="#86868B"/>
<path d="M323.754 318.873H324.765V318.115H323.754V318.873Z" fill="#86868B"/>
<path d="M303.519 318.873H304.531V318.115H303.519V318.873Z" fill="#86868B"/>
<path d="M283.284 318.873H284.296V318.115H283.284V318.873Z" fill="#86868B"/>
<path d="M182.111 318.873H183.123V318.115H182.111V318.873Z" fill="#86868B"/>
<path d="M161.877 318.873H162.889V318.115H161.877V318.873Z" fill="#86868B"/>
<path d="M141.642 318.873H142.654V318.115H141.642V318.873Z" fill="#86868B"/>
<path d="M121.408 318.873H122.419V318.115H121.408V318.873Z" fill="#86868B"/>
<path d="M101.173 318.873H102.185V318.115H101.173V318.873Z" fill="#86868B"/>
<path d="M80.9384 318.873H81.9501V318.115H80.9384V318.873Z" fill="#86868B"/>
<path d="M323.754 303.704H324.765V302.946H323.754V303.704Z" fill="#86868B"/>
<path d="M303.519 303.704H304.531V302.946H303.519V303.704Z" fill="#86868B"/>
<path d="M283.284 303.704H284.296V302.946H283.284V303.704Z" fill="#86868B"/>
<path d="M182.111 303.704H183.123V302.946H182.111V303.704Z" fill="#86868B"/>
<path d="M161.877 303.704H162.889V302.946H161.877V303.704Z" fill="#86868B"/>
<path d="M141.642 303.704H142.654V302.946H141.642V303.704Z" fill="#86868B"/>
<path d="M121.408 303.704H122.419V302.946H121.408V303.704Z" fill="#86868B"/>
<path d="M101.173 303.704H102.185V302.946H101.173V303.704Z" fill="#86868B"/>
<path d="M80.9384 303.704H81.9501V302.946H80.9384V303.704Z" fill="#86868B"/>
<path d="M323.754 288.535H324.765V287.777H323.754V288.535Z" fill="#86868B"/>
<path d="M303.519 288.535H304.531V287.777H303.519V288.535Z" fill="#86868B"/>
<path d="M283.284 288.535H284.296V287.777H283.284V288.535Z" fill="#86868B"/>
<path d="M121.408 288.535H122.419V287.777H121.408V288.535Z" fill="#86868B"/>
<path d="M101.173 288.535H102.185V287.777H101.173V288.535Z" fill="#86868B"/>
<path d="M80.9384 288.535H81.9501V287.777H80.9384V288.535Z" fill="#86868B"/>
<path d="M60.7038 288.535H61.7155V287.777H60.7038V288.535Z" fill="#86868B"/>
<path d="M40.4692 288.535H41.481V287.777H40.4692V288.535Z" fill="#86868B"/>
<path d="M20.2346 288.535H21.2463V287.777H20.2346V288.535Z" fill="#86868B"/>
<path d="M0 288.535H1.01175V287.777H0V288.535Z" fill="#86868B"/>
<path d="M323.754 273.366H324.765V272.607H323.754V273.366Z" fill="#86868B"/>
<path d="M303.519 273.366H304.531V272.607H303.519V273.366Z" fill="#86868B"/>
<path d="M283.284 273.366H284.296V272.607H283.284V273.366Z" fill="#86868B"/>
<path d="M263.05 273.366H264.062V272.607H263.05V273.366Z" fill="#86868B"/>
<path d="M242.815 273.366H243.827V272.607H242.815V273.366Z" fill="#86868B"/>
<path d="M222.581 273.366H223.592V272.607H222.581V273.366Z" fill="#86868B"/>
<path d="M202.346 273.366H203.358V272.607H202.346V273.366Z" fill="#86868B"/>
<path d="M182.111 273.366H183.123V272.607H182.111V273.366Z" fill="#86868B"/>
<path d="M161.877 273.366H162.889V272.607H161.877V273.366Z" fill="#86868B"/>
<path d="M141.642 273.366H142.654V272.607H141.642V273.366Z" fill="#86868B"/>
<path d="M121.408 273.366H122.419V272.607H121.408V273.366Z" fill="#86868B"/>
<path d="M101.173 273.366H102.185V272.607H101.173V273.366Z" fill="#86868B"/>
<path d="M80.9384 273.366H81.9501V272.607H80.9384V273.366Z" fill="#86868B"/>
<path d="M60.7038 273.366H61.7155V272.607H60.7038V273.366Z" fill="#86868B"/>
<path d="M40.4692 273.366H41.481V272.607H40.4692V273.366Z" fill="#86868B"/>
<path d="M20.2346 273.366H21.2463V272.607H20.2346V273.366Z" fill="#86868B"/>
<path d="M0 273.366H1.01175V272.607H0V273.366Z" fill="#86868B"/>
<path d="M323.754 259.393H324.765V258.634H323.754V259.393Z" fill="#86868B"/>
<path d="M303.519 259.393H304.531V258.634H303.519V259.393Z" fill="#86868B"/>
<path d="M283.284 259.393H284.296V258.634H283.284V259.393Z" fill="#86868B"/>
<path d="M263.05 259.393H264.062V258.634H263.05V259.393Z" fill="#86868B"/>
<path d="M242.815 259.393H243.827V258.634H242.815V259.393Z" fill="#86868B"/>
<path d="M222.581 259.393H223.592V258.634H222.581V259.393Z" fill="#86868B"/>
<path d="M202.346 259.393H203.358V258.634H202.346V259.393Z" fill="#86868B"/>
<path d="M182.111 259.393H183.123V258.634H182.111V259.393Z" fill="#86868B"/>
<path d="M161.877 259.393H162.889V258.634H161.877V259.393Z" fill="#86868B"/>
<path d="M141.642 259.393H142.654V258.634H141.642V259.393Z" fill="#86868B"/>
<path d="M121.408 259.393H122.419V258.634H121.408V259.393Z" fill="#86868B"/>
<path d="M101.173 259.393H102.185V258.634H101.173V259.393Z" fill="#86868B"/>
<path d="M80.9384 259.393H81.9501V258.634H80.9384V259.393Z" fill="#86868B"/>
<path d="M60.7038 259.393H61.7155V258.634H60.7038V259.393Z" fill="#86868B"/>
<path d="M323.754 244.223H324.765V243.465H323.754V244.223Z" fill="#86868B"/>
<path d="M303.519 244.223H304.531V243.465H303.519V244.223Z" fill="#86868B"/>
<path d="M283.284 244.223H284.296V243.465H283.284V244.223Z" fill="#86868B"/>
<path d="M263.05 244.223H264.062V243.465H263.05V244.223Z" fill="#86868B"/>
<path d="M242.815 244.223H243.827V243.465H242.815V244.223Z" fill="#86868B"/>
<path d="M222.581 244.223H223.592V243.465H222.581V244.223Z" fill="#86868B"/>
<path d="M202.346 244.223H203.358V243.465H202.346V244.223Z" fill="#86868B"/>
<path d="M182.111 244.223H183.123V243.465H182.111V244.223Z" fill="#86868B"/>
<path d="M161.877 244.223H162.889V243.465H161.877V244.223Z" fill="#86868B"/>
<path d="M141.642 244.223H142.654V243.465H141.642V244.223Z" fill="#86868B"/>
<path d="M121.408 244.223H122.419V243.465H121.408V244.223Z" fill="#86868B"/>
<path d="M101.173 244.223H102.185V243.465H101.173V244.223Z" fill="#86868B"/>
<path d="M80.9384 244.223H81.9501V243.465H80.9384V244.223Z" fill="#86868B"/>
<path d="M60.7038 244.223H61.7155V243.465H60.7038V244.223Z" fill="#86868B"/>
<path d="M323.754 229.054H324.765V228.296H323.754V229.054Z" fill="#86868B"/>
<path d="M303.519 229.054H304.531V228.296H303.519V229.054Z" fill="#86868B"/>
<path d="M283.284 229.054H284.296V228.296H283.284V229.054Z" fill="#86868B"/>
<path d="M263.05 229.054H264.062V228.296H263.05V229.054Z" fill="#86868B"/>
<path d="M242.815 229.054H243.827V228.296H242.815V229.054Z" fill="#86868B"/>
<path d="M222.581 229.054H223.592V228.296H222.581V229.054Z" fill="#86868B"/>
<path d="M202.346 229.054H203.358V228.296H202.346V229.054Z" fill="#86868B"/>
<path d="M182.111 229.054H183.123V228.296H182.111V229.054Z" fill="#86868B"/>
<path d="M161.877 229.054H162.889V228.296H161.877V229.054Z" fill="#86868B"/>
<path d="M141.642 229.054H142.654V228.296H141.642V229.054Z" fill="#86868B"/>
<path d="M121.408 229.054H122.419V228.296H121.408V229.054Z" fill="#86868B"/>
<path d="M101.173 229.054H102.185V228.296H101.173V229.054Z" fill="#86868B"/>
<path d="M80.9384 229.054H81.9501V228.296H80.9384V229.054Z" fill="#86868B"/>
<path d="M60.7038 229.054H61.7155V228.296H60.7038V229.054Z" fill="#86868B"/>
<path d="M323.754 213.885H324.765V213.127H323.754V213.885Z" fill="#86868B"/>
<path d="M303.519 213.885H304.531V213.127H303.519V213.885Z" fill="#86868B"/>
<path d="M182.111 213.885H183.123V213.127H182.111V213.885Z" fill="#86868B"/>
<path d="M161.877 213.885H162.889V213.127H161.877V213.885Z" fill="#86868B"/>
<path d="M141.642 213.885H142.654V213.127H141.642V213.885Z" fill="#86868B"/>
<path d="M121.408 213.885H122.419V213.127H121.408V213.885Z" fill="#86868B"/>
<path d="M101.173 213.885H102.185V213.127H101.173V213.885Z" fill="#86868B"/>
<path d="M80.9384 213.885H81.9501V213.127H80.9384V213.885Z" fill="#86868B"/>
<path d="M60.7038 213.885H61.7155V213.127H60.7038V213.885Z" fill="#86868B"/>
<path d="M40.4692 213.885H41.481V213.127H40.4692V213.885Z" fill="#86868B"/>
<path d="M20.2346 213.885H21.2463V213.127H20.2346V213.885Z" fill="#86868B"/>
<path d="M0 213.885H1.01175V213.127H0V213.885Z" fill="#86868B"/>
<path d="M323.754 198.716H324.765V197.958H323.754V198.716Z" fill="#86868B"/>
<path d="M303.519 198.716H304.531V197.958H303.519V198.716Z" fill="#86868B"/>
<path d="M182.111 198.716H183.123V197.958H182.111V198.716Z" fill="#86868B"/>
<path d="M161.877 198.716H162.889V197.958H161.877V198.716Z" fill="#86868B"/>
<path d="M60.7038 198.716H61.7155V197.958H60.7038V198.716Z" fill="#86868B"/>
<path d="M40.4692 198.716H41.481V197.958H40.4692V198.716Z" fill="#86868B"/>
<path d="M20.2346 198.716H21.2463V197.958H20.2346V198.716Z" fill="#86868B"/>
<path d="M0 198.716H1.01175V197.958H0V198.716Z" fill="#86868B"/>
<path d="M343.988 183.547H345V182.788H343.988V183.547Z" fill="#86868B"/>
<path d="M323.754 183.547H324.765V182.788H323.754V183.547Z" fill="#86868B"/>
<path d="M303.519 183.547H304.531V182.788H303.519V183.547Z" fill="#86868B"/>
<path d="M283.284 183.547H284.296V182.788H283.284V183.547Z" fill="#86868B"/>
<path d="M263.05 183.547H264.062V182.788H263.05V183.547Z" fill="#86868B"/>
<path d="M242.815 183.547H243.827V182.788H242.815V183.547Z" fill="#86868B"/>
<path d="M222.581 183.547H223.592V182.788H222.581V183.547Z" fill="#86868B"/>
<path d="M202.346 183.547H203.358V182.788H202.346V183.547Z" fill="#86868B"/>
<path d="M182.111 183.547H183.123V182.788H182.111V183.547Z" fill="#86868B"/>
<path d="M161.877 183.547H162.889V182.788H161.877V183.547Z" fill="#86868B"/>
<path d="M141.642 183.547H142.654V182.788H141.642V183.547Z" fill="#86868B"/>
<path d="M60.7038 183.547H61.7155V182.788H60.7038V183.547Z" fill="#86868B"/>
<path d="M40.4692 183.547H41.481V182.788H40.4692V183.547Z" fill="#86868B"/>
<path d="M20.2346 183.547H21.2463V182.788H20.2346V183.547Z" fill="#86868B"/>
<path d="M0 183.547H1.01175V182.788H0V183.547Z" fill="#86868B"/>
<path d="M343.988 168.378H345V167.619H343.988V168.378Z" fill="#86868B"/>
<path d="M323.754 168.378H324.765V167.619H323.754V168.378Z" fill="#86868B"/>
<path d="M303.519 168.378H304.531V167.619H303.519V168.378Z" fill="#86868B"/>
<path d="M283.284 168.378H284.296V167.619H283.284V168.378Z" fill="#86868B"/>
<path d="M263.05 168.378H264.062V167.619H263.05V168.378Z" fill="#86868B"/>
<path d="M242.815 168.378H243.827V167.619H242.815V168.378Z" fill="#86868B"/>
<path d="M222.581 168.378H223.592V167.619H222.581V168.378Z" fill="#86868B"/>
<path d="M202.346 168.378H203.358V167.619H202.346V168.378Z" fill="#86868B"/>
<path d="M182.111 168.378H183.123V167.619H182.111V168.378Z" fill="#86868B"/>
<path d="M161.877 168.378H162.889V167.619H161.877V168.378Z" fill="#86868B"/>
<path d="M141.642 168.378H142.654V167.619H141.642V168.378Z" fill="#86868B"/>
<path d="M20.2346 168.378H21.2463V167.619H20.2346V168.378Z" fill="#86868B"/>
<path d="M0 168.378H1.01175V167.619H0V168.378Z" fill="#86868B"/>
<path d="M343.988 153.208H345V152.45H343.988V153.208Z" fill="#86868B"/>
<path d="M323.754 153.208H324.765V152.45H323.754V153.208Z" fill="#86868B"/>
<path d="M303.519 153.208H304.531V152.45H303.519V153.208Z" fill="#86868B"/>
<path d="M283.284 153.208H284.296V152.45H283.284V153.208Z" fill="#86868B"/>
<path d="M263.05 153.208H264.062V152.45H263.05V153.208Z" fill="#86868B"/>
<path d="M242.815 153.208H243.827V152.45H242.815V153.208Z" fill="#86868B"/>
<path d="M222.581 153.208H223.592V152.45H222.581V153.208Z" fill="#86868B"/>
<path d="M202.346 153.208H203.358V152.45H202.346V153.208Z" fill="#86868B"/>
<path d="M182.111 153.208H183.123V152.45H182.111V153.208Z" fill="#86868B"/>
<path d="M161.877 153.208H162.889V152.45H161.877V153.208Z" fill="#86868B"/>
<path d="M141.642 153.208H142.654V152.45H141.642V153.208Z" fill="#86868B"/>
<path d="M20.2346 153.208H21.2463V152.45H20.2346V153.208Z" fill="#86868B"/>
<path d="M0 153.208H1.01175V152.45H0V153.208Z" fill="#86868B"/>
<path d="M343.988 138.039H345V137.281H343.988V138.039Z" fill="#86868B"/>
<path d="M323.754 138.039H324.765V137.281H323.754V138.039Z" fill="#86868B"/>
<path d="M303.519 138.039H304.531V137.281H303.519V138.039Z" fill="#86868B"/>
<path d="M283.284 138.039H284.296V137.281H283.284V138.039Z" fill="#86868B"/>
<path d="M263.05 138.039H264.062V137.281H263.05V138.039Z" fill="#86868B"/>
<path d="M242.815 138.039H243.827V137.281H242.815V138.039Z" fill="#86868B"/>
<path d="M222.581 138.039H223.592V137.281H222.581V138.039Z" fill="#86868B"/>
<path d="M202.346 138.039H203.358V137.281H202.346V138.039Z" fill="#86868B"/>
<path d="M182.111 138.039H183.123V137.281H182.111V138.039Z" fill="#86868B"/>
<path d="M161.877 138.039H162.889V137.281H161.877V138.039Z" fill="#86868B"/>
<path d="M141.642 138.039H142.654V137.281H141.642V138.039Z" fill="#86868B"/>
<path d="M121.408 138.039H122.419V137.281H121.408V138.039Z" fill="#86868B"/>
<path d="M101.173 138.039H102.185V137.281H101.173V138.039Z" fill="#86868B"/>
<path d="M80.9384 138.039H81.9501V137.281H80.9384V138.039Z" fill="#86868B"/>
<path d="M60.7038 138.039H61.7155V137.281H60.7038V138.039Z" fill="#86868B"/>
<path d="M40.4692 138.039H41.481V137.281H40.4692V138.039Z" fill="#86868B"/>
<path d="M20.2346 138.039H21.2463V137.281H20.2346V138.039Z" fill="#86868B"/>
<path d="M0 138.039H1.01175V137.281H0V138.039Z" fill="#86868B"/>
<path d="M343.988 122.112H345V121.353H343.988V122.112Z" fill="#86868B"/>
<path d="M323.754 122.112H324.765V121.353H323.754V122.112Z" fill="#86868B"/>
<path d="M303.519 122.112H304.531V121.353H303.519V122.112Z" fill="#86868B"/>
<path d="M283.284 122.112H284.296V121.353H283.284V122.112Z" fill="#86868B"/>
<path d="M263.05 122.112H264.062V121.353H263.05V122.112Z" fill="#86868B"/>
<path d="M242.815 122.112H243.827V121.353H242.815V122.112Z" fill="#86868B"/>
<path d="M222.581 122.112H223.592V121.353H222.581V122.112Z" fill="#86868B"/>
<path d="M202.346 122.112H203.358V121.353H202.346V122.112Z" fill="#86868B"/>
<path d="M182.111 122.112H183.123V121.353H182.111V122.112Z" fill="#86868B"/>
<path d="M161.877 122.112H162.889V121.353H161.877V122.112Z" fill="#86868B"/>
<path d="M141.642 122.112H142.654V121.353H141.642V122.112Z" fill="#86868B"/>
<path d="M121.408 122.112H122.419V121.353H121.408V122.112Z" fill="#86868B"/>
<path d="M101.173 122.112H102.185V121.353H101.173V122.112Z" fill="#86868B"/>
<path d="M80.9384 122.112H81.9501V121.353H80.9384V122.112Z" fill="#86868B"/>
<path d="M60.7038 122.112H61.7155V121.353H60.7038V122.112Z" fill="#86868B"/>
<path d="M40.4692 122.112H41.481V121.353H40.4692V122.112Z" fill="#86868B"/>
<path d="M20.2346 122.112H21.2463V121.353H20.2346V122.112Z" fill="#86868B"/>
<path d="M0 122.112H1.01175V121.353H0V122.112Z" fill="#86868B"/>
<path d="M343.988 106.943H345V106.184H343.988V106.943Z" fill="#86868B"/>
<path d="M323.754 106.943H324.765V106.184H323.754V106.943Z" fill="#86868B"/>
<path d="M303.519 106.943H304.531V106.184H303.519V106.943Z" fill="#86868B"/>
<path d="M283.284 106.943H284.296V106.184H283.284V106.943Z" fill="#86868B"/>
<path d="M263.05 106.943H264.062V106.184H263.05V106.943Z" fill="#86868B"/>
<path d="M121.408 106.943H122.419V106.184H121.408V106.943Z" fill="#86868B"/>
<path d="M101.173 106.943H102.185V106.184H101.173V106.943Z" fill="#86868B"/>
<path d="M80.9384 106.943H81.9501V106.184H80.9384V106.943Z" fill="#86868B"/>
<path d="M60.7038 106.943H61.7155V106.184H60.7038V106.943Z" fill="#86868B"/>
<path d="M40.4692 106.943H41.481V106.184H40.4692V106.943Z" fill="#86868B"/>
<path d="M20.2346 106.943H21.2463V106.184H20.2346V106.943Z" fill="#86868B"/>
<path d="M0 106.943H1.01175V106.184H0V106.943Z" fill="#86868B"/>
<path d="M343.988 91.7734H345V91.0149H343.988V91.7734Z" fill="#86868B"/>
<path d="M323.754 91.7734H324.765V91.0149H323.754V91.7734Z" fill="#86868B"/>
<path d="M303.519 91.7734H304.531V91.0149H303.519V91.7734Z" fill="#86868B"/>
<path d="M283.284 91.7734H284.296V91.0149H283.284V91.7734Z" fill="#86868B"/>
<path d="M263.05 91.7734H264.062V91.0149H263.05V91.7734Z" fill="#86868B"/>
<path d="M121.408 91.7734H122.419V91.0149H121.408V91.7734Z" fill="#86868B"/>
<path d="M101.173 91.7734H102.185V91.0149H101.173V91.7734Z" fill="#86868B"/>
<path d="M80.9384 91.7734H81.9501V91.0149H80.9384V91.7734Z" fill="#86868B"/>
<path d="M60.7038 91.7734H61.7155V91.0149H60.7038V91.7734Z" fill="#86868B"/>
<path d="M40.4692 91.7734H41.481V91.0149H40.4692V91.7734Z" fill="#86868B"/>
<path d="M20.2346 91.7734H21.2463V91.0149H20.2346V91.7734Z" fill="#86868B"/>
<path d="M0 91.7734H1.01175V91.0149H0V91.7734Z" fill="#86868B"/>
<path d="M343.988 76.6043H345V75.8458H343.988V76.6043Z" fill="#86868B"/>
<path d="M323.754 76.6043H324.765V75.8458H323.754V76.6043Z" fill="#86868B"/>
<path d="M202.346 76.6043H203.358V75.8458H202.346V76.6043Z" fill="#86868B"/>
<path d="M182.111 76.6043H183.123V75.8458H182.111V76.6043Z" fill="#86868B"/>
<path d="M161.877 76.6043H162.889V75.8458H161.877V76.6043Z" fill="#86868B"/>
<path d="M141.642 76.6043H142.654V75.8458H141.642V76.6043Z" fill="#86868B"/>
<path d="M121.408 76.6043H122.419V75.8458H121.408V76.6043Z" fill="#86868B"/>
<path d="M101.173 76.6043H102.185V75.8458H101.173V76.6043Z" fill="#86868B"/>
<path d="M80.9384 76.6043H81.9501V75.8458H80.9384V76.6043Z" fill="#86868B"/>
<path d="M20.2346 76.6043H21.2463V75.8458H20.2346V76.6043Z" fill="#86868B"/>
<path d="M0 76.6043H1.01175V75.8458H0V76.6043Z" fill="#86868B"/>
<path d="M343.988 61.4351H345V60.6767H343.988V61.4351Z" fill="#86868B"/>
<path d="M323.754 61.4351H324.765V60.6767H323.754V61.4351Z" fill="#86868B"/>
<path d="M222.581 61.4351H223.592V60.6767H222.581V61.4351Z" fill="#86868B"/>
<path d="M202.346 61.4351H203.358V60.6767H202.346V61.4351Z" fill="#86868B"/>
<path d="M182.111 61.4351H183.123V60.6767H182.111V61.4351Z" fill="#86868B"/>
<path d="M161.877 61.4351H162.889V60.6767H161.877V61.4351Z" fill="#86868B"/>
<path d="M141.642 61.4351H142.654V60.6767H141.642V61.4351Z" fill="#86868B"/>
<path d="M121.408 61.4351H122.419V60.6767H121.408V61.4351Z" fill="#86868B"/>
<path d="M101.173 61.4351H102.185V60.6767H101.173V61.4351Z" fill="#86868B"/>
<path d="M80.9384 61.4351H81.9501V60.6767H80.9384V61.4351Z" fill="#86868B"/>
<path d="M20.2346 61.4351H21.2463V60.6767H20.2346V61.4351Z" fill="#86868B"/>
<path d="M0 61.4351H1.01175V60.6767H0V61.4351Z" fill="#86868B"/>
<path d="M343.988 46.2659H345V45.5075H343.988V46.2659Z" fill="#86868B"/>
<path d="M323.754 46.2659H324.765V45.5075H323.754V46.2659Z" fill="#86868B"/>
<path d="M222.581 46.2659H223.592V45.5075H222.581V46.2659Z" fill="#86868B"/>
<path d="M202.346 46.2659H203.358V45.5075H202.346V46.2659Z" fill="#86868B"/>
<path d="M182.111 46.2659H183.123V45.5075H182.111V46.2659Z" fill="#86868B"/>
<path d="M161.877 46.2659H162.889V45.5075H161.877V46.2659Z" fill="#86868B"/>
<path d="M141.642 46.2659H142.654V45.5075H141.642V46.2659Z" fill="#86868B"/>
<path d="M121.408 46.2659H122.419V45.5075H121.408V46.2659Z" fill="#86868B"/>
<path d="M101.173 46.2659H102.185V45.5075H101.173V46.2659Z" fill="#86868B"/>
<path d="M80.9384 46.2659H81.9501V45.5075H80.9384V46.2659Z" fill="#86868B"/>
<path d="M20.2346 46.2659H21.2463V45.5075H20.2346V46.2659Z" fill="#86868B"/>
<path d="M0 46.2659H1.01175V45.5075H0V46.2659Z" fill="#86868B"/>
<path d="M343.988 31.0968H345V30.3384H343.988V31.0968Z" fill="#86868B"/>
<path d="M323.754 31.0968H324.765V30.3384H323.754V31.0968Z" fill="#86868B"/>
<path d="M222.581 31.0968H223.592V30.3384H222.581V31.0968Z" fill="#86868B"/>
<path d="M202.346 31.0968H203.358V30.3384H202.346V31.0968Z" fill="#86868B"/>
<path d="M182.111 31.0968H183.123V30.3384H182.111V31.0968Z" fill="#86868B"/>
<path d="M161.877 31.0968H162.889V30.3384H161.877V31.0968Z" fill="#86868B"/>
<path d="M141.642 31.0968H142.654V30.3384H141.642V31.0968Z" fill="#86868B"/>
<path d="M121.408 31.0968H122.419V30.3384H121.408V31.0968Z" fill="#86868B"/>
<path d="M101.173 31.0968H102.185V30.3384H101.173V31.0968Z" fill="#86868B"/>
<path d="M80.9384 31.0968H81.9501V30.3384H80.9384V31.0968Z" fill="#86868B"/>
<path d="M20.2346 31.0968H21.2463V30.3384H20.2346V31.0968Z" fill="#86868B"/>
<path d="M0 31.0968H1.01175V30.3384H0V31.0968Z" fill="#86868B"/>
<path d="M343.988 15.9276H345V15.1691H343.988V15.9276Z" fill="#86868B"/>
<path d="M323.754 15.9276H324.765V15.1691H323.754V15.9276Z" fill="#86868B"/>
<path d="M222.581 15.9276H223.592V15.1691H222.581V15.9276Z" fill="#86868B"/>
<path d="M202.346 15.9276H203.358V15.1691H202.346V15.9276Z" fill="#86868B"/>
<path d="M182.111 15.9276H183.123V15.1691H182.111V15.9276Z" fill="#86868B"/>
<path d="M161.877 15.9276H162.889V15.1691H161.877V15.9276Z" fill="#86868B"/>
<path d="M141.642 15.9276H142.654V15.1691H141.642V15.9276Z" fill="#86868B"/>
<path d="M121.408 15.9276H122.419V15.1691H121.408V15.9276Z" fill="#86868B"/>
<path d="M101.173 15.9276H102.185V15.1691H101.173V15.9276Z" fill="#86868B"/>
<path d="M80.9384 15.9276H81.9501V15.1691H80.9384V15.9276Z" fill="#86868B"/>
<path d="M20.2346 15.9276H21.2463V15.1691H20.2346V15.9276Z" fill="#86868B"/>
<path d="M0 15.9276H1.01175V15.1691H0V15.9276Z" fill="#86868B"/>
<path d="M343.988 0.758468H345V0H343.988V0.758468Z" fill="#86868B"/>
<path d="M323.754 0.758468H324.765V0H323.754V0.758468Z" fill="#86868B"/>
<path d="M303.519 0.758468H304.531V0H303.519V0.758468Z" fill="#86868B"/>
<path d="M283.284 0.758468H284.296V0H283.284V0.758468Z" fill="#86868B"/>
<path d="M263.05 0.758468H264.062V0H263.05V0.758468Z" fill="#86868B"/>
<path d="M242.815 0.758468H243.827V0H242.815V0.758468Z" fill="#86868B"/>
<path d="M222.581 0.758468H223.592V0H222.581V0.758468Z" fill="#86868B"/>
<path d="M202.346 0.758468H203.358V0H202.346V0.758468Z" fill="#86868B"/>
<path d="M182.111 0.758468H183.123V0H182.111V0.758468Z" fill="#86868B"/>
<path d="M161.877 0.758468H162.889V0H161.877V0.758468Z" fill="#86868B"/>
<path d="M141.642 0.758468H142.654V0H141.642V0.758468Z" fill="#86868B"/>
<path d="M121.408 0.758468H122.419V0H121.408V0.758468Z" fill="#86868B"/>
<path d="M101.173 0.758468H102.185V0H101.173V0.758468Z" fill="#86868B"/>
<path d="M80.9384 0.758468H81.9501V0H80.9384V0.758468Z" fill="#86868B"/>
<path d="M20.2346 0.758468H21.2463V0H20.2346V0.758468Z" fill="#86868B"/>
<path d="M0 0.758468H1.01175V0H0V0.758468Z" fill="#86868B"/>
</g>
</svg>
