<svg width="36" height="144" viewBox="0 0 36 144" fill="none" xmlns="http://www.w3.org/2000/svg">
<g opacity="0.7">
<g opacity="0.7">
<path opacity="0.7" d="M6.25588 3.20917C7.12275 3.20917 7.82548 2.49078 7.82548 1.60459C7.82548 0.718407 7.12275 0 6.25588 0C5.38901 0 4.68628 0.718407 4.68628 1.60459C4.68628 2.49078 5.38901 3.20917 6.25588 3.20917Z" fill="black" fill-opacity="0.7"/>
<path opacity="0.7" d="M21.9073 1.60459C21.9073 2.48712 21.2009 3.20917 20.3377 3.20917C19.4744 3.20917 18.7681 2.49858 18.7681 1.60459C18.7681 0.722073 19.4744 0 20.3377 0C21.2121 0 21.9073 0.710612 21.9073 1.60459Z" fill="black" fill-opacity="0.7"/>
<path opacity="0.7" d="M34.4304 3.20917C35.2973 3.20917 36 2.49078 36 1.60459C36 0.718407 35.2973 0 34.4304 0C33.5636 0 32.8608 0.718407 32.8608 1.60459C32.8608 2.49078 33.5636 3.20917 34.4304 3.20917Z" fill="black" fill-opacity="0.7"/>
</g>
<g opacity="0.7">
<path opacity="0.7" d="M6.25588 16.0001C7.12275 16.0001 7.82548 15.2817 7.82548 14.3955C7.82548 13.5093 7.12275 12.7909 6.25588 12.7909C5.38901 12.7909 4.68628 13.5093 4.68628 14.3955C4.68628 15.2817 5.38901 16.0001 6.25588 16.0001Z" fill="black" fill-opacity="0.7"/>
<path opacity="0.7" d="M21.9073 14.3955C21.9073 15.278 21.2009 16.0001 20.3377 16.0001C19.4744 16.0001 18.7681 15.2895 18.7681 14.3955C18.7681 13.513 19.4744 12.7909 20.3377 12.7909C21.2121 12.8024 21.9073 13.513 21.9073 14.3955Z" fill="black" fill-opacity="0.7"/>
<path opacity="0.7" d="M34.4304 16.0001C35.2973 16.0001 36 15.2817 36 14.3955C36 13.5093 35.2973 12.7909 34.4304 12.7909C33.5636 12.7909 32.8608 13.5093 32.8608 14.3955C32.8608 15.2817 33.5636 16.0001 34.4304 16.0001Z" fill="black" fill-opacity="0.7"/>
</g>
<g opacity="0.7">
<path opacity="0.7" d="M7.82548 27.1977C7.82548 28.0803 7.11917 28.8023 6.25588 28.8023C5.3926 28.8023 4.68628 28.0803 4.68628 27.1977C4.68628 26.3152 5.38138 25.5931 6.25588 25.5931C7.11917 25.6046 7.82548 26.3152 7.82548 27.1977Z" fill="black" fill-opacity="0.7"/>
<path opacity="0.7" d="M21.9073 27.1977C21.9073 28.0803 21.2009 28.8023 20.3377 28.8023C19.4744 28.8023 18.7681 28.0803 18.7681 27.1977C18.7681 26.3152 19.4744 25.5931 20.3377 25.5931C21.2121 25.6046 21.9073 26.3152 21.9073 27.1977Z" fill="black" fill-opacity="0.7"/>
<path opacity="0.7" d="M36 27.1977C36 28.0803 35.3049 28.8023 34.4304 28.8023C33.5559 28.8023 32.8608 28.0803 32.8608 27.1977C32.8608 26.3152 33.5559 25.5931 34.4304 25.5931C35.3049 25.5931 36 26.3152 36 27.1977Z" fill="black" fill-opacity="0.7"/>
</g>
<g opacity="0.7">
<path opacity="0.7" d="M7.82548 40C7.82548 40.8825 7.11917 41.6046 6.25588 41.6046C5.3926 41.6046 4.68628 40.894 4.68628 40C4.68628 39.1175 5.38138 38.3954 6.25588 38.3954C7.11917 38.3954 7.82548 39.1175 7.82548 40Z" fill="black" fill-opacity="0.7"/>
<path opacity="0.7" d="M21.9073 40C21.9073 40.8825 21.2009 41.6046 20.3377 41.6046C19.4744 41.6046 18.7681 40.894 18.7681 40C18.7681 39.1175 19.4744 38.3954 20.3377 38.3954C21.2121 38.3954 21.9073 39.1175 21.9073 40Z" fill="black" fill-opacity="0.7"/>
<path opacity="0.7" d="M36 40C36 40.8825 35.3049 41.6046 34.4304 41.6046C33.5559 41.6046 32.8608 40.894 32.8608 40C32.8608 39.1175 33.5559 38.3954 34.4304 38.3954C35.3049 38.3954 36 39.1175 36 40Z" fill="black" fill-opacity="0.7"/>
</g>
<g opacity="0.7">
<path opacity="0.7" d="M6.25588 54.4069C7.12275 54.4069 7.82548 53.6885 7.82548 52.8023C7.82548 51.9161 7.12275 51.1978 6.25588 51.1978C5.38901 51.1978 4.68628 51.9161 4.68628 52.8023C4.68628 53.6885 5.38901 54.4069 6.25588 54.4069Z" fill="black" fill-opacity="0.7"/>
<path opacity="0.7" d="M21.9073 52.8023C21.9073 53.6849 21.2009 54.4069 20.3377 54.4069C19.4744 54.4069 18.7681 53.6963 18.7681 52.8023C18.7681 51.9084 19.4744 51.1978 20.3377 51.1978C21.2121 51.1978 21.9073 51.9198 21.9073 52.8023Z" fill="black" fill-opacity="0.7"/>
<path opacity="0.7" d="M34.4304 54.4069C35.2973 54.4069 36 53.6885 36 52.8023C36 51.9161 35.2973 51.1978 34.4304 51.1978C33.5636 51.1978 32.8608 51.9161 32.8608 52.8023C32.8608 53.6885 33.5636 54.4069 34.4304 54.4069Z" fill="black" fill-opacity="0.7"/>
</g>
<g opacity="0.7">
<path opacity="0.7" d="M6.25588 67.2092C7.12275 67.2092 7.82548 66.4908 7.82548 65.6046C7.82548 64.7184 7.12275 64 6.25588 64C5.38901 64 4.68628 64.7184 4.68628 65.6046C4.68628 66.4908 5.38901 67.2092 6.25588 67.2092Z" fill="black" fill-opacity="0.7"/>
<path opacity="0.7" d="M21.9073 65.6046C21.9073 66.4871 21.2009 67.2092 20.3377 67.2092C19.4744 67.2092 18.7681 66.4871 18.7681 65.6046C18.7681 64.7221 19.4744 64 20.3377 64C21.2121 64 21.9073 64.7106 21.9073 65.6046Z" fill="black" fill-opacity="0.7"/>
<path opacity="0.7" d="M34.4304 67.2092C35.2973 67.2092 36 66.4908 36 65.6046C36 64.7184 35.2973 64 34.4304 64C33.5636 64 32.8608 64.7184 32.8608 65.6046C32.8608 66.4908 33.5636 67.2092 34.4304 67.2092Z" fill="black" fill-opacity="0.7"/>
</g>
<g opacity="0.7">
<path opacity="0.7" d="M6.25588 80C7.12275 80 7.82548 79.2815 7.82548 78.3953C7.82548 77.5092 7.12275 76.7908 6.25588 76.7908C5.38901 76.7908 4.68628 77.5092 4.68628 78.3953C4.68628 79.2815 5.38901 80 6.25588 80Z" fill="black" fill-opacity="0.7"/>
<path opacity="0.7" d="M21.9073 78.3953C21.9073 79.2779 21.2009 80 20.3377 80C19.4744 80 18.7681 79.2893 18.7681 78.3953C18.7681 77.5014 19.4744 76.7908 20.3377 76.7908C21.2121 76.8022 21.9073 77.5128 21.9073 78.3953Z" fill="black" fill-opacity="0.7"/>
<path opacity="0.7" d="M34.4304 80C35.2973 80 36 79.2815 36 78.3953C36 77.5092 35.2973 76.7908 34.4304 76.7908C33.5636 76.7908 32.8608 77.5092 32.8608 78.3953C32.8608 79.2815 33.5636 80 34.4304 80Z" fill="black" fill-opacity="0.7"/>
</g>
<g opacity="0.7">
<path opacity="0.7" d="M7.82548 91.1977C7.82548 92.0802 7.11917 92.8023 6.25588 92.8023C5.3926 92.8023 4.68628 92.0917 4.68628 91.1977C4.68628 90.3152 5.38138 89.5931 6.25588 89.5931C7.11917 89.6046 7.82548 90.3152 7.82548 91.1977Z" fill="black" fill-opacity="0.7"/>
<path opacity="0.7" d="M21.9073 91.1977C21.9073 92.0802 21.2009 92.8023 20.3377 92.8023C19.4744 92.8023 18.7681 92.0917 18.7681 91.1977C18.7681 90.3152 19.4744 89.5931 20.3377 89.5931C21.2121 89.6046 21.9073 90.3152 21.9073 91.1977Z" fill="black" fill-opacity="0.7"/>
<path opacity="0.7" d="M36 91.1977C36 92.0802 35.3049 92.8023 34.4304 92.8023C33.5559 92.8023 32.8608 92.0917 32.8608 91.1977C32.8608 90.3152 33.5559 89.5931 34.4304 89.5931C35.3049 89.5931 36 90.3152 36 91.1977Z" fill="black" fill-opacity="0.7"/>
</g>
<g opacity="0.7">
<path opacity="0.7" d="M7.82548 104C7.82548 104.883 7.11917 105.605 6.25588 105.605C5.3926 105.605 4.68628 104.894 4.68628 104C4.68628 103.118 5.38138 102.395 6.25588 102.395C7.11917 102.395 7.82548 103.118 7.82548 104Z" fill="black" fill-opacity="0.7"/>
<path opacity="0.7" d="M21.9073 104C21.9073 104.883 21.2009 105.605 20.3377 105.605C19.4744 105.605 18.7681 104.894 18.7681 104C18.7681 103.118 19.4744 102.395 20.3377 102.395C21.2121 102.395 21.9073 103.118 21.9073 104Z" fill="black" fill-opacity="0.7"/>
<path opacity="0.7" d="M36 104C36 104.883 35.3049 105.605 34.4304 105.605C33.5559 105.605 32.8608 104.894 32.8608 104C32.8608 103.118 33.5559 102.395 34.4304 102.395C35.3049 102.395 36 103.118 36 104Z" fill="black" fill-opacity="0.7"/>
</g>
<g opacity="0.7">
<path opacity="0.7" d="M6.25588 118.407C7.12275 118.407 7.82548 117.688 7.82548 116.802C7.82548 115.916 7.12275 115.198 6.25588 115.198C5.38901 115.198 4.68628 115.916 4.68628 116.802C4.68628 117.688 5.38901 118.407 6.25588 118.407Z" fill="black" fill-opacity="0.7"/>
<path opacity="0.7" d="M21.9073 116.802C21.9073 117.685 21.2009 118.407 20.3377 118.407C19.4744 118.407 18.7681 117.696 18.7681 116.802C18.7681 115.908 19.4744 115.198 20.3377 115.198C21.2121 115.198 21.9073 115.92 21.9073 116.802Z" fill="black" fill-opacity="0.7"/>
<path opacity="0.7" d="M34.4304 118.407C35.2973 118.407 36 117.688 36 116.802C36 115.916 35.2973 115.198 34.4304 115.198C33.5636 115.198 32.8608 115.916 32.8608 116.802C32.8608 117.688 33.5636 118.407 34.4304 118.407Z" fill="black" fill-opacity="0.7"/>
</g>
<g opacity="0.7">
<path opacity="0.7" d="M7.82548 129.593C7.82548 130.476 7.11917 131.198 6.25588 131.198C5.3926 131.198 4.68628 130.476 4.68628 129.593C4.68628 128.711 5.38138 127.989 6.25588 127.989C7.11917 128 7.82548 128.711 7.82548 129.593Z" fill="black" fill-opacity="0.7"/>
<path opacity="0.7" d="M21.9073 129.593C21.9073 130.476 21.2009 131.198 20.3377 131.198C19.4744 131.198 18.7681 130.476 18.7681 129.593C18.7681 128.711 19.4744 127.989 20.3377 127.989C21.2121 128 21.9073 128.711 21.9073 129.593Z" fill="black" fill-opacity="0.7"/>
<path opacity="0.7" d="M36 129.593C36 130.476 35.3049 131.198 34.4304 131.198C33.5559 131.198 32.8608 130.476 32.8608 129.593C32.8608 128.711 33.5559 127.989 34.4304 127.989C35.3049 127.989 36 128.711 36 129.593Z" fill="black" fill-opacity="0.7"/>
</g>
<g opacity="0.7">
<path opacity="0.7" d="M6.25588 144C7.12275 144 7.82548 143.282 7.82548 142.396C7.82548 141.509 7.12275 140.791 6.25588 140.791C5.38901 140.791 4.68628 141.509 4.68628 142.396C4.68628 143.282 5.38901 144 6.25588 144Z" fill="black" fill-opacity="0.7"/>
<path opacity="0.7" d="M21.9073 142.396C21.9073 143.278 21.2009 144 20.3377 144C19.4744 144 18.7681 143.278 18.7681 142.396C18.7681 141.513 19.4744 140.791 20.3377 140.791C21.2121 140.802 21.9073 141.513 21.9073 142.396Z" fill="black" fill-opacity="0.7"/>
<path opacity="0.7" d="M34.4304 144C35.2973 144 36 143.282 36 142.396C36 141.509 35.2973 140.791 34.4304 140.791C33.5636 140.791 32.8608 141.509 32.8608 142.396C32.8608 143.282 33.5636 144 34.4304 144Z" fill="black" fill-opacity="0.7"/>
</g>
</g>
</svg>
