<svg width="457" height="463" viewBox="0 0 457 463" fill="none" xmlns="http://www.w3.org/2000/svg">
<path d="M221.374 -14L221.374 480M170.926 -7.18776L204.079 148.835V315.626L170.715 472.309M271.784 -6.74818L238.63 149.133V316.066L271.995 472.748M120.727 -6.74818L186.362 148.835V315.626L120.305 470.331M321.982 -6.30874L256.347 149.133V316.066L322.404 470.77M69.8958 -6.968L169.066 148.835V315.626L69.8958 470.551M372.813 -6.52849L273.643 148.835V316.066L372.813 470.99M20.3298 -5.86922L151.349 148.835V315.626L19.908 469.891M422.378 -5.42971L291.359 148.835V316.066L422.8 470.331M-8.35498 14.3479L134.265 148.835V315.626L-7.72223 448.795M451.064 14.7873L308.444 148.835V316.066L450.431 449.235M-9.83105 48.629L116.759 148.835V315.626L-8.98738 413.635M452.541 49.0685L325.951 148.835V316.066L451.697 414.075M-7.93288 75.8781L99.4635 148.835V315.626L-8.1438 387.485M450.643 76.3176L343.246 148.835V316.066L450.854 387.924M-8.56567 94.7767L81.7073 148.835M81.7073 148.835L81.7464 315.626L-8.35476 368.586M81.7073 148.835L360.963 148.835M451.275 95.2162L360.963 148.835M360.963 148.835V315.846M360.963 315.846L451.064 369.026M360.963 315.846L81.7073 315.846M463.047 114.115L360.963 163.192H81.7072L-17.2134 115.653M461.782 139.386L360.963 179.014H81.7073L-18.4788 140.924M463.047 165.317L360.963 193.957H81.7072L-17.2134 166.855M466 191.907L360.963 208.461H81.7072L-14.2605 193.445M462.203 217.178L360.963 224.283H81.7071L-18.0571 218.716M461.149 242.449L360.963 239.665H81.707L-19.1118 243.988M459.04 269.259L360.963 255.048H81.7071L-21.2209 270.797M454.61 296.508L360.963 270.138H81.7072L-25.6501 298.046M458.618 321.12L360.963 285.081H81.7073L-21.6426 322.658M465.578 349.907L360.963 300.464H81.7072L-14.6824 351.446M71.5833 321.56H370.665V143.122H71.5833V321.56ZM61.0374 327.713H381.633V136.529H61.0374V327.713ZM50.0696 334.305H392.601V129.937H50.0696V334.305ZM35.7271 342.656H406.521V121.586H35.7271V342.656ZM19.697 351.885H422.972V111.917H19.697V351.885ZM1.13647 363.312H441.534V100.49H1.13647V363.312ZM-16.1589 376.937H455.454V86.4261H-16.1589V376.937ZM-21.2209 394.077H455.454V69.7251H-21.2209V394.077ZM-44 416.052H460.516V47.75H-44V416.052ZM-13.2061 444.62H451.236V19.1824H-13.2061V444.62Z" stroke="url(#paint0_radial_2034_121)" stroke-width="0.3" stroke-linecap="round" stroke-linejoin="round"/>
<defs>
<radialGradient id="paint0_radial_2034_121" cx="0" cy="0" r="1" gradientUnits="userSpaceOnUse" gradientTransform="translate(221 233) rotate(89.768) scale(247.002 465.145)">
<stop stop-color="white"/>
<stop offset="1" stop-color="#676767" stop-opacity="0"/>
</radialGradient>
</defs>
</svg>
