<svg width="30" height="28" viewBox="0 0 30 28" fill="none" xmlns="http://www.w3.org/2000/svg">
<path d="M29.7172 13.9453C29.7172 21.5605 23.0177 27.8906 14.9581 27.8906C6.88398 27.8906 0.198975 21.5742 0.198975 13.959C0.198974 6.33008 6.88398 3.3347e-07 14.9581 0C23.0177 -3.32872e-07 29.7172 6.31641 29.7172 13.9453ZM14.9725 20.6172C15.7105 20.6172 16.2025 20.125 16.2025 19.4141V15.1348H20.746C21.4839 15.1348 22.0193 14.6562 22.0193 13.959C22.0193 13.248 21.4984 12.7559 20.746 12.7559H16.2025V8.46289C16.2025 7.76562 15.7105 7.25977 14.9725 7.25977C14.2201 7.25977 13.6992 7.76562 13.6992 8.46289V12.7559H9.17019C8.41777 12.7559 7.88239 13.248 7.88239 13.959C7.88239 14.6562 8.41777 15.1348 9.17019 15.1348H13.6992V19.4141C13.6992 20.125 14.2201 20.6172 14.9725 20.6172Z" fill="#F0F1F6"/>
</svg>
