<svg width="26" height="26" viewBox="0 0 26 26" fill="none" xmlns="http://www.w3.org/2000/svg">
<path d="M25.7824 0.937775H0.937988V25.7822H25.7824V0.937775Z" fill="#F7DF1E"/>
<path d="M17.6271 20.3476C18.1275 21.1647 18.7786 21.7653 19.9301 21.7653C20.8975 21.7653 21.5154 21.2818 21.5154 20.6138C21.5154 19.8133 20.8805 19.5297 19.8157 19.064L19.2321 18.8136C17.5474 18.0958 16.4282 17.1967 16.4282 15.2959C16.4282 13.545 17.7623 12.212 19.8473 12.212C21.3317 12.212 22.3988 12.7286 23.1678 14.0813L21.3498 15.2486C20.9495 14.5309 20.5177 14.2481 19.8473 14.2481C19.1635 14.2481 18.7301 14.6819 18.7301 15.2486C18.7301 15.949 19.1639 16.2325 20.1655 16.6663L20.7492 16.9163C22.7328 17.7669 23.8528 18.6341 23.8528 20.5838C23.8528 22.6857 22.2016 23.8373 19.9841 23.8373C17.816 23.8373 16.4152 22.8041 15.7298 21.4498L17.6271 20.3476ZM9.3799 20.5499C9.74665 21.2006 10.0803 21.7507 10.8824 21.7507C11.6494 21.7507 12.1333 21.4506 12.1333 20.2837V12.3453H14.4679V20.3153C14.4679 22.7327 13.0506 23.8329 10.9818 23.8329C9.11252 23.8329 8.03001 22.8656 7.47949 21.7004L9.3799 20.5499Z" fill="black"/>
</svg>
