<svg width="243" height="350" viewBox="0 0 243 350" fill="none" xmlns="http://www.w3.org/2000/svg">
<path d="M243 174.659C243 241.216 205.716 299.144 150.883 328.563C150.446 328.818 150.009 329.037 149.572 329.292L149.463 329.328C149.39 329.364 149.354 329.401 149.281 329.437H149.244H149.208L142.581 332.714C142.691 332.678 142.836 332.605 142.945 332.568C142.472 332.787 141.962 333.042 141.489 333.26C139.669 334.134 137.812 334.935 135.918 335.736C134.899 336.173 133.916 336.574 132.896 336.974C132.714 337.047 132.532 337.12 132.387 337.193C112.543 345.021 90.952 349.317 68.3779 349.317H11.6876C5.24304 349.317 0 344.074 0 337.629V12.0881C0 5.64354 5.24304 0.40051 11.6876 0.40051H56.8723L64.8825 0.0364099C66.0476 0.0364099 67.1764 0 68.3779 0C72.2373 0 76.0968 0.14564 79.8834 0.40051C101.766 1.78409 122.592 7.24558 141.525 16.0204C201.456 43.7283 243 104.315 243 174.659Z" fill="url(#paint0_linear_2288_2)"/>
<path d="M141.782 332.641C139.379 333.661 136.575 334.425 133.662 334.862C133.59 334.862 133.553 334.862 133.48 334.899C131.514 335.226 129.475 335.408 127.546 335.408C122.812 335.408 118.37 334.498 114.547 332.896C112.399 331.913 110.433 330.784 108.649 329.51C107.302 328.563 106.064 327.544 104.899 326.415C104.607 326.124 104.28 325.833 103.988 325.541C99.5099 320.808 96.3786 314.691 94.5945 307.154C93.5022 302.494 92.7376 297.214 92.3007 291.316C92.0458 287.748 91.9366 283.925 91.9366 279.883V213.726C91.9366 207.646 91.5725 202.33 90.9171 197.706C90.2253 193.118 88.7325 189.113 86.4387 185.727C84.1085 182.341 80.7588 179.355 76.3896 176.807C72.0204 174.258 66.0127 172.037 58.4031 170.071V169.343C72.3117 166.94 81.3777 162.097 85.5649 154.815C89.7884 147.569 91.9366 138.321 91.9366 127.18V52.9765C91.9366 49.6632 92.0458 46.4955 92.3007 43.5099C92.1187 31.7131 89.3879 22.5378 84.1085 15.984C81.8875 13.1804 78.9747 10.7045 75.4793 8.51993C71.1101 5.78918 65.7579 3.45894 59.3861 1.56563C58.4031 1.27435 57.2015 0.764609 56 0.3641L64.0102 0C66.5953 0.0364099 69.0712 0.14564 71.4742 0.3641H71.547C77.0814 0.764609 82.0331 1.49281 86.4023 2.5487C88.2228 2.98562 89.9705 3.49535 91.6453 4.0415C97.2525 5.97123 101.913 8.59275 105.59 11.9789C105.627 11.9789 105.627 11.9789 105.627 11.9789C110.396 16.3481 113.746 21.8824 115.639 28.5454C116.877 32.9146 117.715 37.7935 118.188 43.255C118.152 43.9468 118.152 44.6386 118.152 45.3304V120.262C118.152 133.843 115.894 144.73 111.416 152.995C109.96 155.652 108.03 158.056 105.627 160.131C100.639 164.464 93.6479 167.522 84.6182 169.343V170.071C91.6817 171.782 97.3981 174.258 101.804 177.535C102.896 178.372 103.952 179.246 104.935 180.193C107.811 182.887 110.178 185.946 112.035 189.368C114.474 193.956 116.149 199.162 116.95 205.024C117.788 210.85 118.188 217.258 118.188 224.285V294.119C118.188 295.467 118.225 296.777 118.297 298.052C118.989 309.594 122.849 318.878 129.839 325.905C129.876 325.905 129.876 325.942 129.912 325.978L130.422 326.488C130.713 326.816 131.041 327.107 131.369 327.362L131.405 327.398C134.026 329.546 137.595 330.857 141.563 330.857C143.129 330.857 145.532 330.275 147.061 329.838C147.826 329.619 148.372 329.437 148.481 329.401L141.782 332.641Z" fill="#F1F1F1"/>
<defs>
<linearGradient id="paint0_linear_2288_2" x1="159.305" y1="43.937" x2="4.60225" y2="330.636" gradientUnits="userSpaceOnUse">
<stop stop-color="#FFD876"/>
<stop offset="0.854167" stop-color="#D6326E"/>
</linearGradient>
</defs>
</svg>
