<svg width="305" height="109" viewBox="0 0 305 109" fill="none" xmlns="http://www.w3.org/2000/svg">
<path d="M2.07568 94H295" stroke="#888888"/>
<path d="M77.5381 61.6421H232.511" stroke="#888888"/>
<path d="M1.92627 16.4912H73.1638" stroke="#888888"/>
<line x1="103.243" y1="16.8369" x2="294.851" y2="16.8369" stroke="#888888"/>
<line x1="2.42627" y1="16.1741" x2="2.42627" y2="24.4196" stroke="#888888"/>
<path d="M2.37354 53.2791L2.37353 92.4475" stroke="#888888"/>
<line x1="73.0498" y1="16.1741" x2="73.0498" y2="24.4196" stroke="#888888"/>
<line x1="33.7153" y1="11.0999" x2="33.7153" y2="16.1741" stroke="#888888"/>
<path d="M103.541 16.8162L103.541 25.8056" stroke="#888888"/>
<line x1="78.0381" y1="55.2209" x2="78.0381" y2="61.8808" stroke="#888888"/>
<line x1="232.386" y1="54.8572" x2="232.386" y2="61.5171" stroke="#888888"/>
<line x1="294.875" y1="54" x2="294.875" y2="94" stroke="#888888"/>
<line x1="91.5254" y1="94.2949" x2="91.5254" y2="99.3691" stroke="#888888"/>
<line x1="146.356" y1="61.8418" x2="146.356" y2="66.916" stroke="#888888"/>
<path d="M295 16.6948V25.6843" stroke="#888888"/>
<line x1="195.524" y1="12.0593" x2="195.524" y2="17.1335" stroke="#888888"/>
<path d="M31.7246 9.09668C31.2471 9.09668 30.8369 8.99561 30.4941 8.79346C30.1543 8.59131 29.8921 8.3042 29.7075 7.93213C29.5229 7.56006 29.4307 7.11914 29.4307 6.60938V6.60498C29.4307 6.10107 29.5215 5.66162 29.7031 5.28662C29.8877 4.91162 30.1484 4.62158 30.4854 4.4165C30.8223 4.2085 31.2178 4.10449 31.6719 4.10449C32.1289 4.10449 32.5215 4.20557 32.8496 4.40771C33.1807 4.60693 33.4355 4.88672 33.6143 5.24707C33.793 5.60742 33.8823 6.0293 33.8823 6.5127V6.87305H29.98V6.13916H33.3462L32.8276 6.82471V6.38965C32.8276 6.07031 32.7793 5.80518 32.6826 5.59424C32.5859 5.3833 32.4512 5.2251 32.2783 5.11963C32.1084 5.01416 31.9106 4.96143 31.6851 4.96143C31.4595 4.96143 31.2588 5.01709 31.083 5.12842C30.9102 5.23682 30.7725 5.39795 30.6699 5.61182C30.5703 5.82275 30.5205 6.08203 30.5205 6.38965V6.8291C30.5205 7.125 30.5703 7.37842 30.6699 7.58936C30.7695 7.79736 30.9102 7.9585 31.0918 8.07275C31.2764 8.18408 31.4946 8.23975 31.7466 8.23975C31.9429 8.23975 32.1113 8.21191 32.252 8.15625C32.3955 8.09766 32.5112 8.02881 32.5991 7.94971C32.687 7.86768 32.7485 7.79004 32.7837 7.7168L32.7969 7.68604H33.834L33.8252 7.72559C33.7871 7.88086 33.7168 8.03906 33.6143 8.2002C33.5146 8.3584 33.3784 8.50635 33.2056 8.64404C33.0356 8.77881 32.8276 8.88867 32.5815 8.97363C32.3354 9.05566 32.0498 9.09668 31.7246 9.09668ZM36.5674 9.09668C36.21 9.09668 35.9097 9.02783 35.6665 8.89014C35.4233 8.74951 35.2402 8.5459 35.1172 8.2793C34.9941 8.00977 34.9326 7.68457 34.9326 7.30371V4.19678H36.0269V7.05322C36.0269 7.42529 36.1001 7.70508 36.2466 7.89258C36.3931 8.08008 36.6318 8.17383 36.9629 8.17383C37.1387 8.17383 37.2939 8.14746 37.4287 8.09473C37.5664 8.03906 37.6807 7.95996 37.7715 7.85742C37.8623 7.75488 37.9312 7.63184 37.978 7.48828C38.0249 7.3418 38.0483 7.17773 38.0483 6.99609V4.19678H39.1426V9H38.0483V8.27051H37.9736C37.9004 8.44043 37.7979 8.58838 37.666 8.71436C37.5342 8.8374 37.376 8.93262 37.1914 9C37.0068 9.06445 36.7988 9.09668 36.5674 9.09668Z" fill="#2A2A2A"/>
<path d="M184.586 9L183.281 4.19678H184.38L185.175 7.80908H185.254L186.177 4.19678H187.219L188.146 7.80908H188.225L189.021 4.19678H190.106L188.801 9H187.658L186.722 5.51953H186.647L185.716 9H184.586ZM192.914 9.09668C192.437 9.09668 192.026 8.99561 191.684 8.79346C191.344 8.59131 191.082 8.3042 190.897 7.93213C190.712 7.56006 190.62 7.11914 190.62 6.60938V6.60498C190.62 6.10107 190.711 5.66162 190.893 5.28662C191.077 4.91162 191.338 4.62158 191.675 4.4165C192.012 4.2085 192.407 4.10449 192.861 4.10449C193.318 4.10449 193.711 4.20557 194.039 4.40771C194.37 4.60693 194.625 4.88672 194.804 5.24707C194.982 5.60742 195.072 6.0293 195.072 6.5127V6.87305H191.169V6.13916H194.536L194.017 6.82471V6.38965C194.017 6.07031 193.969 5.80518 193.872 5.59424C193.775 5.3833 193.641 5.2251 193.468 5.11963C193.298 5.01416 193.1 4.96143 192.875 4.96143C192.649 4.96143 192.448 5.01709 192.272 5.12842C192.1 5.23682 191.962 5.39795 191.859 5.61182C191.76 5.82275 191.71 6.08203 191.71 6.38965V6.8291C191.71 7.125 191.76 7.37842 191.859 7.58936C191.959 7.79736 192.1 7.9585 192.281 8.07275C192.466 8.18408 192.684 8.23975 192.936 8.23975C193.132 8.23975 193.301 8.21191 193.441 8.15625C193.585 8.09766 193.701 8.02881 193.789 7.94971C193.876 7.86768 193.938 7.79004 193.973 7.7168L193.986 7.68604H195.023L195.015 7.72559C194.977 7.88086 194.906 8.03906 194.804 8.2002C194.704 8.3584 194.568 8.50635 194.395 8.64404C194.225 8.77881 194.017 8.88867 193.771 8.97363C193.525 9.05566 193.239 9.09668 192.914 9.09668ZM198.838 9.0791C198.612 9.0791 198.406 9.04688 198.218 8.98242C198.031 8.91504 197.865 8.81982 197.722 8.69678C197.581 8.5708 197.467 8.42139 197.379 8.24854H197.304V9H196.21V2.33789H197.304V4.96143H197.379C197.464 4.78857 197.578 4.63916 197.722 4.51318C197.865 4.38721 198.032 4.29053 198.223 4.22314C198.413 4.15283 198.618 4.11768 198.838 4.11768C199.242 4.11768 199.591 4.21875 199.884 4.4209C200.18 4.62012 200.408 4.90576 200.569 5.27783C200.73 5.64697 200.811 6.08643 200.811 6.59619V6.60498C200.811 7.10889 200.729 7.54688 200.565 7.91895C200.404 8.29102 200.175 8.57812 199.879 8.78027C199.586 8.97949 199.239 9.0791 198.838 9.0791ZM198.495 8.15625C198.744 8.15625 198.958 8.09473 199.137 7.97168C199.315 7.8457 199.453 7.66699 199.55 7.43555C199.646 7.2041 199.695 6.92725 199.695 6.60498V6.59619C199.695 6.27393 199.646 5.99707 199.55 5.76562C199.453 5.53125 199.315 5.35254 199.137 5.22949C198.958 5.10352 198.744 5.04053 198.495 5.04053C198.249 5.04053 198.035 5.10352 197.854 5.22949C197.672 5.35547 197.531 5.53418 197.432 5.76562C197.335 5.99707 197.287 6.27393 197.287 6.59619V6.60498C197.287 6.92432 197.335 7.20117 197.432 7.43555C197.531 7.66699 197.67 7.8457 197.849 7.97168C198.031 8.09473 198.246 8.15625 198.495 8.15625ZM203.72 9.09668C203.313 9.09668 202.961 9.03955 202.666 8.92529C202.373 8.80811 202.141 8.64697 201.971 8.44189C201.801 8.23389 201.7 7.99365 201.668 7.72119V7.7124H202.753L202.758 7.72119C202.816 7.88818 202.926 8.02441 203.087 8.12988C203.249 8.23535 203.465 8.28809 203.738 8.28809C203.919 8.28809 204.079 8.26318 204.217 8.21338C204.354 8.16064 204.463 8.08887 204.542 7.99805C204.621 7.90723 204.661 7.80176 204.661 7.68164V7.67285C204.661 7.53223 204.604 7.41504 204.489 7.32129C204.375 7.22461 204.186 7.14697 203.922 7.08838L203.145 6.9126C202.84 6.84521 202.588 6.75146 202.389 6.63135C202.189 6.51123 202.04 6.36328 201.94 6.1875C201.844 6.01172 201.795 5.80664 201.795 5.57227V5.56787C201.795 5.27783 201.876 5.02295 202.037 4.80322C202.201 4.5835 202.428 4.41211 202.718 4.28906C203.008 4.16602 203.342 4.10449 203.72 4.10449C204.11 4.10449 204.445 4.16309 204.727 4.28027C205.008 4.39746 205.228 4.55859 205.386 4.76367C205.544 4.96875 205.635 5.20166 205.658 5.4624V5.47119H204.63L204.625 5.45801C204.584 5.30566 204.486 5.17676 204.331 5.07129C204.179 4.96289 203.974 4.90869 203.716 4.90869C203.555 4.90869 203.41 4.93359 203.281 4.9834C203.155 5.0332 203.055 5.10352 202.982 5.19434C202.912 5.28223 202.876 5.38623 202.876 5.50635V5.51074C202.876 5.60449 202.9 5.68652 202.947 5.75684C202.997 5.82715 203.074 5.88867 203.18 5.94141C203.285 5.99414 203.424 6.04102 203.597 6.08203L204.375 6.25342C204.847 6.35889 205.195 6.51562 205.421 6.72363C205.646 6.93164 205.759 7.21143 205.759 7.56299V7.57178C205.759 7.87646 205.671 8.14307 205.496 8.37158C205.32 8.6001 205.078 8.77881 204.771 8.90771C204.463 9.03369 204.113 9.09668 203.72 9.09668ZM206.875 9V4.19678H207.965V9H206.875ZM207.425 3.39258C207.246 3.39258 207.092 3.32959 206.963 3.20361C206.834 3.07764 206.77 2.92676 206.77 2.75098C206.77 2.56934 206.834 2.41699 206.963 2.29395C207.092 2.16797 207.246 2.10498 207.425 2.10498C207.604 2.10498 207.756 2.16797 207.882 2.29395C208.011 2.41699 208.075 2.56934 208.075 2.75098C208.075 2.92676 208.011 3.07764 207.882 3.20361C207.756 3.32959 207.604 3.39258 207.425 3.39258ZM211.204 9.02197C210.653 9.02197 210.256 8.9209 210.013 8.71875C209.77 8.5166 209.648 8.18555 209.648 7.72559V5.04492H208.901V4.19678H209.648V3.01904H210.76V4.19678H211.771V5.04492H210.76V7.46631C210.76 7.70361 210.81 7.87793 210.91 7.98926C211.012 8.09766 211.176 8.15186 211.402 8.15186C211.481 8.15186 211.545 8.15039 211.595 8.14746C211.648 8.1416 211.707 8.13574 211.771 8.12988V8.97363C211.695 8.98828 211.607 9 211.507 9.00879C211.411 9.01758 211.31 9.02197 211.204 9.02197ZM214.878 9.09668C214.4 9.09668 213.99 8.99561 213.647 8.79346C213.308 8.59131 213.045 8.3042 212.861 7.93213C212.676 7.56006 212.584 7.11914 212.584 6.60938V6.60498C212.584 6.10107 212.675 5.66162 212.856 5.28662C213.041 4.91162 213.302 4.62158 213.639 4.4165C213.976 4.2085 214.371 4.10449 214.825 4.10449C215.282 4.10449 215.675 4.20557 216.003 4.40771C216.334 4.60693 216.589 4.88672 216.768 5.24707C216.946 5.60742 217.036 6.0293 217.036 6.5127V6.87305H213.133V6.13916H216.5L215.981 6.82471V6.38965C215.981 6.07031 215.933 5.80518 215.836 5.59424C215.739 5.3833 215.604 5.2251 215.432 5.11963C215.262 5.01416 215.064 4.96143 214.838 4.96143C214.613 4.96143 214.412 5.01709 214.236 5.12842C214.063 5.23682 213.926 5.39795 213.823 5.61182C213.724 5.82275 213.674 6.08203 213.674 6.38965V6.8291C213.674 7.125 213.724 7.37842 213.823 7.58936C213.923 7.79736 214.063 7.9585 214.245 8.07275C214.43 8.18408 214.648 8.23975 214.9 8.23975C215.096 8.23975 215.265 8.21191 215.405 8.15625C215.549 8.09766 215.665 8.02881 215.752 7.94971C215.84 7.86768 215.902 7.79004 215.937 7.7168L215.95 7.68604H216.987L216.979 7.72559C216.94 7.88086 216.87 8.03906 216.768 8.2002C216.668 8.3584 216.532 8.50635 216.359 8.64404C216.189 8.77881 215.981 8.88867 215.735 8.97363C215.489 9.05566 215.203 9.09668 214.878 9.09668Z" fill="#2A2A2A"/>
<path d="M83.7246 108.097C83.2471 108.097 82.8369 107.996 82.4941 107.793C82.1543 107.591 81.8921 107.304 81.7075 106.932C81.5229 106.56 81.4307 106.119 81.4307 105.609V105.605C81.4307 105.101 81.5215 104.662 81.7031 104.287C81.8877 103.912 82.1484 103.622 82.4854 103.417C82.8223 103.208 83.2178 103.104 83.6719 103.104C84.1289 103.104 84.5215 103.206 84.8496 103.408C85.1807 103.607 85.4355 103.887 85.6143 104.247C85.793 104.607 85.8823 105.029 85.8823 105.513V105.873H81.98V105.139H85.3462L84.8276 105.825V105.39C84.8276 105.07 84.7793 104.805 84.6826 104.594C84.5859 104.383 84.4512 104.225 84.2783 104.12C84.1084 104.014 83.9106 103.961 83.6851 103.961C83.4595 103.961 83.2588 104.017 83.083 104.128C82.9102 104.237 82.7725 104.398 82.6699 104.612C82.5703 104.823 82.5205 105.082 82.5205 105.39V105.829C82.5205 106.125 82.5703 106.378 82.6699 106.589C82.7695 106.797 82.9102 106.958 83.0918 107.073C83.2764 107.184 83.4946 107.24 83.7466 107.24C83.9429 107.24 84.1113 107.212 84.252 107.156C84.3955 107.098 84.5112 107.029 84.5991 106.95C84.687 106.868 84.7485 106.79 84.7837 106.717L84.7969 106.686H85.834L85.8252 106.726C85.7871 106.881 85.7168 107.039 85.6143 107.2C85.5146 107.358 85.3784 107.506 85.2056 107.644C85.0356 107.779 84.8276 107.889 84.5815 107.974C84.3354 108.056 84.0498 108.097 83.7246 108.097ZM86.9985 105.939V104.946H89.9341V105.939H86.9985ZM91.292 108V103.197H92.3862V103.944H92.4609C92.5635 103.677 92.729 103.471 92.9575 103.324C93.189 103.178 93.4629 103.104 93.7793 103.104C93.9961 103.104 94.1909 103.14 94.3638 103.21C94.5396 103.28 94.6904 103.38 94.8164 103.509C94.9424 103.638 95.0391 103.792 95.1064 103.97H95.1855C95.2646 103.797 95.3745 103.646 95.5151 103.518C95.6587 103.386 95.8257 103.285 96.0161 103.214C96.2095 103.141 96.4175 103.104 96.6401 103.104C96.9624 103.104 97.2378 103.169 97.4663 103.298C97.6978 103.424 97.875 103.605 97.998 103.843C98.124 104.08 98.187 104.364 98.187 104.695V108H97.0928V104.963C97.0928 104.752 97.0605 104.578 96.9961 104.44C96.9346 104.303 96.8394 104.199 96.7104 104.128C96.5815 104.058 96.4189 104.023 96.2227 104.023C96.0322 104.023 95.8667 104.067 95.7261 104.155C95.5854 104.24 95.4756 104.355 95.3965 104.502C95.3203 104.648 95.2822 104.814 95.2822 104.999V108H94.188V104.884C94.188 104.706 94.1528 104.552 94.0825 104.423C94.0151 104.294 93.9155 104.196 93.7837 104.128C93.6548 104.058 93.501 104.023 93.3223 104.023C93.1436 104.023 92.9824 104.07 92.8389 104.164C92.6982 104.254 92.5869 104.38 92.5049 104.542C92.4258 104.7 92.3862 104.878 92.3862 105.078V108H91.292ZM100.784 108.079C100.482 108.079 100.211 108.021 99.9712 107.903C99.7339 107.786 99.5464 107.621 99.4087 107.407C99.2739 107.19 99.2065 106.935 99.2065 106.642V106.633C99.2065 106.349 99.2769 106.104 99.4175 105.899C99.5581 105.691 99.7646 105.529 100.037 105.412C100.31 105.294 100.641 105.226 101.03 105.205L102.806 105.095V105.816L101.184 105.921C100.876 105.939 100.649 106.003 100.503 106.115C100.356 106.226 100.283 106.381 100.283 106.581V106.589C100.283 106.794 100.361 106.954 100.516 107.068C100.674 107.183 100.875 107.24 101.118 107.24C101.338 107.24 101.534 107.196 101.707 107.108C101.88 107.02 102.016 106.901 102.116 106.752C102.215 106.6 102.265 106.428 102.265 106.238V104.717C102.265 104.477 102.189 104.294 102.037 104.168C101.884 104.039 101.659 103.975 101.36 103.975C101.111 103.975 100.907 104.019 100.749 104.106C100.591 104.191 100.484 104.313 100.428 104.471L100.424 104.489H99.3911L99.3955 104.449C99.4307 104.18 99.5361 103.944 99.7119 103.742C99.8877 103.54 100.121 103.383 100.411 103.271C100.701 103.16 101.035 103.104 101.413 103.104C101.829 103.104 102.18 103.169 102.467 103.298C102.754 103.424 102.973 103.608 103.122 103.852C103.271 104.092 103.346 104.38 103.346 104.717V108H102.265V107.341H102.19C102.103 107.493 101.988 107.625 101.848 107.736C101.71 107.848 101.552 107.933 101.373 107.991C101.194 108.05 100.998 108.079 100.784 108.079ZM104.673 108V103.197H105.763V108H104.673ZM105.223 102.393C105.044 102.393 104.89 102.33 104.761 102.204C104.632 102.078 104.568 101.927 104.568 101.751C104.568 101.569 104.632 101.417 104.761 101.294C104.89 101.168 105.044 101.105 105.223 101.105C105.401 101.105 105.554 101.168 105.68 101.294C105.809 101.417 105.873 101.569 105.873 101.751C105.873 101.927 105.809 102.078 105.68 102.204C105.554 102.33 105.401 102.393 105.223 102.393ZM107.156 108V101.338H108.25V108H107.156Z" fill="#2A2A2A"/>
<path d="M131.681 77V72.1968H132.771V77H131.681ZM132.23 71.3926C132.052 71.3926 131.898 71.3296 131.769 71.2036C131.64 71.0776 131.576 70.9268 131.576 70.751C131.576 70.5693 131.64 70.417 131.769 70.2939C131.898 70.168 132.052 70.105 132.23 70.105C132.409 70.105 132.562 70.168 132.688 70.2939C132.816 70.417 132.881 70.5693 132.881 70.751C132.881 70.9268 132.816 71.0776 132.688 71.2036C132.562 71.3296 132.409 71.3926 132.23 71.3926ZM134.12 77V72.1968H135.214V72.9351H135.289C135.403 72.6743 135.576 72.4707 135.808 72.3242C136.039 72.1777 136.328 72.1045 136.673 72.1045C137.209 72.1045 137.62 72.2598 137.904 72.5703C138.188 72.8809 138.33 73.3218 138.33 73.8931V77H137.236V74.1479C137.236 73.7729 137.157 73.4917 136.999 73.3042C136.843 73.1167 136.6 73.0229 136.269 73.0229C136.052 73.0229 135.865 73.0713 135.707 73.168C135.548 73.2646 135.427 73.4009 135.342 73.5767C135.257 73.7524 135.214 73.9604 135.214 74.2007V77H134.12ZM141.437 77.0967C141.03 77.0967 140.678 77.0396 140.382 76.9253C140.089 76.8081 139.858 76.647 139.688 76.4419C139.518 76.2339 139.417 75.9937 139.385 75.7212V75.7124H140.47L140.475 75.7212C140.533 75.8882 140.643 76.0244 140.804 76.1299C140.965 76.2354 141.182 76.2881 141.455 76.2881C141.636 76.2881 141.796 76.2632 141.934 76.2134C142.071 76.1606 142.18 76.0889 142.259 75.998C142.338 75.9072 142.377 75.8018 142.377 75.6816V75.6729C142.377 75.5322 142.32 75.415 142.206 75.3213C142.092 75.2246 141.903 75.147 141.639 75.0884L140.861 74.9126C140.557 74.8452 140.305 74.7515 140.105 74.6313C139.906 74.5112 139.757 74.3633 139.657 74.1875C139.561 74.0117 139.512 73.8066 139.512 73.5723V73.5679C139.512 73.2778 139.593 73.0229 139.754 72.8032C139.918 72.5835 140.145 72.4121 140.435 72.2891C140.725 72.166 141.059 72.1045 141.437 72.1045C141.827 72.1045 142.162 72.1631 142.443 72.2803C142.725 72.3975 142.944 72.5586 143.103 72.7637C143.261 72.9688 143.352 73.2017 143.375 73.4624V73.4712H142.347L142.342 73.458C142.301 73.3057 142.203 73.1768 142.048 73.0713C141.896 72.9629 141.69 72.9087 141.433 72.9087C141.271 72.9087 141.126 72.9336 140.998 72.9834C140.872 73.0332 140.772 73.1035 140.699 73.1943C140.628 73.2822 140.593 73.3862 140.593 73.5063V73.5107C140.593 73.6045 140.617 73.6865 140.664 73.7568C140.713 73.8271 140.791 73.8887 140.896 73.9414C141.002 73.9941 141.141 74.041 141.314 74.082L142.092 74.2534C142.563 74.3589 142.912 74.5156 143.138 74.7236C143.363 74.9316 143.476 75.2114 143.476 75.563V75.5718C143.476 75.8765 143.388 76.1431 143.212 76.3716C143.037 76.6001 142.795 76.7788 142.487 76.9077C142.18 77.0337 141.83 77.0967 141.437 77.0967ZM146.442 77.022C145.892 77.022 145.495 76.9209 145.251 76.7188C145.008 76.5166 144.887 76.1855 144.887 75.7256V73.0449H144.14V72.1968H144.887V71.019H145.999V72.1968H147.009V73.0449H145.999V75.4663C145.999 75.7036 146.048 75.8779 146.148 75.9893C146.25 76.0977 146.415 76.1519 146.64 76.1519C146.719 76.1519 146.784 76.1504 146.833 76.1475C146.886 76.1416 146.945 76.1357 147.009 76.1299V76.9736C146.933 76.9883 146.845 77 146.746 77.0088C146.649 77.0176 146.548 77.022 146.442 77.022ZM149.413 77.0791C149.111 77.0791 148.84 77.0205 148.6 76.9033C148.363 76.7861 148.175 76.6206 148.038 76.4067C147.903 76.1899 147.835 75.9351 147.835 75.6421V75.6333C147.835 75.3491 147.906 75.1045 148.046 74.8994C148.187 74.6914 148.394 74.5288 148.666 74.4116C148.938 74.2944 149.27 74.2256 149.659 74.2051L151.435 74.0952V74.8159L149.813 74.9214C149.505 74.939 149.278 75.0034 149.132 75.1147C148.985 75.2261 148.912 75.3813 148.912 75.5806V75.5894C148.912 75.7944 148.99 75.9541 149.145 76.0684C149.303 76.1826 149.504 76.2397 149.747 76.2397C149.967 76.2397 150.163 76.1958 150.336 76.1079C150.509 76.02 150.645 75.9014 150.745 75.752C150.844 75.5996 150.894 75.4282 150.894 75.2378V73.7173C150.894 73.4771 150.818 73.2939 150.666 73.168C150.513 73.0391 150.288 72.9746 149.989 72.9746C149.74 72.9746 149.536 73.0186 149.378 73.1064C149.22 73.1914 149.113 73.313 149.057 73.4712L149.053 73.4888H148.02L148.024 73.4492C148.06 73.1797 148.165 72.9438 148.341 72.7417C148.517 72.5396 148.75 72.3828 149.04 72.2715C149.33 72.1602 149.664 72.1045 150.042 72.1045C150.458 72.1045 150.809 72.1689 151.096 72.2979C151.383 72.4238 151.602 72.6084 151.751 72.8516C151.9 73.0918 151.975 73.3804 151.975 73.7173V77H150.894V76.3408H150.819C150.731 76.4932 150.617 76.625 150.477 76.7363C150.339 76.8477 150.181 76.9326 150.002 76.9912C149.823 77.0498 149.627 77.0791 149.413 77.0791ZM155.354 78.6875C154.933 78.6875 154.568 78.6318 154.26 78.5205C153.956 78.4092 153.715 78.251 153.54 78.0459C153.364 77.8438 153.257 77.6079 153.219 77.3384L153.223 77.3252H154.313L154.322 77.3384C154.357 77.4907 154.464 77.6152 154.643 77.7119C154.824 77.8115 155.067 77.8613 155.372 77.8613C155.747 77.8613 156.037 77.7778 156.242 77.6108C156.45 77.4438 156.554 77.2065 156.554 76.8989V75.9761H156.479C156.389 76.1489 156.27 76.2954 156.124 76.4155C155.98 76.5356 155.814 76.6265 155.627 76.688C155.442 76.7466 155.239 76.7759 155.016 76.7759C154.612 76.7759 154.262 76.6792 153.966 76.4858C153.67 76.2896 153.441 76.0186 153.28 75.6729C153.122 75.3271 153.043 74.9272 153.043 74.4731V74.4644C153.043 74.0015 153.124 73.5942 153.285 73.2427C153.446 72.8911 153.674 72.6157 153.97 72.4165C154.269 72.2173 154.625 72.1177 155.038 72.1177C155.261 72.1177 155.464 72.1528 155.649 72.2231C155.836 72.2935 156 72.3931 156.141 72.522C156.285 72.6509 156.402 72.8062 156.493 72.9878H156.55V72.1968H157.644V76.8813C157.644 77.2505 157.55 77.5698 157.363 77.8394C157.178 78.1118 156.915 78.3213 156.572 78.4678C156.229 78.6143 155.823 78.6875 155.354 78.6875ZM155.354 75.9058C155.606 75.9058 155.823 75.8457 156.005 75.7256C156.187 75.6025 156.326 75.4341 156.422 75.2202C156.522 75.0063 156.572 74.7573 156.572 74.4731V74.4644C156.572 74.1802 156.522 73.9312 156.422 73.7173C156.326 73.5005 156.187 73.332 156.005 73.2119C155.823 73.0889 155.606 73.0273 155.354 73.0273C155.1 73.0273 154.883 73.0889 154.704 73.2119C154.528 73.332 154.394 73.5005 154.3 73.7173C154.209 73.9312 154.164 74.1802 154.164 74.4644V74.4731C154.164 74.7544 154.209 75.0034 154.3 75.2202C154.394 75.4341 154.528 75.6025 154.704 75.7256C154.883 75.8457 155.1 75.9058 155.354 75.9058ZM158.984 77V72.1968H160.079V72.9351H160.153C160.235 72.6772 160.382 72.4766 160.593 72.333C160.807 72.1895 161.072 72.1177 161.388 72.1177C161.47 72.1177 161.551 72.1235 161.63 72.1353C161.712 72.144 161.779 72.1558 161.832 72.1704V73.1504C161.744 73.1299 161.655 73.1152 161.564 73.1064C161.476 73.0947 161.384 73.0889 161.287 73.0889C161.044 73.0889 160.832 73.1343 160.65 73.2251C160.468 73.3159 160.328 73.4463 160.228 73.6162C160.128 73.7832 160.079 73.981 160.079 74.2095V77H158.984ZM163.977 77.0791C163.675 77.0791 163.404 77.0205 163.164 76.9033C162.926 76.7861 162.739 76.6206 162.601 76.4067C162.466 76.1899 162.399 75.9351 162.399 75.6421V75.6333C162.399 75.3491 162.469 75.1045 162.61 74.8994C162.75 74.6914 162.957 74.5288 163.229 74.4116C163.502 74.2944 163.833 74.2256 164.223 74.2051L165.998 74.0952V74.8159L164.376 74.9214C164.069 74.939 163.842 75.0034 163.695 75.1147C163.549 75.2261 163.476 75.3813 163.476 75.5806V75.5894C163.476 75.7944 163.553 75.9541 163.708 76.0684C163.867 76.1826 164.067 76.2397 164.311 76.2397C164.53 76.2397 164.727 76.1958 164.899 76.1079C165.072 76.02 165.208 75.9014 165.308 75.752C165.408 75.5996 165.458 75.4282 165.458 75.2378V73.7173C165.458 73.4771 165.381 73.2939 165.229 73.168C165.077 73.0391 164.851 72.9746 164.552 72.9746C164.303 72.9746 164.1 73.0186 163.941 73.1064C163.783 73.1914 163.676 73.313 163.621 73.4712L163.616 73.4888H162.583L162.588 73.4492C162.623 73.1797 162.729 72.9438 162.904 72.7417C163.08 72.5396 163.313 72.3828 163.603 72.2715C163.893 72.1602 164.227 72.1045 164.605 72.1045C165.021 72.1045 165.373 72.1689 165.66 72.2979C165.947 72.4238 166.165 72.6084 166.314 72.8516C166.464 73.0918 166.539 73.3804 166.539 73.7173V77H165.458V76.3408H165.383C165.295 76.4932 165.181 76.625 165.04 76.7363C164.902 76.8477 164.744 76.9326 164.565 76.9912C164.387 77.0498 164.19 77.0791 163.977 77.0791ZM167.853 77V72.1968H168.947V72.9438H169.021C169.124 72.6772 169.29 72.4707 169.518 72.3242C169.75 72.1777 170.023 72.1045 170.34 72.1045C170.557 72.1045 170.751 72.1396 170.924 72.21C171.1 72.2803 171.251 72.3799 171.377 72.5088C171.503 72.6377 171.6 72.7915 171.667 72.9702H171.746C171.825 72.7974 171.935 72.6465 172.076 72.5176C172.219 72.3857 172.386 72.2847 172.577 72.2144C172.77 72.1411 172.978 72.1045 173.201 72.1045C173.523 72.1045 173.798 72.1689 174.027 72.2979C174.258 72.4238 174.436 72.6055 174.559 72.8428C174.685 73.0801 174.748 73.3643 174.748 73.6953V77H173.653V73.9634C173.653 73.7524 173.621 73.5781 173.557 73.4404C173.495 73.3027 173.4 73.1987 173.271 73.1284C173.142 73.0581 172.979 73.0229 172.783 73.0229C172.593 73.0229 172.427 73.0669 172.287 73.1548C172.146 73.2397 172.036 73.3555 171.957 73.502C171.881 73.6484 171.843 73.814 171.843 73.9985V77H170.749V73.8843C170.749 73.7056 170.713 73.5518 170.643 73.4229C170.576 73.2939 170.476 73.1958 170.344 73.1284C170.215 73.0581 170.062 73.0229 169.883 73.0229C169.704 73.0229 169.543 73.0698 169.399 73.1636C169.259 73.2544 169.147 73.3804 169.065 73.5415C168.986 73.6997 168.947 73.8784 168.947 74.0776V77H167.853Z" fill="#2A2A2A"/>
<path d="M1.49414 49.5474V34.02H5.1416V36.7007H5.21484C5.69824 34.8257 6.9873 33.6978 8.77441 33.6978C9.22852 33.6978 9.65332 33.771 9.93164 33.8442V37.1401C9.62402 37.0229 9.06738 36.9351 8.45215 36.9351C6.38672 36.9351 5.1416 38.2388 5.1416 40.5386V49.5474H1.49414ZM16.04 49.811C12.9346 49.811 10.8398 47.8921 10.8398 45.1235V45.0942C10.8398 42.3403 12.9785 40.6851 16.7432 40.4507L20.8008 40.2017V39.1323C20.8008 37.5649 19.7754 36.6128 17.9297 36.6128C16.2012 36.6128 15.1465 37.4185 14.9121 38.561L14.8828 38.6929H11.499L11.5137 38.5171C11.7334 35.7632 14.1211 33.6978 18.0615 33.6978C21.9434 33.6978 24.4482 35.7485 24.4482 38.8687V49.5474H20.8008V47.1597H20.7129C19.8193 48.7856 18.0908 49.811 16.04 49.811ZM14.4727 44.9771C14.4727 46.2515 15.5273 47.0278 17.124 47.0278C19.2188 47.0278 20.8008 45.6362 20.8008 43.7905V42.6187L17.2559 42.8384C15.4541 42.9556 14.4727 43.7319 14.4727 44.9624V44.9771ZM28.4033 49.5474V36.8325H26.2793V34.02H28.4033V32.5405C28.4033 29.5083 29.8389 28.1021 33.208 28.1021C33.9258 28.1021 34.7021 28.1606 35.1562 28.2485V30.7974C34.8633 30.7534 34.4531 30.7241 34.0576 30.7241C32.6367 30.7241 31.9775 31.3833 31.9775 32.6431V34.02H35.0977V36.8325H32.0508V49.5474H28.4033ZM41.2354 49.811C38.1299 49.811 36.0352 47.8921 36.0352 45.1235V45.0942C36.0352 42.3403 38.1738 40.6851 41.9385 40.4507L45.9961 40.2017V39.1323C45.9961 37.5649 44.9707 36.6128 43.125 36.6128C41.3965 36.6128 40.3418 37.4185 40.1074 38.561L40.0781 38.6929H36.6943L36.709 38.5171C36.9287 35.7632 39.3164 33.6978 43.2568 33.6978C47.1387 33.6978 49.6436 35.7485 49.6436 38.8687V49.5474H45.9961V47.1597H45.9082C45.0146 48.7856 43.2861 49.811 41.2354 49.811ZM39.668 44.9771C39.668 46.2515 40.7227 47.0278 42.3193 47.0278C44.4141 47.0278 45.9961 45.6362 45.9961 43.7905V42.6187L42.4512 42.8384C40.6494 42.9556 39.668 43.7319 39.668 44.9624V44.9771ZM59.4141 49.855C54.7559 49.855 51.9434 46.7642 51.9434 41.8276V41.813C51.9434 36.9204 54.7998 33.6978 59.2383 33.6978C63.6768 33.6978 66.4307 36.8179 66.4307 41.5054V42.6772H55.5615C55.6201 45.4019 57.1143 47.0132 59.4873 47.0132C61.3037 47.0132 62.4902 46.0464 62.8418 45.0063L62.8711 44.9038H66.2842L66.2402 45.0649C65.7568 47.4526 63.4717 49.855 59.4141 49.855ZM59.2822 36.5542C57.3486 36.5542 55.8984 37.8579 55.6055 40.2456H62.8857C62.6221 37.7847 61.2158 36.5542 59.2822 36.5542ZM68.8916 49.5474V28.4097H72.5391V49.5474H68.8916ZM88.125 53.063C80.6982 53.063 75.4248 48.5366 75.4248 40.729V40.7144C75.4248 33.4048 80.4932 28.4097 87.7441 28.4097C94.7168 28.4097 99.5801 32.7749 99.5801 39.645V39.6597C99.5801 44.4058 97.4707 47.0718 94.5703 47.0718C92.7539 47.0718 91.4648 46.0317 90.8936 44.6108L90.791 44.3911H90.6738C89.9414 46.1489 88.4619 47.0278 86.6016 47.0278C83.5986 47.0278 81.5479 44.5229 81.5479 40.7437V40.729C81.5479 37.1401 83.6572 34.6353 86.6016 34.6353C88.2129 34.6353 89.5898 35.4556 90.1611 36.7593H90.2783V34.9429H92.9736V41.8862C92.9736 43.7466 93.6621 44.6841 94.7168 44.6841C96.0938 44.6841 97.0166 42.9556 97.0166 39.7476V39.7329C97.0166 34.1519 93.2812 30.6655 87.6123 30.6655C81.9727 30.6655 77.9883 34.7671 77.9883 40.729V40.7437C77.9883 47.189 82.2363 50.7778 88.2715 50.7778C90.1465 50.7778 92.0508 50.4995 93.208 50.0454V52.3159C91.7725 52.7993 90.0146 53.063 88.125 53.063ZM87.2314 44.5669C88.9746 44.5669 90.1025 43.1167 90.1025 40.8022V40.7729C90.1025 38.4878 88.9746 37.0669 87.2607 37.0669C85.5469 37.0669 84.5068 38.4438 84.5068 40.7729V40.7876C84.5068 43.146 85.5469 44.5669 87.2314 44.5669ZM107.9 49.855C103.975 49.855 101.484 46.7788 101.484 41.7837V41.769C101.484 36.7593 103.989 33.6978 107.886 33.6978C110.083 33.6978 111.855 34.8257 112.734 36.686H112.822V28.4097H116.47V49.5474H112.822V46.9106H112.734C111.855 48.7417 110.142 49.855 107.9 49.855ZM108.999 46.7788C111.255 46.7788 112.822 44.8306 112.822 41.7837V41.769C112.822 38.7368 111.24 36.7739 108.999 36.7739C106.67 36.7739 105.205 38.6782 105.205 41.769V41.7837C105.205 44.8745 106.655 46.7788 108.999 46.7788ZM126.357 49.855C121.699 49.855 118.887 46.7642 118.887 41.8276V41.813C118.887 36.9204 121.743 33.6978 126.182 33.6978C130.62 33.6978 133.374 36.8179 133.374 41.5054V42.6772H122.505C122.563 45.4019 124.058 47.0132 126.431 47.0132C128.247 47.0132 129.434 46.0464 129.785 45.0063L129.814 44.9038H133.228L133.184 45.0649C132.7 47.4526 130.415 49.855 126.357 49.855ZM126.226 36.5542C124.292 36.5542 122.842 37.8579 122.549 40.2456H129.829C129.565 37.7847 128.159 36.5542 126.226 36.5542ZM139.336 49.5474L133.843 34.02H137.725L141.328 46.1636H141.416L145.005 34.02H148.813L143.35 49.5474H139.336ZM150.498 49.5474V34.02H154.146V36.7007H154.219C154.702 34.8257 155.991 33.6978 157.778 33.6978C158.232 33.6978 158.657 33.771 158.936 33.8442V37.1401C158.628 37.0229 158.071 36.9351 157.456 36.9351C155.391 36.9351 154.146 38.2388 154.146 40.5386V49.5474H150.498ZM162.744 31.7935C161.602 31.7935 160.708 30.8853 160.708 29.8013C160.708 28.688 161.602 27.7944 162.744 27.7944C163.887 27.7944 164.766 28.688 164.766 29.8013C164.766 30.8853 163.887 31.7935 162.744 31.7935ZM160.913 49.5474V34.02H164.561V49.5474H160.913ZM176.338 49.855C174.097 49.855 172.383 48.7417 171.504 46.9106H171.416V49.5474H167.769V28.4097H171.416V36.686H171.504C172.383 34.8257 174.155 33.6978 176.353 33.6978C180.249 33.6978 182.754 36.7593 182.754 41.769V41.7837C182.754 46.7788 180.264 49.855 176.338 49.855ZM175.239 46.7788C177.583 46.7788 179.033 44.8745 179.033 41.7837V41.769C179.033 38.6782 177.568 36.7739 175.239 36.7739C172.998 36.7739 171.416 38.7368 171.416 41.769V41.7837C171.416 44.8306 172.983 46.7788 175.239 46.7788ZM191.924 49.855C187.266 49.855 184.453 46.7642 184.453 41.8276V41.813C184.453 36.9204 187.31 33.6978 191.748 33.6978C196.187 33.6978 198.94 36.8179 198.94 41.5054V42.6772H188.071C188.13 45.4019 189.624 47.0132 191.997 47.0132C193.813 47.0132 195 46.0464 195.352 45.0063L195.381 44.9038H198.794L198.75 45.0649C198.267 47.4526 195.981 49.855 191.924 49.855ZM191.792 36.5542C189.858 36.5542 188.408 37.8579 188.115 40.2456H195.396C195.132 37.7847 193.726 36.5542 191.792 36.5542ZM203.232 31.7935C202.09 31.7935 201.196 30.8853 201.196 29.8013C201.196 28.688 202.09 27.7944 203.232 27.7944C204.375 27.7944 205.254 28.688 205.254 29.8013C205.254 30.8853 204.375 31.7935 203.232 31.7935ZM201.401 49.5474V34.02H205.049V49.5474H201.401ZM208.154 49.5474V34.02H211.802V36.7007H211.875C212.358 34.8257 213.647 33.6978 215.435 33.6978C215.889 33.6978 216.313 33.771 216.592 33.8442V37.1401C216.284 37.0229 215.728 36.9351 215.112 36.9351C213.047 36.9351 211.802 38.2388 211.802 40.5386V49.5474H208.154ZM224.751 49.855C220.181 49.855 217.236 46.8081 217.236 41.7837V41.7544C217.236 36.7739 220.225 33.6978 224.736 33.6978C229.263 33.6978 232.266 36.7446 232.266 41.7544V41.7837C232.266 46.8228 229.307 49.855 224.751 49.855ZM224.766 46.9106C227.065 46.9106 228.545 45.0356 228.545 41.7837V41.7544C228.545 38.5171 227.051 36.6567 224.736 36.6567C222.466 36.6567 220.957 38.5317 220.957 41.7544V41.7837C220.957 45.0503 222.437 46.9106 224.766 46.9106ZM235.972 49.7817C234.785 49.7817 233.848 48.8442 233.848 47.6577C233.848 46.4858 234.785 45.5483 235.972 45.5483C237.158 45.5483 238.081 46.4858 238.081 47.6577C238.081 48.8442 237.158 49.7817 235.972 49.7817ZM247.061 49.855C242.446 49.855 239.561 46.7495 239.561 41.769V41.7544C239.561 36.8032 242.49 33.6978 247.017 33.6978C251.104 33.6978 253.652 36.2905 253.872 39.396L253.887 39.5132H250.444L250.415 39.3813C250.107 37.8726 248.994 36.6567 247.061 36.6567C244.761 36.6567 243.281 38.605 243.281 41.7837V41.7983C243.281 45.0356 244.775 46.9106 247.075 46.9106C248.921 46.9106 250.093 45.812 250.43 44.186L250.459 44.0542H253.901L253.887 44.1567C253.608 47.394 250.986 49.855 247.061 49.855ZM262.954 49.855C258.384 49.855 255.439 46.8081 255.439 41.7837V41.7544C255.439 36.7739 258.428 33.6978 262.939 33.6978C267.466 33.6978 270.469 36.7446 270.469 41.7544V41.7837C270.469 46.8228 267.51 49.855 262.954 49.855ZM262.969 46.9106C265.269 46.9106 266.748 45.0356 266.748 41.7837V41.7544C266.748 38.5171 265.254 36.6567 262.939 36.6567C260.669 36.6567 259.16 38.5317 259.16 41.7544V41.7837C259.16 45.0503 260.64 46.9106 262.969 46.9106ZM272.812 49.5474V34.02H276.46V36.5103H276.533C277.192 34.811 278.789 33.6978 280.84 33.6978C283.008 33.6978 284.575 34.8403 285.146 36.8325H285.234C285.981 34.8989 287.827 33.6978 290.068 33.6978C293.13 33.6978 295.137 35.7778 295.137 38.8833V49.5474H291.489V39.7915C291.489 37.8726 290.493 36.7739 288.706 36.7739C286.948 36.7739 285.747 38.0776 285.747 39.9526V49.5474H282.202V39.6011C282.202 37.8579 281.147 36.7739 279.448 36.7739C277.69 36.7739 276.46 38.1509 276.46 40.0405V49.5474H272.812Z" fill="url(#paint0_linear_1621_143)"/>
<defs>
<linearGradient id="paint0_linear_1621_143" x1="2.16971" y1="39.1684" x2="300.341" y2="39.1684" gradientUnits="userSpaceOnUse">
<stop offset="0.288866" stop-color="#FF80BF"/>
<stop offset="1" stop-color="#FFD876"/>
</linearGradient>
</defs>
</svg>
