<svg width="312" height="109" viewBox="0 0 312 109" fill="none" xmlns="http://www.w3.org/2000/svg">
<path d="M31.943 9.054C31.433 9.054 30.983 8.949 30.593 8.739C30.209 8.529 29.909 8.241 29.693 7.875C29.483 7.509 29.378 7.089 29.378 6.615C29.378 6.141 29.48 5.721 29.684 5.355C29.894 4.989 30.179 4.704 30.539 4.5C30.905 4.29 31.316 4.185 31.772 4.185C32.234 4.185 32.642 4.287 32.996 4.491C33.35 4.695 33.626 4.983 33.824 5.355C34.028 5.721 34.13 6.15 34.13 6.642C34.13 6.678 34.127 6.72 34.121 6.768C34.121 6.816 34.118 6.861 34.112 6.903H30.053V6.282H33.662L33.311 6.498C33.317 6.192 33.254 5.919 33.122 5.679C32.99 5.439 32.807 5.253 32.573 5.121C32.345 4.983 32.078 4.914 31.772 4.914C31.472 4.914 31.205 4.983 30.971 5.121C30.737 5.253 30.554 5.442 30.422 5.688C30.29 5.928 30.224 6.204 30.224 6.516V6.66C30.224 6.978 30.296 7.263 30.44 7.515C30.59 7.761 30.797 7.953 31.061 8.091C31.325 8.229 31.628 8.298 31.97 8.298C32.252 8.298 32.507 8.25 32.735 8.154C32.969 8.058 33.173 7.914 33.347 7.722L33.824 8.28C33.608 8.532 33.338 8.724 33.014 8.856C32.696 8.988 32.339 9.054 31.943 9.054ZM37.3367 9.054C36.9287 9.054 36.5687 8.979 36.2567 8.829C35.9507 8.679 35.7107 8.451 35.5367 8.145C35.3687 7.833 35.2847 7.443 35.2847 6.975V4.23H36.1487V6.876C36.1487 7.344 36.2597 7.695 36.4817 7.929C36.7097 8.163 37.0277 8.28 37.4357 8.28C37.7357 8.28 37.9967 8.22 38.2187 8.1C38.4407 7.974 38.6117 7.794 38.7317 7.56C38.8517 7.32 38.9117 7.032 38.9117 6.696V4.23H39.7757V9H38.9567V7.713L39.0917 8.055C38.9357 8.373 38.7017 8.619 38.3897 8.793C38.0777 8.967 37.7267 9.054 37.3367 9.054Z" fill="#888888"/>
<path d="M186.348 9.054C185.952 9.054 185.589 8.964 185.259 8.784C184.935 8.598 184.674 8.325 184.476 7.965C184.284 7.605 184.188 7.155 184.188 6.615C184.188 6.075 184.281 5.625 184.467 5.265C184.659 4.905 184.917 4.635 185.241 4.455C185.571 4.275 185.94 4.185 186.348 4.185C186.816 4.185 187.23 4.287 187.59 4.491C187.95 4.695 188.235 4.98 188.445 5.346C188.655 5.706 188.76 6.129 188.76 6.615C188.76 7.101 188.655 7.527 188.445 7.893C188.235 8.259 187.95 8.544 187.59 8.748C187.23 8.952 186.816 9.054 186.348 9.054ZM183.819 10.746V4.23H184.647V5.517L184.593 6.624L184.683 7.731V10.746H183.819ZM186.276 8.298C186.582 8.298 186.855 8.229 187.095 8.091C187.341 7.953 187.533 7.758 187.671 7.506C187.815 7.248 187.887 6.951 187.887 6.615C187.887 6.273 187.815 5.979 187.671 5.733C187.533 5.481 187.341 5.286 187.095 5.148C186.855 5.01 186.582 4.941 186.276 4.941C185.976 4.941 185.703 5.01 185.457 5.148C185.217 5.286 185.025 5.481 184.881 5.733C184.743 5.979 184.674 6.273 184.674 6.615C184.674 6.951 184.743 7.248 184.881 7.506C185.025 7.758 185.217 7.953 185.457 8.091C185.703 8.229 185.976 8.298 186.276 8.298ZM191.997 9.054C191.517 9.054 191.091 8.949 190.719 8.739C190.347 8.529 190.053 8.241 189.837 7.875C189.621 7.503 189.513 7.083 189.513 6.615C189.513 6.141 189.621 5.721 189.837 5.355C190.053 4.989 190.347 4.704 190.719 4.5C191.091 4.29 191.517 4.185 191.997 4.185C192.471 4.185 192.894 4.29 193.266 4.5C193.644 4.704 193.938 4.989 194.148 5.355C194.364 5.715 194.472 6.135 194.472 6.615C194.472 7.089 194.364 7.509 194.148 7.875C193.938 8.241 193.644 8.529 193.266 8.739C192.894 8.949 192.471 9.054 191.997 9.054ZM191.997 8.298C192.303 8.298 192.576 8.229 192.816 8.091C193.062 7.953 193.254 7.758 193.392 7.506C193.53 7.248 193.599 6.951 193.599 6.615C193.599 6.273 193.53 5.979 193.392 5.733C193.254 5.481 193.062 5.286 192.816 5.148C192.576 5.01 192.303 4.941 191.997 4.941C191.691 4.941 191.418 5.01 191.178 5.148C190.938 5.286 190.746 5.481 190.602 5.733C190.458 5.979 190.386 6.273 190.386 6.615C190.386 6.951 190.458 7.248 190.602 7.506C190.746 7.758 190.938 7.953 191.178 8.091C191.418 8.229 191.691 8.298 191.997 8.298ZM195.667 9V4.23H196.495V5.526L196.414 5.202C196.546 4.872 196.768 4.62 197.08 4.446C197.392 4.272 197.776 4.185 198.232 4.185V5.022C198.196 5.016 198.16 5.013 198.124 5.013C198.094 5.013 198.064 5.013 198.034 5.013C197.572 5.013 197.206 5.151 196.936 5.427C196.666 5.703 196.531 6.102 196.531 6.624V9H195.667ZM201.128 9.054C200.648 9.054 200.276 8.925 200.012 8.667C199.748 8.409 199.616 8.04 199.616 7.56V3.186H200.48V7.524C200.48 7.782 200.543 7.98 200.669 8.118C200.801 8.256 200.987 8.325 201.227 8.325C201.497 8.325 201.722 8.25 201.902 8.1L202.172 8.721C202.04 8.835 201.881 8.919 201.695 8.973C201.515 9.027 201.326 9.054 201.128 9.054ZM198.806 4.941V4.23H201.848V4.941H198.806ZM203.342 9V3.807C203.342 3.339 203.477 2.967 203.747 2.691C204.023 2.409 204.413 2.268 204.917 2.268C205.103 2.268 205.28 2.292 205.448 2.34C205.622 2.382 205.769 2.451 205.889 2.547L205.628 3.204C205.538 3.132 205.436 3.078 205.322 3.042C205.208 3 205.088 2.979 204.962 2.979C204.71 2.979 204.518 3.051 204.386 3.195C204.254 3.333 204.188 3.54 204.188 3.816V4.455L204.206 4.851V9H203.342ZM202.532 4.941V4.23H205.574V4.941H202.532ZM208.362 9.054C207.882 9.054 207.456 8.949 207.084 8.739C206.712 8.529 206.418 8.241 206.202 7.875C205.986 7.503 205.878 7.083 205.878 6.615C205.878 6.141 205.986 5.721 206.202 5.355C206.418 4.989 206.712 4.704 207.084 4.5C207.456 4.29 207.882 4.185 208.362 4.185C208.836 4.185 209.259 4.29 209.631 4.5C210.009 4.704 210.303 4.989 210.513 5.355C210.729 5.715 210.837 6.135 210.837 6.615C210.837 7.089 210.729 7.509 210.513 7.875C210.303 8.241 210.009 8.529 209.631 8.739C209.259 8.949 208.836 9.054 208.362 9.054ZM208.362 8.298C208.668 8.298 208.941 8.229 209.181 8.091C209.427 7.953 209.619 7.758 209.757 7.506C209.895 7.248 209.964 6.951 209.964 6.615C209.964 6.273 209.895 5.979 209.757 5.733C209.619 5.481 209.427 5.286 209.181 5.148C208.941 5.01 208.668 4.941 208.362 4.941C208.056 4.941 207.783 5.01 207.543 5.148C207.303 5.286 207.111 5.481 206.967 5.733C206.823 5.979 206.751 6.273 206.751 6.615C206.751 6.951 206.823 7.248 206.967 7.506C207.111 7.758 207.303 7.953 207.543 8.091C207.783 8.229 208.056 8.298 208.362 8.298ZM207.678 3.537L208.902 2.367H210L208.488 3.537H207.678ZM212.032 9V2.322H212.896V9H212.032ZM214.546 9V4.23H215.41V9H214.546ZM214.978 3.312C214.81 3.312 214.669 3.258 214.555 3.15C214.447 3.042 214.393 2.91 214.393 2.754C214.393 2.592 214.447 2.457 214.555 2.349C214.669 2.241 214.81 2.187 214.978 2.187C215.146 2.187 215.284 2.241 215.392 2.349C215.506 2.451 215.563 2.58 215.563 2.736C215.563 2.898 215.509 3.036 215.401 3.15C215.293 3.258 215.152 3.312 214.978 3.312ZM219.102 9.054C218.622 9.054 218.196 8.949 217.824 8.739C217.452 8.529 217.158 8.241 216.942 7.875C216.726 7.503 216.618 7.083 216.618 6.615C216.618 6.141 216.726 5.721 216.942 5.355C217.158 4.989 217.452 4.704 217.824 4.5C218.196 4.29 218.622 4.185 219.102 4.185C219.576 4.185 219.999 4.29 220.371 4.5C220.749 4.704 221.043 4.989 221.253 5.355C221.469 5.715 221.577 6.135 221.577 6.615C221.577 7.089 221.469 7.509 221.253 7.875C221.043 8.241 220.749 8.529 220.371 8.739C219.999 8.949 219.576 9.054 219.102 9.054ZM219.102 8.298C219.408 8.298 219.681 8.229 219.921 8.091C220.167 7.953 220.359 7.758 220.497 7.506C220.635 7.248 220.704 6.951 220.704 6.615C220.704 6.273 220.635 5.979 220.497 5.733C220.359 5.481 220.167 5.286 219.921 5.148C219.681 5.01 219.408 4.941 219.102 4.941C218.796 4.941 218.523 5.01 218.283 5.148C218.043 5.286 217.851 5.481 217.707 5.733C217.563 5.979 217.491 6.273 217.491 6.615C217.491 6.951 217.563 7.248 217.707 7.506C217.851 7.758 218.043 7.953 218.283 8.091C218.523 8.229 218.796 8.298 219.102 8.298Z" fill="#888888"/>
<path d="M83.943 108.054C83.433 108.054 82.983 107.949 82.593 107.739C82.209 107.529 81.909 107.241 81.693 106.875C81.483 106.509 81.378 106.089 81.378 105.615C81.378 105.141 81.48 104.721 81.684 104.355C81.894 103.989 82.179 103.704 82.539 103.5C82.905 103.29 83.316 103.185 83.772 103.185C84.234 103.185 84.642 103.287 84.996 103.491C85.35 103.695 85.626 103.983 85.824 104.355C86.028 104.721 86.13 105.15 86.13 105.642C86.13 105.678 86.127 105.72 86.121 105.768C86.121 105.816 86.118 105.861 86.112 105.903H82.053V105.282H85.662L85.311 105.498C85.317 105.192 85.254 104.919 85.122 104.679C84.99 104.439 84.807 104.253 84.573 104.121C84.345 103.983 84.078 103.914 83.772 103.914C83.472 103.914 83.205 103.983 82.971 104.121C82.737 104.253 82.554 104.442 82.422 104.688C82.29 104.928 82.224 105.204 82.224 105.516V105.66C82.224 105.978 82.296 106.263 82.44 106.515C82.59 106.761 82.797 106.953 83.061 107.091C83.325 107.229 83.628 107.298 83.97 107.298C84.252 107.298 84.507 107.25 84.735 107.154C84.969 107.058 85.173 106.914 85.347 106.722L85.824 107.28C85.608 107.532 85.338 107.724 85.014 107.856C84.696 107.988 84.339 108.054 83.943 108.054ZM87.1116 105.903V105.156H89.5326V105.903H87.1116ZM96.8299 103.185C97.2139 103.185 97.5529 103.26 97.8469 103.41C98.1409 103.56 98.3689 103.788 98.5309 104.094C98.6989 104.4 98.7829 104.787 98.7829 105.255V108H97.9189V105.354C97.9189 104.892 97.8109 104.544 97.5949 104.31C97.3789 104.076 97.0759 103.959 96.6859 103.959C96.3979 103.959 96.1459 104.019 95.9299 104.139C95.7139 104.259 95.5459 104.436 95.4259 104.67C95.3119 104.904 95.2549 105.195 95.2549 105.543V108H94.3909V105.354C94.3909 104.892 94.2829 104.544 94.0669 104.31C93.8569 104.076 93.5539 103.959 93.1579 103.959C92.8759 103.959 92.6269 104.019 92.4109 104.139C92.1949 104.259 92.0269 104.436 91.9069 104.67C91.7869 104.904 91.7269 105.195 91.7269 105.543V108H90.8629V103.23H91.6909V104.499L91.5559 104.175C91.7059 103.863 91.9369 103.62 92.2489 103.446C92.5609 103.272 92.9239 103.185 93.3379 103.185C93.7939 103.185 94.1869 103.299 94.5169 103.527C94.8469 103.749 95.0629 104.088 95.1649 104.544L94.8139 104.4C94.9579 104.034 95.2099 103.74 95.5699 103.518C95.9299 103.296 96.3499 103.185 96.8299 103.185ZM103.334 108V106.992L103.289 106.803V105.084C103.289 104.718 103.181 104.436 102.965 104.238C102.755 104.034 102.437 103.932 102.011 103.932C101.729 103.932 101.453 103.98 101.183 104.076C100.913 104.166 100.685 104.289 100.499 104.445L100.139 103.797C100.385 103.599 100.679 103.449 101.021 103.347C101.369 103.239 101.732 103.185 102.11 103.185C102.764 103.185 103.268 103.344 103.622 103.662C103.976 103.98 104.153 104.466 104.153 105.12V108H103.334ZM101.768 108.054C101.414 108.054 101.102 107.994 100.832 107.874C100.568 107.754 100.364 107.589 100.22 107.379C100.076 107.163 100.004 106.92 100.004 106.65C100.004 106.392 100.064 106.158 100.184 105.948C100.31 105.738 100.511 105.57 100.787 105.444C101.069 105.318 101.447 105.255 101.921 105.255H103.433V105.876H101.957C101.525 105.876 101.234 105.948 101.084 106.092C100.934 106.236 100.859 106.41 100.859 106.614C100.859 106.848 100.952 107.037 101.138 107.181C101.324 107.319 101.582 107.388 101.912 107.388C102.236 107.388 102.518 107.316 102.758 107.172C103.004 107.028 103.181 106.818 103.289 106.542L103.46 107.136C103.346 107.418 103.145 107.643 102.857 107.811C102.569 107.973 102.206 108.054 101.768 108.054ZM105.752 108V103.23H106.616V108H105.752ZM106.184 102.312C106.016 102.312 105.875 102.258 105.761 102.15C105.653 102.042 105.599 101.91 105.599 101.754C105.599 101.592 105.653 101.457 105.761 101.349C105.875 101.241 106.016 101.187 106.184 101.187C106.352 101.187 106.49 101.241 106.598 101.349C106.712 101.451 106.769 101.58 106.769 101.736C106.769 101.898 106.715 102.036 106.607 102.15C106.499 102.258 106.358 102.312 106.184 102.312ZM108.265 108V101.322H109.129V108H108.265Z" fill="#888888"/>
<path d="M131.819 77V72.23H132.683V77H131.819ZM132.251 71.312C132.083 71.312 131.942 71.258 131.828 71.15C131.72 71.042 131.666 70.91 131.666 70.754C131.666 70.592 131.72 70.457 131.828 70.349C131.942 70.241 132.083 70.187 132.251 70.187C132.419 70.187 132.557 70.241 132.665 70.349C132.779 70.451 132.836 70.58 132.836 70.736C132.836 70.898 132.782 71.036 132.674 71.15C132.566 71.258 132.425 71.312 132.251 71.312ZM136.88 72.185C137.27 72.185 137.612 72.26 137.906 72.41C138.206 72.56 138.44 72.788 138.608 73.094C138.776 73.4 138.86 73.787 138.86 74.255V77H137.996V74.354C137.996 73.892 137.882 73.544 137.654 73.31C137.432 73.076 137.117 72.959 136.709 72.959C136.403 72.959 136.136 73.019 135.908 73.139C135.68 73.259 135.503 73.436 135.377 73.67C135.257 73.904 135.197 74.195 135.197 74.543V77H134.333V72.23H135.161V73.517L135.026 73.175C135.182 72.863 135.422 72.62 135.746 72.446C136.07 72.272 136.448 72.185 136.88 72.185ZM141.827 77.054C141.431 77.054 141.053 77 140.693 76.892C140.339 76.784 140.06 76.652 139.856 76.496L140.216 75.812C140.42 75.95 140.672 76.067 140.972 76.163C141.272 76.259 141.578 76.307 141.89 76.307C142.292 76.307 142.58 76.25 142.754 76.136C142.934 76.022 143.024 75.863 143.024 75.659C143.024 75.509 142.97 75.392 142.862 75.308C142.754 75.224 142.61 75.161 142.43 75.119C142.256 75.077 142.061 75.041 141.845 75.011C141.629 74.975 141.413 74.933 141.197 74.885C140.981 74.831 140.783 74.759 140.603 74.669C140.423 74.573 140.279 74.444 140.171 74.282C140.063 74.114 140.009 73.892 140.009 73.616C140.009 73.328 140.09 73.076 140.252 72.86C140.414 72.644 140.642 72.479 140.936 72.365C141.236 72.245 141.59 72.185 141.998 72.185C142.31 72.185 142.625 72.224 142.943 72.302C143.267 72.374 143.531 72.479 143.735 72.617L143.366 73.301C143.15 73.157 142.925 73.058 142.691 73.004C142.457 72.95 142.223 72.923 141.989 72.923C141.611 72.923 141.329 72.986 141.143 73.112C140.957 73.232 140.864 73.388 140.864 73.58C140.864 73.742 140.918 73.868 141.026 73.958C141.14 74.042 141.284 74.108 141.458 74.156C141.638 74.204 141.836 74.246 142.052 74.282C142.268 74.312 142.484 74.354 142.7 74.408C142.916 74.456 143.111 74.525 143.285 74.615C143.465 74.705 143.609 74.831 143.717 74.993C143.831 75.155 143.888 75.371 143.888 75.641C143.888 75.929 143.804 76.178 143.636 76.388C143.468 76.598 143.231 76.763 142.925 76.883C142.619 76.997 142.253 77.054 141.827 77.054ZM146.605 77.054C146.125 77.054 145.753 76.925 145.489 76.667C145.225 76.409 145.093 76.04 145.093 75.56V71.186H145.957V75.524C145.957 75.782 146.02 75.98 146.146 76.118C146.278 76.256 146.464 76.325 146.704 76.325C146.974 76.325 147.199 76.25 147.379 76.1L147.649 76.721C147.517 76.835 147.358 76.919 147.172 76.973C146.992 77.027 146.803 77.054 146.605 77.054ZM144.283 72.941V72.23H147.325V72.941H144.283ZM151.655 77V75.992L151.61 75.803V74.084C151.61 73.718 151.502 73.436 151.286 73.238C151.076 73.034 150.758 72.932 150.332 72.932C150.05 72.932 149.774 72.98 149.504 73.076C149.234 73.166 149.006 73.289 148.82 73.445L148.46 72.797C148.706 72.599 149 72.449 149.342 72.347C149.69 72.239 150.053 72.185 150.431 72.185C151.085 72.185 151.589 72.344 151.943 72.662C152.297 72.98 152.474 73.466 152.474 74.12V77H151.655ZM150.089 77.054C149.735 77.054 149.423 76.994 149.153 76.874C148.889 76.754 148.685 76.589 148.541 76.379C148.397 76.163 148.325 75.92 148.325 75.65C148.325 75.392 148.385 75.158 148.505 74.948C148.631 74.738 148.832 74.57 149.108 74.444C149.39 74.318 149.768 74.255 150.242 74.255H151.754V74.876H150.278C149.846 74.876 149.555 74.948 149.405 75.092C149.255 75.236 149.18 75.41 149.18 75.614C149.18 75.848 149.273 76.037 149.459 76.181C149.645 76.319 149.903 76.388 150.233 76.388C150.557 76.388 150.839 76.316 151.079 76.172C151.325 76.028 151.502 75.818 151.61 75.542L151.781 76.136C151.667 76.418 151.466 76.643 151.178 76.811C150.89 76.973 150.527 77.054 150.089 77.054ZM156.161 78.8C155.723 78.8 155.297 78.737 154.883 78.611C154.475 78.491 154.142 78.317 153.884 78.089L154.298 77.423C154.52 77.615 154.793 77.765 155.117 77.873C155.441 77.987 155.78 78.044 156.134 78.044C156.698 78.044 157.112 77.912 157.376 77.648C157.64 77.384 157.772 76.982 157.772 76.442V75.434L157.862 74.489L157.817 73.535V72.23H158.636V76.352C158.636 77.192 158.426 77.81 158.006 78.206C157.586 78.602 156.971 78.8 156.161 78.8ZM156.053 76.802C155.591 76.802 155.177 76.706 154.811 76.514C154.451 76.316 154.163 76.043 153.947 75.695C153.737 75.347 153.632 74.945 153.632 74.489C153.632 74.027 153.737 73.625 153.947 73.283C154.163 72.935 154.451 72.665 154.811 72.473C155.177 72.281 155.591 72.185 156.053 72.185C156.461 72.185 156.833 72.269 157.169 72.437C157.505 72.599 157.772 72.851 157.97 73.193C158.174 73.535 158.276 73.967 158.276 74.489C158.276 75.005 158.174 75.434 157.97 75.776C157.772 76.118 157.505 76.376 157.169 76.55C156.833 76.718 156.461 76.802 156.053 76.802ZM156.152 76.046C156.47 76.046 156.752 75.98 156.998 75.848C157.244 75.716 157.436 75.533 157.574 75.299C157.718 75.065 157.79 74.795 157.79 74.489C157.79 74.183 157.718 73.913 157.574 73.679C157.436 73.445 157.244 73.265 156.998 73.139C156.752 73.007 156.47 72.941 156.152 72.941C155.834 72.941 155.549 73.007 155.297 73.139C155.051 73.265 154.856 73.445 154.712 73.679C154.574 73.913 154.505 74.183 154.505 74.489C154.505 74.795 154.574 75.065 154.712 75.299C154.856 75.533 155.051 75.716 155.297 75.848C155.549 75.98 155.834 76.046 156.152 76.046ZM160.287 77V72.23H161.115V73.526L161.034 73.202C161.166 72.872 161.388 72.62 161.7 72.446C162.012 72.272 162.396 72.185 162.852 72.185V73.022C162.816 73.016 162.78 73.013 162.744 73.013C162.714 73.013 162.684 73.013 162.654 73.013C162.192 73.013 161.826 73.151 161.556 73.427C161.286 73.703 161.151 74.102 161.151 74.624V77H160.287ZM166.526 77V75.992L166.481 75.803V74.084C166.481 73.718 166.373 73.436 166.157 73.238C165.947 73.034 165.629 72.932 165.203 72.932C164.921 72.932 164.645 72.98 164.375 73.076C164.105 73.166 163.877 73.289 163.691 73.445L163.331 72.797C163.577 72.599 163.871 72.449 164.213 72.347C164.561 72.239 164.924 72.185 165.302 72.185C165.956 72.185 166.46 72.344 166.814 72.662C167.168 72.98 167.345 73.466 167.345 74.12V77H166.526ZM164.96 77.054C164.606 77.054 164.294 76.994 164.024 76.874C163.76 76.754 163.556 76.589 163.412 76.379C163.268 76.163 163.196 75.92 163.196 75.65C163.196 75.392 163.256 75.158 163.376 74.948C163.502 74.738 163.703 74.57 163.979 74.444C164.261 74.318 164.639 74.255 165.113 74.255H166.625V74.876H165.149C164.717 74.876 164.426 74.948 164.276 75.092C164.126 75.236 164.051 75.41 164.051 75.614C164.051 75.848 164.144 76.037 164.33 76.181C164.516 76.319 164.774 76.388 165.104 76.388C165.428 76.388 165.71 76.316 165.95 76.172C166.196 76.028 166.373 75.818 166.481 75.542L166.652 76.136C166.538 76.418 166.337 76.643 166.049 76.811C165.761 76.973 165.398 77.054 164.96 77.054ZM174.911 72.185C175.295 72.185 175.634 72.26 175.928 72.41C176.222 72.56 176.45 72.788 176.612 73.094C176.78 73.4 176.864 73.787 176.864 74.255V77H176V74.354C176 73.892 175.892 73.544 175.676 73.31C175.46 73.076 175.157 72.959 174.767 72.959C174.479 72.959 174.227 73.019 174.011 73.139C173.795 73.259 173.627 73.436 173.507 73.67C173.393 73.904 173.336 74.195 173.336 74.543V77H172.472V74.354C172.472 73.892 172.364 73.544 172.148 73.31C171.938 73.076 171.635 72.959 171.239 72.959C170.957 72.959 170.708 73.019 170.492 73.139C170.276 73.259 170.108 73.436 169.988 73.67C169.868 73.904 169.808 74.195 169.808 74.543V77H168.944V72.23H169.772V73.499L169.637 73.175C169.787 72.863 170.018 72.62 170.33 72.446C170.642 72.272 171.005 72.185 171.419 72.185C171.875 72.185 172.268 72.299 172.598 72.527C172.928 72.749 173.144 73.088 173.246 73.544L172.895 73.4C173.039 73.034 173.291 72.74 173.651 72.518C174.011 72.296 174.431 72.185 174.911 72.185Z" fill="#888888"/>
<path d="M1.3916 50V34.2969H5.66895V37.0361H5.75684C6.22559 35.1025 7.5 33.9746 9.33105 33.9746C9.7998 33.9746 10.2393 34.0479 10.5615 34.1357V37.9004C10.21 37.7539 9.62402 37.666 9.00879 37.666C6.89941 37.666 5.66895 38.9258 5.66895 41.2109V50H1.3916ZM16.6113 50.249C13.4619 50.249 11.3379 48.2715 11.3379 45.5029V45.4736C11.3379 42.6172 13.5498 40.9473 17.4463 40.6982L21.3281 40.4639V39.4971C21.3281 38.1055 20.4199 37.2412 18.75 37.2412C17.1533 37.2412 16.1865 37.9883 15.9814 38.999L15.9521 39.1309H12.041L12.0557 38.9551C12.29 36.0547 14.7803 33.9746 18.9258 33.9746C22.9834 33.9746 25.6055 36.0693 25.6055 39.2334V50H21.3281V47.6562H21.2402C20.3467 49.2676 18.6768 50.249 16.6113 50.249ZM15.5713 45.2832C15.5713 46.4404 16.5234 47.1289 18.0029 47.1289C19.9219 47.1289 21.3281 45.8984 21.3281 44.2578V43.1299L18.0908 43.335C16.4355 43.4375 15.5713 44.1406 15.5713 45.2539V45.2832ZM29.5166 50V37.5195H27.3779V34.2969H29.5166V33.0371C29.5166 29.9609 30.9814 28.54 34.6875 28.54C35.4785 28.54 36.3428 28.6133 36.8408 28.7158V31.543C36.5479 31.4844 36.1377 31.4697 35.7422 31.4697C34.3213 31.4697 33.6914 32.0703 33.6914 33.1982V34.2969H36.8115V37.5195H33.7939V50H29.5166ZM42.9199 50.249C39.7705 50.249 37.6465 48.2715 37.6465 45.5029V45.4736C37.6465 42.6172 39.8584 40.9473 43.7549 40.6982L47.6367 40.4639V39.4971C47.6367 38.1055 46.7285 37.2412 45.0586 37.2412C43.4619 37.2412 42.4951 37.9883 42.29 38.999L42.2607 39.1309H38.3496L38.3643 38.9551C38.5986 36.0547 41.0889 33.9746 45.2344 33.9746C49.292 33.9746 51.9141 36.0693 51.9141 39.2334V50H47.6367V47.6562H47.5488C46.6553 49.2676 44.9854 50.249 42.9199 50.249ZM41.8799 45.2832C41.8799 46.4404 42.832 47.1289 44.3115 47.1289C46.2305 47.1289 47.6367 45.8984 47.6367 44.2578V43.1299L44.3994 43.335C42.7441 43.4375 41.8799 44.1406 41.8799 45.2539V45.2832ZM61.8311 50.3223C57.0264 50.3223 54.1113 47.2021 54.1113 42.1777V42.1631C54.1113 37.168 57.0557 33.9746 61.6553 33.9746C66.2549 33.9746 69.1406 37.0947 69.1406 41.8408V43.1592H58.3301C58.374 45.6641 59.7363 47.1289 61.9189 47.1289C63.6768 47.1289 64.7461 46.1621 65.0537 45.2832L65.083 45.1953H69.0088L68.9648 45.3564C68.4814 47.6709 66.3135 50.3223 61.8311 50.3223ZM61.7285 37.168C59.9707 37.168 58.6523 38.3398 58.374 40.4639H65.0391C64.7754 38.2959 63.501 37.168 61.7285 37.168ZM71.4551 50V28.8623H75.7324V50H71.4551ZM91.3037 53.5596C83.7305 53.5596 78.4131 48.9307 78.4131 41.1377V41.123C78.4131 33.7842 83.5107 28.7744 90.8496 28.7744C97.9102 28.7744 102.729 33.1836 102.729 40.0537V40.0684C102.729 44.7559 100.62 47.4951 97.6318 47.4951C95.8301 47.4951 94.4824 46.5137 93.8818 45.1221L93.75 44.8584H93.6182C92.8711 46.6016 91.4062 47.4951 89.5605 47.4951C86.5723 47.4951 84.5215 44.9756 84.5215 41.1523V41.1377C84.5215 37.5488 86.6455 35.0293 89.5605 35.0293C91.1865 35.0293 92.5488 35.8643 93.1348 37.1973H93.252V35.3516H96.2109V42.1924C96.2109 43.9648 96.8408 44.8877 97.8369 44.8877C99.1113 44.8877 99.9756 43.1885 99.9756 40.1855V40.1709C99.9756 34.6484 96.3574 31.1768 90.7617 31.1768C85.1074 31.1768 81.167 35.2197 81.167 41.1377V41.1523C81.167 47.5391 85.3564 51.1133 91.5234 51.1133C93.3545 51.1133 95.1855 50.835 96.46 50.3662V52.7832C94.9658 53.2959 93.208 53.5596 91.3037 53.5596ZM90.3662 44.7998C91.9482 44.7998 92.9736 43.4375 92.9736 41.2402V41.1963C92.9736 39.0283 91.9482 37.6953 90.3809 37.6953C88.7988 37.6953 87.8467 38.999 87.8467 41.2109V41.2256C87.8467 43.4668 88.8135 44.7998 90.3662 44.7998ZM111.064 50.3223C107.109 50.3223 104.678 47.2461 104.678 42.1484V42.1338C104.678 37.0215 107.109 33.9746 111.064 33.9746C113.291 33.9746 115.049 35.1172 115.898 37.0215H115.986V28.8623H120.264V50H115.986V47.3193H115.898C115.063 49.1797 113.335 50.3223 111.064 50.3223ZM112.5 46.7773C114.58 46.7773 116.001 44.9902 116.001 42.1484V42.1338C116.001 39.3066 114.565 37.5195 112.5 37.5195C110.376 37.5195 109.028 39.2627 109.028 42.1338V42.1484C109.028 45.0049 110.361 46.7773 112.5 46.7773ZM130.269 50.3223C125.464 50.3223 122.549 47.2021 122.549 42.1777V42.1631C122.549 37.168 125.493 33.9746 130.093 33.9746C134.692 33.9746 137.578 37.0947 137.578 41.8408V43.1592H126.768C126.812 45.6641 128.174 47.1289 130.356 47.1289C132.114 47.1289 133.184 46.1621 133.491 45.2832L133.521 45.1953H137.446L137.402 45.3564C136.919 47.6709 134.751 50.3223 130.269 50.3223ZM130.166 37.168C128.408 37.168 127.09 38.3398 126.812 40.4639H133.477C133.213 38.2959 131.938 37.168 130.166 37.168ZM143.35 50L137.915 34.2969H142.485L145.767 46.2207H145.854L149.092 34.2969H153.56L148.169 50H143.35ZM155.054 50V34.2969H159.331V37.0361H159.419C159.888 35.1025 161.162 33.9746 162.993 33.9746C163.462 33.9746 163.901 34.0479 164.224 34.1357V37.9004C163.872 37.7539 163.286 37.666 162.671 37.666C160.562 37.666 159.331 38.9258 159.331 41.2109V50H155.054ZM168.208 32.2754C166.919 32.2754 165.923 31.2646 165.923 30.0488C165.923 28.833 166.919 27.8223 168.208 27.8223C169.497 27.8223 170.493 28.833 170.493 30.0488C170.493 31.2646 169.497 32.2754 168.208 32.2754ZM166.069 50V34.2969H170.347V50H166.069ZM182.52 50.3223C180.264 50.3223 178.535 49.1797 177.686 47.3193H177.598V50H173.32V28.8623H177.598V37.0215H177.686C178.55 35.1172 180.293 33.9746 182.534 33.9746C186.475 33.9746 188.921 37.0215 188.921 42.1338V42.1484C188.921 47.2461 186.475 50.3223 182.52 50.3223ZM181.099 46.7773C183.223 46.7773 184.57 45.0049 184.57 42.1484V42.1338C184.57 39.2627 183.223 37.5195 181.099 37.5195C179.033 37.5195 177.598 39.3066 177.598 42.1338V42.1484C177.598 44.9902 179.019 46.7773 181.099 46.7773ZM198.267 50.3223C193.462 50.3223 190.547 47.2021 190.547 42.1777V42.1631C190.547 37.168 193.491 33.9746 198.091 33.9746C202.69 33.9746 205.576 37.0947 205.576 41.8408V43.1592H194.766C194.81 45.6641 196.172 47.1289 198.354 47.1289C200.112 47.1289 201.182 46.1621 201.489 45.2832L201.519 45.1953H205.444L205.4 45.3564C204.917 47.6709 202.749 50.3223 198.267 50.3223ZM198.164 37.168C196.406 37.168 195.088 38.3398 194.81 40.4639H201.475C201.211 38.2959 199.937 37.168 198.164 37.168ZM210.015 32.2754C208.726 32.2754 207.729 31.2646 207.729 30.0488C207.729 28.833 208.726 27.8223 210.015 27.8223C211.304 27.8223 212.3 28.833 212.3 30.0488C212.3 31.2646 211.304 32.2754 210.015 32.2754ZM207.876 50V34.2969H212.153V50H207.876ZM215.024 50V34.2969H219.302V37.0361H219.39C219.858 35.1025 221.133 33.9746 222.964 33.9746C223.433 33.9746 223.872 34.0479 224.194 34.1357V37.9004C223.843 37.7539 223.257 37.666 222.642 37.666C220.532 37.666 219.302 38.9258 219.302 41.2109V50H215.024ZM232.632 50.3223C227.856 50.3223 224.854 47.2607 224.854 42.1484V42.1191C224.854 37.0654 227.93 33.9746 232.617 33.9746C237.319 33.9746 240.41 37.0361 240.41 42.1191V42.1484C240.41 47.2754 237.378 50.3223 232.632 50.3223ZM232.646 46.9678C234.727 46.9678 236.06 45.21 236.06 42.1484V42.1191C236.06 39.0869 234.697 37.3291 232.617 37.3291C230.552 37.3291 229.204 39.0869 229.204 42.1191V42.1484C229.204 45.2246 230.537 46.9678 232.646 46.9678ZM244.409 50.249C243.076 50.249 242.036 49.1943 242.036 47.876C242.036 46.543 243.076 45.5029 244.409 45.5029C245.728 45.5029 246.782 46.543 246.782 47.876C246.782 49.1943 245.728 50.249 244.409 50.249ZM255.923 50.3223C251.133 50.3223 248.174 47.2021 248.174 42.1338V42.1191C248.174 37.0947 251.177 33.9746 255.879 33.9746C260.142 33.9746 262.852 36.5967 263.013 39.9951V40.0977H259.043L259.014 39.9658C258.75 38.4717 257.71 37.3291 255.938 37.3291C253.843 37.3291 252.524 39.1309 252.524 42.1338V42.1484C252.524 45.2246 253.843 46.9678 255.952 46.9678C257.666 46.9678 258.735 45.9131 259.028 44.3311L259.043 44.1992H263.027V44.2871C262.822 47.7148 260.112 50.3223 255.923 50.3223ZM272.3 50.3223C267.524 50.3223 264.521 47.2607 264.521 42.1484V42.1191C264.521 37.0654 267.598 33.9746 272.285 33.9746C276.987 33.9746 280.078 37.0361 280.078 42.1191V42.1484C280.078 47.2754 277.046 50.3223 272.3 50.3223ZM272.314 46.9678C274.395 46.9678 275.728 45.21 275.728 42.1484V42.1191C275.728 39.0869 274.365 37.3291 272.285 37.3291C270.22 37.3291 268.872 39.0869 268.872 42.1191V42.1484C268.872 45.2246 270.205 46.9678 272.314 46.9678ZM282.29 50V34.2969H286.567V36.9336H286.655C287.3 35.1465 288.94 33.9746 291.05 33.9746C293.247 33.9746 294.844 35.1465 295.371 37.2119H295.459C296.162 35.2344 298.037 33.9746 300.337 33.9746C303.413 33.9746 305.479 36.0986 305.479 39.2627V50H301.201V40.332C301.201 38.5156 300.293 37.5195 298.638 37.5195C297.012 37.5195 295.942 38.7061 295.942 40.4492V50H291.826V40.2002C291.826 38.5156 290.874 37.5195 289.292 37.5195C287.666 37.5195 286.567 38.75 286.567 40.5225V50H282.29Z" fill="url(#paint0_linear_1695_136)"/>
<path d="M1 95.5H306M1.5 96L1.5 57M305.5 96V53M1 18.5H76M105 18.5L306 18.5M79 64.5L241 64.5M1.5 26L1.5 18M75.5 26V18M35.5 19V14M200.5 19V14M153.5 70V65M95.5 101V96M105.5 26V18M78.5 65V57M240.5 65V57M305.5 26V18" stroke="#888888" stroke-linejoin="round"/>
<defs>
<linearGradient id="paint0_linear_1695_136" x1="2.21951" y1="39.3158" x2="307.234" y2="39.3158" gradientUnits="userSpaceOnUse">
<stop offset="0.288866" stop-color="#FF80BF"/>
<stop offset="1" stop-color="#FFD876"/>
</linearGradient>
</defs>
</svg>
