<svg width="324" height="113" viewBox="0 0 324 113" fill="none" xmlns="http://www.w3.org/2000/svg">
<path d="M33.5023 9.07464C32.9301 9.07464 32.4262 8.96268 31.9908 8.73875C31.5616 8.51483 31.2288 8.21004 30.9925 7.82439C30.7561 7.43251 30.6379 6.98777 30.6379 6.49016C30.6379 5.98632 30.753 5.54158 30.9831 5.15593C31.2195 4.76405 31.5399 4.45927 31.9442 4.24156C32.3485 4.01763 32.8057 3.90567 33.3157 3.90567C33.8071 3.90567 34.2487 4.01141 34.6406 4.2229C35.0387 4.42816 35.3528 4.72673 35.583 5.11861C35.8131 5.50426 35.9282 5.96766 35.9282 6.50882C35.9282 6.5648 35.9251 6.63011 35.9189 6.70475C35.9126 6.77317 35.9064 6.83849 35.9002 6.90069H31.8229V6.05163H35.1351L34.5753 6.30355C34.5753 6.0423 34.5224 5.81527 34.4167 5.62244C34.3109 5.42961 34.1648 5.28033 33.9782 5.17459C33.7916 5.06262 33.5739 5.00664 33.325 5.00664C33.0762 5.00664 32.8554 5.06262 32.6626 5.17459C32.476 5.28033 32.3298 5.43272 32.2241 5.63177C32.1183 5.8246 32.0655 6.05474 32.0655 6.32221V6.54614C32.0655 6.81983 32.1245 7.06241 32.2427 7.2739C32.3671 7.47917 32.5382 7.63778 32.7559 7.74974C32.9798 7.85549 33.2411 7.90836 33.5396 7.90836C33.8071 7.90836 34.0404 7.86793 34.2394 7.78706C34.4447 7.7062 34.6313 7.58491 34.7992 7.42318L35.5736 8.26291C35.3435 8.52416 35.0543 8.72631 34.7059 8.86938C34.3576 9.00622 33.9564 9.07464 33.5023 9.07464ZM39.0152 9.07464C38.5984 9.07464 38.2252 8.99378 37.8956 8.83206C37.5721 8.67033 37.3202 8.42463 37.1398 8.09496C36.9594 7.75907 36.8692 7.33299 36.8692 6.81672V3.98031H38.3248V6.60212C38.3248 7.01887 38.4118 7.32677 38.586 7.52582C38.7664 7.71864 39.0183 7.81505 39.3418 7.81505C39.5657 7.81505 39.7647 7.7684 39.9389 7.6751C40.1131 7.57558 40.2499 7.42629 40.3494 7.22725C40.449 7.02198 40.4987 6.76695 40.4987 6.46216V3.98031H41.9542V9H40.5734V7.61912L40.8253 8.02032C40.6573 8.36865 40.4085 8.63301 40.0789 8.81339C39.7554 8.98756 39.4009 9.07464 39.0152 9.07464Z" fill="#1F2429"/>
<path d="M193.63 9.07464C193.207 9.07464 192.836 8.98134 192.519 8.79473C192.202 8.60813 191.953 8.32511 191.773 7.94568C191.599 7.56003 191.512 7.07485 191.512 6.49016C191.512 5.89924 191.596 5.41406 191.763 5.03463C191.931 4.6552 192.174 4.37218 192.491 4.18558C192.808 3.99897 193.188 3.90567 193.63 3.90567C194.102 3.90567 194.525 4.01452 194.898 4.23223C195.278 4.44372 195.576 4.74228 195.794 5.12794C196.018 5.51359 196.13 5.96766 196.13 6.49016C196.13 7.01887 196.018 7.47605 195.794 7.86171C195.576 8.24736 195.278 8.54593 194.898 8.75741C194.525 8.9689 194.102 9.07464 193.63 9.07464ZM190.663 10.8101V3.98031H192.053V5.00664L192.025 6.49949L192.118 7.983V10.8101H190.663ZM193.378 7.88037C193.62 7.88037 193.835 7.82439 194.021 7.71242C194.214 7.60046 194.367 7.44184 194.479 7.23658C194.597 7.02509 194.656 6.77628 194.656 6.49016C194.656 6.19781 194.597 5.949 194.479 5.74373C194.367 5.53847 194.214 5.37985 194.021 5.26789C193.835 5.15593 193.62 5.09994 193.378 5.09994C193.135 5.09994 192.917 5.15593 192.724 5.26789C192.532 5.37985 192.379 5.53847 192.267 5.74373C192.155 5.949 192.099 6.19781 192.099 6.49016C192.099 6.77628 192.155 7.02509 192.267 7.23658C192.379 7.44184 192.532 7.60046 192.724 7.71242C192.917 7.82439 193.135 7.88037 193.378 7.88037ZM199.493 9.07464C198.958 9.07464 198.482 8.96268 198.065 8.73875C197.655 8.51483 197.328 8.21004 197.086 7.82439C196.849 7.43251 196.731 6.98777 196.731 6.49016C196.731 5.98632 196.849 5.54158 197.086 5.15593C197.328 4.76405 197.655 4.45927 198.065 4.24156C198.482 4.01763 198.958 3.90567 199.493 3.90567C200.022 3.90567 200.494 4.01763 200.911 4.24156C201.328 4.45927 201.654 4.76094 201.891 5.1466C202.127 5.53225 202.245 5.9801 202.245 6.49016C202.245 6.98777 202.127 7.43251 201.891 7.82439C201.654 8.21004 201.328 8.51483 200.911 8.73875C200.494 8.96268 200.022 9.07464 199.493 9.07464ZM199.493 7.88037C199.736 7.88037 199.953 7.82439 200.146 7.71242C200.339 7.60046 200.491 7.44184 200.603 7.23658C200.715 7.02509 200.771 6.77628 200.771 6.49016C200.771 6.19781 200.715 5.949 200.603 5.74373C200.491 5.53847 200.339 5.37985 200.146 5.26789C199.953 5.15593 199.736 5.09994 199.493 5.09994C199.25 5.09994 199.033 5.15593 198.84 5.26789C198.647 5.37985 198.492 5.53847 198.373 5.74373C198.261 5.949 198.205 6.19781 198.205 6.49016C198.205 6.77628 198.261 7.02509 198.373 7.23658C198.492 7.44184 198.647 7.60046 198.84 7.71242C199.033 7.82439 199.25 7.88037 199.493 7.88037ZM203.218 9V3.98031H204.608V5.39851L204.413 4.98798C204.562 4.63343 204.801 4.36596 205.131 4.18558C205.461 3.99897 205.862 3.90567 206.335 3.90567V5.24923C206.272 5.24301 206.216 5.2399 206.167 5.2399C206.117 5.23368 206.064 5.23057 206.008 5.23057C205.61 5.23057 205.286 5.34564 205.038 5.57579C204.795 5.79972 204.674 6.15116 204.674 6.63011V9H203.218ZM209.426 9.07464C208.835 9.07464 208.375 8.92536 208.045 8.62679C207.715 8.322 207.55 7.87104 207.55 7.2739V2.87001H209.006V7.25524C209.006 7.46672 209.062 7.63156 209.174 7.74974C209.286 7.86171 209.438 7.91769 209.631 7.91769C209.861 7.91769 210.057 7.85549 210.219 7.73108L210.611 8.75741C210.461 8.86316 210.281 8.94402 210.07 9C209.864 9.04976 209.65 9.07464 209.426 9.07464ZM206.776 5.21191V4.09227H210.256V5.21191H206.776ZM211.605 9V3.86835C211.605 3.30231 211.773 2.85135 212.109 2.51546C212.445 2.17335 212.924 2.00229 213.546 2.00229C213.757 2.00229 213.959 2.02406 214.152 2.0676C214.351 2.11115 214.519 2.17957 214.656 2.27287L214.274 3.32719C214.193 3.27121 214.103 3.22767 214.003 3.19657C213.903 3.16547 213.798 3.14992 213.686 3.14992C213.474 3.14992 213.309 3.21212 213.191 3.33652C213.079 3.45471 213.023 3.63509 213.023 3.87768V4.34419L213.061 4.96932V9H211.605ZM210.831 5.21191V4.09227H214.311V5.21191H210.831ZM217.361 9.07464C216.826 9.07464 216.35 8.96268 215.933 8.73875C215.523 8.51483 215.196 8.21004 214.954 7.82439C214.717 7.43251 214.599 6.98777 214.599 6.49016C214.599 5.98632 214.717 5.54158 214.954 5.15593C215.196 4.76405 215.523 4.45927 215.933 4.24156C216.35 4.01763 216.826 3.90567 217.361 3.90567C217.89 3.90567 218.362 4.01763 218.779 4.24156C219.196 4.45927 219.522 4.76094 219.759 5.1466C219.995 5.53225 220.113 5.9801 220.113 6.49016C220.113 6.98777 219.995 7.43251 219.759 7.82439C219.522 8.21004 219.196 8.51483 218.779 8.73875C218.362 8.96268 217.89 9.07464 217.361 9.07464ZM217.361 7.88037C217.603 7.88037 217.821 7.82439 218.014 7.71242C218.207 7.60046 218.359 7.44184 218.471 7.23658C218.583 7.02509 218.639 6.77628 218.639 6.49016C218.639 6.19781 218.583 5.949 218.471 5.74373C218.359 5.53847 218.207 5.37985 218.014 5.26789C217.821 5.15593 217.603 5.09994 217.361 5.09994C217.118 5.09994 216.901 5.15593 216.708 5.26789C216.515 5.37985 216.359 5.53847 216.241 5.74373C216.129 5.949 216.073 6.19781 216.073 6.49016C216.073 6.77628 216.129 7.02509 216.241 7.23658C216.359 7.44184 216.515 7.60046 216.708 7.71242C216.901 7.82439 217.118 7.88037 217.361 7.88037ZM216.493 3.33652L217.753 1.99296H219.32L217.631 3.33652H216.493ZM221.086 9V2.07694H222.542V9H221.086ZM223.892 9V3.98031H225.348V9H223.892ZM224.62 3.28054C224.353 3.28054 224.135 3.20279 223.967 3.04728C223.799 2.89178 223.715 2.69895 223.715 2.46881C223.715 2.23866 223.799 2.04583 223.967 1.89033C224.135 1.73483 224.353 1.65707 224.62 1.65707C224.888 1.65707 225.105 1.73171 225.273 1.881C225.441 2.02406 225.525 2.21067 225.525 2.44082C225.525 2.6834 225.441 2.88556 225.273 3.04728C225.112 3.20279 224.894 3.28054 224.62 3.28054ZM229.087 9.07464C228.552 9.07464 228.077 8.96268 227.66 8.73875C227.249 8.51483 226.923 8.21004 226.68 7.82439C226.444 7.43251 226.326 6.98777 226.326 6.49016C226.326 5.98632 226.444 5.54158 226.68 5.15593C226.923 4.76405 227.249 4.45927 227.66 4.24156C228.077 4.01763 228.552 3.90567 229.087 3.90567C229.616 3.90567 230.089 4.01763 230.506 4.24156C230.922 4.45927 231.249 4.76094 231.485 5.1466C231.722 5.53225 231.84 5.9801 231.84 6.49016C231.84 6.98777 231.722 7.43251 231.485 7.82439C231.249 8.21004 230.922 8.51483 230.506 8.73875C230.089 8.96268 229.616 9.07464 229.087 9.07464ZM229.087 7.88037C229.33 7.88037 229.548 7.82439 229.741 7.71242C229.933 7.60046 230.086 7.44184 230.198 7.23658C230.31 7.02509 230.366 6.77628 230.366 6.49016C230.366 6.19781 230.31 5.949 230.198 5.74373C230.086 5.53847 229.933 5.37985 229.741 5.26789C229.548 5.15593 229.33 5.09994 229.087 5.09994C228.845 5.09994 228.627 5.15593 228.434 5.26789C228.241 5.37985 228.086 5.53847 227.968 5.74373C227.856 5.949 227.8 6.19781 227.8 6.49016C227.8 6.77628 227.856 7.02509 227.968 7.23658C228.086 7.44184 228.241 7.60046 228.434 7.71242C228.627 7.82439 228.845 7.88037 229.087 7.88037Z" fill="#1F2429"/>
<path d="M87.4105 111.708C86.8383 111.708 86.3344 111.596 85.899 111.372C85.4698 111.148 85.137 110.843 84.9007 110.457C84.6643 110.066 84.5461 109.621 84.5461 109.123C84.5461 108.619 84.6612 108.175 84.8913 107.789C85.1277 107.397 85.4481 107.092 85.8524 106.875C86.2567 106.651 86.7139 106.539 87.2239 106.539C87.7153 106.539 88.1569 106.644 88.5488 106.856C88.9469 107.061 89.261 107.36 89.4912 107.752C89.7213 108.137 89.8364 108.601 89.8364 109.142C89.8364 109.198 89.8333 109.263 89.8271 109.338C89.8208 109.406 89.8146 109.472 89.8084 109.534H85.7311V108.685H89.0433L88.4835 108.937C88.4835 108.675 88.4306 108.448 88.3249 108.255C88.2191 108.063 88.073 107.913 87.8864 107.808C87.6998 107.696 87.4821 107.64 87.2332 107.64C86.9844 107.64 86.7636 107.696 86.5708 107.808C86.3842 107.913 86.238 108.066 86.1323 108.265C86.0265 108.458 85.9737 108.688 85.9737 108.955V109.179C85.9737 109.453 86.0328 109.695 86.1509 109.907C86.2753 110.112 86.4464 110.271 86.6641 110.383C86.888 110.489 87.1493 110.541 87.4478 110.541C87.7153 110.541 87.9486 110.501 88.1476 110.42C88.3529 110.339 88.5395 110.218 88.7074 110.056L89.4818 110.896C89.2517 111.157 88.9625 111.359 88.6141 111.502C88.2658 111.639 87.8646 111.708 87.4105 111.708ZM90.7099 109.59V108.423H93.3504V109.59H90.7099ZM100.924 106.539C101.322 106.539 101.674 106.62 101.979 106.781C102.29 106.937 102.532 107.179 102.706 107.509C102.887 107.833 102.977 108.249 102.977 108.759V111.633H101.521V108.983C101.521 108.579 101.437 108.28 101.269 108.088C101.101 107.895 100.865 107.798 100.56 107.798C100.349 107.798 100.159 107.848 99.9912 107.948C99.8232 108.041 99.6926 108.184 99.5993 108.377C99.506 108.57 99.4593 108.815 99.4593 109.114V111.633H98.0038V108.983C98.0038 108.579 97.9198 108.28 97.7519 108.088C97.5902 107.895 97.3569 107.798 97.0521 107.798C96.8406 107.798 96.6509 107.848 96.483 107.948C96.315 108.041 96.1844 108.184 96.0911 108.377C95.9978 108.57 95.9511 108.815 95.9511 109.114V111.633H94.4956V106.613H95.8858V107.985L95.6246 107.584C95.7988 107.242 96.0445 106.983 96.3617 106.809C96.6851 106.629 97.0521 106.539 97.4627 106.539C97.9229 106.539 98.3241 106.657 98.6663 106.893C99.0146 107.123 99.2447 107.478 99.3567 107.957L98.8435 107.817C99.0115 107.425 99.2789 107.114 99.6459 106.884C100.019 106.654 100.445 106.539 100.924 106.539ZM107.36 111.633V110.653L107.267 110.439V108.685C107.267 108.374 107.171 108.131 106.978 107.957C106.791 107.783 106.502 107.696 106.11 107.696C105.843 107.696 105.578 107.739 105.317 107.826C105.062 107.907 104.844 108.019 104.664 108.162L104.142 107.145C104.415 106.952 104.745 106.803 105.131 106.697C105.516 106.592 105.908 106.539 106.306 106.539C107.071 106.539 107.665 106.719 108.088 107.08C108.511 107.441 108.723 108.004 108.723 108.769V111.633H107.36ZM105.83 111.708C105.438 111.708 105.103 111.642 104.823 111.512C104.543 111.375 104.328 111.191 104.179 110.961C104.03 110.731 103.955 110.473 103.955 110.187C103.955 109.888 104.026 109.627 104.17 109.403C104.319 109.179 104.552 109.005 104.869 108.881C105.187 108.75 105.6 108.685 106.11 108.685H107.444V109.534H106.269C105.927 109.534 105.69 109.59 105.56 109.702C105.435 109.814 105.373 109.954 105.373 110.122C105.373 110.308 105.445 110.457 105.588 110.569C105.737 110.675 105.939 110.728 106.194 110.728C106.437 110.728 106.654 110.672 106.847 110.56C107.04 110.442 107.18 110.271 107.267 110.047L107.491 110.719C107.385 111.042 107.193 111.288 106.913 111.456C106.633 111.624 106.272 111.708 105.83 111.708ZM110.04 111.633V106.613H111.496V111.633H110.04ZM110.768 105.914C110.5 105.914 110.283 105.836 110.115 105.68C109.947 105.525 109.863 105.332 109.863 105.102C109.863 104.872 109.947 104.679 110.115 104.523C110.283 104.368 110.5 104.29 110.768 104.29C111.035 104.29 111.253 104.365 111.421 104.514C111.589 104.657 111.673 104.844 111.673 105.074C111.673 105.316 111.589 105.519 111.421 105.68C111.259 105.836 111.041 105.914 110.768 105.914ZM112.846 111.633V104.71H114.302V111.633H112.846Z" fill="#1F2429"/>
<path d="M136.754 79.4954V74.4757H138.21V79.4954H136.754ZM137.482 73.776C137.215 73.776 136.997 73.6982 136.829 73.5427C136.661 73.3872 136.577 73.1944 136.577 72.9642C136.577 72.7341 136.661 72.5413 136.829 72.3858C136.997 72.2302 137.215 72.1525 137.482 72.1525C137.75 72.1525 137.967 72.2271 138.135 72.3764C138.303 72.5195 138.387 72.7061 138.387 72.9362C138.387 73.1788 138.303 73.381 138.135 73.5427C137.973 73.6982 137.756 73.776 137.482 73.776ZM142.612 74.4011C143.01 74.4011 143.364 74.482 143.675 74.6437C143.993 74.7992 144.241 75.0418 144.422 75.3714C144.602 75.6949 144.692 76.1116 144.692 76.6217V79.4954H143.237V76.8456C143.237 76.4413 143.147 76.1427 142.966 75.9499C142.792 75.7571 142.543 75.6607 142.22 75.6607C141.99 75.6607 141.781 75.7104 141.595 75.81C141.414 75.9033 141.271 76.0494 141.165 76.2485C141.066 76.4475 141.016 76.7026 141.016 77.0136V79.4954H139.561V74.4757H140.951V75.8659L140.69 75.4461C140.87 75.1102 141.128 74.8521 141.464 74.6717C141.8 74.4913 142.182 74.4011 142.612 74.4011ZM147.7 79.5701C147.271 79.5701 146.858 79.5203 146.46 79.4208C146.068 79.315 145.757 79.1844 145.527 79.0289L146.012 77.9839C146.242 78.127 146.512 78.2452 146.823 78.3385C147.141 78.4256 147.452 78.4691 147.756 78.4691C148.092 78.4691 148.329 78.4287 148.466 78.3478C148.609 78.2669 148.68 78.155 148.68 78.0119C148.68 77.8937 148.624 77.8066 148.512 77.7507C148.406 77.6885 148.263 77.6418 148.083 77.6107C147.903 77.5796 147.704 77.5485 147.486 77.5174C147.274 77.4863 147.06 77.4459 146.842 77.3961C146.624 77.3401 146.425 77.2593 146.245 77.1535C146.065 77.0478 145.918 76.9047 145.806 76.7243C145.701 76.5439 145.648 76.3107 145.648 76.0246C145.648 75.7073 145.738 75.4274 145.918 75.1848C146.105 74.9422 146.372 74.7525 146.721 74.6157C147.069 74.4726 147.486 74.4011 147.971 74.4011C148.313 74.4011 148.661 74.4384 149.016 74.5131C149.371 74.5877 149.666 74.6966 149.902 74.8396L149.417 75.8753C149.175 75.7322 148.929 75.6358 148.68 75.586C148.438 75.5301 148.201 75.5021 147.971 75.5021C147.648 75.5021 147.411 75.5456 147.262 75.6327C147.113 75.7198 147.038 75.8317 147.038 75.9686C147.038 76.093 147.091 76.1863 147.197 76.2485C147.309 76.3107 147.455 76.3604 147.635 76.3978C147.816 76.4351 148.011 76.4693 148.223 76.5004C148.441 76.5253 148.658 76.5657 148.876 76.6217C149.094 76.6777 149.29 76.7585 149.464 76.8643C149.644 76.9638 149.79 77.1038 149.902 77.2841C150.014 77.4583 150.07 77.6885 150.07 77.9746C150.07 78.2856 149.977 78.5624 149.79 78.805C149.604 79.0413 149.333 79.228 148.979 79.3648C148.63 79.5016 148.204 79.5701 147.7 79.5701ZM153.021 79.5701C152.43 79.5701 151.97 79.4208 151.64 79.1222C151.311 78.8174 151.146 78.3665 151.146 77.7693V73.3654H152.601V77.7507C152.601 77.9621 152.657 78.127 152.769 78.2452C152.881 78.3571 153.033 78.4131 153.226 78.4131C153.456 78.4131 153.652 78.3509 153.814 78.2265L154.206 79.2528C154.057 79.3586 153.876 79.4394 153.665 79.4954C153.46 79.5452 153.245 79.5701 153.021 79.5701ZM150.371 75.7073V74.5877H153.851V75.7073H150.371ZM158.102 79.4954V78.5157L158.009 78.3011V76.5471C158.009 76.236 157.912 75.9935 157.72 75.8193C157.533 75.6451 157.244 75.558 156.852 75.558C156.584 75.558 156.32 75.6016 156.059 75.6887C155.804 75.7695 155.586 75.8815 155.406 76.0246L154.883 75.0076C155.157 74.8147 155.486 74.6654 155.872 74.5597C156.258 74.454 156.65 74.4011 157.048 74.4011C157.813 74.4011 158.407 74.5815 158.83 74.9422C159.253 75.303 159.464 75.8659 159.464 76.631V79.4954H158.102ZM156.572 79.5701C156.18 79.5701 155.844 79.5048 155.564 79.3741C155.284 79.2373 155.07 79.0538 154.92 78.8236C154.771 78.5935 154.696 78.3354 154.696 78.0492C154.696 77.7507 154.768 77.4894 154.911 77.2655C155.06 77.0416 155.294 76.8674 155.611 76.743C155.928 76.6124 156.342 76.5471 156.852 76.5471H158.186V77.3961H157.01C156.668 77.3961 156.432 77.4521 156.301 77.5641C156.177 77.676 156.115 77.816 156.115 77.9839C156.115 78.1705 156.186 78.3198 156.329 78.4318C156.479 78.5375 156.681 78.5904 156.936 78.5904C157.178 78.5904 157.396 78.5344 157.589 78.4224C157.782 78.3043 157.922 78.1332 158.009 77.9093L158.233 78.5811C158.127 78.9045 157.934 79.1502 157.654 79.3181C157.374 79.4861 157.014 79.5701 156.572 79.5701ZM163.179 81.3801C162.706 81.3801 162.249 81.321 161.807 81.2029C161.372 81.0909 161.008 80.9198 160.715 80.6897L161.294 79.6447C161.505 79.8189 161.773 79.9557 162.096 80.0552C162.426 80.161 162.749 80.2139 163.067 80.2139C163.583 80.2139 163.956 80.0988 164.186 79.8686C164.423 79.6385 164.541 79.2964 164.541 78.8423V78.0866L164.634 76.827L164.615 75.558V74.4757H165.996V78.6557C165.996 79.5887 165.754 80.2761 165.269 80.7177C164.783 81.1593 164.087 81.3801 163.179 81.3801ZM162.955 79.2528C162.488 79.2528 162.065 79.1533 161.686 78.9543C161.313 78.749 161.011 78.466 160.781 78.1052C160.557 77.7382 160.445 77.3121 160.445 76.827C160.445 76.3356 160.557 75.9095 160.781 75.5487C161.011 75.1817 161.313 74.8987 161.686 74.6997C162.065 74.5006 162.488 74.4011 162.955 74.4011C163.378 74.4011 163.751 74.4882 164.074 74.6623C164.398 74.8303 164.65 75.0946 164.83 75.4554C165.01 75.81 165.101 76.2671 165.101 76.827C165.101 77.3806 165.01 77.8377 164.83 78.1985C164.65 78.5531 164.398 78.8174 164.074 78.9916C163.751 79.1658 163.378 79.2528 162.955 79.2528ZM163.244 78.0586C163.499 78.0586 163.726 78.0088 163.925 77.9093C164.124 77.8035 164.28 77.6574 164.392 77.4708C164.503 77.2841 164.559 77.0696 164.559 76.827C164.559 76.5782 164.503 76.3636 164.392 76.1832C164.28 75.9966 164.124 75.8535 163.925 75.754C163.726 75.6482 163.499 75.5954 163.244 75.5954C162.989 75.5954 162.762 75.6482 162.563 75.754C162.364 75.8535 162.205 75.9966 162.087 76.1832C161.975 76.3636 161.919 76.5782 161.919 76.827C161.919 77.0696 161.975 77.2841 162.087 77.4708C162.205 77.6574 162.364 77.8035 162.563 77.9093C162.762 78.0088 162.989 78.0586 163.244 78.0586ZM167.351 79.4954V74.4757H168.741V75.8939L168.545 75.4834C168.695 75.1289 168.934 74.8614 169.264 74.681C169.593 74.4944 169.995 74.4011 170.467 74.4011V75.7447C170.405 75.7384 170.349 75.7353 170.299 75.7353C170.25 75.7291 170.197 75.726 170.141 75.726C169.743 75.726 169.419 75.8411 169.17 76.0712C168.928 76.2951 168.807 76.6466 168.807 77.1255V79.4954H167.351ZM174.084 79.4954V78.5157L173.99 78.3011V76.5471C173.99 76.236 173.894 75.9935 173.701 75.8193C173.515 75.6451 173.225 75.558 172.834 75.558C172.566 75.558 172.302 75.6016 172.04 75.6887C171.785 75.7695 171.568 75.8815 171.387 76.0246L170.865 75.0076C171.139 74.8147 171.468 74.6654 171.854 74.5597C172.239 74.454 172.631 74.4011 173.029 74.4011C173.795 74.4011 174.389 74.5815 174.812 74.9422C175.235 75.303 175.446 75.8659 175.446 76.631V79.4954H174.084ZM172.554 79.5701C172.162 79.5701 171.826 79.5048 171.546 79.3741C171.266 79.2373 171.051 79.0538 170.902 78.8236C170.753 78.5935 170.678 78.3354 170.678 78.0492C170.678 77.7507 170.75 77.4894 170.893 77.2655C171.042 77.0416 171.275 76.8674 171.593 76.743C171.91 76.6124 172.323 76.5471 172.834 76.5471H174.168V77.3961H172.992C172.65 77.3961 172.414 77.4521 172.283 77.5641C172.159 77.676 172.096 77.816 172.096 77.9839C172.096 78.1705 172.168 78.3198 172.311 78.4318C172.46 78.5375 172.662 78.5904 172.917 78.5904C173.16 78.5904 173.378 78.5344 173.571 78.4224C173.763 78.3043 173.903 78.1332 173.99 77.9093L174.214 78.5811C174.109 78.9045 173.916 79.1502 173.636 79.3181C173.356 79.4861 172.995 79.5701 172.554 79.5701ZM183.192 74.4011C183.59 74.4011 183.941 74.482 184.246 74.6437C184.557 74.7992 184.8 75.0418 184.974 75.3714C185.154 75.6949 185.245 76.1116 185.245 76.6217V79.4954H183.789V76.8456C183.789 76.4413 183.705 76.1427 183.537 75.9499C183.369 75.7571 183.133 75.6607 182.828 75.6607C182.617 75.6607 182.427 75.7104 182.259 75.81C182.091 75.9033 181.96 76.0463 181.867 76.2392C181.774 76.432 181.727 76.6777 181.727 76.9762V79.4954H180.272V76.8456C180.272 76.4413 180.188 76.1427 180.02 75.9499C179.858 75.7571 179.625 75.6607 179.32 75.6607C179.108 75.6607 178.919 75.7104 178.751 75.81C178.583 75.9033 178.452 76.0463 178.359 76.2392C178.265 76.432 178.219 76.6777 178.219 76.9762V79.4954H176.763V74.4757H178.154V75.8473L177.892 75.4461C178.066 75.104 178.312 74.8458 178.629 74.6717C178.953 74.4913 179.32 74.4011 179.73 74.4011C180.191 74.4011 180.592 74.5193 180.934 74.7556C181.282 74.9858 181.512 75.3403 181.624 75.8193L181.111 75.6793C181.279 75.2875 181.547 74.9765 181.914 74.7463C182.287 74.5162 182.713 74.4011 183.192 74.4011Z" fill="#1F2429"/>
<path d="M1.71806 51.7706V35.4912H6.15237V38.331H6.24349C6.72944 36.3265 8.05062 35.1572 9.94887 35.1572C10.4348 35.1572 10.8904 35.2331 11.2245 35.3242V39.227C10.86 39.0751 10.2526 38.984 9.61478 38.984C7.42799 38.984 6.15237 40.29 6.15237 42.659V51.7706H1.71806ZM17.4963 52.0288C14.2313 52.0288 12.0294 49.9787 12.0294 47.1085V47.0782C12.0294 44.1169 14.3224 42.3857 18.3619 42.1275L22.3862 41.8845V40.8823C22.3862 39.4396 21.4447 38.5436 19.7135 38.5436C18.0582 38.5436 17.0559 39.3181 16.8433 40.3659L16.8129 40.5026H12.7583L12.7735 40.3204C13.0164 37.3136 15.5981 35.1572 19.8957 35.1572C24.1022 35.1572 26.8205 37.3287 26.8205 40.6089V51.7706H22.3862V49.3409H22.2951C21.3687 51.0113 19.6375 52.0288 17.4963 52.0288ZM16.4181 46.8807C16.4181 48.0804 17.4052 48.7942 18.939 48.7942C20.9283 48.7942 22.3862 47.5186 22.3862 45.8177V44.6484L19.0301 44.861C17.3141 44.9673 16.4181 45.6962 16.4181 46.8504V46.8807ZM30.8752 51.7706V38.8322H28.658V35.4912H30.8752V34.1852C30.8752 30.9962 32.3938 29.5231 36.2358 29.5231C37.0559 29.5231 37.9518 29.5991 38.4682 29.7054V32.6363C38.1644 32.5755 37.7392 32.5603 37.3292 32.5603C35.8562 32.5603 35.2032 33.183 35.2032 34.3523V35.4912H38.4378V38.8322H35.3095V51.7706H30.8752ZM44.7704 52.0288C41.5054 52.0288 39.3034 49.9787 39.3034 47.1085V47.0782C39.3034 44.1169 41.5965 42.3857 45.636 42.1275L49.6602 41.8845V40.8823C49.6602 39.4396 48.7187 38.5436 46.9875 38.5436C45.3322 38.5436 44.33 39.3181 44.1174 40.3659L44.087 40.5026H40.0323L40.0475 40.3204C40.2905 37.3136 42.8721 35.1572 47.1697 35.1572C51.3763 35.1572 54.0946 37.3287 54.0946 40.6089V51.7706H49.6602V49.3409H49.5691C48.6428 51.0113 46.9116 52.0288 44.7704 52.0288ZM43.6921 46.8807C43.6921 48.0804 44.6792 48.7942 46.213 48.7942C48.2024 48.7942 49.6602 47.5186 49.6602 45.8177V44.6484L46.3041 44.861C44.5881 44.9673 43.6921 45.6962 43.6921 46.8504V46.8807ZM64.3755 52.1047C59.3945 52.1047 56.3725 48.8701 56.3725 43.6613V43.6461C56.3725 38.4677 59.4248 35.1572 64.1932 35.1572C68.9616 35.1572 71.9533 38.3918 71.9533 43.312V44.6788H60.746C60.7916 47.2756 62.2039 48.7942 64.4666 48.7942C66.2889 48.7942 67.3975 47.7919 67.7164 46.8807L67.7468 46.7896H71.8166L71.7711 46.9567C71.2699 49.3561 69.0224 52.1047 64.3755 52.1047ZM64.2692 38.4677C62.4469 38.4677 61.0801 39.6826 60.7916 41.8845H67.7012C67.4279 39.637 66.1067 38.4677 64.2692 38.4677ZM74.3527 51.7706V29.8572H78.787V51.7706H74.3527ZM94.9297 55.4608C87.0785 55.4608 81.566 50.6621 81.566 42.5831V42.5679C81.566 34.9597 86.8508 29.7661 94.4589 29.7661C101.779 29.7661 106.775 34.3371 106.775 41.4593V41.4745C106.775 46.334 104.588 49.1738 101.49 49.1738C99.6222 49.1738 98.2251 48.1564 97.6024 46.7137L97.4658 46.4403H97.3291C96.5546 48.2475 95.036 49.1738 93.1226 49.1738C90.0246 49.1738 87.8986 46.5618 87.8986 42.5983V42.5831C87.8986 38.8625 90.1006 36.2505 93.1226 36.2505C94.8082 36.2505 96.2205 37.1161 96.828 38.4981H96.9494V36.5846H100.017V43.6765C100.017 45.514 100.67 46.4707 101.703 46.4707C103.024 46.4707 103.92 44.7091 103.92 41.596V41.5808C103.92 35.8557 100.169 32.2566 94.3678 32.2566C88.506 32.2566 84.421 36.448 84.421 42.5831V42.5983C84.421 49.2194 88.7642 52.9248 95.1575 52.9248C97.0557 52.9248 98.954 52.6362 100.275 52.1503V54.656C98.7262 55.1875 96.9039 55.4608 94.9297 55.4608ZM93.9578 46.3796C95.5979 46.3796 96.6609 44.9673 96.6609 42.6894V42.6438C96.6609 40.3963 95.5979 39.0144 93.973 39.0144C92.3329 39.0144 91.3458 40.3659 91.3458 42.659V42.6742C91.3458 44.9977 92.3481 46.3796 93.9578 46.3796ZM115.416 52.1047C111.315 52.1047 108.795 48.9157 108.795 43.6309V43.6158C108.795 38.3158 111.315 35.1572 115.416 35.1572C117.724 35.1572 119.546 36.3417 120.427 38.3158H120.518V29.8572H124.952V51.7706H120.518V48.9916H120.427C119.561 50.9202 117.769 52.1047 115.416 52.1047ZM116.904 48.4297C119.06 48.4297 120.533 46.577 120.533 43.6309V43.6158C120.533 40.6849 119.045 38.8322 116.904 38.8322C114.702 38.8322 113.305 40.6393 113.305 43.6158V43.6309C113.305 46.5922 114.687 48.4297 116.904 48.4297ZM135.324 52.1047C130.343 52.1047 127.321 48.8701 127.321 43.6613V43.6461C127.321 38.4677 130.374 35.1572 135.142 35.1572C139.911 35.1572 142.902 38.3918 142.902 43.312V44.6788H131.695C131.741 47.2756 133.153 48.7942 135.416 48.7942C137.238 48.7942 138.346 47.7919 138.665 46.8807L138.696 46.7896H142.766L142.72 46.9567C142.219 49.3561 139.971 52.1047 135.324 52.1047ZM135.218 38.4677C133.396 38.4677 132.029 39.6826 131.741 41.8845H138.65C138.377 39.637 137.056 38.4677 135.218 38.4677ZM148.886 51.7706L143.252 35.4912H147.99L151.391 47.8526H151.482L154.838 35.4912H159.47L153.882 51.7706H148.886ZM161.019 51.7706V35.4912H165.453V38.331H165.545C166.031 36.3265 167.352 35.1572 169.25 35.1572C169.736 35.1572 170.191 35.2331 170.526 35.3242V39.227C170.161 39.0751 169.554 38.984 168.916 38.984C166.729 38.984 165.453 40.29 165.453 42.659V51.7706H161.019ZM174.656 33.3956C173.32 33.3956 172.287 32.3477 172.287 31.0873C172.287 29.8269 173.32 28.779 174.656 28.779C175.993 28.779 177.025 29.8269 177.025 31.0873C177.025 32.3477 175.993 33.3956 174.656 33.3956ZM172.439 51.7706V35.4912H176.873V51.7706H172.439ZM189.493 52.1047C187.154 52.1047 185.362 50.9202 184.482 48.9916H184.39V51.7706H179.956V29.8572H184.39V38.3158H184.482C185.377 36.3417 187.185 35.1572 189.508 35.1572C193.593 35.1572 196.129 38.3158 196.129 43.6158V43.6309C196.129 48.9157 193.593 52.1047 189.493 52.1047ZM188.02 48.4297C190.222 48.4297 191.619 46.5922 191.619 43.6309V43.6158C191.619 40.6393 190.222 38.8322 188.02 38.8322C185.879 38.8322 184.39 40.6849 184.39 43.6158V43.6309C184.39 46.577 185.863 48.4297 188.02 48.4297ZM205.818 52.1047C200.837 52.1047 197.815 48.8701 197.815 43.6613V43.6461C197.815 38.4677 200.867 35.1572 205.636 35.1572C210.404 35.1572 213.396 38.3918 213.396 43.312V44.6788H202.188C202.234 47.2756 203.646 48.7942 205.909 48.7942C207.731 48.7942 208.84 47.7919 209.159 46.8807L209.189 46.7896H213.259L213.213 46.9567C212.712 49.3561 210.465 52.1047 205.818 52.1047ZM205.712 38.4677C203.889 38.4677 202.522 39.6826 202.234 41.8845H209.144C208.87 39.637 207.549 38.4677 205.712 38.4677ZM217.997 33.3956C216.661 33.3956 215.628 32.3477 215.628 31.0873C215.628 29.8269 216.661 28.779 217.997 28.779C219.333 28.779 220.366 29.8269 220.366 31.0873C220.366 32.3477 219.333 33.3956 217.997 33.3956ZM215.78 51.7706V35.4912H220.214V51.7706H215.78ZM223.191 51.7706V35.4912H227.625V38.331H227.716C228.202 36.3265 229.523 35.1572 231.421 35.1572C231.907 35.1572 232.363 35.2331 232.697 35.3242V39.227C232.333 39.0751 231.725 38.984 231.087 38.984C228.901 38.984 227.625 40.29 227.625 42.659V51.7706H223.191ZM241.444 52.1047C236.494 52.1047 233.38 48.9308 233.38 43.6309V43.6006C233.38 38.3614 236.569 35.1572 241.429 35.1572C246.304 35.1572 249.508 38.331 249.508 43.6006V43.6309C249.508 48.946 246.364 52.1047 241.444 52.1047ZM241.459 48.6271C243.616 48.6271 244.998 46.8048 244.998 43.6309V43.6006C244.998 40.4571 243.585 38.6347 241.429 38.6347C239.288 38.6347 237.891 40.4571 237.891 43.6006V43.6309C237.891 46.82 239.273 48.6271 241.459 48.6271ZM253.654 52.0288C252.272 52.0288 251.194 50.9354 251.194 49.5687C251.194 48.1867 252.272 47.1085 253.654 47.1085C255.02 47.1085 256.114 48.1867 256.114 49.5687C256.114 50.9354 255.02 52.0288 253.654 52.0288ZM265.59 52.1047C260.624 52.1047 257.557 48.8701 257.557 43.6158V43.6006C257.557 38.3918 260.67 35.1572 265.544 35.1572C269.963 35.1572 272.773 37.8754 272.94 41.3986V41.5049H268.825L268.794 41.3682C268.521 39.8193 267.443 38.6347 265.605 38.6347C263.434 38.6347 262.067 40.5026 262.067 43.6158V43.6309C262.067 46.82 263.434 48.6271 265.62 48.6271C267.397 48.6271 268.506 47.5337 268.809 45.8936L268.825 45.757H272.955V45.8481C272.743 49.4016 269.933 52.1047 265.59 52.1047ZM282.568 52.1047C277.617 52.1047 274.504 48.9308 274.504 43.6309V43.6006C274.504 38.3614 277.693 35.1572 282.553 35.1572C287.427 35.1572 290.632 38.331 290.632 43.6006V43.6309C290.632 48.946 287.488 52.1047 282.568 52.1047ZM282.583 48.6271C284.739 48.6271 286.121 46.8048 286.121 43.6309V43.6006C286.121 40.4571 284.709 38.6347 282.553 38.6347C280.411 38.6347 279.014 40.4571 279.014 43.6006V43.6309C279.014 46.82 280.396 48.6271 282.583 48.6271ZM292.925 51.7706V35.4912H297.359V38.2247H297.45C298.118 36.372 299.819 35.1572 302.006 35.1572C304.284 35.1572 305.939 36.372 306.486 38.5133H306.577C307.306 36.4631 309.25 35.1572 311.634 35.1572C314.823 35.1572 316.964 37.3591 316.964 40.6393V51.7706H312.53V41.7479C312.53 39.8648 311.588 38.8322 309.872 38.8322C308.187 38.8322 307.078 40.0622 307.078 41.8694V51.7706H302.811V41.6112C302.811 39.8648 301.824 38.8322 300.184 38.8322C298.498 38.8322 297.359 40.1078 297.359 41.9453V51.7706H292.925Z" fill="#1F2429"/>
<path d="M1.31201 99.0046H317.505M1.83036 99.5229L1.83036 59.0917M316.986 99.5229V54.9449M1.31201 19.1789H79.0643M109.129 19.1789L317.505 19.1789M82.1744 66.8669L250.119 66.867M1.83036 26.9541L1.83036 18.6605M78.546 26.9541V18.6605M37.0781 19.6972V14.5137M208.133 19.6972V14.5137M159.408 72.5688V67.3853M99.2799 104.706V99.5229M109.647 26.9541V18.6605M81.6561 67.3853V59.0917M249.601 67.3853V59.0917M316.986 26.9541V18.6605" stroke="#86868B" stroke-width="1.0367" stroke-linejoin="round"/>
</svg>
