<svg width="324" height="114" viewBox="0 0 324 114" fill="none" xmlns="http://www.w3.org/2000/svg">
<path d="M33.4707 10.1182C31.709 10.1182 30.6401 8.97412 30.6401 7.13184V7.12646C30.6401 5.29492 31.7197 4.12402 33.4062 4.12402C35.0928 4.12402 36.1509 5.26807 36.1509 7.0083V7.4917H32.187C32.2031 8.41016 32.7026 8.94727 33.5029 8.94727C34.1475 8.94727 34.5396 8.59277 34.6523 8.27051L34.6631 8.23828H36.1025L36.0864 8.29736C35.9092 9.146 35.1143 10.1182 33.4707 10.1182ZM33.4331 5.29492C32.7886 5.29492 32.3052 5.72461 32.2031 6.50342H34.647C34.5503 5.7085 34.083 5.29492 33.4331 5.29492ZM38.9224 10.1182C37.6548 10.1182 36.9351 9.30713 36.9351 7.95898V4.24219H38.5034V7.63135C38.5034 8.3833 38.8579 8.81836 39.5615 8.81836C40.2651 8.81836 40.7109 8.30273 40.7109 7.55078V4.24219H42.2793V10H40.7109V9.04932H40.6787C40.3833 9.70996 39.7925 10.1182 38.9224 10.1182Z" fill="#86868B"/>
<path d="M190.501 11.8799V4.24219H192.069V5.24658H192.107C192.418 4.54834 193.047 4.12402 193.863 4.12402C195.324 4.12402 196.216 5.24121 196.216 7.11572V7.12109C196.216 8.99023 195.324 10.1182 193.885 10.1182C193.063 10.1182 192.413 9.69922 192.102 9.01709H192.069V11.8799H190.501ZM193.348 8.81836C194.126 8.81836 194.621 8.16846 194.621 7.12109V7.11572C194.621 6.06299 194.126 5.42383 193.348 5.42383C192.585 5.42383 192.064 6.0791 192.064 7.12109V7.12646C192.064 8.16309 192.585 8.81836 193.348 8.81836ZM199.675 10.1182C197.924 10.1182 196.823 8.99561 196.823 7.12109V7.11035C196.823 5.25732 197.951 4.12402 199.669 4.12402C201.394 4.12402 202.527 5.24658 202.527 7.11035V7.12109C202.527 9.00098 201.415 10.1182 199.675 10.1182ZM199.68 8.88818C200.443 8.88818 200.932 8.24365 200.932 7.12109V7.11035C200.932 5.99854 200.432 5.354 199.669 5.354C198.912 5.354 198.418 5.99854 198.418 7.11035V7.12109C198.418 8.24902 198.907 8.88818 199.68 8.88818ZM203.338 10V4.24219H204.906V5.24658H204.938C205.11 4.5376 205.578 4.12402 206.249 4.12402C206.421 4.12402 206.582 4.15088 206.7 4.18311V5.56348C206.571 5.50977 206.356 5.47754 206.131 5.47754C205.357 5.47754 204.906 5.93945 204.906 6.77734V10H203.338ZM209.848 10.1182C208.569 10.1182 207.968 9.62402 207.968 8.38867V5.42383H207.167V4.24219H207.968V2.83496H209.552V4.24219H210.605V5.42383H209.552V8.2168C209.552 8.75391 209.794 8.93652 210.267 8.93652C210.406 8.93652 210.508 8.92041 210.605 8.90967V10.0591C210.428 10.0859 210.175 10.1182 209.848 10.1182ZM211.889 10V5.42383H211.104V4.24219H211.889V3.78027C211.889 2.65234 212.426 2.13135 213.785 2.13135C214.075 2.13135 214.392 2.1582 214.574 2.1958V3.23242C214.467 3.21094 214.316 3.20557 214.171 3.20557C213.65 3.20557 213.419 3.42578 213.419 3.83936V4.24219H214.563V5.42383H213.457V10H211.889ZM218.006 3.59766H216.954L217.931 1.76074H219.322L218.006 3.59766ZM217.625 10.1182C215.874 10.1182 214.773 8.99561 214.773 7.12109V7.11035C214.773 5.25732 215.901 4.12402 217.62 4.12402C219.344 4.12402 220.477 5.24658 220.477 7.11035V7.12109C220.477 9.00098 219.365 10.1182 217.625 10.1182ZM217.63 8.88818C218.393 8.88818 218.882 8.24365 218.882 7.12109V7.11035C218.882 5.99854 218.382 5.354 217.62 5.354C216.862 5.354 216.368 5.99854 216.368 7.11035V7.12109C216.368 8.24902 216.857 8.88818 217.63 8.88818ZM221.326 10V2.24951H222.894V10H221.326ZM224.769 3.50098C224.296 3.50098 223.931 3.13037 223.931 2.68457C223.931 2.23877 224.296 1.86816 224.769 1.86816C225.241 1.86816 225.606 2.23877 225.606 2.68457C225.606 3.13037 225.241 3.50098 224.769 3.50098ZM223.984 10V4.24219H225.553V10H223.984ZM229.248 10.1182C227.497 10.1182 226.396 8.99561 226.396 7.12109V7.11035C226.396 5.25732 227.524 4.12402 229.243 4.12402C230.967 4.12402 232.1 5.24658 232.1 7.11035V7.12109C232.1 9.00098 230.988 10.1182 229.248 10.1182ZM229.253 8.88818C230.016 8.88818 230.505 8.24365 230.505 7.12109V7.11035C230.505 5.99854 230.005 5.354 229.243 5.354C228.485 5.354 227.991 5.99854 227.991 7.11035V7.12109C227.991 8.24902 228.48 8.88818 229.253 8.88818Z" fill="#86868B"/>
<path d="M87.3789 113.751C85.6172 113.751 84.5483 112.607 84.5483 110.765V110.759C84.5483 108.928 85.6279 107.757 87.3145 107.757C89.001 107.757 90.0591 108.901 90.0591 110.641V111.125H86.0952C86.1113 112.043 86.6108 112.58 87.4111 112.58C88.0557 112.58 88.4478 112.226 88.5605 111.904L88.5713 111.871H90.0107L89.9946 111.93C89.8174 112.779 89.0225 113.751 87.3789 113.751ZM87.3413 108.928C86.6968 108.928 86.2134 109.358 86.1113 110.136H88.5552C88.4585 109.342 87.9912 108.928 87.3413 108.928ZM91.0474 111.168V109.798H94.5278V111.168H91.0474ZM95.7256 113.633V107.875H97.2939V108.842H97.3262C97.5625 108.187 98.1641 107.757 98.9375 107.757C99.7432 107.757 100.329 108.187 100.522 108.944H100.554C100.812 108.219 101.5 107.757 102.343 107.757C103.471 107.757 104.228 108.536 104.228 109.696V113.633H102.66V110.088C102.66 109.422 102.327 109.057 101.72 109.057C101.124 109.057 100.731 109.492 100.731 110.131V113.633H99.2222V110.04C99.2222 109.422 98.873 109.057 98.293 109.057C97.6968 109.057 97.2939 109.508 97.2939 110.158V113.633H95.7256ZM106.935 113.724C105.78 113.724 105.001 112.999 105.001 111.984V111.973C105.001 110.926 105.812 110.314 107.241 110.222L108.665 110.136V109.782C108.665 109.272 108.332 108.955 107.719 108.955C107.134 108.955 106.779 109.229 106.704 109.599L106.693 109.648H105.259L105.265 109.583C105.351 108.52 106.264 107.757 107.784 107.757C109.271 107.757 110.233 108.525 110.233 109.685V113.633H108.665V112.774H108.632C108.305 113.364 107.692 113.724 106.935 113.724ZM106.554 111.904C106.554 112.328 106.903 112.58 107.445 112.58C108.149 112.58 108.665 112.129 108.665 111.528V111.114L107.478 111.189C106.871 111.227 106.554 111.485 106.554 111.893V111.904ZM112.064 107.134C111.592 107.134 111.227 106.763 111.227 106.318C111.227 105.872 111.592 105.501 112.064 105.501C112.537 105.501 112.902 105.872 112.902 106.318C112.902 106.763 112.537 107.134 112.064 107.134ZM111.28 113.633V107.875H112.849V113.633H111.28ZM113.939 113.633V105.883H115.507V113.633H113.939Z" fill="#86868B"/>
<path d="M137.409 74.9964C136.937 74.9964 136.571 74.6258 136.571 74.18C136.571 73.7342 136.937 73.3636 137.409 73.3636C137.882 73.3636 138.247 73.7342 138.247 74.18C138.247 74.6258 137.882 74.9964 137.409 74.9964ZM136.625 81.4954V75.7376H138.193V81.4954H136.625ZM139.246 81.4954V75.7376H140.814V76.6829H140.847C141.142 76.0223 141.733 75.6194 142.603 75.6194C143.871 75.6194 144.59 76.4305 144.59 77.7786V81.4954H143.022V78.1009C143.022 77.3489 142.667 76.9192 141.964 76.9192C141.26 76.9192 140.814 77.4349 140.814 78.1868V81.4954H139.246ZM147.953 81.6136C146.357 81.6136 145.471 80.8777 145.348 79.7874L145.342 79.7391H146.873L146.884 79.7874C146.986 80.2386 147.324 80.5018 147.953 80.5018C148.543 80.5018 148.903 80.2708 148.903 79.9002V79.8948C148.903 79.5887 148.71 79.4114 148.146 79.2879L147.168 79.0838C146.051 78.8475 145.487 78.2889 145.487 77.4295V77.4241C145.487 76.3284 146.433 75.6194 147.899 75.6194C149.43 75.6194 150.284 76.4305 150.321 77.4402V77.4939H148.876L148.871 77.451C148.817 77.0374 148.479 76.7259 147.899 76.7259C147.356 76.7259 147.018 76.9676 147.018 77.3382V77.3436C147.018 77.639 147.217 77.8323 147.797 77.9559L148.774 78.1653C149.978 78.4178 150.472 78.8904 150.472 79.7391V79.7444C150.472 80.8724 149.435 81.6136 147.953 81.6136ZM153.533 81.6136C152.255 81.6136 151.653 81.1194 151.653 79.8841V76.9192H150.853V75.7376H151.653V74.3304H153.238V75.7376H154.291V76.9192H153.238V79.7122C153.238 80.2493 153.479 80.4319 153.952 80.4319C154.092 80.4319 154.194 80.4158 154.291 80.4051V81.5545C154.113 81.5814 153.861 81.6136 153.533 81.6136ZM156.815 81.5867C155.66 81.5867 154.881 80.8616 154.881 79.8465V79.8357C154.881 78.7884 155.692 78.1761 157.121 78.0848L158.544 77.9988V77.6443C158.544 77.1341 158.211 76.8172 157.599 76.8172C157.014 76.8172 156.659 77.0911 156.584 77.4617L156.573 77.5101H155.139L155.145 77.4456C155.23 76.3821 156.144 75.6194 157.664 75.6194C159.151 75.6194 160.113 76.3875 160.113 77.5477V81.4954H158.544V80.636H158.512C158.185 81.2269 157.572 81.5867 156.815 81.5867ZM156.434 79.7659C156.434 80.1902 156.783 80.4427 157.325 80.4427C158.029 80.4427 158.544 79.9915 158.544 79.3899V78.9764L157.357 79.0516C156.75 79.0892 156.434 79.347 156.434 79.7552V79.7659ZM163.819 83.4935C162.234 83.4935 161.235 82.7791 161.085 81.8553L161.08 81.8069H162.605L162.621 81.8445C162.745 82.1292 163.164 82.3763 163.819 82.3763C164.63 82.3763 165.06 81.9573 165.06 81.3128V80.4319H165.027C164.727 81.0335 164.082 81.4148 163.25 81.4148C161.81 81.4148 160.918 80.3406 160.918 78.5521V78.5467C160.918 76.7098 161.821 75.6194 163.276 75.6194C164.087 75.6194 164.716 76.0491 165.027 76.7205H165.06V75.7376H166.628V81.3343C166.628 82.618 165.548 83.4935 163.819 83.4935ZM163.792 80.2654C164.56 80.2654 165.065 79.6209 165.065 78.5897V78.5843C165.065 77.5584 164.555 76.9192 163.792 76.9192C163.013 76.9192 162.514 77.553 162.514 78.5843V78.5897C162.514 79.6263 163.008 80.2654 163.792 80.2654ZM167.659 81.4954V75.7376H169.228V76.742H169.26C169.432 76.033 169.899 75.6194 170.57 75.6194C170.742 75.6194 170.903 75.6463 171.021 75.6785V77.0589C170.893 77.0052 170.678 76.973 170.452 76.973C169.679 76.973 169.228 77.4349 169.228 78.2728V81.4954H167.659ZM173.24 81.5867C172.085 81.5867 171.306 80.8616 171.306 79.8465V79.8357C171.306 78.7884 172.117 78.1761 173.546 78.0848L174.969 77.9988V77.6443C174.969 77.1341 174.636 76.8172 174.024 76.8172C173.438 76.8172 173.084 77.0911 173.009 77.4617L172.998 77.5101H171.564L171.569 77.4456C171.655 76.3821 172.568 75.6194 174.088 75.6194C175.576 75.6194 176.538 76.3875 176.538 77.5477V81.4954H174.969V80.636H174.937C174.609 81.2269 173.997 81.5867 173.24 81.5867ZM172.858 79.7659C172.858 80.1902 173.208 80.4427 173.75 80.4427C174.454 80.4427 174.969 79.9915 174.969 79.3899V78.9764L173.782 79.0516C173.175 79.0892 172.858 79.347 172.858 79.7552V79.7659ZM177.553 81.4954V75.7376H179.121V76.7044H179.153C179.39 76.0491 179.991 75.6194 180.765 75.6194C181.57 75.6194 182.156 76.0491 182.349 76.8064H182.381C182.639 76.0814 183.327 75.6194 184.17 75.6194C185.298 75.6194 186.055 76.3982 186.055 77.5584V81.4954H184.487V77.9505C184.487 77.2845 184.154 76.9192 183.547 76.9192C182.951 76.9192 182.559 77.3543 182.559 77.9935V81.4954H181.049V77.9022C181.049 77.2845 180.7 76.9192 180.12 76.9192C179.524 76.9192 179.121 77.3704 179.121 78.0203V81.4954H177.553Z" fill="#86868B"/>
<path d="M1.09033 51V35.3672H6.896V38.1709H7.00928C7.40576 36.1318 8.60938 35.0273 10.4785 35.0273C10.9741 35.0273 11.4414 35.0981 11.8804 35.2539V40.1392C11.3848 39.9268 10.79 39.8135 10.1953 39.8135C8.01465 39.8135 6.896 40.918 6.896 43.0986V51H1.09033ZM17.5728 51.1982C14.415 51.1982 12.2627 49.1592 12.2627 46.4688V46.4546C12.2627 43.4385 14.585 41.7817 18.748 41.4985L22.0332 41.2861V40.6489C22.0332 39.7427 21.4526 39.1763 20.2632 39.1763C19.0737 39.1763 18.4082 39.7002 18.2808 40.3374L18.2524 40.479H13.0698L13.084 40.2949C13.3247 37.1089 16.0293 35.0273 20.5889 35.0273C24.936 35.0273 27.8389 37.1938 27.8389 40.3657V51H22.0332V48.876H21.9199C21.042 50.3628 19.5835 51.1982 17.5728 51.1982ZM17.9268 46.0439C17.9268 46.8652 18.6206 47.3042 19.6968 47.3042C21.0845 47.3042 22.0332 46.5396 22.0332 45.5059V44.5146L19.7109 44.6846C18.479 44.7695 17.9268 45.251 17.9268 46.0298V46.0439ZM31.4355 51V39.5586H29.3682V35.3672H31.4355V34.7583C31.4355 31.6431 32.9507 30.2271 37.397 30.2271C38.374 30.2271 39.4785 30.3403 40.0732 30.4678V33.937C39.8042 33.8804 39.3936 33.8521 39.0112 33.8521C37.6235 33.8521 37.0713 34.3335 37.0713 35.0415V35.3672H40.0732V39.5586H37.2412V51H31.4355ZM45.8931 51.1982C42.7354 51.1982 40.583 49.1592 40.583 46.4688V46.4546C40.583 43.4385 42.9053 41.7817 47.0684 41.4985L50.3535 41.2861V40.6489C50.3535 39.7427 49.7729 39.1763 48.5835 39.1763C47.394 39.1763 46.7285 39.7002 46.6011 40.3374L46.5728 40.479H41.3901L41.4043 40.2949C41.645 37.1089 44.3496 35.0273 48.9092 35.0273C53.2563 35.0273 56.1592 37.1938 56.1592 40.3657V51H50.3535V48.876H50.2402C49.3623 50.3628 47.9038 51.1982 45.8931 51.1982ZM46.2471 46.0439C46.2471 46.8652 46.9409 47.3042 48.0171 47.3042C49.4048 47.3042 50.3535 46.5396 50.3535 45.5059V44.5146L48.0312 44.6846C46.7993 44.7695 46.2471 45.251 46.2471 46.0298V46.0439ZM66.1138 51.3398C61.0444 51.3398 57.9575 48.2671 57.9575 43.1836V43.1694C57.9575 38.0859 61.0444 35.0273 65.9297 35.0273C70.8008 35.0273 73.916 38.0859 73.916 42.8438V44.4863H63.6216C63.6782 46.2847 64.6411 47.3467 66.2271 47.3467C67.7563 47.3467 68.5068 46.4263 68.6626 45.9731L68.6768 45.9307H73.8452L73.8027 46.1147C73.3354 48.1538 71.5513 51.3398 66.1138 51.3398ZM66.0854 39.0205C64.8252 39.0205 63.9473 39.8135 63.6924 41.2012H68.4785C68.2236 39.8135 67.3457 39.0205 66.0854 39.0205ZM75.7568 51V30.5669H81.5625V51H75.7568ZM96.6147 54.5542C88.855 54.5542 83.6016 49.7964 83.6016 42.334V42.3198C83.6016 35.1548 88.6567 30.2837 95.9634 30.2837C103.043 30.2837 107.575 34.6309 107.575 41.2578V41.272C107.575 45.6475 105.536 48.4937 102.392 48.4937C100.679 48.4937 99.2627 47.7432 98.5547 46.4546L98.3423 46.0723H98.229C97.436 47.7432 96.0767 48.6211 94.3208 48.6211C91.4746 48.6211 89.4922 46.1572 89.4922 42.3623V42.3481C89.4922 38.8647 91.5737 36.3867 94.3066 36.3867C95.9351 36.3867 97.1953 37.208 97.79 38.5815H97.9033V36.7407H101.5V43.0845C101.5 44.543 101.953 45.3784 102.746 45.3784C103.737 45.3784 104.375 43.8491 104.375 41.4844V41.4702C104.375 36.2734 101.188 33.0024 95.9634 33.0024C90.4834 33.0024 86.8018 36.7266 86.8018 42.3481V42.3623C86.8018 48.3379 90.6958 51.7646 97.0112 51.7646C98.6396 51.7646 100.254 51.5098 101.797 51V53.7471C100.141 54.2993 98.4556 54.5542 96.6147 54.5542ZM95.5386 45.4209C96.6714 45.4209 97.4077 44.3306 97.4077 42.4897V42.4331C97.4077 40.6631 96.6572 39.5869 95.5386 39.5869C94.3916 39.5869 93.6553 40.6489 93.6553 42.4756V42.4897C93.6553 44.3447 94.3916 45.4209 95.5386 45.4209ZM115.632 51.3398C111.752 51.3398 109.529 48.3945 109.529 43.1836V43.1694C109.529 37.9302 111.724 35.0273 115.66 35.0273C117.897 35.0273 119.568 36.2026 120.305 38.1851H120.418V30.5669H126.224V51H120.418V48.3237H120.305C119.597 50.207 117.897 51.3398 115.632 51.3398ZM117.912 46.667C119.441 46.667 120.418 45.3784 120.418 43.1978V43.1836C120.418 40.9888 119.427 39.7002 117.912 39.7002C116.411 39.7002 115.419 40.9888 115.419 43.1694V43.1836C115.419 45.3359 116.396 46.667 117.912 46.667ZM136.178 51.3398C131.109 51.3398 128.022 48.2671 128.022 43.1836V43.1694C128.022 38.0859 131.109 35.0273 135.994 35.0273C140.865 35.0273 143.98 38.0859 143.98 42.8438V44.4863H133.686C133.743 46.2847 134.706 47.3467 136.292 47.3467C137.821 47.3467 138.571 46.4263 138.727 45.9731L138.741 45.9307H143.91L143.867 46.1147C143.4 48.1538 141.616 51.3398 136.178 51.3398ZM136.15 39.0205C134.89 39.0205 134.012 39.8135 133.757 41.2012H138.543C138.288 39.8135 137.41 39.0205 136.15 39.0205ZM149.036 51L143.952 35.3672H150.211L152.477 46.313H152.59L154.785 35.3672H160.859L155.847 51H149.036ZM161.808 51V35.3672H167.614V38.1709H167.727C168.124 36.1318 169.327 35.0273 171.196 35.0273C171.692 35.0273 172.159 35.0981 172.598 35.2539V40.1392C172.103 39.9268 171.508 39.8135 170.913 39.8135C168.732 39.8135 167.614 40.918 167.614 43.0986V51H161.808ZM176.889 33.9653C175.26 33.9653 174.014 32.7051 174.014 31.2041C174.014 29.7031 175.26 28.4429 176.889 28.4429C178.517 28.4429 179.763 29.7031 179.763 31.2041C179.763 32.7051 178.517 33.9653 176.889 33.9653ZM173.986 51V35.3672H179.792V51H173.986ZM192.635 51.3398C190.369 51.3398 188.67 50.207 187.962 48.3237H187.849V51H182.043V30.5669H187.849V38.1851H187.962C188.698 36.2026 190.369 35.0273 192.606 35.0273C196.543 35.0273 198.738 37.9302 198.738 43.1694V43.1836C198.738 48.3945 196.515 51.3398 192.635 51.3398ZM190.355 46.667C191.87 46.667 192.847 45.3359 192.847 43.1836V43.1694C192.847 40.9888 191.856 39.7002 190.355 39.7002C188.84 39.7002 187.849 40.9888 187.849 43.1836V43.1978C187.849 45.3784 188.826 46.667 190.355 46.667ZM208.282 51.3398C203.212 51.3398 200.125 48.2671 200.125 43.1836V43.1694C200.125 38.0859 203.212 35.0273 208.098 35.0273C212.969 35.0273 216.084 38.0859 216.084 42.8438V44.4863H205.79C205.846 46.2847 206.809 47.3467 208.395 47.3467C209.924 47.3467 210.675 46.4263 210.831 45.9731L210.845 45.9307H216.013L215.971 46.1147C215.503 48.1538 213.719 51.3398 208.282 51.3398ZM208.253 39.0205C206.993 39.0205 206.115 39.8135 205.86 41.2012H210.646C210.392 39.8135 209.514 39.0205 208.253 39.0205ZM220.757 33.9653C219.128 33.9653 217.882 32.7051 217.882 31.2041C217.882 29.7031 219.128 28.4429 220.757 28.4429C222.385 28.4429 223.631 29.7031 223.631 31.2041C223.631 32.7051 222.385 33.9653 220.757 33.9653ZM217.854 51V35.3672H223.66V51H217.854ZM225.84 51V35.3672H231.646V38.1709H231.759C232.156 36.1318 233.359 35.0273 235.229 35.0273C235.724 35.0273 236.191 35.0981 236.63 35.2539V40.1392C236.135 39.9268 235.54 39.8135 234.945 39.8135C232.765 39.8135 231.646 40.918 231.646 43.0986V51H225.84ZM245.551 51.3398C240.425 51.3398 237.338 48.3945 237.338 43.1978V43.1694C237.338 38.0718 240.539 35.0273 245.551 35.0273C250.578 35.0273 253.778 38.0293 253.778 43.1694V43.1978C253.778 48.4087 250.663 51.3398 245.551 51.3398ZM245.565 47.0352C247.01 47.0352 247.888 45.6616 247.888 43.1978V43.1694C247.888 40.748 246.967 39.332 245.551 39.332C244.121 39.332 243.229 40.748 243.229 43.1694V43.1978C243.229 45.6758 244.093 47.0352 245.565 47.0352ZM258.352 51.2832C256.695 51.2832 255.378 49.9663 255.378 48.3096C255.378 46.6528 256.695 45.3359 258.352 45.3359C260.009 45.3359 261.326 46.6528 261.326 48.3096C261.326 49.9663 260.009 51.2832 258.352 51.2832ZM270.643 51.3398C265.574 51.3398 262.487 48.2812 262.487 43.1694V43.1553C262.487 38.0859 265.588 35.0273 270.601 35.0273C275.16 35.0273 278.233 37.6753 278.233 41.7109V41.7959H272.951L272.937 41.6543C272.795 40.2383 271.96 39.332 270.714 39.332C269.213 39.332 268.377 40.7056 268.377 43.1694V43.1836C268.377 45.6899 269.17 47.0352 270.714 47.0352C272.017 47.0352 272.795 46.1431 272.937 44.7129L272.951 44.5713H278.233V44.6562C278.233 48.4795 275.429 51.3398 270.643 51.3398ZM287.777 51.3398C282.651 51.3398 279.564 48.3945 279.564 43.1978V43.1694C279.564 38.0718 282.764 35.0273 287.777 35.0273C292.804 35.0273 296.004 38.0293 296.004 43.1694V43.1978C296.004 48.4087 292.889 51.3398 287.777 51.3398ZM287.791 47.0352C289.235 47.0352 290.113 45.6616 290.113 43.1978V43.1694C290.113 40.748 289.193 39.332 287.777 39.332C286.347 39.332 285.455 40.748 285.455 43.1694V43.1978C285.455 45.6758 286.318 47.0352 287.791 47.0352ZM297.802 51V35.3672H303.608V38.3267H303.721C304.288 36.3159 305.987 35.0273 308.167 35.0273C310.419 35.0273 312.019 36.2734 312.401 38.4683H312.515C313.039 36.4009 314.936 35.0273 317.315 35.0273C320.359 35.0273 322.455 37.2222 322.455 40.4082V51H316.649V41.9233C316.649 40.4365 316.012 39.7002 314.752 39.7002C313.577 39.7002 312.883 40.5356 312.883 41.9092V51H307.375V41.9375C307.375 40.4507 306.737 39.7002 305.491 39.7002C304.316 39.7002 303.608 40.5498 303.608 41.9092V51H297.802Z" fill="url(#paint0_linear_1846_203)"/>
<path d="M1 100.31H323M1.52787 100.828L1.52787 60.4828M322.472 100.828V56.3448M1 16.6552H80.6578M110.797 16.6552L323 16.6552M83.3475 68.2414L254.377 68.2414M1.52787 24.4138L1.52787 16.1379M81 24.2759V16M37.423 17.1724V12M211.62 17.1724V12M162 73.931V68.7586M100.767 106V100.828M111.325 24.4138V16.1379M82.8197 68.7586V60.4828M253.849 68.7586V60.4828M322.472 24.4138V16.1379" stroke="#86868B" stroke-width="1.25" stroke-linejoin="round"/>
<defs>
<linearGradient id="paint0_linear_1846_203" x1="5.07115e-06" y1="68.5" x2="324" y2="5.00001" gradientUnits="userSpaceOnUse">
<stop stop-color="#9580FF"/>
<stop offset="1" stop-color="#FF80BF"/>
</linearGradient>
</defs>
</svg>
