<svg width="305" height="110" viewBox="0 0 305 110" fill="none" xmlns="http://www.w3.org/2000/svg">
<path d="M2.07568 94H295" stroke="#888888"/>
<path d="M77.5381 61.6421H232.511" stroke="#888888"/>
<path d="M1.92627 16.4912H73.1638" stroke="#888888"/>
<line x1="103.243" y1="16.8369" x2="294.851" y2="16.8369" stroke="#888888"/>
<line x1="2.42627" y1="16.1741" x2="2.42627" y2="24.4196" stroke="#888888"/>
<path d="M2.37354 53.2791L2.37353 92.4475" stroke="#888888"/>
<line x1="73.0498" y1="16.1741" x2="73.0498" y2="24.4196" stroke="#888888"/>
<line x1="33.7153" y1="11.0999" x2="33.7153" y2="16.1741" stroke="#888888"/>
<path d="M103.541 16.8162L103.541 25.8056" stroke="#888888"/>
<line x1="78.0381" y1="55.2209" x2="78.0381" y2="61.8808" stroke="#888888"/>
<line x1="232.386" y1="54.8572" x2="232.386" y2="61.5171" stroke="#888888"/>
<line x1="294.875" y1="54" x2="294.875" y2="94" stroke="#888888"/>
<line x1="91.5254" y1="94.2949" x2="91.5254" y2="99.3691" stroke="#888888"/>
<line x1="146.356" y1="61.8418" x2="146.356" y2="66.916" stroke="#888888"/>
<path d="M295 16.6948V25.6843" stroke="#888888"/>
<line x1="195.524" y1="12.0593" x2="195.524" y2="17.1335" stroke="#888888"/>
<path d="M31.6035 6.39233C31.2321 6.39233 30.9131 6.31372 30.6465 6.15649C30.3822 5.99927 30.1782 5.77596 30.0347 5.48657C29.8911 5.19718 29.8193 4.85425 29.8193 4.45776V4.45435C29.8193 4.06242 29.89 3.72062 30.0312 3.42896C30.1748 3.13729 30.3776 2.9117 30.6396 2.7522C30.9017 2.59041 31.2093 2.50952 31.5625 2.50952C31.918 2.50952 32.2233 2.58813 32.4785 2.74536C32.736 2.90031 32.9342 3.11792 33.0732 3.39819C33.2122 3.67847 33.2817 4.00659 33.2817 4.38257V4.66284H30.2466V4.09204H32.8647L32.4614 4.62524V4.28687C32.4614 4.03849 32.4238 3.83228 32.3486 3.66821C32.2734 3.50415 32.1686 3.3811 32.0342 3.29907C31.902 3.21704 31.7482 3.17603 31.5728 3.17603C31.3973 3.17603 31.2412 3.21932 31.1045 3.30591C30.9701 3.39022 30.863 3.51554 30.7832 3.68188C30.7057 3.84595 30.667 4.04761 30.667 4.28687V4.62866C30.667 4.85881 30.7057 5.05591 30.7832 5.21997C30.8607 5.38175 30.9701 5.50708 31.1113 5.59595C31.2549 5.68254 31.4246 5.72583 31.6206 5.72583C31.7733 5.72583 31.9043 5.70418 32.0137 5.66089C32.1253 5.61532 32.2153 5.56177 32.2837 5.50024C32.3521 5.43644 32.3999 5.37606 32.4272 5.31909L32.4375 5.29517H33.2441L33.2373 5.32593C33.2077 5.4467 33.153 5.56974 33.0732 5.69507C32.9958 5.81812 32.8898 5.93319 32.7554 6.04028C32.6232 6.1451 32.4614 6.23055 32.27 6.29663C32.0786 6.36043 31.8564 6.39233 31.6035 6.39233ZM35.3701 6.39233C35.0921 6.39233 34.8586 6.33879 34.6694 6.23169C34.4803 6.12231 34.3379 5.96395 34.2422 5.75659C34.1465 5.54696 34.0986 5.29403 34.0986 4.9978V2.5813H34.9497V4.80298C34.9497 5.09237 35.0067 5.30998 35.1206 5.45581C35.2345 5.60164 35.4202 5.67456 35.6777 5.67456C35.8145 5.67456 35.9352 5.65405 36.04 5.61304C36.1471 5.56974 36.236 5.50822 36.3066 5.42847C36.3773 5.34871 36.4308 5.25301 36.4673 5.14136C36.5037 5.02743 36.522 4.89982 36.522 4.75854V2.5813H37.373V6.31714H36.522V5.74976H36.4639C36.4069 5.88192 36.3271 5.99699 36.2246 6.09497C36.1221 6.19067 35.999 6.26473 35.8555 6.31714C35.7119 6.36727 35.5501 6.39233 35.3701 6.39233Z" fill="#2A2A2A"/>
<path d="M183.802 6L182.787 2.26416H183.642L184.26 5.07373H184.322L185.04 2.26416H185.85L186.571 5.07373H186.632L187.251 2.26416H188.095L187.08 6H186.191L185.463 3.29297H185.405L184.681 6H183.802ZM190.279 6.0752C189.908 6.0752 189.589 5.99658 189.322 5.83936C189.058 5.68213 188.854 5.45882 188.71 5.16943C188.567 4.88005 188.495 4.53711 188.495 4.14062V4.13721C188.495 3.74528 188.566 3.40348 188.707 3.11182C188.851 2.82015 189.053 2.59456 189.315 2.43506C189.577 2.27327 189.885 2.19238 190.238 2.19238C190.594 2.19238 190.899 2.271 191.154 2.42822C191.412 2.58317 191.61 2.80078 191.749 3.08105C191.888 3.36133 191.958 3.68945 191.958 4.06543V4.3457H188.922V3.7749H191.541L191.137 4.30811V3.96973C191.137 3.72135 191.1 3.51514 191.024 3.35107C190.949 3.18701 190.844 3.06396 190.71 2.98193C190.578 2.8999 190.424 2.85889 190.249 2.85889C190.073 2.85889 189.917 2.90218 189.78 2.98877C189.646 3.07308 189.539 3.1984 189.459 3.36475C189.382 3.52881 189.343 3.73047 189.343 3.96973V4.31152C189.343 4.54167 189.382 4.73877 189.459 4.90283C189.536 5.06462 189.646 5.18994 189.787 5.27881C189.931 5.3654 190.1 5.40869 190.296 5.40869C190.449 5.40869 190.58 5.38704 190.689 5.34375C190.801 5.29818 190.891 5.24463 190.959 5.18311C191.028 5.1193 191.076 5.05892 191.103 5.00195L191.113 4.97803H191.92L191.913 5.00879C191.883 5.12956 191.829 5.2526 191.749 5.37793C191.672 5.50098 191.566 5.61605 191.431 5.72314C191.299 5.82796 191.137 5.91341 190.946 5.97949C190.754 6.04329 190.532 6.0752 190.279 6.0752ZM194.887 6.06152C194.711 6.06152 194.551 6.03646 194.405 5.98633C194.259 5.93392 194.13 5.85986 194.019 5.76416C193.909 5.66618 193.82 5.54997 193.752 5.41553H193.694V6H192.843V0.818359H193.694V2.85889H193.752C193.818 2.72445 193.907 2.60824 194.019 2.51025C194.13 2.41227 194.26 2.33708 194.408 2.28467C194.556 2.22998 194.716 2.20264 194.887 2.20264C195.201 2.20264 195.472 2.28125 195.7 2.43848C195.93 2.59342 196.108 2.81559 196.233 3.10498C196.359 3.39209 196.421 3.73389 196.421 4.13037V4.13721C196.421 4.52913 196.358 4.86979 196.23 5.15918C196.105 5.44857 195.927 5.67188 195.697 5.8291C195.469 5.98405 195.199 6.06152 194.887 6.06152ZM194.62 5.34375C194.814 5.34375 194.98 5.2959 195.119 5.2002C195.258 5.10221 195.365 4.96322 195.44 4.7832C195.516 4.60319 195.553 4.38786 195.553 4.13721V4.13037C195.553 3.87972 195.516 3.66439 195.44 3.48438C195.365 3.30208 195.258 3.16309 195.119 3.06738C194.98 2.9694 194.814 2.92041 194.62 2.92041C194.429 2.92041 194.262 2.9694 194.121 3.06738C193.98 3.16536 193.87 3.30436 193.793 3.48438C193.718 3.66439 193.68 3.87972 193.68 4.13037V4.13721C193.68 4.38558 193.718 4.60091 193.793 4.7832C193.87 4.96322 193.979 5.10221 194.118 5.2002C194.259 5.2959 194.426 5.34375 194.62 5.34375ZM198.684 6.0752C198.367 6.0752 198.094 6.03076 197.864 5.94189C197.636 5.85075 197.456 5.72542 197.324 5.56592C197.192 5.40413 197.113 5.21729 197.088 5.00537V4.99854H197.932L197.936 5.00537C197.981 5.13525 198.067 5.24121 198.192 5.32324C198.317 5.40527 198.486 5.44629 198.698 5.44629C198.839 5.44629 198.963 5.42692 199.07 5.38818C199.177 5.34717 199.262 5.29134 199.323 5.2207C199.385 5.15007 199.416 5.06803 199.416 4.97461V4.96777C199.416 4.8584 199.371 4.76725 199.282 4.69434C199.193 4.61914 199.046 4.55876 198.841 4.51318L198.236 4.37646C197.999 4.32406 197.803 4.25114 197.648 4.15771C197.493 4.06429 197.377 3.94922 197.3 3.8125C197.225 3.67578 197.187 3.51628 197.187 3.33398V3.33057C197.187 3.10498 197.25 2.90674 197.375 2.73584C197.503 2.56494 197.679 2.43164 197.905 2.33594C198.13 2.24023 198.39 2.19238 198.684 2.19238C198.987 2.19238 199.248 2.23796 199.467 2.3291C199.686 2.42025 199.856 2.54557 199.979 2.70508C200.103 2.86458 200.173 3.04574 200.191 3.24854V3.25537H199.392L199.388 3.24512C199.356 3.12663 199.28 3.02637 199.159 2.94434C199.041 2.86003 198.881 2.81787 198.681 2.81787C198.555 2.81787 198.443 2.83724 198.342 2.87598C198.244 2.91471 198.167 2.9694 198.11 3.04004C198.055 3.1084 198.028 3.18929 198.028 3.28271V3.28613C198.028 3.35905 198.046 3.42285 198.083 3.47754C198.121 3.53223 198.182 3.58008 198.264 3.62109C198.346 3.66211 198.454 3.69857 198.588 3.73047L199.193 3.86377C199.56 3.9458 199.831 4.06771 200.007 4.22949C200.182 4.39128 200.27 4.60889 200.27 4.88232V4.88916C200.27 5.12614 200.202 5.3335 200.065 5.51123C199.928 5.68896 199.74 5.82796 199.501 5.92822C199.262 6.0262 198.989 6.0752 198.684 6.0752ZM201.138 6V2.26416H201.986V6H201.138ZM201.565 1.63867C201.426 1.63867 201.307 1.58968 201.207 1.4917C201.106 1.39372 201.056 1.27637 201.056 1.13965C201.056 0.998372 201.106 0.879883 201.207 0.78418C201.307 0.686198 201.426 0.637207 201.565 0.637207C201.704 0.637207 201.823 0.686198 201.921 0.78418C202.021 0.879883 202.071 0.998372 202.071 1.13965C202.071 1.27637 202.021 1.39372 201.921 1.4917C201.823 1.58968 201.704 1.63867 201.565 1.63867ZM204.505 6.01709C204.076 6.01709 203.768 5.93848 203.579 5.78125C203.389 5.62402 203.295 5.36654 203.295 5.00879V2.92383H202.714V2.26416H203.295V1.34814H204.16V2.26416H204.946V2.92383H204.16V4.80713C204.16 4.9917 204.198 5.12728 204.276 5.21387C204.356 5.29818 204.483 5.34033 204.659 5.34033C204.72 5.34033 204.77 5.33919 204.809 5.33691C204.85 5.33236 204.896 5.3278 204.946 5.32324V5.97949C204.887 5.99089 204.818 6 204.741 6.00684C204.666 6.01367 204.587 6.01709 204.505 6.01709ZM207.362 6.0752C206.991 6.0752 206.672 5.99658 206.405 5.83936C206.141 5.68213 205.937 5.45882 205.793 5.16943C205.65 4.88005 205.578 4.53711 205.578 4.14062V4.13721C205.578 3.74528 205.649 3.40348 205.79 3.11182C205.934 2.82015 206.136 2.59456 206.398 2.43506C206.66 2.27327 206.968 2.19238 207.321 2.19238C207.677 2.19238 207.982 2.271 208.237 2.42822C208.495 2.58317 208.693 2.80078 208.832 3.08105C208.971 3.36133 209.041 3.68945 209.041 4.06543V4.3457H206.005V3.7749H208.624L208.22 4.30811V3.96973C208.22 3.72135 208.183 3.51514 208.107 3.35107C208.032 3.18701 207.927 3.06396 207.793 2.98193C207.661 2.8999 207.507 2.85889 207.332 2.85889C207.156 2.85889 207 2.90218 206.863 2.98877C206.729 3.07308 206.622 3.1984 206.542 3.36475C206.465 3.52881 206.426 3.73047 206.426 3.96973V4.31152C206.426 4.54167 206.465 4.73877 206.542 4.90283C206.619 5.06462 206.729 5.18994 206.87 5.27881C207.014 5.3654 207.183 5.40869 207.379 5.40869C207.532 5.40869 207.663 5.38704 207.772 5.34375C207.884 5.29818 207.974 5.24463 208.042 5.18311C208.111 5.1193 208.159 5.05892 208.186 5.00195L208.196 4.97803H209.003L208.996 5.00879C208.966 5.12956 208.912 5.2526 208.832 5.37793C208.755 5.50098 208.649 5.61605 208.514 5.72314C208.382 5.82796 208.22 5.91341 208.029 5.97949C207.837 6.04329 207.615 6.0752 207.362 6.0752Z" fill="#2A2A2A"/>
<path d="M82.9507 104.802C82.5793 104.802 82.2603 104.723 81.9937 104.566C81.7293 104.409 81.5254 104.186 81.3818 103.896C81.2383 103.607 81.1665 103.264 81.1665 102.867V102.864C81.1665 102.472 81.2371 102.13 81.3784 101.839C81.522 101.547 81.7248 101.321 81.9868 101.162C82.2489 101 82.5565 100.919 82.9097 100.919C83.2651 100.919 83.5705 100.998 83.8257 101.155C84.0832 101.31 84.2814 101.528 84.4204 101.808C84.5594 102.088 84.6289 102.416 84.6289 102.792V103.073H81.5938V102.502H84.2119L83.8086 103.035V102.697C83.8086 102.448 83.771 102.242 83.6958 102.078C83.6206 101.914 83.5158 101.791 83.3813 101.709C83.2492 101.627 83.0954 101.586 82.9199 101.586C82.7445 101.586 82.5884 101.629 82.4517 101.716C82.3172 101.8 82.2101 101.925 82.1304 102.092C82.0529 102.256 82.0142 102.457 82.0142 102.697V103.038C82.0142 103.268 82.0529 103.466 82.1304 103.63C82.2078 103.791 82.3172 103.917 82.4585 104.006C82.6021 104.092 82.7718 104.135 82.9678 104.135C83.1204 104.135 83.2515 104.114 83.3608 104.071C83.4725 104.025 83.5625 103.971 83.6309 103.91C83.6992 103.846 83.7471 103.786 83.7744 103.729L83.7847 103.705H84.5913L84.5845 103.736C84.5549 103.856 84.5002 103.979 84.4204 104.105C84.3429 104.228 84.237 104.343 84.1025 104.45C83.9704 104.555 83.8086 104.64 83.6172 104.706C83.4258 104.77 83.2036 104.802 82.9507 104.802ZM85.4971 103.124V102.351H87.7803V103.124H85.4971ZM88.8364 104.727V100.991H89.6875V101.572H89.7456C89.8254 101.365 89.9541 101.204 90.1318 101.09C90.3118 100.976 90.5249 100.919 90.771 100.919C90.9396 100.919 91.0911 100.947 91.2256 101.001C91.3623 101.056 91.4797 101.133 91.5776 101.234C91.6756 101.334 91.7508 101.454 91.8032 101.593H91.8647C91.9263 101.458 92.0117 101.341 92.1211 101.24C92.2327 101.138 92.3626 101.059 92.5107 101.005C92.6611 100.948 92.8229 100.919 92.9961 100.919C93.2467 100.919 93.4609 100.969 93.6387 101.07C93.8187 101.168 93.9565 101.309 94.0522 101.493C94.1502 101.678 94.1992 101.899 94.1992 102.156V104.727H93.3481V102.365C93.3481 102.201 93.3231 102.065 93.2729 101.958C93.2251 101.851 93.151 101.77 93.0508 101.716C92.9505 101.661 92.8241 101.634 92.6714 101.634C92.5233 101.634 92.3945 101.668 92.2852 101.736C92.1758 101.802 92.0903 101.892 92.0288 102.006C91.9696 102.12 91.9399 102.249 91.9399 102.392V104.727H91.0889V102.303C91.0889 102.164 91.0615 102.045 91.0068 101.945C90.9544 101.844 90.877 101.768 90.7744 101.716C90.6742 101.661 90.5545 101.634 90.4155 101.634C90.2765 101.634 90.1512 101.67 90.0396 101.743C89.9302 101.814 89.8436 101.912 89.7798 102.037C89.7183 102.16 89.6875 102.299 89.6875 102.454V104.727H88.8364ZM96.2192 104.788C95.9845 104.788 95.7738 104.743 95.5869 104.652C95.4023 104.56 95.2565 104.432 95.1494 104.265C95.0446 104.097 94.9922 103.899 94.9922 103.671V103.664C94.9922 103.443 95.0469 103.253 95.1562 103.093C95.2656 102.931 95.4263 102.805 95.6382 102.714C95.8501 102.622 96.1076 102.569 96.4106 102.553L97.7915 102.468V103.028L96.5303 103.11C96.291 103.124 96.1144 103.174 96.0005 103.26C95.8866 103.347 95.8296 103.468 95.8296 103.623V103.63C95.8296 103.789 95.89 103.913 96.0107 104.002C96.1338 104.091 96.2899 104.135 96.479 104.135C96.6499 104.135 96.8026 104.101 96.937 104.033C97.0715 103.965 97.1774 103.872 97.2549 103.756C97.3324 103.638 97.3711 103.504 97.3711 103.356V102.174C97.3711 101.987 97.3118 101.844 97.1934 101.746C97.0749 101.646 96.8994 101.596 96.667 101.596C96.4733 101.596 96.3149 101.63 96.1919 101.698C96.0688 101.765 95.9857 101.859 95.9424 101.982L95.939 101.996H95.1357L95.1392 101.965C95.1665 101.755 95.2485 101.572 95.3853 101.415C95.522 101.258 95.7031 101.136 95.9287 101.049C96.1543 100.962 96.4141 100.919 96.708 100.919C97.0316 100.919 97.305 100.969 97.5283 101.07C97.7516 101.168 97.9214 101.311 98.0376 101.5C98.1538 101.687 98.2119 101.912 98.2119 102.174V104.727H97.3711V104.214H97.313C97.2446 104.333 97.1558 104.435 97.0464 104.522C96.9393 104.608 96.8162 104.674 96.6772 104.72C96.5382 104.766 96.3856 104.788 96.2192 104.788ZM99.2441 104.727V100.991H100.092V104.727H99.2441ZM99.6714 100.365C99.5324 100.365 99.4128 100.316 99.3125 100.219C99.2122 100.121 99.1621 100.003 99.1621 99.8665C99.1621 99.7252 99.2122 99.6067 99.3125 99.511C99.4128 99.413 99.5324 99.364 99.6714 99.364C99.8104 99.364 99.9289 99.413 100.027 99.511C100.127 99.6067 100.177 99.7252 100.177 99.8665C100.177 100.003 100.127 100.121 100.027 100.219C99.9289 100.316 99.8104 100.365 99.6714 100.365ZM101.175 104.727V99.5452H102.026V104.727H101.175Z" fill="#2A2A2A"/>
<path d="M131.088 73.916V70.1802H131.936V73.916H131.088ZM131.515 69.5547C131.376 69.5547 131.257 69.5057 131.156 69.4077C131.056 69.3097 131.006 69.1924 131.006 69.0557C131.006 68.9144 131.056 68.7959 131.156 68.7002C131.257 68.6022 131.376 68.5532 131.515 68.5532C131.654 68.5532 131.773 68.6022 131.871 68.7002C131.971 68.7959 132.021 68.9144 132.021 69.0557C132.021 69.1924 131.971 69.3097 131.871 69.4077C131.773 69.5057 131.654 69.5547 131.515 69.5547ZM132.985 73.916V70.1802H133.836V70.7544H133.894C133.983 70.5516 134.117 70.3932 134.297 70.2793C134.477 70.1654 134.702 70.1084 134.971 70.1084C135.388 70.1084 135.707 70.2292 135.928 70.4707C136.149 70.7122 136.259 71.0552 136.259 71.4995V73.916H135.408V71.6978C135.408 71.4061 135.347 71.1873 135.224 71.0415C135.103 70.8957 134.914 70.8228 134.656 70.8228C134.488 70.8228 134.342 70.8604 134.219 70.9355C134.096 71.0107 134.001 71.1167 133.935 71.2534C133.869 71.3901 133.836 71.5519 133.836 71.7388V73.916H132.985ZM138.676 73.9912C138.359 73.9912 138.086 73.9468 137.855 73.8579C137.628 73.7668 137.448 73.6414 137.315 73.4819C137.183 73.3201 137.105 73.1333 137.08 72.9214V72.9146H137.924L137.927 72.9214C137.973 73.0513 138.058 73.1572 138.184 73.2393C138.309 73.3213 138.478 73.3623 138.689 73.3623C138.831 73.3623 138.955 73.3429 139.062 73.3042C139.169 73.2632 139.253 73.2074 139.315 73.1367C139.376 73.0661 139.407 72.984 139.407 72.8906V72.8838C139.407 72.7744 139.363 72.6833 139.274 72.6104C139.185 72.5352 139.038 72.4748 138.833 72.4292L138.228 72.2925C137.991 72.2401 137.795 72.1672 137.64 72.0737C137.485 71.9803 137.369 71.8652 137.292 71.7285C137.216 71.5918 137.179 71.4323 137.179 71.25V71.2466C137.179 71.021 137.241 70.8228 137.367 70.6519C137.494 70.481 137.671 70.3477 137.896 70.252C138.122 70.1562 138.382 70.1084 138.676 70.1084C138.979 70.1084 139.24 70.154 139.458 70.2451C139.677 70.3363 139.848 70.4616 139.971 70.6211C140.094 70.7806 140.165 70.9618 140.183 71.1646V71.1714H139.383L139.38 71.1611C139.348 71.0426 139.272 70.9424 139.151 70.8604C139.032 70.776 138.873 70.7339 138.672 70.7339C138.547 70.7339 138.434 70.7533 138.334 70.792C138.236 70.8307 138.159 70.8854 138.102 70.9561C138.047 71.0244 138.02 71.1053 138.02 71.1987V71.2021C138.02 71.2751 138.038 71.3389 138.074 71.3936C138.113 71.4482 138.173 71.4961 138.255 71.5371C138.337 71.5781 138.446 71.6146 138.58 71.6465L139.185 71.7798C139.552 71.8618 139.823 71.9837 139.999 72.1455C140.174 72.3073 140.262 72.5249 140.262 72.7983V72.8052C140.262 73.0422 140.193 73.2495 140.057 73.4272C139.92 73.605 139.732 73.744 139.493 73.8442C139.253 73.9422 138.981 73.9912 138.676 73.9912ZM142.569 73.9331C142.14 73.9331 141.832 73.8545 141.643 73.6973C141.453 73.54 141.359 73.2826 141.359 72.9248V70.8398H140.778V70.1802H141.359V69.2642H142.224V70.1802H143.01V70.8398H142.224V72.7231C142.224 72.9077 142.262 73.0433 142.34 73.1299C142.42 73.2142 142.547 73.2563 142.723 73.2563C142.784 73.2563 142.834 73.2552 142.873 73.2529C142.914 73.2484 142.96 73.2438 143.01 73.2393V73.8955C142.951 73.9069 142.882 73.916 142.805 73.9229C142.729 73.9297 142.651 73.9331 142.569 73.9331ZM144.879 73.9775C144.645 73.9775 144.434 73.932 144.247 73.8408C144.062 73.7497 143.917 73.6209 143.81 73.4546C143.705 73.286 143.652 73.0877 143.652 72.8599V72.853C143.652 72.632 143.707 72.4417 143.816 72.2822C143.926 72.1204 144.086 71.994 144.298 71.9028C144.51 71.8117 144.768 71.7581 145.071 71.7422L146.452 71.6567V72.2173L145.19 72.2993C144.951 72.313 144.775 72.3631 144.661 72.4497C144.547 72.5363 144.49 72.6571 144.49 72.812V72.8188C144.49 72.9784 144.55 73.1025 144.671 73.1914C144.794 73.2803 144.95 73.3247 145.139 73.3247C145.31 73.3247 145.463 73.2905 145.597 73.2222C145.732 73.1538 145.838 73.0615 145.915 72.9453C145.993 72.8268 146.031 72.6935 146.031 72.5454V71.3628C146.031 71.1759 145.972 71.0335 145.854 70.9355C145.735 70.8353 145.56 70.7852 145.327 70.7852C145.133 70.7852 144.975 70.8193 144.852 70.8877C144.729 70.9538 144.646 71.0483 144.603 71.1714L144.599 71.1851H143.796L143.799 71.1543C143.827 70.9447 143.909 70.7612 144.045 70.604C144.182 70.4468 144.363 70.3249 144.589 70.2383C144.814 70.1517 145.074 70.1084 145.368 70.1084C145.692 70.1084 145.965 70.1585 146.188 70.2588C146.412 70.3568 146.582 70.5003 146.698 70.6895C146.814 70.8763 146.872 71.1007 146.872 71.3628V73.916H146.031V73.4033H145.973C145.905 73.5218 145.816 73.6243 145.707 73.7109C145.599 73.7975 145.476 73.8636 145.337 73.9092C145.198 73.9548 145.046 73.9775 144.879 73.9775ZM149.5 75.2285C149.172 75.2285 148.889 75.1852 148.649 75.0986C148.412 75.012 148.226 74.889 148.089 74.7295C147.952 74.5723 147.869 74.3888 147.839 74.1792L147.843 74.1689H148.69L148.697 74.1792C148.725 74.2977 148.808 74.3945 148.947 74.4697C149.088 74.5472 149.277 74.5859 149.514 74.5859C149.806 74.5859 150.031 74.521 150.191 74.3911C150.353 74.2612 150.434 74.0767 150.434 73.8374V73.1196H150.375C150.305 73.2541 150.213 73.368 150.099 73.4614C149.987 73.5549 149.858 73.6255 149.712 73.6733C149.569 73.7189 149.41 73.7417 149.237 73.7417C148.923 73.7417 148.651 73.6665 148.42 73.5161C148.19 73.3634 148.013 73.1527 147.887 72.8838C147.764 72.6149 147.703 72.3039 147.703 71.9507V71.9438C147.703 71.5838 147.765 71.2671 147.891 70.9937C148.016 70.7202 148.194 70.506 148.424 70.3511C148.656 70.1961 148.933 70.1187 149.254 70.1187C149.428 70.1187 149.586 70.146 149.729 70.2007C149.875 70.2554 150.003 70.3328 150.112 70.4331C150.224 70.5334 150.315 70.6541 150.386 70.7954H150.43V70.1802H151.281V73.8237C151.281 74.1108 151.208 74.3592 151.062 74.5688C150.919 74.7808 150.714 74.9437 150.447 75.0576C150.181 75.1715 149.865 75.2285 149.5 75.2285ZM149.5 73.0649C149.696 73.0649 149.865 73.0182 150.006 72.9248C150.148 72.8291 150.256 72.6981 150.331 72.5317C150.409 72.3654 150.447 72.1717 150.447 71.9507V71.9438C150.447 71.7228 150.409 71.5291 150.331 71.3628C150.256 71.1942 150.148 71.0632 150.006 70.9697C149.865 70.874 149.696 70.8262 149.5 70.8262C149.302 70.8262 149.134 70.874 148.995 70.9697C148.858 71.0632 148.753 71.1942 148.68 71.3628C148.61 71.5291 148.574 71.7228 148.574 71.9438V71.9507C148.574 72.1694 148.61 72.3631 148.68 72.5317C148.753 72.6981 148.858 72.8291 148.995 72.9248C149.134 73.0182 149.302 73.0649 149.5 73.0649ZM152.324 73.916V70.1802H153.175V70.7544H153.233C153.297 70.5539 153.411 70.3978 153.575 70.2861C153.741 70.1745 153.947 70.1187 154.193 70.1187C154.257 70.1187 154.32 70.1232 154.381 70.1323C154.445 70.1392 154.498 70.1483 154.539 70.1597V70.9219C154.47 70.9059 154.401 70.8945 154.33 70.8877C154.262 70.8786 154.19 70.874 154.115 70.874C153.926 70.874 153.76 70.9093 153.619 70.98C153.478 71.0506 153.368 71.152 153.291 71.2842C153.214 71.4141 153.175 71.5679 153.175 71.7456V73.916H152.324ZM156.207 73.9775C155.972 73.9775 155.761 73.932 155.574 73.8408C155.39 73.7497 155.244 73.6209 155.137 73.4546C155.032 73.286 154.979 73.0877 154.979 72.8599V72.853C154.979 72.632 155.034 72.4417 155.144 72.2822C155.253 72.1204 155.414 71.994 155.625 71.9028C155.837 71.8117 156.095 71.7581 156.398 71.7422L157.779 71.6567V72.2173L156.518 72.2993C156.278 72.313 156.102 72.3631 155.988 72.4497C155.874 72.5363 155.817 72.6571 155.817 72.812V72.8188C155.817 72.9784 155.877 73.1025 155.998 73.1914C156.121 73.2803 156.277 73.3247 156.466 73.3247C156.637 73.3247 156.79 73.2905 156.924 73.2222C157.059 73.1538 157.165 73.0615 157.242 72.9453C157.32 72.8268 157.358 72.6935 157.358 72.5454V71.3628C157.358 71.1759 157.299 71.0335 157.181 70.9355C157.062 70.8353 156.887 70.7852 156.654 70.7852C156.461 70.7852 156.302 70.8193 156.179 70.8877C156.056 70.9538 155.973 71.0483 155.93 71.1714L155.926 71.1851H155.123L155.126 71.1543C155.154 70.9447 155.236 70.7612 155.373 70.604C155.509 70.4468 155.69 70.3249 155.916 70.2383C156.142 70.1517 156.401 70.1084 156.695 70.1084C157.019 70.1084 157.292 70.1585 157.516 70.2588C157.739 70.3568 157.909 70.5003 158.025 70.6895C158.141 70.8763 158.199 71.1007 158.199 71.3628V73.916H157.358V73.4033H157.3C157.232 73.5218 157.143 73.6243 157.034 73.7109C156.927 73.7975 156.804 73.8636 156.665 73.9092C156.526 73.9548 156.373 73.9775 156.207 73.9775ZM159.221 73.916V70.1802H160.072V70.7612H160.13C160.21 70.5539 160.339 70.3932 160.517 70.2793C160.697 70.1654 160.91 70.1084 161.156 70.1084C161.324 70.1084 161.476 70.1357 161.61 70.1904C161.747 70.2451 161.864 70.3226 161.962 70.4229C162.06 70.5231 162.136 70.6427 162.188 70.7817H162.25C162.311 70.6473 162.396 70.5299 162.506 70.4297C162.618 70.3271 162.747 70.2485 162.896 70.1938C163.046 70.1369 163.208 70.1084 163.381 70.1084C163.632 70.1084 163.846 70.1585 164.023 70.2588C164.203 70.3568 164.341 70.498 164.437 70.6826C164.535 70.8672 164.584 71.0882 164.584 71.3457V73.916H163.733V71.5542C163.733 71.3901 163.708 71.2546 163.658 71.1475C163.61 71.0404 163.536 70.9595 163.436 70.9048C163.335 70.8501 163.209 70.8228 163.056 70.8228C162.908 70.8228 162.779 70.8569 162.67 70.9253C162.561 70.9914 162.475 71.0814 162.414 71.1953C162.354 71.3092 162.325 71.438 162.325 71.5815V73.916H161.474V71.4927C161.474 71.3537 161.446 71.234 161.392 71.1338C161.339 71.0335 161.262 70.9572 161.159 70.9048C161.059 70.8501 160.939 70.8228 160.8 70.8228C160.661 70.8228 160.536 70.8592 160.424 70.9321C160.315 71.0028 160.228 71.1007 160.165 71.2261C160.103 71.3491 160.072 71.4881 160.072 71.6431V73.916H159.221Z" fill="#2A2A2A"/>
<path d="M1.49414 49.5474V34.02H5.1416V36.7007H5.21484C5.69824 34.8257 6.9873 33.6978 8.77441 33.6978C9.22852 33.6978 9.65332 33.771 9.93164 33.8442V37.1401C9.62402 37.0229 9.06738 36.9351 8.45215 36.9351C6.38672 36.9351 5.1416 38.2388 5.1416 40.5386V49.5474H1.49414ZM16.04 49.811C12.9346 49.811 10.8398 47.8921 10.8398 45.1235V45.0942C10.8398 42.3403 12.9785 40.6851 16.7432 40.4507L20.8008 40.2017V39.1323C20.8008 37.5649 19.7754 36.6128 17.9297 36.6128C16.2012 36.6128 15.1465 37.4185 14.9121 38.561L14.8828 38.6929H11.499L11.5137 38.5171C11.7334 35.7632 14.1211 33.6978 18.0615 33.6978C21.9434 33.6978 24.4482 35.7485 24.4482 38.8687V49.5474H20.8008V47.1597H20.7129C19.8193 48.7856 18.0908 49.811 16.04 49.811ZM14.4727 44.9771C14.4727 46.2515 15.5273 47.0278 17.124 47.0278C19.2188 47.0278 20.8008 45.6362 20.8008 43.7905V42.6187L17.2559 42.8384C15.4541 42.9556 14.4727 43.7319 14.4727 44.9624V44.9771ZM28.4033 49.5474V36.8325H26.2793V34.02H28.4033V32.5405C28.4033 29.5083 29.8389 28.1021 33.208 28.1021C33.9258 28.1021 34.7021 28.1606 35.1562 28.2485V30.7974C34.8633 30.7534 34.4531 30.7241 34.0576 30.7241C32.6367 30.7241 31.9775 31.3833 31.9775 32.6431V34.02H35.0977V36.8325H32.0508V49.5474H28.4033ZM41.2354 49.811C38.1299 49.811 36.0352 47.8921 36.0352 45.1235V45.0942C36.0352 42.3403 38.1738 40.6851 41.9385 40.4507L45.9961 40.2017V39.1323C45.9961 37.5649 44.9707 36.6128 43.125 36.6128C41.3965 36.6128 40.3418 37.4185 40.1074 38.561L40.0781 38.6929H36.6943L36.709 38.5171C36.9287 35.7632 39.3164 33.6978 43.2568 33.6978C47.1387 33.6978 49.6436 35.7485 49.6436 38.8687V49.5474H45.9961V47.1597H45.9082C45.0146 48.7856 43.2861 49.811 41.2354 49.811ZM39.668 44.9771C39.668 46.2515 40.7227 47.0278 42.3193 47.0278C44.4141 47.0278 45.9961 45.6362 45.9961 43.7905V42.6187L42.4512 42.8384C40.6494 42.9556 39.668 43.7319 39.668 44.9624V44.9771ZM59.4141 49.855C54.7559 49.855 51.9434 46.7642 51.9434 41.8276V41.813C51.9434 36.9204 54.7998 33.6978 59.2383 33.6978C63.6768 33.6978 66.4307 36.8179 66.4307 41.5054V42.6772H55.5615C55.6201 45.4019 57.1143 47.0132 59.4873 47.0132C61.3037 47.0132 62.4902 46.0464 62.8418 45.0063L62.8711 44.9038H66.2842L66.2402 45.0649C65.7568 47.4526 63.4717 49.855 59.4141 49.855ZM59.2822 36.5542C57.3486 36.5542 55.8984 37.8579 55.6055 40.2456H62.8857C62.6221 37.7847 61.2158 36.5542 59.2822 36.5542ZM68.8916 49.5474V28.4097H72.5391V49.5474H68.8916ZM88.125 53.063C80.6982 53.063 75.4248 48.5366 75.4248 40.729V40.7144C75.4248 33.4048 80.4932 28.4097 87.7441 28.4097C94.7168 28.4097 99.5801 32.7749 99.5801 39.645V39.6597C99.5801 44.4058 97.4707 47.0718 94.5703 47.0718C92.7539 47.0718 91.4648 46.0317 90.8936 44.6108L90.791 44.3911H90.6738C89.9414 46.1489 88.4619 47.0278 86.6016 47.0278C83.5986 47.0278 81.5479 44.5229 81.5479 40.7437V40.729C81.5479 37.1401 83.6572 34.6353 86.6016 34.6353C88.2129 34.6353 89.5898 35.4556 90.1611 36.7593H90.2783V34.9429H92.9736V41.8862C92.9736 43.7466 93.6621 44.6841 94.7168 44.6841C96.0938 44.6841 97.0166 42.9556 97.0166 39.7476V39.7329C97.0166 34.1519 93.2812 30.6655 87.6123 30.6655C81.9727 30.6655 77.9883 34.7671 77.9883 40.729V40.7437C77.9883 47.189 82.2363 50.7778 88.2715 50.7778C90.1465 50.7778 92.0508 50.4995 93.208 50.0454V52.3159C91.7725 52.7993 90.0146 53.063 88.125 53.063ZM87.2314 44.5669C88.9746 44.5669 90.1025 43.1167 90.1025 40.8022V40.7729C90.1025 38.4878 88.9746 37.0669 87.2607 37.0669C85.5469 37.0669 84.5068 38.4438 84.5068 40.7729V40.7876C84.5068 43.146 85.5469 44.5669 87.2314 44.5669ZM107.9 49.855C103.975 49.855 101.484 46.7788 101.484 41.7837V41.769C101.484 36.7593 103.989 33.6978 107.886 33.6978C110.083 33.6978 111.855 34.8257 112.734 36.686H112.822V28.4097H116.47V49.5474H112.822V46.9106H112.734C111.855 48.7417 110.142 49.855 107.9 49.855ZM108.999 46.7788C111.255 46.7788 112.822 44.8306 112.822 41.7837V41.769C112.822 38.7368 111.24 36.7739 108.999 36.7739C106.67 36.7739 105.205 38.6782 105.205 41.769V41.7837C105.205 44.8745 106.655 46.7788 108.999 46.7788ZM126.357 49.855C121.699 49.855 118.887 46.7642 118.887 41.8276V41.813C118.887 36.9204 121.743 33.6978 126.182 33.6978C130.62 33.6978 133.374 36.8179 133.374 41.5054V42.6772H122.505C122.563 45.4019 124.058 47.0132 126.431 47.0132C128.247 47.0132 129.434 46.0464 129.785 45.0063L129.814 44.9038H133.228L133.184 45.0649C132.7 47.4526 130.415 49.855 126.357 49.855ZM126.226 36.5542C124.292 36.5542 122.842 37.8579 122.549 40.2456H129.829C129.565 37.7847 128.159 36.5542 126.226 36.5542ZM139.336 49.5474L133.843 34.02H137.725L141.328 46.1636H141.416L145.005 34.02H148.813L143.35 49.5474H139.336ZM150.498 49.5474V34.02H154.146V36.7007H154.219C154.702 34.8257 155.991 33.6978 157.778 33.6978C158.232 33.6978 158.657 33.771 158.936 33.8442V37.1401C158.628 37.0229 158.071 36.9351 157.456 36.9351C155.391 36.9351 154.146 38.2388 154.146 40.5386V49.5474H150.498ZM162.744 31.7935C161.602 31.7935 160.708 30.8853 160.708 29.8013C160.708 28.688 161.602 27.7944 162.744 27.7944C163.887 27.7944 164.766 28.688 164.766 29.8013C164.766 30.8853 163.887 31.7935 162.744 31.7935ZM160.913 49.5474V34.02H164.561V49.5474H160.913ZM176.338 49.855C174.097 49.855 172.383 48.7417 171.504 46.9106H171.416V49.5474H167.769V28.4097H171.416V36.686H171.504C172.383 34.8257 174.155 33.6978 176.353 33.6978C180.249 33.6978 182.754 36.7593 182.754 41.769V41.7837C182.754 46.7788 180.264 49.855 176.338 49.855ZM175.239 46.7788C177.583 46.7788 179.033 44.8745 179.033 41.7837V41.769C179.033 38.6782 177.568 36.7739 175.239 36.7739C172.998 36.7739 171.416 38.7368 171.416 41.769V41.7837C171.416 44.8306 172.983 46.7788 175.239 46.7788ZM191.924 49.855C187.266 49.855 184.453 46.7642 184.453 41.8276V41.813C184.453 36.9204 187.31 33.6978 191.748 33.6978C196.187 33.6978 198.94 36.8179 198.94 41.5054V42.6772H188.071C188.13 45.4019 189.624 47.0132 191.997 47.0132C193.813 47.0132 195 46.0464 195.352 45.0063L195.381 44.9038H198.794L198.75 45.0649C198.267 47.4526 195.981 49.855 191.924 49.855ZM191.792 36.5542C189.858 36.5542 188.408 37.8579 188.115 40.2456H195.396C195.132 37.7847 193.726 36.5542 191.792 36.5542ZM203.232 31.7935C202.09 31.7935 201.196 30.8853 201.196 29.8013C201.196 28.688 202.09 27.7944 203.232 27.7944C204.375 27.7944 205.254 28.688 205.254 29.8013C205.254 30.8853 204.375 31.7935 203.232 31.7935ZM201.401 49.5474V34.02H205.049V49.5474H201.401ZM208.154 49.5474V34.02H211.802V36.7007H211.875C212.358 34.8257 213.647 33.6978 215.435 33.6978C215.889 33.6978 216.313 33.771 216.592 33.8442V37.1401C216.284 37.0229 215.728 36.9351 215.112 36.9351C213.047 36.9351 211.802 38.2388 211.802 40.5386V49.5474H208.154ZM224.751 49.855C220.181 49.855 217.236 46.8081 217.236 41.7837V41.7544C217.236 36.7739 220.225 33.6978 224.736 33.6978C229.263 33.6978 232.266 36.7446 232.266 41.7544V41.7837C232.266 46.8228 229.307 49.855 224.751 49.855ZM224.766 46.9106C227.065 46.9106 228.545 45.0356 228.545 41.7837V41.7544C228.545 38.5171 227.051 36.6567 224.736 36.6567C222.466 36.6567 220.957 38.5317 220.957 41.7544V41.7837C220.957 45.0503 222.437 46.9106 224.766 46.9106ZM235.972 49.7817C234.785 49.7817 233.848 48.8442 233.848 47.6577C233.848 46.4858 234.785 45.5483 235.972 45.5483C237.158 45.5483 238.081 46.4858 238.081 47.6577C238.081 48.8442 237.158 49.7817 235.972 49.7817ZM247.061 49.855C242.446 49.855 239.561 46.7495 239.561 41.769V41.7544C239.561 36.8032 242.49 33.6978 247.017 33.6978C251.104 33.6978 253.652 36.2905 253.872 39.396L253.887 39.5132H250.444L250.415 39.3813C250.107 37.8726 248.994 36.6567 247.061 36.6567C244.761 36.6567 243.281 38.605 243.281 41.7837V41.7983C243.281 45.0356 244.775 46.9106 247.075 46.9106C248.921 46.9106 250.093 45.812 250.43 44.186L250.459 44.0542H253.901L253.887 44.1567C253.608 47.394 250.986 49.855 247.061 49.855ZM262.954 49.855C258.384 49.855 255.439 46.8081 255.439 41.7837V41.7544C255.439 36.7739 258.428 33.6978 262.939 33.6978C267.466 33.6978 270.469 36.7446 270.469 41.7544V41.7837C270.469 46.8228 267.51 49.855 262.954 49.855ZM262.969 46.9106C265.269 46.9106 266.748 45.0356 266.748 41.7837V41.7544C266.748 38.5171 265.254 36.6567 262.939 36.6567C260.669 36.6567 259.16 38.5317 259.16 41.7544V41.7837C259.16 45.0503 260.64 46.9106 262.969 46.9106ZM272.812 49.5474V34.02H276.46V36.5103H276.533C277.192 34.811 278.789 33.6978 280.84 33.6978C283.008 33.6978 284.575 34.8403 285.146 36.8325H285.234C285.981 34.8989 287.827 33.6978 290.068 33.6978C293.13 33.6978 295.137 35.7778 295.137 38.8833V49.5474H291.489V39.7915C291.489 37.8726 290.493 36.7739 288.706 36.7739C286.948 36.7739 285.747 38.0776 285.747 39.9526V49.5474H282.202V39.6011C282.202 37.8579 281.147 36.7739 279.448 36.7739C277.69 36.7739 276.46 38.1509 276.46 40.0405V49.5474H272.812Z" fill="url(#paint0_linear_1621_143)"/>
<defs>
<linearGradient id="paint0_linear_1621_143" x1="2.16971" y1="39.1684" x2="300.341" y2="39.1684" gradientUnits="userSpaceOnUse">
<stop offset="0.288866" stop-color="#FF80BF"/>
<stop offset="1" stop-color="#FFD876"/>
</linearGradient>
</defs>
</svg>
