<svg width="324" height="113" viewBox="0 0 324 113" fill="none" xmlns="http://www.w3.org/2000/svg">
<path d="M33.3904 9.05598C32.8616 9.05598 32.3951 8.94713 31.9908 8.72942C31.5927 8.51172 31.2817 8.21315 31.0578 7.83372C30.8401 7.45428 30.7312 7.01887 30.7312 6.52748C30.7312 6.03608 30.837 5.60067 31.0485 5.22124C31.2662 4.84181 31.5616 4.54635 31.9348 4.33486C32.3143 4.11716 32.7403 4.0083 33.2131 4.0083C33.692 4.0083 34.115 4.11405 34.482 4.32553C34.849 4.53702 35.1351 4.83559 35.3404 5.22124C35.5519 5.60067 35.6576 6.04541 35.6576 6.55547C35.6576 6.59279 35.6545 6.63633 35.6483 6.68609C35.6483 6.73585 35.6452 6.7825 35.639 6.82605H31.431V6.18226H35.1724L34.8086 6.40618C34.8148 6.08895 34.7495 5.80594 34.6126 5.55713C34.4758 5.30832 34.2861 5.1155 34.0435 4.97865C33.8071 4.83559 33.5303 4.76405 33.2131 4.76405C32.9021 4.76405 32.6253 4.83559 32.3827 4.97865C32.1401 5.1155 31.9504 5.31143 31.8135 5.56646C31.6767 5.81527 31.6083 6.10139 31.6083 6.42484V6.57413C31.6083 6.9038 31.6829 7.19926 31.8322 7.4605C31.9877 7.71553 32.2023 7.91458 32.476 8.05764C32.7497 8.20071 33.0638 8.27224 33.4183 8.27224C33.7107 8.27224 33.9751 8.22248 34.2114 8.12295C34.454 8.02343 34.6655 7.87415 34.8459 7.6751L35.3404 8.25358C35.1165 8.51483 34.8365 8.71387 34.5007 8.85072C34.171 8.98756 33.8009 9.05598 33.3904 9.05598ZM38.982 9.05598C38.5591 9.05598 38.1858 8.97823 37.8624 8.82272C37.5452 8.66722 37.2964 8.43085 37.116 8.11362C36.9418 7.79017 36.8547 7.38586 36.8547 6.90069V4.05495H37.7504V6.79805C37.7504 7.28323 37.8655 7.64711 38.0957 7.8897C38.332 8.13228 38.6617 8.25358 39.0847 8.25358C39.3957 8.25358 39.6663 8.19138 39.8964 8.06697C40.1265 7.93635 40.3038 7.74974 40.4282 7.50716C40.5526 7.25835 40.6148 6.95978 40.6148 6.61145V4.05495H41.5105V9H40.6615V7.66577L40.8014 8.02032C40.6397 8.34999 40.3971 8.60502 40.0737 8.7854C39.7502 8.96579 39.3863 9.05598 38.982 9.05598Z" fill="#86868B"/>
<path d="M193.462 9.05598C193.051 9.05598 192.675 8.96268 192.333 8.77607C191.997 8.58325 191.726 8.30023 191.521 7.92702C191.322 7.55381 191.222 7.08729 191.222 6.52748C191.222 5.96766 191.319 5.50115 191.512 5.12794C191.711 4.75472 191.978 4.47482 192.314 4.28821C192.656 4.10161 193.039 4.0083 193.462 4.0083C193.947 4.0083 194.376 4.11405 194.749 4.32553C195.122 4.53702 195.418 4.83248 195.636 5.21191C195.853 5.58512 195.962 6.02364 195.962 6.52748C195.962 7.03131 195.853 7.47294 195.636 7.85238C195.418 8.23181 195.122 8.52727 194.749 8.73875C194.376 8.95024 193.947 9.05598 193.462 9.05598ZM190.84 10.8101V4.05495H191.698V5.38918L191.642 6.53681L191.735 7.68443V10.8101H190.84ZM193.387 8.27224C193.704 8.27224 193.987 8.20071 194.236 8.05764C194.491 7.91458 194.69 7.71242 194.833 7.45117C194.982 7.18371 195.057 6.87581 195.057 6.52748C195.057 6.17293 194.982 5.86814 194.833 5.61311C194.69 5.35186 194.491 5.14971 194.236 5.00664C193.987 4.86358 193.704 4.79205 193.387 4.79205C193.076 4.79205 192.793 4.86358 192.538 5.00664C192.289 5.14971 192.09 5.35186 191.941 5.61311C191.798 5.86814 191.726 6.17293 191.726 6.52748C191.726 6.87581 191.798 7.18371 191.941 7.45117C192.09 7.71242 192.289 7.91458 192.538 8.05764C192.793 8.20071 193.076 8.27224 193.387 8.27224ZM199.318 9.05598C198.82 9.05598 198.378 8.94713 197.993 8.72942C197.607 8.51172 197.302 8.21315 197.078 7.83372C196.854 7.44806 196.742 7.01265 196.742 6.52748C196.742 6.03608 196.854 5.60067 197.078 5.22124C197.302 4.84181 197.607 4.54635 197.993 4.33486C198.378 4.11716 198.82 4.0083 199.318 4.0083C199.809 4.0083 200.248 4.11716 200.633 4.33486C201.025 4.54635 201.33 4.84181 201.548 5.22124C201.772 5.59445 201.883 6.02986 201.883 6.52748C201.883 7.01887 201.772 7.45428 201.548 7.83372C201.33 8.21315 201.025 8.51172 200.633 8.72942C200.248 8.94713 199.809 9.05598 199.318 9.05598ZM199.318 8.27224C199.635 8.27224 199.918 8.20071 200.167 8.05764C200.422 7.91458 200.621 7.71242 200.764 7.45117C200.907 7.18371 200.978 6.87581 200.978 6.52748C200.978 6.17293 200.907 5.86814 200.764 5.61311C200.621 5.35186 200.422 5.14971 200.167 5.00664C199.918 4.86358 199.635 4.79205 199.318 4.79205C199 4.79205 198.717 4.86358 198.469 5.00664C198.22 5.14971 198.021 5.35186 197.871 5.61311C197.722 5.86814 197.648 6.17293 197.648 6.52748C197.648 6.87581 197.722 7.18371 197.871 7.45117C198.021 7.71242 198.22 7.91458 198.469 8.05764C198.717 8.20071 199 8.27224 199.318 8.27224ZM203.122 9V4.05495H203.981V5.39851L203.897 5.06262C204.033 4.72051 204.264 4.45927 204.587 4.27888C204.911 4.09849 205.309 4.0083 205.781 4.0083V4.87602C205.744 4.8698 205.707 4.86669 205.669 4.86669C205.638 4.86669 205.607 4.86669 205.576 4.86669C205.097 4.86669 204.718 5.00975 204.438 5.29588C204.158 5.58201 204.018 5.99565 204.018 6.53681V9H203.122ZM208.784 9.05598C208.286 9.05598 207.901 8.92225 207.627 8.65478C207.353 8.38731 207.216 8.00477 207.216 7.50716V2.97264H208.112V7.46983C208.112 7.7373 208.177 7.94257 208.308 8.08563C208.445 8.2287 208.638 8.30023 208.886 8.30023C209.166 8.30023 209.4 8.22248 209.586 8.06697L209.866 8.71076C209.729 8.82894 209.564 8.91603 209.372 8.97201C209.185 9.02799 208.989 9.05598 208.784 9.05598ZM206.377 4.79205V4.05495H209.53V4.79205H206.377ZM211.08 9V3.61643C211.08 3.13126 211.22 2.7456 211.5 2.45948C211.786 2.16713 212.19 2.02095 212.712 2.02095C212.905 2.02095 213.089 2.04583 213.263 2.0956C213.443 2.13914 213.596 2.21067 213.72 2.31019L213.45 2.9913C213.356 2.91666 213.251 2.86068 213.132 2.82336C213.014 2.77982 212.89 2.75805 212.759 2.75805C212.498 2.75805 212.299 2.83269 212.162 2.98197C212.025 3.12504 211.957 3.33963 211.957 3.62576V4.28821L211.975 4.69874V9H211.08ZM210.24 4.79205V4.05495H213.394V4.79205H210.24ZM216.283 9.05598C215.786 9.05598 215.344 8.94713 214.959 8.72942C214.573 8.51172 214.268 8.21315 214.044 7.83372C213.82 7.44806 213.708 7.01265 213.708 6.52748C213.708 6.03608 213.82 5.60067 214.044 5.22124C214.268 4.84181 214.573 4.54635 214.959 4.33486C215.344 4.11716 215.786 4.0083 216.283 4.0083C216.775 4.0083 217.213 4.11716 217.599 4.33486C217.991 4.54635 218.296 4.84181 218.513 5.22124C218.737 5.59445 218.849 6.02986 218.849 6.52748C218.849 7.01887 218.737 7.45428 218.513 7.83372C218.296 8.21315 217.991 8.51172 217.599 8.72942C217.213 8.94713 216.775 9.05598 216.283 9.05598ZM216.283 8.27224C216.601 8.27224 216.884 8.20071 217.132 8.05764C217.388 7.91458 217.587 7.71242 217.73 7.45117C217.873 7.18371 217.944 6.87581 217.944 6.52748C217.944 6.17293 217.873 5.86814 217.73 5.61311C217.587 5.35186 217.388 5.14971 217.132 5.00664C216.884 4.86358 216.601 4.79205 216.283 4.79205C215.966 4.79205 215.683 4.86358 215.434 5.00664C215.186 5.14971 214.987 5.35186 214.837 5.61311C214.688 5.86814 214.613 6.17293 214.613 6.52748C214.613 6.87581 214.688 7.18371 214.837 7.45117C214.987 7.71242 215.186 7.91458 215.434 8.05764C215.683 8.20071 215.966 8.27224 216.283 8.27224ZM215.574 3.33652L216.843 2.12359H217.982L216.414 3.33652H215.574ZM220.088 9V2.07694H220.984V9H220.088ZM222.694 9V4.05495H223.59V9H222.694ZM223.142 3.10327C222.968 3.10327 222.821 3.04728 222.703 2.93532C222.591 2.82336 222.535 2.68651 222.535 2.52479C222.535 2.35684 222.591 2.21689 222.703 2.10493C222.821 1.99296 222.968 1.93698 223.142 1.93698C223.316 1.93698 223.459 1.99296 223.571 2.10493C223.689 2.21067 223.748 2.3444 223.748 2.50613C223.748 2.67407 223.692 2.81714 223.58 2.93532C223.468 3.04728 223.322 3.10327 223.142 3.10327ZM227.418 9.05598C226.92 9.05598 226.479 8.94713 226.093 8.72942C225.707 8.51172 225.402 8.21315 225.179 7.83372C224.955 7.44806 224.843 7.01265 224.843 6.52748C224.843 6.03608 224.955 5.60067 225.179 5.22124C225.402 4.84181 225.707 4.54635 226.093 4.33486C226.479 4.11716 226.92 4.0083 227.418 4.0083C227.909 4.0083 228.348 4.11716 228.733 4.33486C229.125 4.54635 229.43 4.84181 229.648 5.22124C229.872 5.59445 229.984 6.02986 229.984 6.52748C229.984 7.01887 229.872 7.45428 229.648 7.83372C229.43 8.21315 229.125 8.51172 228.733 8.72942C228.348 8.94713 227.909 9.05598 227.418 9.05598ZM227.418 8.27224C227.735 8.27224 228.018 8.20071 228.267 8.05764C228.522 7.91458 228.721 7.71242 228.864 7.45117C229.007 7.18371 229.079 6.87581 229.079 6.52748C229.079 6.17293 229.007 5.86814 228.864 5.61311C228.721 5.35186 228.522 5.14971 228.267 5.00664C228.018 4.86358 227.735 4.79205 227.418 4.79205C227.101 4.79205 226.818 4.86358 226.569 5.00664C226.32 5.14971 226.121 5.35186 225.972 5.61311C225.822 5.86814 225.748 6.17293 225.748 6.52748C225.748 6.87581 225.822 7.18371 225.972 7.45117C226.121 7.71242 226.32 7.91458 226.569 8.05764C226.818 8.20071 227.101 8.27224 227.418 8.27224Z" fill="#86868B"/>
<path d="M87.2986 111.689C86.7698 111.689 86.3033 111.58 85.899 111.362C85.5009 111.145 85.1899 110.846 84.966 110.467C84.7483 110.087 84.6394 109.652 84.6394 109.161C84.6394 108.669 84.7452 108.234 84.9567 107.854C85.1744 107.475 85.4698 107.179 85.843 106.968C86.2225 106.75 86.6485 106.641 87.1213 106.641C87.6002 106.641 88.0232 106.747 88.3902 106.959C88.7572 107.17 89.0433 107.469 89.2486 107.854C89.4601 108.234 89.5658 108.678 89.5658 109.189C89.5658 109.226 89.5627 109.269 89.5565 109.319C89.5565 109.369 89.5534 109.416 89.5472 109.459H85.3392V108.815H89.0806L88.7168 109.039C88.723 108.722 88.6577 108.439 88.5208 108.19C88.384 107.941 88.1943 107.749 87.9517 107.612C87.7153 107.469 87.4385 107.397 87.1213 107.397C86.8103 107.397 86.5335 107.469 86.2909 107.612C86.0483 107.749 85.8586 107.944 85.7217 108.2C85.5849 108.448 85.5165 108.734 85.5165 109.058V109.207C85.5165 109.537 85.5911 109.832 85.7404 110.094C85.8959 110.349 86.1105 110.548 86.3842 110.691C86.6579 110.834 86.972 110.905 87.3265 110.905C87.6189 110.905 87.8833 110.856 88.1196 110.756C88.3622 110.656 88.5737 110.507 88.7541 110.308L89.2486 110.887C89.0247 111.148 88.7448 111.347 88.4089 111.484C88.0792 111.621 87.7091 111.689 87.2986 111.689ZM90.5835 109.459V108.685H93.0933V109.459H90.5835ZM100.658 106.641C101.057 106.641 101.408 106.719 101.713 106.875C102.018 107.03 102.254 107.266 102.422 107.584C102.596 107.901 102.683 108.302 102.683 108.787V111.633H101.787V108.89C101.787 108.411 101.675 108.05 101.451 107.808C101.228 107.565 100.913 107.444 100.509 107.444C100.211 107.444 99.9493 107.506 99.7254 107.63C99.5015 107.755 99.3273 107.938 99.2029 108.181C99.0847 108.423 99.0256 108.725 99.0256 109.086V111.633H98.1299V108.89C98.1299 108.411 98.018 108.05 97.794 107.808C97.5763 107.565 97.2622 107.444 96.8517 107.444C96.5593 107.444 96.3012 107.506 96.0773 107.63C95.8533 107.755 95.6792 107.938 95.5548 108.181C95.4304 108.423 95.3682 108.725 95.3682 109.086V111.633H94.4724V106.688H95.3308V108.004L95.1909 107.668C95.3464 107.344 95.5859 107.092 95.9093 106.912C96.2328 106.732 96.6091 106.641 97.0383 106.641C97.511 106.641 97.9184 106.76 98.2605 106.996C98.6026 107.226 98.8266 107.577 98.9323 108.05L98.5684 107.901C98.7177 107.522 98.979 107.217 99.3522 106.987C99.7254 106.756 100.161 106.641 100.658 106.641ZM107.401 111.633V110.588L107.354 110.392V108.61C107.354 108.231 107.242 107.938 107.018 107.733C106.801 107.522 106.471 107.416 106.029 107.416C105.737 107.416 105.451 107.466 105.171 107.565C104.891 107.658 104.655 107.786 104.462 107.948L104.089 107.276C104.344 107.071 104.648 106.915 105.003 106.809C105.364 106.697 105.74 106.641 106.132 106.641C106.81 106.641 107.332 106.806 107.699 107.136C108.066 107.466 108.25 107.969 108.25 108.647V111.633H107.401ZM105.777 111.689C105.41 111.689 105.087 111.627 104.807 111.502C104.533 111.378 104.322 111.207 104.173 110.989C104.023 110.765 103.949 110.513 103.949 110.234C103.949 109.966 104.011 109.723 104.135 109.506C104.266 109.288 104.474 109.114 104.76 108.983C105.053 108.853 105.445 108.787 105.936 108.787H107.503V109.431H105.973C105.525 109.431 105.224 109.506 105.068 109.655C104.913 109.804 104.835 109.985 104.835 110.196C104.835 110.439 104.931 110.635 105.124 110.784C105.317 110.927 105.585 110.999 105.927 110.999C106.263 110.999 106.555 110.924 106.804 110.775C107.059 110.625 107.242 110.408 107.354 110.122L107.531 110.737C107.413 111.03 107.205 111.263 106.906 111.437C106.608 111.605 106.231 111.689 105.777 111.689ZM109.907 111.633V106.688H110.803V111.633H109.907ZM110.355 105.736C110.181 105.736 110.035 105.68 109.917 105.568C109.805 105.456 109.749 105.32 109.749 105.158C109.749 104.99 109.805 104.85 109.917 104.738C110.035 104.626 110.181 104.57 110.355 104.57C110.53 104.57 110.673 104.626 110.785 104.738C110.903 104.844 110.962 104.977 110.962 105.139C110.962 105.307 110.906 105.45 110.794 105.568C110.682 105.68 110.536 105.736 110.355 105.736ZM112.513 111.633V104.71H113.409V111.633H112.513Z" fill="#86868B"/>
<path d="M136.932 79.4954V74.5504H137.827V79.4954H136.932ZM137.379 73.5987C137.205 73.5987 137.059 73.5427 136.941 73.4307C136.829 73.3188 136.773 73.1819 136.773 73.0202C136.773 72.8523 136.829 72.7123 136.941 72.6003C137.059 72.4884 137.205 72.4324 137.379 72.4324C137.554 72.4324 137.697 72.4884 137.809 72.6003C137.927 72.7061 137.986 72.8398 137.986 73.0016C137.986 73.1695 137.93 73.3126 137.818 73.4307C137.706 73.5427 137.56 73.5987 137.379 73.5987ZM142.178 74.5037C142.582 74.5037 142.937 74.5815 143.242 74.737C143.553 74.8925 143.795 75.1289 143.969 75.4461C144.144 75.7633 144.231 76.1645 144.231 76.6497V79.4954H143.335V76.7523C143.335 76.2734 143.217 75.9126 142.98 75.67C142.75 75.4274 142.424 75.3061 142.001 75.3061C141.683 75.3061 141.407 75.3683 141.17 75.4927C140.934 75.6171 140.75 75.8006 140.62 76.0432C140.495 76.2858 140.433 76.5875 140.433 76.9483V79.4954H139.537V74.5504H140.396V75.8846L140.256 75.5301C140.418 75.2066 140.666 74.9547 141.002 74.7743C141.338 74.5939 141.73 74.5037 142.178 74.5037ZM147.306 79.5514C146.896 79.5514 146.504 79.4954 146.131 79.3835C145.764 79.2715 145.475 79.1347 145.263 78.9729L145.636 78.2638C145.848 78.4069 146.109 78.5282 146.42 78.6277C146.731 78.7272 147.048 78.777 147.372 78.777C147.789 78.777 148.087 78.7179 148.267 78.5997C148.454 78.4815 148.547 78.3167 148.547 78.1052C148.547 77.9497 148.491 77.8284 148.379 77.7413C148.267 77.6542 148.118 77.5889 147.932 77.5454C147.751 77.5019 147.549 77.4645 147.325 77.4334C147.101 77.3961 146.877 77.3526 146.653 77.3028C146.429 77.2468 146.224 77.1722 146.038 77.0789C145.851 76.9794 145.702 76.8456 145.59 76.6777C145.478 76.5035 145.422 76.2734 145.422 75.9872C145.422 75.6887 145.506 75.4274 145.674 75.2035C145.842 74.9796 146.078 74.8085 146.383 74.6903C146.694 74.5659 147.061 74.5037 147.484 74.5037C147.807 74.5037 148.134 74.5442 148.463 74.625C148.799 74.6997 149.073 74.8085 149.284 74.9516L148.902 75.6607C148.678 75.5114 148.445 75.4088 148.202 75.3528C147.96 75.2968 147.717 75.2688 147.474 75.2688C147.083 75.2688 146.79 75.3341 146.597 75.4647C146.405 75.5891 146.308 75.7509 146.308 75.9499C146.308 76.1179 146.364 76.2485 146.476 76.3418C146.594 76.4289 146.744 76.4973 146.924 76.5471C147.111 76.5968 147.316 76.6404 147.54 76.6777C147.764 76.7088 147.988 76.7523 148.212 76.8083C148.435 76.8581 148.638 76.9296 148.818 77.0229C149.005 77.1162 149.154 77.2468 149.266 77.4148C149.384 77.5827 149.443 77.8066 149.443 78.0866C149.443 78.3851 149.356 78.6433 149.182 78.861C149.008 79.0787 148.762 79.2497 148.445 79.3741C148.128 79.4923 147.748 79.5514 147.306 79.5514ZM152.261 79.5514C151.763 79.5514 151.377 79.4177 151.104 79.1502C150.83 78.8827 150.693 78.5002 150.693 78.0026V73.4681H151.589V77.9653C151.589 78.2327 151.654 78.438 151.785 78.5811C151.922 78.7241 152.114 78.7957 152.363 78.7957C152.643 78.7957 152.876 78.7179 153.063 78.5624L153.343 79.2062C153.206 79.3244 153.041 79.4114 152.848 79.4674C152.662 79.5234 152.466 79.5514 152.261 79.5514ZM149.853 75.2875V74.5504H153.007V75.2875H149.853ZM157.496 79.4954V78.4504L157.449 78.2545V76.4724C157.449 76.093 157.337 75.8006 157.113 75.5954C156.895 75.3839 156.566 75.2781 156.124 75.2781C155.832 75.2781 155.545 75.3279 155.266 75.4274C154.986 75.5207 154.749 75.6482 154.556 75.81L154.183 75.1382C154.438 74.9329 154.743 74.7774 155.098 74.6717C155.458 74.5597 155.835 74.5037 156.227 74.5037C156.905 74.5037 157.427 74.6686 157.794 74.9982C158.161 75.3279 158.345 75.8317 158.345 76.5097V79.4954H157.496ZM155.872 79.5514C155.505 79.5514 155.182 79.4892 154.902 79.3648C154.628 79.2404 154.417 79.0693 154.267 78.8516C154.118 78.6277 154.043 78.3758 154.043 78.0959C154.043 77.8284 154.106 77.5858 154.23 77.3681C154.361 77.1504 154.569 76.9762 154.855 76.8456C155.147 76.715 155.539 76.6497 156.031 76.6497H157.598V77.2935H156.068C155.62 77.2935 155.318 77.3681 155.163 77.5174C155.007 77.6667 154.93 77.8471 154.93 78.0586C154.93 78.3011 155.026 78.4971 155.219 78.6464C155.412 78.7894 155.679 78.861 156.021 78.861C156.357 78.861 156.65 78.7863 156.898 78.637C157.153 78.4878 157.337 78.27 157.449 77.9839L157.626 78.5997C157.508 78.8921 157.3 79.1253 157.001 79.2995C156.702 79.4674 156.326 79.5514 155.872 79.5514ZM162.167 81.3615C161.713 81.3615 161.271 81.2962 160.842 81.1655C160.419 81.0411 160.074 80.8608 159.806 80.6244L160.235 79.9339C160.466 80.133 160.749 80.2885 161.084 80.4005C161.42 80.5186 161.772 80.5777 162.139 80.5777C162.723 80.5777 163.153 80.4409 163.426 80.1672C163.7 79.8935 163.837 79.4768 163.837 78.9169V77.872L163.93 76.8923L163.884 75.9033V74.5504H164.733V78.8236C164.733 79.6945 164.515 80.3351 164.079 80.7457C163.644 81.1562 163.006 81.3615 162.167 81.3615ZM162.055 79.2902C161.576 79.2902 161.147 79.1906 160.767 78.9916C160.394 78.7863 160.095 78.5033 159.872 78.1425C159.654 77.7818 159.545 77.365 159.545 76.8923C159.545 76.4133 159.654 75.9966 159.872 75.642C160.095 75.2812 160.394 75.0013 160.767 74.8023C161.147 74.6032 161.576 74.5037 162.055 74.5037C162.478 74.5037 162.863 74.5908 163.212 74.765C163.56 74.9329 163.837 75.1942 164.042 75.5487C164.254 75.9033 164.359 76.3511 164.359 76.8923C164.359 77.4272 164.254 77.872 164.042 78.2265C163.837 78.5811 163.56 78.8485 163.212 79.0289C162.863 79.2031 162.478 79.2902 162.055 79.2902ZM162.157 78.5064C162.487 78.5064 162.779 78.438 163.034 78.3011C163.29 78.1643 163.489 77.9746 163.632 77.732C163.781 77.4894 163.856 77.2095 163.856 76.8923C163.856 76.575 163.781 76.2951 163.632 76.0526C163.489 75.81 163.29 75.6234 163.034 75.4927C162.779 75.3559 162.487 75.2875 162.157 75.2875C161.828 75.2875 161.532 75.3559 161.271 75.4927C161.016 75.6234 160.814 75.81 160.665 76.0526C160.522 76.2951 160.45 76.575 160.45 76.8923C160.45 77.2095 160.522 77.4894 160.665 77.732C160.814 77.9746 161.016 78.1643 161.271 78.3011C161.532 78.438 161.828 78.5064 162.157 78.5064ZM166.444 79.4954V74.5504H167.302V75.8939L167.218 75.558C167.355 75.2159 167.585 74.9547 167.909 74.7743C168.232 74.5939 168.63 74.5037 169.103 74.5037V75.3714C169.066 75.3652 169.029 75.3621 168.991 75.3621C168.96 75.3621 168.929 75.3621 168.898 75.3621C168.419 75.3621 168.04 75.5052 167.76 75.7913C167.48 76.0774 167.34 76.4911 167.34 77.0322V79.4954H166.444ZM172.912 79.4954V78.4504L172.866 78.2545V76.4724C172.866 76.093 172.754 75.8006 172.53 75.5954C172.312 75.3839 171.982 75.2781 171.541 75.2781C171.248 75.2781 170.962 75.3279 170.682 75.4274C170.402 75.5207 170.166 75.6482 169.973 75.81L169.6 75.1382C169.855 74.9329 170.16 74.7774 170.514 74.6717C170.875 74.5597 171.252 74.5037 171.643 74.5037C172.321 74.5037 172.844 74.6686 173.211 74.9982C173.578 75.3279 173.761 75.8317 173.761 76.5097V79.4954H172.912ZM171.289 79.5514C170.922 79.5514 170.598 79.4892 170.319 79.3648C170.045 79.2404 169.833 79.0693 169.684 78.8516C169.535 78.6277 169.46 78.3758 169.46 78.0959C169.46 77.8284 169.522 77.5858 169.647 77.3681C169.777 77.1504 169.986 76.9762 170.272 76.8456C170.564 76.715 170.956 76.6497 171.447 76.6497H173.015V77.2935H171.485C171.037 77.2935 170.735 77.3681 170.58 77.5174C170.424 77.6667 170.346 77.8471 170.346 78.0586C170.346 78.3011 170.443 78.4971 170.636 78.6464C170.829 78.7894 171.096 78.861 171.438 78.861C171.774 78.861 172.066 78.7863 172.315 78.637C172.57 78.4878 172.754 78.27 172.866 77.9839L173.043 78.5997C172.925 78.8921 172.716 79.1253 172.418 79.2995C172.119 79.4674 171.743 79.5514 171.289 79.5514ZM181.605 74.5037C182.003 74.5037 182.354 74.5815 182.659 74.737C182.964 74.8925 183.2 75.1289 183.368 75.4461C183.543 75.7633 183.63 76.1645 183.63 76.6497V79.4954H182.734V76.7523C182.734 76.2734 182.622 75.9126 182.398 75.67C182.174 75.4274 181.86 75.3061 181.456 75.3061C181.157 75.3061 180.896 75.3683 180.672 75.4927C180.448 75.6171 180.274 75.8006 180.149 76.0432C180.031 76.2858 179.972 76.5875 179.972 76.9483V79.4954H179.076V76.7523C179.076 76.2734 178.964 75.9126 178.741 75.67C178.523 75.4274 178.209 75.3061 177.798 75.3061C177.506 75.3061 177.248 75.3683 177.024 75.4927C176.8 75.6171 176.626 75.8006 176.501 76.0432C176.377 76.2858 176.315 76.5875 176.315 76.9483V79.4954H175.419V74.5504H176.277V75.8659L176.137 75.5301C176.293 75.2066 176.532 74.9547 176.856 74.7743C177.179 74.5939 177.556 74.5037 177.985 74.5037C178.458 74.5037 178.865 74.6219 179.207 74.8583C179.549 75.0884 179.773 75.4399 179.879 75.9126L179.515 75.7633C179.664 75.3839 179.925 75.0791 180.299 74.8489C180.672 74.6188 181.107 74.5037 181.605 74.5037Z" fill="#86868B"/>
<path d="M1.71806 51.7706V35.4912H6.15237V38.331H6.24349C6.72944 36.3265 8.05062 35.1572 9.94887 35.1572C10.4348 35.1572 10.8904 35.2331 11.2245 35.3242V39.227C10.86 39.0751 10.2526 38.984 9.61478 38.984C7.42799 38.984 6.15237 40.29 6.15237 42.659V51.7706H1.71806ZM17.4963 52.0288C14.2313 52.0288 12.0294 49.9787 12.0294 47.1085V47.0782C12.0294 44.1169 14.3224 42.3857 18.3619 42.1275L22.3862 41.8845V40.8823C22.3862 39.4396 21.4447 38.5436 19.7135 38.5436C18.0582 38.5436 17.0559 39.3181 16.8433 40.3659L16.8129 40.5026H12.7583L12.7735 40.3204C13.0164 37.3136 15.5981 35.1572 19.8957 35.1572C24.1022 35.1572 26.8205 37.3287 26.8205 40.6089V51.7706H22.3862V49.3409H22.2951C21.3687 51.0113 19.6375 52.0288 17.4963 52.0288ZM16.4181 46.8807C16.4181 48.0804 17.4052 48.7942 18.939 48.7942C20.9283 48.7942 22.3862 47.5186 22.3862 45.8177V44.6484L19.0301 44.861C17.3141 44.9673 16.4181 45.6962 16.4181 46.8504V46.8807ZM30.8752 51.7706V38.8322H28.658V35.4912H30.8752V34.1852C30.8752 30.9962 32.3938 29.5231 36.2358 29.5231C37.0559 29.5231 37.9518 29.5991 38.4682 29.7054V32.6363C38.1644 32.5755 37.7392 32.5603 37.3292 32.5603C35.8562 32.5603 35.2032 33.183 35.2032 34.3523V35.4912H38.4378V38.8322H35.3095V51.7706H30.8752ZM44.7704 52.0288C41.5054 52.0288 39.3034 49.9787 39.3034 47.1085V47.0782C39.3034 44.1169 41.5965 42.3857 45.636 42.1275L49.6602 41.8845V40.8823C49.6602 39.4396 48.7187 38.5436 46.9875 38.5436C45.3322 38.5436 44.33 39.3181 44.1174 40.3659L44.087 40.5026H40.0323L40.0475 40.3204C40.2905 37.3136 42.8721 35.1572 47.1697 35.1572C51.3763 35.1572 54.0946 37.3287 54.0946 40.6089V51.7706H49.6602V49.3409H49.5691C48.6428 51.0113 46.9116 52.0288 44.7704 52.0288ZM43.6921 46.8807C43.6921 48.0804 44.6792 48.7942 46.213 48.7942C48.2024 48.7942 49.6602 47.5186 49.6602 45.8177V44.6484L46.3041 44.861C44.5881 44.9673 43.6921 45.6962 43.6921 46.8504V46.8807ZM64.3755 52.1047C59.3945 52.1047 56.3725 48.8701 56.3725 43.6613V43.6461C56.3725 38.4677 59.4248 35.1572 64.1932 35.1572C68.9616 35.1572 71.9533 38.3918 71.9533 43.312V44.6788H60.746C60.7916 47.2756 62.2039 48.7942 64.4666 48.7942C66.2889 48.7942 67.3975 47.7919 67.7164 46.8807L67.7468 46.7896H71.8166L71.7711 46.9567C71.2699 49.3561 69.0224 52.1047 64.3755 52.1047ZM64.2692 38.4677C62.4469 38.4677 61.0801 39.6826 60.7916 41.8845H67.7012C67.4279 39.637 66.1067 38.4677 64.2692 38.4677ZM74.3527 51.7706V29.8572H78.787V51.7706H74.3527ZM94.9297 55.4608C87.0785 55.4608 81.566 50.6621 81.566 42.5831V42.5679C81.566 34.9597 86.8508 29.7661 94.4589 29.7661C101.779 29.7661 106.775 34.3371 106.775 41.4593V41.4745C106.775 46.334 104.588 49.1738 101.49 49.1738C99.6222 49.1738 98.2251 48.1564 97.6024 46.7137L97.4658 46.4403H97.3291C96.5546 48.2475 95.036 49.1738 93.1226 49.1738C90.0246 49.1738 87.8986 46.5618 87.8986 42.5983V42.5831C87.8986 38.8625 90.1006 36.2505 93.1226 36.2505C94.8082 36.2505 96.2205 37.1161 96.828 38.4981H96.9494V36.5846H100.017V43.6765C100.017 45.514 100.67 46.4707 101.703 46.4707C103.024 46.4707 103.92 44.7091 103.92 41.596V41.5808C103.92 35.8557 100.169 32.2566 94.3678 32.2566C88.506 32.2566 84.421 36.448 84.421 42.5831V42.5983C84.421 49.2194 88.7642 52.9248 95.1575 52.9248C97.0557 52.9248 98.954 52.6362 100.275 52.1503V54.656C98.7262 55.1875 96.9039 55.4608 94.9297 55.4608ZM93.9578 46.3796C95.5979 46.3796 96.6609 44.9673 96.6609 42.6894V42.6438C96.6609 40.3963 95.5979 39.0144 93.973 39.0144C92.3329 39.0144 91.3458 40.3659 91.3458 42.659V42.6742C91.3458 44.9977 92.3481 46.3796 93.9578 46.3796ZM115.416 52.1047C111.315 52.1047 108.795 48.9157 108.795 43.6309V43.6158C108.795 38.3158 111.315 35.1572 115.416 35.1572C117.724 35.1572 119.546 36.3417 120.427 38.3158H120.518V29.8572H124.952V51.7706H120.518V48.9916H120.427C119.561 50.9202 117.769 52.1047 115.416 52.1047ZM116.904 48.4297C119.06 48.4297 120.533 46.577 120.533 43.6309V43.6158C120.533 40.6849 119.045 38.8322 116.904 38.8322C114.702 38.8322 113.305 40.6393 113.305 43.6158V43.6309C113.305 46.5922 114.687 48.4297 116.904 48.4297ZM135.324 52.1047C130.343 52.1047 127.321 48.8701 127.321 43.6613V43.6461C127.321 38.4677 130.374 35.1572 135.142 35.1572C139.911 35.1572 142.902 38.3918 142.902 43.312V44.6788H131.695C131.741 47.2756 133.153 48.7942 135.416 48.7942C137.238 48.7942 138.346 47.7919 138.665 46.8807L138.696 46.7896H142.766L142.72 46.9567C142.219 49.3561 139.971 52.1047 135.324 52.1047ZM135.218 38.4677C133.396 38.4677 132.029 39.6826 131.741 41.8845H138.65C138.377 39.637 137.056 38.4677 135.218 38.4677ZM148.886 51.7706L143.252 35.4912H147.99L151.391 47.8526H151.482L154.838 35.4912H159.47L153.882 51.7706H148.886ZM161.019 51.7706V35.4912H165.453V38.331H165.545C166.031 36.3265 167.352 35.1572 169.25 35.1572C169.736 35.1572 170.191 35.2331 170.526 35.3242V39.227C170.161 39.0751 169.554 38.984 168.916 38.984C166.729 38.984 165.453 40.29 165.453 42.659V51.7706H161.019ZM174.656 33.3956C173.32 33.3956 172.287 32.3477 172.287 31.0873C172.287 29.8269 173.32 28.779 174.656 28.779C175.993 28.779 177.025 29.8269 177.025 31.0873C177.025 32.3477 175.993 33.3956 174.656 33.3956ZM172.439 51.7706V35.4912H176.873V51.7706H172.439ZM189.493 52.1047C187.154 52.1047 185.362 50.9202 184.482 48.9916H184.39V51.7706H179.956V29.8572H184.39V38.3158H184.482C185.377 36.3417 187.185 35.1572 189.508 35.1572C193.593 35.1572 196.129 38.3158 196.129 43.6158V43.6309C196.129 48.9157 193.593 52.1047 189.493 52.1047ZM188.02 48.4297C190.222 48.4297 191.619 46.5922 191.619 43.6309V43.6158C191.619 40.6393 190.222 38.8322 188.02 38.8322C185.879 38.8322 184.39 40.6849 184.39 43.6158V43.6309C184.39 46.577 185.863 48.4297 188.02 48.4297ZM205.818 52.1047C200.837 52.1047 197.815 48.8701 197.815 43.6613V43.6461C197.815 38.4677 200.867 35.1572 205.636 35.1572C210.404 35.1572 213.396 38.3918 213.396 43.312V44.6788H202.188C202.234 47.2756 203.646 48.7942 205.909 48.7942C207.731 48.7942 208.84 47.7919 209.159 46.8807L209.189 46.7896H213.259L213.213 46.9567C212.712 49.3561 210.465 52.1047 205.818 52.1047ZM205.712 38.4677C203.889 38.4677 202.522 39.6826 202.234 41.8845H209.144C208.87 39.637 207.549 38.4677 205.712 38.4677ZM217.997 33.3956C216.661 33.3956 215.628 32.3477 215.628 31.0873C215.628 29.8269 216.661 28.779 217.997 28.779C219.333 28.779 220.366 29.8269 220.366 31.0873C220.366 32.3477 219.333 33.3956 217.997 33.3956ZM215.78 51.7706V35.4912H220.214V51.7706H215.78ZM223.191 51.7706V35.4912H227.625V38.331H227.716C228.202 36.3265 229.523 35.1572 231.421 35.1572C231.907 35.1572 232.363 35.2331 232.697 35.3242V39.227C232.333 39.0751 231.725 38.984 231.087 38.984C228.901 38.984 227.625 40.29 227.625 42.659V51.7706H223.191ZM241.444 52.1047C236.494 52.1047 233.38 48.9308 233.38 43.6309V43.6006C233.38 38.3614 236.569 35.1572 241.429 35.1572C246.304 35.1572 249.508 38.331 249.508 43.6006V43.6309C249.508 48.946 246.364 52.1047 241.444 52.1047ZM241.459 48.6271C243.616 48.6271 244.998 46.8048 244.998 43.6309V43.6006C244.998 40.4571 243.585 38.6347 241.429 38.6347C239.288 38.6347 237.891 40.4571 237.891 43.6006V43.6309C237.891 46.82 239.273 48.6271 241.459 48.6271ZM253.654 52.0288C252.272 52.0288 251.194 50.9354 251.194 49.5687C251.194 48.1867 252.272 47.1085 253.654 47.1085C255.02 47.1085 256.114 48.1867 256.114 49.5687C256.114 50.9354 255.02 52.0288 253.654 52.0288ZM265.59 52.1047C260.624 52.1047 257.557 48.8701 257.557 43.6158V43.6006C257.557 38.3918 260.67 35.1572 265.544 35.1572C269.963 35.1572 272.773 37.8754 272.94 41.3986V41.5049H268.825L268.794 41.3682C268.521 39.8193 267.443 38.6347 265.605 38.6347C263.434 38.6347 262.067 40.5026 262.067 43.6158V43.6309C262.067 46.82 263.434 48.6271 265.62 48.6271C267.397 48.6271 268.506 47.5337 268.809 45.8936L268.825 45.757H272.955V45.8481C272.743 49.4016 269.933 52.1047 265.59 52.1047ZM282.568 52.1047C277.617 52.1047 274.504 48.9308 274.504 43.6309V43.6006C274.504 38.3614 277.693 35.1572 282.553 35.1572C287.427 35.1572 290.632 38.331 290.632 43.6006V43.6309C290.632 48.946 287.488 52.1047 282.568 52.1047ZM282.583 48.6271C284.739 48.6271 286.121 46.8048 286.121 43.6309V43.6006C286.121 40.4571 284.709 38.6347 282.553 38.6347C280.411 38.6347 279.014 40.4571 279.014 43.6006V43.6309C279.014 46.82 280.396 48.6271 282.583 48.6271ZM292.925 51.7706V35.4912H297.359V38.2247H297.45C298.118 36.372 299.819 35.1572 302.006 35.1572C304.284 35.1572 305.939 36.372 306.486 38.5133H306.577C307.306 36.4631 309.25 35.1572 311.634 35.1572C314.823 35.1572 316.964 37.3591 316.964 40.6393V51.7706H312.53V41.7479C312.53 39.8648 311.588 38.8322 309.872 38.8322C308.187 38.8322 307.078 40.0622 307.078 41.8694V51.7706H302.811V41.6112C302.811 39.8648 301.824 38.8322 300.184 38.8322C298.498 38.8322 297.359 40.1078 297.359 41.9453V51.7706H292.925Z" fill="url(#paint0_linear_1846_203)"/>
<path d="M1.31201 99.0046H317.505M1.83036 99.5229L1.83036 59.0917M316.986 99.5229V54.9449M1.31201 19.1789H79.0643M109.129 19.1789L317.505 19.1789M82.1744 66.8669L250.119 66.867M1.83036 26.9541L1.83036 18.6605M78.546 26.9541V18.6605M37.0781 19.6972V14.5137M208.133 19.6972V14.5137M159.408 72.5688V67.3853M99.2799 104.706V99.5229M109.647 26.9541V18.6605M81.6561 67.3853V59.0917M249.601 67.3853V59.0917M316.986 26.9541V18.6605" stroke="#86868B" stroke-width="1.0367" stroke-linejoin="round"/>
<defs>
<linearGradient id="paint0_linear_1846_203" x1="162" y1="21.7706" x2="162" y2="59.0917" gradientUnits="userSpaceOnUse">
<stop stop-color="#FF5858"/>
<stop offset="1" stop-color="#CC2E5D"/>
</linearGradient>
</defs>
</svg>
