<svg width="324" height="113" viewBox="0 0 324 113" fill="none" xmlns="http://www.w3.org/2000/svg">
<path d="M33.5023 9.07464C32.9301 9.07464 32.4262 8.96268 31.9908 8.73875C31.5616 8.51483 31.2288 8.21004 30.9925 7.82439C30.7561 7.43251 30.6379 6.98777 30.6379 6.49016C30.6379 5.98632 30.753 5.54158 30.9831 5.15593C31.2195 4.76405 31.5399 4.45927 31.9442 4.24156C32.3485 4.01763 32.8057 3.90567 33.3157 3.90567C33.8071 3.90567 34.2487 4.01141 34.6406 4.2229C35.0387 4.42816 35.3528 4.72673 35.583 5.11861C35.8131 5.50426 35.9282 5.96766 35.9282 6.50882C35.9282 6.5648 35.9251 6.63011 35.9189 6.70475C35.9126 6.77317 35.9064 6.83849 35.9002 6.90069H31.8229V6.05163H35.1351L34.5753 6.30355C34.5753 6.0423 34.5224 5.81527 34.4167 5.62244C34.3109 5.42961 34.1648 5.28033 33.9782 5.17459C33.7916 5.06262 33.5739 5.00664 33.325 5.00664C33.0762 5.00664 32.8554 5.06262 32.6626 5.17459C32.476 5.28033 32.3298 5.43272 32.2241 5.63177C32.1183 5.8246 32.0655 6.05474 32.0655 6.32221V6.54614C32.0655 6.81983 32.1245 7.06241 32.2427 7.2739C32.3671 7.47917 32.5382 7.63778 32.7559 7.74974C32.9798 7.85549 33.2411 7.90836 33.5396 7.90836C33.8071 7.90836 34.0404 7.86793 34.2394 7.78706C34.4447 7.7062 34.6313 7.58491 34.7992 7.42318L35.5736 8.26291C35.3435 8.52416 35.0543 8.72631 34.7059 8.86938C34.3576 9.00622 33.9564 9.07464 33.5023 9.07464ZM39.0152 9.07464C38.5984 9.07464 38.2252 8.99378 37.8956 8.83206C37.5721 8.67033 37.3202 8.42463 37.1398 8.09496C36.9594 7.75907 36.8692 7.33299 36.8692 6.81672V3.98031H38.3248V6.60212C38.3248 7.01887 38.4118 7.32677 38.586 7.52582C38.7664 7.71864 39.0183 7.81505 39.3418 7.81505C39.5657 7.81505 39.7647 7.7684 39.9389 7.6751C40.1131 7.57558 40.2499 7.42629 40.3494 7.22725C40.449 7.02198 40.4987 6.76695 40.4987 6.46216V3.98031H41.9542V9H40.5734V7.61912L40.8253 8.02032C40.6573 8.36865 40.4085 8.63301 40.0789 8.81339C39.7554 8.98756 39.4009 9.07464 39.0152 9.07464Z" fill="#86868B"/>
<path d="M193.63 9.07464C193.207 9.07464 192.836 8.98134 192.519 8.79473C192.202 8.60813 191.953 8.32511 191.773 7.94568C191.599 7.56003 191.512 7.07485 191.512 6.49016C191.512 5.89924 191.596 5.41406 191.763 5.03463C191.931 4.6552 192.174 4.37218 192.491 4.18558C192.808 3.99897 193.188 3.90567 193.63 3.90567C194.102 3.90567 194.525 4.01452 194.898 4.23223C195.278 4.44372 195.576 4.74228 195.794 5.12794C196.018 5.51359 196.13 5.96766 196.13 6.49016C196.13 7.01887 196.018 7.47605 195.794 7.86171C195.576 8.24736 195.278 8.54593 194.898 8.75741C194.525 8.9689 194.102 9.07464 193.63 9.07464ZM190.663 10.8101V3.98031H192.053V5.00664L192.025 6.49949L192.118 7.983V10.8101H190.663ZM193.378 7.88037C193.62 7.88037 193.835 7.82439 194.021 7.71242C194.214 7.60046 194.367 7.44184 194.479 7.23658C194.597 7.02509 194.656 6.77628 194.656 6.49016C194.656 6.19781 194.597 5.949 194.479 5.74373C194.367 5.53847 194.214 5.37985 194.021 5.26789C193.835 5.15593 193.62 5.09994 193.378 5.09994C193.135 5.09994 192.917 5.15593 192.724 5.26789C192.532 5.37985 192.379 5.53847 192.267 5.74373C192.155 5.949 192.099 6.19781 192.099 6.49016C192.099 6.77628 192.155 7.02509 192.267 7.23658C192.379 7.44184 192.532 7.60046 192.724 7.71242C192.917 7.82439 193.135 7.88037 193.378 7.88037ZM199.493 9.07464C198.958 9.07464 198.482 8.96268 198.065 8.73875C197.655 8.51483 197.328 8.21004 197.086 7.82439C196.849 7.43251 196.731 6.98777 196.731 6.49016C196.731 5.98632 196.849 5.54158 197.086 5.15593C197.328 4.76405 197.655 4.45927 198.065 4.24156C198.482 4.01763 198.958 3.90567 199.493 3.90567C200.022 3.90567 200.494 4.01763 200.911 4.24156C201.328 4.45927 201.654 4.76094 201.891 5.1466C202.127 5.53225 202.245 5.9801 202.245 6.49016C202.245 6.98777 202.127 7.43251 201.891 7.82439C201.654 8.21004 201.328 8.51483 200.911 8.73875C200.494 8.96268 200.022 9.07464 199.493 9.07464ZM199.493 7.88037C199.736 7.88037 199.953 7.82439 200.146 7.71242C200.339 7.60046 200.491 7.44184 200.603 7.23658C200.715 7.02509 200.771 6.77628 200.771 6.49016C200.771 6.19781 200.715 5.949 200.603 5.74373C200.491 5.53847 200.339 5.37985 200.146 5.26789C199.953 5.15593 199.736 5.09994 199.493 5.09994C199.25 5.09994 199.033 5.15593 198.84 5.26789C198.647 5.37985 198.492 5.53847 198.373 5.74373C198.261 5.949 198.205 6.19781 198.205 6.49016C198.205 6.77628 198.261 7.02509 198.373 7.23658C198.492 7.44184 198.647 7.60046 198.84 7.71242C199.033 7.82439 199.25 7.88037 199.493 7.88037ZM203.218 9V3.98031H204.608V5.39851L204.413 4.98798C204.562 4.63343 204.801 4.36596 205.131 4.18558C205.461 3.99897 205.862 3.90567 206.335 3.90567V5.24923C206.272 5.24301 206.216 5.2399 206.167 5.2399C206.117 5.23368 206.064 5.23057 206.008 5.23057C205.61 5.23057 205.286 5.34564 205.038 5.57579C204.795 5.79972 204.674 6.15116 204.674 6.63011V9H203.218ZM209.426 9.07464C208.835 9.07464 208.375 8.92536 208.045 8.62679C207.715 8.322 207.55 7.87104 207.55 7.2739V2.87001H209.006V7.25524C209.006 7.46672 209.062 7.63156 209.174 7.74974C209.286 7.86171 209.438 7.91769 209.631 7.91769C209.861 7.91769 210.057 7.85549 210.219 7.73108L210.611 8.75741C210.461 8.86316 210.281 8.94402 210.07 9C209.864 9.04976 209.65 9.07464 209.426 9.07464ZM206.776 5.21191V4.09227H210.256V5.21191H206.776ZM211.605 9V3.86835C211.605 3.30231 211.773 2.85135 212.109 2.51546C212.445 2.17335 212.924 2.00229 213.546 2.00229C213.757 2.00229 213.959 2.02406 214.152 2.0676C214.351 2.11115 214.519 2.17957 214.656 2.27287L214.274 3.32719C214.193 3.27121 214.103 3.22767 214.003 3.19657C213.903 3.16547 213.798 3.14992 213.686 3.14992C213.474 3.14992 213.309 3.21212 213.191 3.33652C213.079 3.45471 213.023 3.63509 213.023 3.87768V4.34419L213.061 4.96932V9H211.605ZM210.831 5.21191V4.09227H214.311V5.21191H210.831ZM217.361 9.07464C216.826 9.07464 216.35 8.96268 215.933 8.73875C215.523 8.51483 215.196 8.21004 214.954 7.82439C214.717 7.43251 214.599 6.98777 214.599 6.49016C214.599 5.98632 214.717 5.54158 214.954 5.15593C215.196 4.76405 215.523 4.45927 215.933 4.24156C216.35 4.01763 216.826 3.90567 217.361 3.90567C217.89 3.90567 218.362 4.01763 218.779 4.24156C219.196 4.45927 219.522 4.76094 219.759 5.1466C219.995 5.53225 220.113 5.9801 220.113 6.49016C220.113 6.98777 219.995 7.43251 219.759 7.82439C219.522 8.21004 219.196 8.51483 218.779 8.73875C218.362 8.96268 217.89 9.07464 217.361 9.07464ZM217.361 7.88037C217.603 7.88037 217.821 7.82439 218.014 7.71242C218.207 7.60046 218.359 7.44184 218.471 7.23658C218.583 7.02509 218.639 6.77628 218.639 6.49016C218.639 6.19781 218.583 5.949 218.471 5.74373C218.359 5.53847 218.207 5.37985 218.014 5.26789C217.821 5.15593 217.603 5.09994 217.361 5.09994C217.118 5.09994 216.901 5.15593 216.708 5.26789C216.515 5.37985 216.359 5.53847 216.241 5.74373C216.129 5.949 216.073 6.19781 216.073 6.49016C216.073 6.77628 216.129 7.02509 216.241 7.23658C216.359 7.44184 216.515 7.60046 216.708 7.71242C216.901 7.82439 217.118 7.88037 217.361 7.88037ZM216.493 3.33652L217.753 1.99296H219.32L217.631 3.33652H216.493ZM221.086 9V2.07694H222.542V9H221.086ZM223.892 9V3.98031H225.348V9H223.892ZM224.62 3.28054C224.353 3.28054 224.135 3.20279 223.967 3.04728C223.799 2.89178 223.715 2.69895 223.715 2.46881C223.715 2.23866 223.799 2.04583 223.967 1.89033C224.135 1.73483 224.353 1.65707 224.62 1.65707C224.888 1.65707 225.105 1.73171 225.273 1.881C225.441 2.02406 225.525 2.21067 225.525 2.44082C225.525 2.6834 225.441 2.88556 225.273 3.04728C225.112 3.20279 224.894 3.28054 224.62 3.28054ZM229.087 9.07464C228.552 9.07464 228.077 8.96268 227.66 8.73875C227.249 8.51483 226.923 8.21004 226.68 7.82439C226.444 7.43251 226.326 6.98777 226.326 6.49016C226.326 5.98632 226.444 5.54158 226.68 5.15593C226.923 4.76405 227.249 4.45927 227.66 4.24156C228.077 4.01763 228.552 3.90567 229.087 3.90567C229.616 3.90567 230.089 4.01763 230.506 4.24156C230.922 4.45927 231.249 4.76094 231.485 5.1466C231.722 5.53225 231.84 5.9801 231.84 6.49016C231.84 6.98777 231.722 7.43251 231.485 7.82439C231.249 8.21004 230.922 8.51483 230.506 8.73875C230.089 8.96268 229.616 9.07464 229.087 9.07464ZM229.087 7.88037C229.33 7.88037 229.548 7.82439 229.741 7.71242C229.933 7.60046 230.086 7.44184 230.198 7.23658C230.31 7.02509 230.366 6.77628 230.366 6.49016C230.366 6.19781 230.31 5.949 230.198 5.74373C230.086 5.53847 229.933 5.37985 229.741 5.26789C229.548 5.15593 229.33 5.09994 229.087 5.09994C228.845 5.09994 228.627 5.15593 228.434 5.26789C228.241 5.37985 228.086 5.53847 227.968 5.74373C227.856 5.949 227.8 6.19781 227.8 6.49016C227.8 6.77628 227.856 7.02509 227.968 7.23658C228.086 7.44184 228.241 7.60046 228.434 7.71242C228.627 7.82439 228.845 7.88037 229.087 7.88037Z" fill="#86868B"/>
<path d="M87.4105 111.708C86.8383 111.708 86.3344 111.596 85.899 111.372C85.4698 111.148 85.137 110.843 84.9007 110.457C84.6643 110.066 84.5461 109.621 84.5461 109.123C84.5461 108.619 84.6612 108.175 84.8913 107.789C85.1277 107.397 85.4481 107.092 85.8524 106.875C86.2567 106.651 86.7139 106.539 87.2239 106.539C87.7153 106.539 88.1569 106.644 88.5488 106.856C88.9469 107.061 89.261 107.36 89.4912 107.752C89.7213 108.137 89.8364 108.601 89.8364 109.142C89.8364 109.198 89.8333 109.263 89.8271 109.338C89.8208 109.406 89.8146 109.472 89.8084 109.534H85.7311V108.685H89.0433L88.4835 108.937C88.4835 108.675 88.4306 108.448 88.3249 108.255C88.2191 108.063 88.073 107.913 87.8864 107.808C87.6998 107.696 87.4821 107.64 87.2332 107.64C86.9844 107.64 86.7636 107.696 86.5708 107.808C86.3842 107.913 86.238 108.066 86.1323 108.265C86.0265 108.458 85.9737 108.688 85.9737 108.955V109.179C85.9737 109.453 86.0328 109.695 86.1509 109.907C86.2753 110.112 86.4464 110.271 86.6641 110.383C86.888 110.489 87.1493 110.541 87.4478 110.541C87.7153 110.541 87.9486 110.501 88.1476 110.42C88.3529 110.339 88.5395 110.218 88.7074 110.056L89.4818 110.896C89.2517 111.157 88.9625 111.359 88.6141 111.502C88.2658 111.639 87.8646 111.708 87.4105 111.708ZM90.7099 109.59V108.423H93.3504V109.59H90.7099ZM100.924 106.539C101.322 106.539 101.674 106.62 101.979 106.781C102.29 106.937 102.532 107.179 102.706 107.509C102.887 107.832 102.977 108.249 102.977 108.759V111.633H101.521V108.983C101.521 108.579 101.437 108.28 101.269 108.088C101.101 107.895 100.865 107.798 100.56 107.798C100.349 107.798 100.159 107.848 99.9912 107.948C99.8232 108.041 99.6926 108.184 99.5993 108.377C99.506 108.57 99.4593 108.815 99.4593 109.114V111.633H98.0038V108.983C98.0038 108.579 97.9198 108.28 97.7519 108.088C97.5902 107.895 97.3569 107.798 97.0521 107.798C96.8406 107.798 96.6509 107.848 96.483 107.948C96.315 108.041 96.1844 108.184 96.0911 108.377C95.9978 108.57 95.9511 108.815 95.9511 109.114V111.633H94.4956V106.613H95.8858V107.985L95.6246 107.584C95.7988 107.242 96.0445 106.983 96.3617 106.809C96.6851 106.629 97.0521 106.539 97.4627 106.539C97.9229 106.539 98.3241 106.657 98.6663 106.893C99.0146 107.123 99.2447 107.478 99.3567 107.957L98.8435 107.817C99.0115 107.425 99.2789 107.114 99.6459 106.884C100.019 106.654 100.445 106.539 100.924 106.539ZM107.36 111.633V110.653L107.267 110.439V108.685C107.267 108.374 107.171 108.131 106.978 107.957C106.791 107.783 106.502 107.696 106.11 107.696C105.843 107.696 105.578 107.739 105.317 107.826C105.062 107.907 104.844 108.019 104.664 108.162L104.142 107.145C104.415 106.952 104.745 106.803 105.131 106.697C105.516 106.592 105.908 106.539 106.306 106.539C107.071 106.539 107.665 106.719 108.088 107.08C108.511 107.441 108.723 108.004 108.723 108.769V111.633H107.36ZM105.83 111.708C105.438 111.708 105.103 111.642 104.823 111.512C104.543 111.375 104.328 111.191 104.179 110.961C104.03 110.731 103.955 110.473 103.955 110.187C103.955 109.888 104.026 109.627 104.17 109.403C104.319 109.179 104.552 109.005 104.869 108.881C105.187 108.75 105.6 108.685 106.11 108.685H107.444V109.534H106.269C105.927 109.534 105.69 109.59 105.56 109.702C105.435 109.814 105.373 109.954 105.373 110.122C105.373 110.308 105.445 110.457 105.588 110.569C105.737 110.675 105.939 110.728 106.194 110.728C106.437 110.728 106.654 110.672 106.847 110.56C107.04 110.442 107.18 110.271 107.267 110.047L107.491 110.719C107.385 111.042 107.193 111.288 106.913 111.456C106.633 111.624 106.272 111.708 105.83 111.708ZM110.04 111.633V106.613H111.496V111.633H110.04ZM110.768 105.914C110.5 105.914 110.283 105.836 110.115 105.68C109.947 105.525 109.863 105.332 109.863 105.102C109.863 104.872 109.947 104.679 110.115 104.523C110.283 104.368 110.5 104.29 110.768 104.29C111.035 104.29 111.253 104.365 111.421 104.514C111.589 104.657 111.673 104.844 111.673 105.074C111.673 105.316 111.589 105.519 111.421 105.68C111.259 105.836 111.041 105.914 110.768 105.914ZM112.846 111.633V104.71H114.302V111.633H112.846Z" fill="#86868B"/>
<path d="M136.754 79.4954V74.4757H138.21V79.4954H136.754ZM137.482 73.776C137.215 73.776 136.997 73.6982 136.829 73.5427C136.661 73.3872 136.577 73.1944 136.577 72.9642C136.577 72.7341 136.661 72.5412 136.829 72.3857C136.997 72.2302 137.215 72.1525 137.482 72.1525C137.75 72.1525 137.967 72.2271 138.135 72.3764C138.303 72.5195 138.387 72.7061 138.387 72.9362C138.387 73.1788 138.303 73.381 138.135 73.5427C137.973 73.6982 137.756 73.776 137.482 73.776ZM142.612 74.4011C143.01 74.4011 143.364 74.4819 143.675 74.6437C143.993 74.7992 144.241 75.0418 144.422 75.3714C144.602 75.6949 144.692 76.1116 144.692 76.6217V79.4954H143.237V76.8456C143.237 76.4413 143.147 76.1427 142.966 75.9499C142.792 75.7571 142.543 75.6607 142.22 75.6607C141.99 75.6607 141.781 75.7104 141.595 75.81C141.414 75.9033 141.271 76.0494 141.165 76.2485C141.066 76.4475 141.016 76.7026 141.016 77.0136V79.4954H139.561V74.4757H140.951V75.8659L140.69 75.4461C140.87 75.1102 141.128 74.852 141.464 74.6717C141.8 74.4913 142.182 74.4011 142.612 74.4011ZM147.7 79.5701C147.271 79.5701 146.858 79.5203 146.46 79.4208C146.068 79.315 145.757 79.1844 145.527 79.0289L146.012 77.9839C146.242 78.127 146.512 78.2452 146.823 78.3385C147.141 78.4255 147.452 78.4691 147.756 78.4691C148.092 78.4691 148.329 78.4287 148.466 78.3478C148.609 78.2669 148.68 78.155 148.68 78.0119C148.68 77.8937 148.624 77.8066 148.512 77.7507C148.406 77.6885 148.263 77.6418 148.083 77.6107C147.903 77.5796 147.704 77.5485 147.486 77.5174C147.274 77.4863 147.06 77.4459 146.842 77.3961C146.624 77.3401 146.425 77.2593 146.245 77.1535C146.065 77.0478 145.918 76.9047 145.806 76.7243C145.701 76.5439 145.648 76.3107 145.648 76.0246C145.648 75.7073 145.738 75.4274 145.918 75.1848C146.105 74.9422 146.372 74.7525 146.721 74.6157C147.069 74.4726 147.486 74.4011 147.971 74.4011C148.313 74.4011 148.661 74.4384 149.016 74.513C149.371 74.5877 149.666 74.6965 149.902 74.8396L149.417 75.8753C149.175 75.7322 148.929 75.6358 148.68 75.586C148.438 75.53 148.201 75.5021 147.971 75.5021C147.648 75.5021 147.411 75.5456 147.262 75.6327C147.113 75.7198 147.038 75.8317 147.038 75.9686C147.038 76.093 147.091 76.1863 147.197 76.2485C147.309 76.3107 147.455 76.3604 147.635 76.3978C147.816 76.4351 148.011 76.4693 148.223 76.5004C148.441 76.5253 148.658 76.5657 148.876 76.6217C149.094 76.6777 149.29 76.7585 149.464 76.8643C149.644 76.9638 149.79 77.1038 149.902 77.2841C150.014 77.4583 150.07 77.6885 150.07 77.9746C150.07 78.2856 149.977 78.5624 149.79 78.805C149.604 79.0413 149.333 79.2279 148.979 79.3648C148.63 79.5016 148.204 79.5701 147.7 79.5701ZM153.021 79.5701C152.43 79.5701 151.97 79.4208 151.64 79.1222C151.311 78.8174 151.146 78.3665 151.146 77.7693V73.3654H152.601V77.7507C152.601 77.9621 152.657 78.127 152.769 78.2452C152.881 78.3571 153.033 78.4131 153.226 78.4131C153.456 78.4131 153.652 78.3509 153.814 78.2265L154.206 79.2528C154.057 79.3586 153.876 79.4394 153.665 79.4954C153.46 79.5452 153.245 79.5701 153.021 79.5701ZM150.371 75.7073V74.5877H153.851V75.7073H150.371ZM158.102 79.4954V78.5157L158.009 78.3011V76.547C158.009 76.236 157.912 75.9935 157.72 75.8193C157.533 75.6451 157.244 75.558 156.852 75.558C156.584 75.558 156.32 75.6016 156.059 75.6887C155.804 75.7695 155.586 75.8815 155.406 76.0246L154.883 75.0076C155.157 74.8147 155.486 74.6654 155.872 74.5597C156.258 74.454 156.65 74.4011 157.048 74.4011C157.813 74.4011 158.407 74.5815 158.83 74.9422C159.253 75.303 159.464 75.8659 159.464 76.631V79.4954H158.102ZM156.572 79.5701C156.18 79.5701 155.844 79.5047 155.564 79.3741C155.284 79.2373 155.07 79.0538 154.92 78.8236C154.771 78.5935 154.696 78.3354 154.696 78.0492C154.696 77.7507 154.768 77.4894 154.911 77.2655C155.06 77.0416 155.294 76.8674 155.611 76.743C155.928 76.6124 156.342 76.547 156.852 76.547H158.186V77.3961H157.01C156.668 77.3961 156.432 77.4521 156.301 77.564C156.177 77.676 156.115 77.816 156.115 77.9839C156.115 78.1705 156.186 78.3198 156.329 78.4318C156.479 78.5375 156.681 78.5904 156.936 78.5904C157.178 78.5904 157.396 78.5344 157.589 78.4224C157.782 78.3042 157.922 78.1332 158.009 77.9093L158.233 78.581C158.127 78.9045 157.934 79.1502 157.654 79.3181C157.374 79.4861 157.014 79.5701 156.572 79.5701ZM163.179 81.3801C162.706 81.3801 162.249 81.321 161.807 81.2029C161.372 81.0909 161.008 80.9198 160.715 80.6897L161.294 79.6447C161.505 79.8189 161.773 79.9557 162.096 80.0552C162.426 80.161 162.749 80.2138 163.067 80.2138C163.583 80.2138 163.956 80.0988 164.186 79.8686C164.423 79.6385 164.541 79.2964 164.541 78.8423V78.0865L164.634 76.827L164.615 75.558V74.4757H165.996V78.6557C165.996 79.5887 165.754 80.276 165.269 80.7177C164.783 81.1593 164.087 81.3801 163.179 81.3801ZM162.955 79.2528C162.488 79.2528 162.065 79.1533 161.686 78.9543C161.313 78.749 161.011 78.466 160.781 78.1052C160.557 77.7382 160.445 77.3121 160.445 76.827C160.445 76.3356 160.557 75.9095 160.781 75.5487C161.011 75.1817 161.313 74.8987 161.686 74.6997C162.065 74.5006 162.488 74.4011 162.955 74.4011C163.378 74.4011 163.751 74.4882 164.074 74.6623C164.398 74.8303 164.65 75.0946 164.83 75.4554C165.01 75.81 165.101 76.2671 165.101 76.827C165.101 77.3806 165.01 77.8377 164.83 78.1985C164.65 78.5531 164.398 78.8174 164.074 78.9916C163.751 79.1657 163.378 79.2528 162.955 79.2528ZM163.244 78.0586C163.499 78.0586 163.726 78.0088 163.925 77.9093C164.124 77.8035 164.28 77.6574 164.392 77.4707C164.503 77.2841 164.559 77.0695 164.559 76.827C164.559 76.5781 164.503 76.3636 164.392 76.1832C164.28 75.9966 164.124 75.8535 163.925 75.754C163.726 75.6482 163.499 75.5954 163.244 75.5954C162.989 75.5954 162.762 75.6482 162.563 75.754C162.364 75.8535 162.205 75.9966 162.087 76.1832C161.975 76.3636 161.919 76.5781 161.919 76.827C161.919 77.0695 161.975 77.2841 162.087 77.4707C162.205 77.6574 162.364 77.8035 162.563 77.9093C162.762 78.0088 162.989 78.0586 163.244 78.0586ZM167.351 79.4954V74.4757H168.741V75.8939L168.545 75.4834C168.695 75.1288 168.934 74.8614 169.264 74.681C169.593 74.4944 169.995 74.4011 170.467 74.4011V75.7446C170.405 75.7384 170.349 75.7353 170.299 75.7353C170.25 75.7291 170.197 75.726 170.141 75.726C169.743 75.726 169.419 75.8411 169.17 76.0712C168.928 76.2951 168.807 76.6466 168.807 77.1255V79.4954H167.351ZM174.084 79.4954V78.5157L173.99 78.3011V76.547C173.99 76.236 173.894 75.9935 173.701 75.8193C173.515 75.6451 173.225 75.558 172.834 75.558C172.566 75.558 172.302 75.6016 172.04 75.6887C171.785 75.7695 171.568 75.8815 171.387 76.0246L170.865 75.0076C171.139 74.8147 171.468 74.6654 171.854 74.5597C172.239 74.454 172.631 74.4011 173.029 74.4011C173.795 74.4011 174.389 74.5815 174.812 74.9422C175.235 75.303 175.446 75.8659 175.446 76.631V79.4954H174.084ZM172.554 79.5701C172.162 79.5701 171.826 79.5047 171.546 79.3741C171.266 79.2373 171.051 79.0538 170.902 78.8236C170.753 78.5935 170.678 78.3354 170.678 78.0492C170.678 77.7507 170.75 77.4894 170.893 77.2655C171.042 77.0416 171.275 76.8674 171.593 76.743C171.91 76.6124 172.323 76.547 172.834 76.547H174.168V77.3961H172.992C172.65 77.3961 172.414 77.4521 172.283 77.564C172.159 77.676 172.096 77.816 172.096 77.9839C172.096 78.1705 172.168 78.3198 172.311 78.4318C172.46 78.5375 172.662 78.5904 172.917 78.5904C173.16 78.5904 173.378 78.5344 173.571 78.4224C173.763 78.3042 173.903 78.1332 173.99 77.9093L174.214 78.581C174.109 78.9045 173.916 79.1502 173.636 79.3181C173.356 79.4861 172.995 79.5701 172.554 79.5701ZM183.192 74.4011C183.59 74.4011 183.941 74.4819 184.246 74.6437C184.557 74.7992 184.8 75.0418 184.974 75.3714C185.154 75.6949 185.245 76.1116 185.245 76.6217V79.4954H183.789V76.8456C183.789 76.4413 183.705 76.1427 183.537 75.9499C183.369 75.7571 183.133 75.6607 182.828 75.6607C182.617 75.6607 182.427 75.7104 182.259 75.81C182.091 75.9033 181.96 76.0463 181.867 76.2391C181.774 76.432 181.727 76.6777 181.727 76.9762V79.4954H180.272V76.8456C180.272 76.4413 180.188 76.1427 180.02 75.9499C179.858 75.7571 179.625 75.6607 179.32 75.6607C179.108 75.6607 178.919 75.7104 178.751 75.81C178.583 75.9033 178.452 76.0463 178.359 76.2391C178.265 76.432 178.219 76.6777 178.219 76.9762V79.4954H176.763V74.4757H178.154V75.8473L177.892 75.4461C178.066 75.104 178.312 74.8458 178.629 74.6717C178.953 74.4913 179.32 74.4011 179.73 74.4011C180.191 74.4011 180.592 74.5193 180.934 74.7556C181.282 74.9858 181.512 75.3403 181.624 75.8193L181.111 75.6793C181.279 75.2875 181.547 74.9765 181.914 74.7463C182.287 74.5162 182.713 74.4011 183.192 74.4011Z" fill="#86868B"/>
<path d="M1.09033 50V34.3672H6.896V37.1709H7.00928C7.40576 35.1318 8.60938 34.0273 10.4785 34.0273C10.9741 34.0273 11.4414 34.0981 11.8804 34.2539V39.1392C11.3848 38.9268 10.79 38.8135 10.1953 38.8135C8.01465 38.8135 6.896 39.918 6.896 42.0986V50H1.09033ZM17.5728 50.1982C14.415 50.1982 12.2627 48.1592 12.2627 45.4688V45.4546C12.2627 42.4385 14.585 40.7817 18.748 40.4985L22.0332 40.2861V39.6489C22.0332 38.7427 21.4526 38.1763 20.2632 38.1763C19.0737 38.1763 18.4082 38.7002 18.2808 39.3374L18.2524 39.479H13.0698L13.084 39.2949C13.3247 36.1089 16.0293 34.0273 20.5889 34.0273C24.936 34.0273 27.8389 36.1938 27.8389 39.3657V50H22.0332V47.876H21.9199C21.042 49.3628 19.5835 50.1982 17.5728 50.1982ZM17.9268 45.0439C17.9268 45.8652 18.6206 46.3042 19.6968 46.3042C21.0845 46.3042 22.0332 45.5396 22.0332 44.5059V43.5146L19.7109 43.6846C18.479 43.7695 17.9268 44.251 17.9268 45.0298V45.0439ZM31.4355 50V38.5586H29.3682V34.3672H31.4355V33.7583C31.4355 30.6431 32.9507 29.2271 37.397 29.2271C38.374 29.2271 39.4785 29.3403 40.0732 29.4678V32.937C39.8042 32.8804 39.3936 32.8521 39.0112 32.8521C37.6235 32.8521 37.0713 33.3335 37.0713 34.0415V34.3672H40.0732V38.5586H37.2412V50H31.4355ZM45.8931 50.1982C42.7354 50.1982 40.583 48.1592 40.583 45.4688V45.4546C40.583 42.4385 42.9053 40.7817 47.0684 40.4985L50.3535 40.2861V39.6489C50.3535 38.7427 49.7729 38.1763 48.5835 38.1763C47.394 38.1763 46.7285 38.7002 46.6011 39.3374L46.5728 39.479H41.3901L41.4043 39.2949C41.645 36.1089 44.3496 34.0273 48.9092 34.0273C53.2563 34.0273 56.1592 36.1938 56.1592 39.3657V50H50.3535V47.876H50.2402C49.3623 49.3628 47.9038 50.1982 45.8931 50.1982ZM46.2471 45.0439C46.2471 45.8652 46.9409 46.3042 48.0171 46.3042C49.4048 46.3042 50.3535 45.5396 50.3535 44.5059V43.5146L48.0312 43.6846C46.7993 43.7695 46.2471 44.251 46.2471 45.0298V45.0439ZM66.1138 50.3398C61.0444 50.3398 57.9575 47.2671 57.9575 42.1836V42.1694C57.9575 37.0859 61.0444 34.0273 65.9297 34.0273C70.8008 34.0273 73.916 37.0859 73.916 41.8438V43.4863H63.6216C63.6782 45.2847 64.6411 46.3467 66.2271 46.3467C67.7563 46.3467 68.5068 45.4263 68.6626 44.9731L68.6768 44.9307H73.8452L73.8027 45.1147C73.3354 47.1538 71.5513 50.3398 66.1138 50.3398ZM66.0854 38.0205C64.8252 38.0205 63.9473 38.8135 63.6924 40.2012H68.4785C68.2236 38.8135 67.3457 38.0205 66.0854 38.0205ZM75.7568 50V29.5669H81.5625V50H75.7568ZM96.6147 53.5542C88.855 53.5542 83.6016 48.7964 83.6016 41.334V41.3198C83.6016 34.1548 88.6567 29.2837 95.9634 29.2837C103.043 29.2837 107.575 33.6309 107.575 40.2578V40.272C107.575 44.6475 105.536 47.4937 102.392 47.4937C100.679 47.4937 99.2627 46.7432 98.5547 45.4546L98.3423 45.0723H98.229C97.436 46.7432 96.0767 47.6211 94.3208 47.6211C91.4746 47.6211 89.4922 45.1572 89.4922 41.3623V41.3481C89.4922 37.8647 91.5737 35.3867 94.3066 35.3867C95.9351 35.3867 97.1953 36.208 97.79 37.5815H97.9033V35.7407H101.5V42.0845C101.5 43.543 101.953 44.3784 102.746 44.3784C103.737 44.3784 104.375 42.8491 104.375 40.4844V40.4702C104.375 35.2734 101.188 32.0024 95.9634 32.0024C90.4834 32.0024 86.8018 35.7266 86.8018 41.3481V41.3623C86.8018 47.3379 90.6958 50.7646 97.0112 50.7646C98.6396 50.7646 100.254 50.5098 101.797 50V52.7471C100.141 53.2993 98.4556 53.5542 96.6147 53.5542ZM95.5386 44.4209C96.6714 44.4209 97.4077 43.3306 97.4077 41.4897V41.4331C97.4077 39.6631 96.6572 38.5869 95.5386 38.5869C94.3916 38.5869 93.6553 39.6489 93.6553 41.4756V41.4897C93.6553 43.3447 94.3916 44.4209 95.5386 44.4209ZM115.632 50.3398C111.752 50.3398 109.529 47.3945 109.529 42.1836V42.1694C109.529 36.9302 111.724 34.0273 115.66 34.0273C117.897 34.0273 119.568 35.2026 120.305 37.1851H120.418V29.5669H126.224V50H120.418V47.3237H120.305C119.597 49.207 117.897 50.3398 115.632 50.3398ZM117.912 45.667C119.441 45.667 120.418 44.3784 120.418 42.1978V42.1836C120.418 39.9888 119.427 38.7002 117.912 38.7002C116.411 38.7002 115.419 39.9888 115.419 42.1694V42.1836C115.419 44.3359 116.396 45.667 117.912 45.667ZM136.178 50.3398C131.109 50.3398 128.022 47.2671 128.022 42.1836V42.1694C128.022 37.0859 131.109 34.0273 135.994 34.0273C140.865 34.0273 143.98 37.0859 143.98 41.8438V43.4863H133.686C133.743 45.2847 134.706 46.3467 136.292 46.3467C137.821 46.3467 138.571 45.4263 138.727 44.9731L138.741 44.9307H143.91L143.867 45.1147C143.4 47.1538 141.616 50.3398 136.178 50.3398ZM136.15 38.0205C134.89 38.0205 134.012 38.8135 133.757 40.2012H138.543C138.288 38.8135 137.41 38.0205 136.15 38.0205ZM149.036 50L143.952 34.3672H150.211L152.477 45.313H152.59L154.785 34.3672H160.859L155.847 50H149.036ZM161.808 50V34.3672H167.614V37.1709H167.727C168.124 35.1318 169.327 34.0273 171.196 34.0273C171.692 34.0273 172.159 34.0981 172.598 34.2539V39.1392C172.103 38.9268 171.508 38.8135 170.913 38.8135C168.732 38.8135 167.614 39.918 167.614 42.0986V50H161.808ZM176.889 32.9653C175.26 32.9653 174.014 31.7051 174.014 30.2041C174.014 28.7031 175.26 27.4429 176.889 27.4429C178.517 27.4429 179.763 28.7031 179.763 30.2041C179.763 31.7051 178.517 32.9653 176.889 32.9653ZM173.986 50V34.3672H179.792V50H173.986ZM192.635 50.3398C190.369 50.3398 188.67 49.207 187.962 47.3237H187.849V50H182.043V29.5669H187.849V37.1851H187.962C188.698 35.2026 190.369 34.0273 192.606 34.0273C196.543 34.0273 198.738 36.9302 198.738 42.1694V42.1836C198.738 47.3945 196.515 50.3398 192.635 50.3398ZM190.355 45.667C191.87 45.667 192.847 44.3359 192.847 42.1836V42.1694C192.847 39.9888 191.856 38.7002 190.355 38.7002C188.84 38.7002 187.849 39.9888 187.849 42.1836V42.1978C187.849 44.3784 188.826 45.667 190.355 45.667ZM208.282 50.3398C203.212 50.3398 200.125 47.2671 200.125 42.1836V42.1694C200.125 37.0859 203.212 34.0273 208.098 34.0273C212.969 34.0273 216.084 37.0859 216.084 41.8438V43.4863H205.79C205.846 45.2847 206.809 46.3467 208.395 46.3467C209.924 46.3467 210.675 45.4263 210.831 44.9731L210.845 44.9307H216.013L215.971 45.1147C215.503 47.1538 213.719 50.3398 208.282 50.3398ZM208.253 38.0205C206.993 38.0205 206.115 38.8135 205.86 40.2012H210.646C210.392 38.8135 209.514 38.0205 208.253 38.0205ZM220.757 32.9653C219.128 32.9653 217.882 31.7051 217.882 30.2041C217.882 28.7031 219.128 27.4429 220.757 27.4429C222.385 27.4429 223.631 28.7031 223.631 30.2041C223.631 31.7051 222.385 32.9653 220.757 32.9653ZM217.854 50V34.3672H223.66V50H217.854ZM225.84 50V34.3672H231.646V37.1709H231.759C232.156 35.1318 233.359 34.0273 235.229 34.0273C235.724 34.0273 236.191 34.0981 236.63 34.2539V39.1392C236.135 38.9268 235.54 38.8135 234.945 38.8135C232.765 38.8135 231.646 39.918 231.646 42.0986V50H225.84ZM245.551 50.3398C240.425 50.3398 237.338 47.3945 237.338 42.1978V42.1694C237.338 37.0718 240.539 34.0273 245.551 34.0273C250.578 34.0273 253.778 37.0293 253.778 42.1694V42.1978C253.778 47.4087 250.663 50.3398 245.551 50.3398ZM245.565 46.0352C247.01 46.0352 247.888 44.6616 247.888 42.1978V42.1694C247.888 39.748 246.967 38.332 245.551 38.332C244.121 38.332 243.229 39.748 243.229 42.1694V42.1978C243.229 44.6758 244.093 46.0352 245.565 46.0352ZM258.352 50.2832C256.695 50.2832 255.378 48.9663 255.378 47.3096C255.378 45.6528 256.695 44.3359 258.352 44.3359C260.009 44.3359 261.326 45.6528 261.326 47.3096C261.326 48.9663 260.009 50.2832 258.352 50.2832ZM270.643 50.3398C265.574 50.3398 262.487 47.2812 262.487 42.1694V42.1553C262.487 37.0859 265.588 34.0273 270.601 34.0273C275.16 34.0273 278.233 36.6753 278.233 40.7109V40.7959H272.951L272.937 40.6543C272.795 39.2383 271.96 38.332 270.714 38.332C269.213 38.332 268.377 39.7056 268.377 42.1694V42.1836C268.377 44.6899 269.17 46.0352 270.714 46.0352C272.017 46.0352 272.795 45.1431 272.937 43.7129L272.951 43.5713H278.233V43.6562C278.233 47.4795 275.429 50.3398 270.643 50.3398ZM287.777 50.3398C282.651 50.3398 279.564 47.3945 279.564 42.1978V42.1694C279.564 37.0718 282.764 34.0273 287.777 34.0273C292.804 34.0273 296.004 37.0293 296.004 42.1694V42.1978C296.004 47.4087 292.889 50.3398 287.777 50.3398ZM287.791 46.0352C289.235 46.0352 290.113 44.6616 290.113 42.1978V42.1694C290.113 39.748 289.193 38.332 287.777 38.332C286.347 38.332 285.455 39.748 285.455 42.1694V42.1978C285.455 44.6758 286.318 46.0352 287.791 46.0352ZM297.802 50V34.3672H303.608V37.3267H303.721C304.288 35.3159 305.987 34.0273 308.167 34.0273C310.419 34.0273 312.019 35.2734 312.401 37.4683H312.515C313.039 35.4009 314.936 34.0273 317.315 34.0273C320.359 34.0273 322.455 36.2222 322.455 39.4082V50H316.649V40.9233C316.649 39.4365 316.012 38.7002 314.752 38.7002C313.577 38.7002 312.883 39.5356 312.883 40.9092V50H307.375V40.9375C307.375 39.4507 306.737 38.7002 305.491 38.7002C304.316 38.7002 303.608 39.5498 303.608 40.9092V50H297.802Z" fill="url(#paint0_linear_1846_203)"/>
<path d="M1 99.3103H323M1.52787 99.8276L1.52787 59.4828M322.472 99.8276V55.3448M1 19.6552H80.1803M110.797 19.6552L323 19.6552M83.3475 67.2414L254.377 67.2414M1.52787 27.4138L1.52787 19.1379M79.6525 27.4138V19.1379M37.423 20.1724V15M211.62 20.1724V15M162 72.931V67.7586M100.767 105V99.8276M111.325 27.4138V19.1379M82.8197 67.7586V59.4828M253.849 67.7586V59.4828M322.472 27.4138V19.1379" stroke="#86868B" stroke-width="1.25" stroke-linejoin="round"/>
<defs>
<linearGradient id="paint0_linear_1846_203" x1="5.07115e-06" y1="67.5" x2="324" y2="4.00001" gradientUnits="userSpaceOnUse">
<stop stop-color="#9580FF"/>
<stop offset="1" stop-color="#FF80BF"/>
</linearGradient>
</defs>
</svg>
