<svg width="28" height="28" viewBox="0 0 28 28" fill="none" xmlns="http://www.w3.org/2000/svg">
<circle cx="14" cy="14" r="10" fill="white"/>
<path d="M27.8906 13.9453C27.8906 21.5605 21.5605 27.8906 13.9453 27.8906C6.31641 27.8906 3.32873e-07 21.5742 0 13.959C-3.3347e-07 6.33008 6.31641 3.3347e-07 13.9453 0C21.5605 -3.32872e-07 27.8906 6.31641 27.8906 13.9453ZM13.959 20.6172C14.6562 20.6172 15.1211 20.125 15.1211 19.4141V15.1348H19.4141C20.1113 15.1348 20.6172 14.6562 20.6172 13.959C20.6172 13.248 20.125 12.7559 19.4141 12.7559H15.1211V8.46289C15.1211 7.76562 14.6562 7.25977 13.959 7.25977C13.248 7.25977 12.7559 7.76562 12.7559 8.46289V12.7559H8.47656C7.76562 12.7559 7.25977 13.248 7.25977 13.959C7.25977 14.6562 7.76562 15.1348 8.47656 15.1348H12.7559V19.4141C12.7559 20.125 13.248 20.6172 13.959 20.6172Z" fill="black"/>
</svg>
