<svg width="288" height="174" viewBox="0 0 288 174" fill="none" xmlns="http://www.w3.org/2000/svg">
<path d="M3.55957 126H2.55957V127H3.55957V126ZM3.55957 85.1338V84.1338H2.55957V85.1338H3.55957ZM12.1123 118.92H11.1123V119.92H12.1123V118.92ZM12.1123 92.1855V91.1855H11.1123V92.1855H12.1123ZM4.55957 126V85.1338H2.55957V126H4.55957ZM3.55957 86.1338H19.1641V84.1338H3.55957V86.1338ZM19.1641 86.1338C25.0824 86.1338 29.6681 87.8898 32.7771 91.0878C35.8898 94.2895 37.6484 99.0661 37.6484 105.354H39.6484C39.6484 98.7005 37.7821 93.3668 34.2111 89.6937C30.6366 86.0169 25.4801 84.1338 19.1641 84.1338V86.1338ZM37.6484 105.354V105.411H39.6484V105.354H37.6484ZM37.6484 105.411C37.6484 111.716 35.8954 116.59 32.7786 119.882C29.6687 123.167 25.0841 125 19.1641 125V127C25.5067 127 30.6643 125.024 34.2309 121.257C37.7906 117.497 39.6484 112.077 39.6484 105.411H37.6484ZM19.1641 125H3.55957V127H19.1641V125ZM12.1123 119.92H18.1445V117.92H12.1123V119.92ZM18.1445 119.92C22.1759 119.92 25.4278 118.688 27.654 116.153C29.8609 113.64 30.9258 109.997 30.9258 105.439H28.9258C28.9258 109.718 27.9233 112.815 26.1512 114.833C24.3984 116.829 21.7596 117.92 18.1445 117.92V119.92ZM30.9258 105.439V105.383H28.9258V105.439H30.9258ZM30.9258 105.383C30.9258 100.965 29.8177 97.3946 27.5933 94.9191C25.3543 92.4274 22.1109 91.1855 18.1445 91.1855V93.1855C21.6831 93.1855 24.3303 94.2801 26.1057 96.2559C27.8956 98.2479 28.9258 101.276 28.9258 105.383H30.9258ZM18.1445 91.1855H12.1123V93.1855H18.1445V91.1855ZM11.1123 92.1855V118.92H13.1123V92.1855H11.1123ZM71.415 112.774V113.774H72.415V112.774H71.415ZM50.5146 112.774V111.774H49.497L49.5148 112.792L50.5146 112.774ZM63.5137 116.881L64.4575 117.211L64.46 117.204L64.4624 117.197L63.5137 116.881ZM63.5703 116.711V115.711H62.8496L62.6216 116.395L63.5703 116.711ZM71.1602 116.711L72.1249 116.974L72.4694 115.711H71.1602V116.711ZM71.0752 117.022L70.1104 116.759L70.1025 116.788L70.0963 116.818L71.0752 117.022ZM50.5996 107.563L49.6081 107.434L49.46 108.563H50.5996V107.563ZM63.4854 107.563V108.563H64.6143L64.478 107.443L63.4854 107.563ZM57.2832 125.623C52.862 125.623 49.4128 124.194 47.0645 121.706C44.7096 119.212 43.3584 115.543 43.3584 110.877H41.3584C41.3584 115.924 42.8251 120.129 45.6103 123.079C48.4021 126.036 52.4154 127.623 57.2832 127.623V125.623ZM43.3584 110.877V110.849H41.3584V110.877H43.3584ZM43.3584 110.849C43.3584 106.214 44.7221 102.517 47.0515 99.9893C49.373 97.47 52.7392 96.0176 56.9434 96.0176V94.0176C52.2549 94.0176 48.3286 95.652 45.5808 98.634C42.8409 101.607 41.3584 105.826 41.3584 110.849H43.3584ZM56.9434 96.0176C61.1546 96.0176 64.4952 97.4397 66.7867 99.8671C69.0843 102.301 70.415 105.839 70.415 110.226H72.415C72.415 105.436 70.9562 101.37 68.2411 98.4942C65.5199 95.6116 61.6247 94.0176 56.9434 94.0176V96.0176ZM70.415 110.226V112.774H72.415V110.226H70.415ZM71.415 111.774H50.5146V113.774H71.415V111.774ZM49.5148 112.792C49.5603 115.384 50.2911 117.561 51.6941 119.101C53.1094 120.655 55.1084 121.449 57.4531 121.449V119.449C55.5781 119.449 54.1504 118.828 53.1726 117.754C52.1826 116.668 51.554 115.007 51.5145 112.757L49.5148 112.792ZM57.4531 121.449C61.2308 121.449 63.7079 119.353 64.4575 117.211L62.5698 116.551C62.13 117.807 60.4724 119.449 57.4531 119.449V121.449ZM64.4624 117.197L64.519 117.027L62.6216 116.395L62.565 116.565L64.4624 117.197ZM63.5703 117.711H71.1602V115.711H63.5703V117.711ZM70.1954 116.448L70.1104 116.759L72.04 117.286L72.1249 116.974L70.1954 116.448ZM70.0963 116.818C69.2572 120.835 65.4694 125.623 57.2832 125.623V127.623C66.4291 127.623 71.024 122.159 72.0541 117.227L70.0963 116.818ZM57.085 100.191C55.1535 100.191 53.4114 100.84 52.0786 102.115C50.752 103.383 49.9003 105.203 49.6081 107.434L51.5911 107.693C51.837 105.817 52.5287 104.451 53.4607 103.56C54.3865 102.675 55.618 102.191 57.085 102.191V100.191ZM50.5996 108.563H63.4854V106.563H50.5996V108.563ZM64.478 107.443C64.2027 105.179 63.3854 103.352 62.0734 102.086C60.7534 100.812 59.0196 100.191 57.085 100.191V102.191C58.5771 102.191 59.7886 102.661 60.6847 103.525C61.5887 104.398 62.2582 105.757 62.4927 107.684L64.478 107.443ZM82.5732 126L81.6282 126.327L81.8611 127H82.5732V126ZM72.0664 95.6406V94.6406H70.6621L71.1214 95.9677L72.0664 95.6406ZM80.9023 95.6406L81.8665 95.3753L81.6643 94.6406H80.9023V95.6406ZM87.2461 118.693L86.2819 118.959L86.4841 119.693H87.2461V118.693ZM87.416 118.693V119.693H88.1807L88.3811 118.955L87.416 118.693ZM93.6748 95.6406V94.6406H92.9101L92.7097 95.3786L93.6748 95.6406ZM102.312 95.6406L103.258 95.9653L103.713 94.6406H102.312V95.6406ZM91.8906 126V127H92.6046L92.8364 126.325L91.8906 126ZM83.5182 125.673L73.0114 95.3136L71.1214 95.9677L81.6282 126.327L83.5182 125.673ZM72.0664 96.6406H80.9023V94.6406H72.0664V96.6406ZM79.9382 95.9059L86.2819 118.959L88.2103 118.428L81.8665 95.3753L79.9382 95.9059ZM87.2461 119.693H87.416V117.693H87.2461V119.693ZM88.3811 118.955L94.6399 95.9026L92.7097 95.3786L86.451 118.431L88.3811 118.955ZM93.6748 96.6406H102.312V94.6406H93.6748V96.6406ZM101.367 95.3159L90.9448 125.675L92.8364 126.325L103.258 95.9653L101.367 95.3159ZM91.8906 125H82.5732V127H91.8906V125ZM105.909 126H104.909V127H105.909V126ZM105.909 85.1338V84.1338H104.909V85.1338H105.909ZM130.01 109.914L129.643 108.984L128.598 109.395L129.128 110.386L130.01 109.914ZM138.619 126V127H140.289L139.501 125.528L138.619 126ZM128.934 126L128.044 126.457L128.323 127H128.934V126ZM121.315 111.188L122.205 110.731L121.926 110.188H121.315V111.188ZM114.462 111.188V110.188H113.462V111.188H114.462ZM114.462 126V127H115.462V126H114.462ZM114.462 104.703H113.462V105.703H114.462V104.703ZM114.462 91.8174V90.8174H113.462V91.8174H114.462ZM106.909 126V85.1338H104.909V126H106.909ZM105.909 86.1338H122.788V84.1338H105.909V86.1338ZM122.788 86.1338C127.207 86.1338 130.596 87.306 132.869 89.3409C135.126 91.3627 136.401 94.3423 136.401 98.2178H138.401C138.401 93.8804 136.958 90.318 134.203 87.851C131.462 85.3971 127.545 84.1338 122.788 84.1338V86.1338ZM136.401 98.2178V98.2744H138.401V98.2178H136.401ZM136.401 98.2744C136.401 103.296 133.747 107.368 129.643 108.984L130.376 110.845C135.335 108.892 138.401 104.015 138.401 98.2744H136.401ZM129.128 110.386L137.737 126.472L139.501 125.528L130.891 109.442L129.128 110.386ZM138.619 125H128.934V127H138.619V125ZM129.823 125.543L122.205 110.731L120.426 111.646L128.044 126.457L129.823 125.543ZM121.315 110.188H114.462V112.188H121.315V110.188ZM113.462 111.188V126H115.462V111.188H113.462ZM114.462 125H105.909V127H114.462V125ZM114.462 105.703H121.854V103.703H114.462V105.703ZM121.854 105.703C124.162 105.703 126.132 105.047 127.532 103.723C128.939 102.393 129.65 100.502 129.65 98.2744H127.65C127.65 100.068 127.088 101.391 126.158 102.27C125.221 103.156 123.793 103.703 121.854 103.703V105.703ZM129.65 98.2744V98.2178H127.65V98.2744H129.65ZM129.65 98.2178C129.65 96.0241 128.889 94.1441 127.457 92.8184C126.034 91.5002 124.045 90.8174 121.74 90.8174V92.8174C123.656 92.8174 125.121 93.3807 126.098 94.2856C127.067 95.183 127.65 96.5033 127.65 98.2178H129.65ZM121.74 90.8174H114.462V92.8174H121.74V90.8174ZM113.462 91.8174V104.703H115.462V91.8174H113.462ZM142.527 126H141.527V127H142.527V126ZM142.527 95.6406V94.6406H141.527V95.6406H142.527ZM150.797 95.6406H151.797V94.6406H150.797V95.6406ZM150.797 126V127H151.797V126H150.797ZM146.662 90.7324C144.709 90.7324 143.244 89.2134 143.244 87.4277H141.244C141.244 90.3433 143.63 92.7324 146.662 92.7324V90.7324ZM143.244 87.4277C143.244 85.6421 144.709 84.123 146.662 84.123V82.123C143.63 82.123 141.244 84.5122 141.244 87.4277H143.244ZM146.662 84.123C148.615 84.123 150.08 85.6421 150.08 87.4277H152.08C152.08 84.5122 149.694 82.123 146.662 82.123V84.123ZM150.08 87.4277C150.08 89.2134 148.615 90.7324 146.662 90.7324V92.7324C149.694 92.7324 152.08 90.3433 152.08 87.4277H150.08ZM143.527 126V95.6406H141.527V126H143.527ZM142.527 96.6406H150.797V94.6406H142.527V96.6406ZM149.797 95.6406V126H151.797V95.6406H149.797ZM150.797 125H142.527V127H150.797V125ZM164.985 120.817L165.895 120.402L165.628 119.817H164.985V120.817ZM164.815 120.817V119.817H163.815V120.817H164.815ZM164.815 126V127H165.815V126H164.815ZM156.546 126H155.546V127H156.546V126ZM156.546 85.1338V84.1338H155.546V85.1338H156.546ZM164.815 85.1338H165.815V84.1338H164.815V85.1338ZM164.815 100.908H163.815V101.908H164.815V100.908ZM164.985 100.908V101.908H165.63L165.896 101.321L164.985 100.908ZM174.331 125.623C170.349 125.623 167.37 123.631 165.895 120.402L164.076 121.233C165.886 125.197 169.591 127.623 174.331 127.623V125.623ZM164.985 119.817H164.815V121.817H164.985V119.817ZM163.815 120.817V126H165.815V120.817H163.815ZM164.815 125H156.546V127H164.815V125ZM157.546 126V85.1338H155.546V126H157.546ZM156.546 86.1338H164.815V84.1338H156.546V86.1338ZM163.815 85.1338V100.908H165.815V85.1338H163.815ZM164.815 101.908H164.985V99.9082H164.815V101.908ZM165.896 101.321C167.401 98.0061 170.409 96.0176 174.359 96.0176V94.0176C169.644 94.0176 165.912 96.4471 164.075 100.495L165.896 101.321ZM174.359 96.0176C177.885 96.0176 180.673 97.3671 182.605 99.8174C184.558 102.296 185.707 105.996 185.707 110.792H187.707C187.707 105.704 186.491 101.517 184.175 98.5793C181.837 95.6133 178.452 94.0176 174.359 94.0176V96.0176ZM185.707 110.792V110.82H187.707V110.792H185.707ZM185.707 110.82C185.707 115.602 184.559 119.309 182.6 121.799C180.665 124.261 177.869 125.623 174.331 125.623V127.623C178.44 127.623 181.832 126.012 184.173 123.036C186.491 120.088 187.707 115.895 187.707 110.82H185.707ZM171.584 120.77C173.948 120.77 175.923 119.768 177.279 117.967C178.612 116.196 179.296 113.725 179.296 110.82H177.296C177.296 113.438 176.677 115.442 175.681 116.764C174.707 118.058 173.327 118.77 171.584 118.77V120.77ZM179.296 110.82V110.792H177.296V110.82H179.296ZM179.296 110.792C179.296 107.874 178.613 105.408 177.277 103.646C175.918 101.854 173.942 100.871 171.584 100.871V102.871C173.332 102.871 174.712 103.574 175.683 104.854C176.676 106.165 177.296 108.159 177.296 110.792H179.296ZM171.584 100.871C169.27 100.871 167.288 101.885 165.91 103.671C164.549 105.436 163.815 107.9 163.815 110.792H165.815C165.815 108.218 166.469 106.221 167.494 104.893C168.503 103.585 169.905 102.871 171.584 102.871V100.871ZM163.815 110.792V110.82H165.815V110.792H163.815ZM163.815 110.82C163.815 113.723 164.54 116.194 165.898 117.964C167.274 119.757 169.257 120.77 171.584 120.77V118.77C169.89 118.77 168.489 118.055 167.485 116.747C166.464 115.416 165.815 113.412 165.815 110.82H163.815ZM218.907 112.774V113.774H219.907V112.774H218.907ZM198.007 112.774V111.774H196.989L197.007 112.792L198.007 112.774ZM211.006 116.881L211.95 117.211L211.952 117.204L211.955 117.197L211.006 116.881ZM211.062 116.711V115.711H210.342L210.114 116.395L211.062 116.711ZM218.652 116.711L219.617 116.974L219.962 115.711H218.652V116.711ZM218.567 117.022L217.603 116.759L217.595 116.788L217.589 116.818L218.567 117.022ZM198.092 107.563L197.1 107.434L196.952 108.563H198.092V107.563ZM210.978 107.563V108.563H212.107L211.97 107.443L210.978 107.563ZM204.775 125.623C200.354 125.623 196.905 124.194 194.557 121.706C192.202 119.212 190.851 115.543 190.851 110.877H188.851C188.851 115.924 190.317 120.129 193.102 123.079C195.894 126.036 199.908 127.623 204.775 127.623V125.623ZM190.851 110.877V110.849H188.851V110.877H190.851ZM190.851 110.849C190.851 106.214 192.214 102.517 194.544 99.9893C196.865 97.47 200.231 96.0176 204.436 96.0176V94.0176C199.747 94.0176 195.821 95.652 193.073 98.634C190.333 101.607 188.851 105.826 188.851 110.849H190.851ZM204.436 96.0176C208.647 96.0176 211.987 97.4397 214.279 99.8671C216.577 102.301 217.907 105.839 217.907 110.226H219.907C219.907 105.436 218.448 101.37 215.733 98.4942C213.012 95.6116 209.117 94.0176 204.436 94.0176V96.0176ZM217.907 110.226V112.774H219.907V110.226H217.907ZM218.907 111.774H198.007V113.774H218.907V111.774ZM197.007 112.792C197.052 115.384 197.783 117.561 199.186 119.101C200.602 120.655 202.601 121.449 204.945 121.449V119.449C203.07 119.449 201.643 118.828 200.665 117.754C199.675 116.668 199.046 115.007 199.007 112.757L197.007 112.792ZM204.945 121.449C208.723 121.449 211.2 119.353 211.95 117.211L210.062 116.551C209.622 117.807 207.965 119.449 204.945 119.449V121.449ZM211.955 117.197L212.011 117.027L210.114 116.395L210.057 116.565L211.955 117.197ZM211.062 117.711H218.652V115.711H211.062V117.711ZM217.688 116.448L217.603 116.759L219.532 117.286L219.617 116.974L217.688 116.448ZM217.589 116.818C216.749 120.835 212.962 125.623 204.775 125.623V127.623C213.921 127.623 218.516 122.159 219.546 117.227L217.589 116.818ZM204.577 100.191C202.646 100.191 200.904 100.84 199.571 102.115C198.244 103.383 197.393 105.203 197.1 107.434L199.083 107.693C199.329 105.817 200.021 104.451 200.953 103.56C201.879 102.675 203.11 102.191 204.577 102.191V100.191ZM198.092 108.563H210.978V106.563H198.092V108.563ZM211.97 107.443C211.695 105.179 210.878 103.352 209.566 102.086C208.246 100.812 206.512 100.191 204.577 100.191V102.191C206.069 102.191 207.281 102.661 208.177 103.525C209.081 104.398 209.75 105.757 209.985 107.684L211.97 107.443ZM223.354 126H222.354V127H223.354V126ZM223.354 95.6406V94.6406H222.354V95.6406H223.354ZM231.623 95.6406H232.623V94.6406H231.623V95.6406ZM231.623 126V127H232.623V126H231.623ZM227.488 90.7324C225.536 90.7324 224.07 89.2134 224.07 87.4277H222.07C222.07 90.3433 224.457 92.7324 227.488 92.7324V90.7324ZM224.07 87.4277C224.07 85.6421 225.536 84.123 227.488 84.123V82.123C224.457 82.123 222.07 84.5122 222.07 87.4277H224.07ZM227.488 84.123C229.441 84.123 230.906 85.6421 230.906 87.4277H232.906C232.906 84.5122 230.52 82.123 227.488 82.123V84.123ZM230.906 87.4277C230.906 89.2134 229.441 90.7324 227.488 90.7324V92.7324C230.52 92.7324 232.906 90.3433 232.906 87.4277H230.906ZM224.354 126V95.6406H222.354V126H224.354ZM223.354 96.6406H231.623V94.6406H223.354V96.6406ZM230.623 95.6406V126H232.623V95.6406H230.623ZM231.623 125H223.354V127H231.623V125ZM237.174 126H236.174V127H237.174V126ZM237.174 95.6406V94.6406H236.174V95.6406H237.174ZM245.443 95.6406H246.443V94.6406H245.443V95.6406ZM245.443 100.937H244.443V101.937H245.443V100.937ZM245.613 100.937V101.937H246.4L246.585 101.172L245.613 100.937ZM254.902 95.3291H255.902V94.5653L255.165 94.3643L254.902 95.3291ZM254.902 102.607L254.518 103.53L255.902 104.107V102.607H254.902ZM245.443 126V127H246.443V126H245.443ZM238.174 126V95.6406H236.174V126H238.174ZM237.174 96.6406H245.443V94.6406H237.174V96.6406ZM244.443 95.6406V100.937H246.443V95.6406H244.443ZM245.443 101.937H245.613V99.9365H245.443V101.937ZM246.585 101.172C247 99.4592 247.753 98.1798 248.734 97.3319C249.707 96.4912 250.97 96.0176 252.523 96.0176V94.0176C250.537 94.0176 248.797 94.6343 247.427 95.8185C246.065 96.9955 245.132 98.6756 244.641 100.701L246.585 101.172ZM252.523 96.0176C253.333 96.0176 254.094 96.145 254.639 96.2939L255.165 94.3643C254.465 94.1733 253.527 94.0176 252.523 94.0176V96.0176ZM253.902 95.3291V102.607H255.902V95.3291H253.902ZM255.287 101.684C254.433 101.328 253.149 101.154 251.9 101.154V103.154C253.031 103.154 254.013 103.32 254.518 103.53L255.287 101.684ZM251.9 101.154C249.661 101.154 247.756 101.828 246.418 103.235C245.086 104.635 244.443 106.626 244.443 109.008H246.443C246.443 106.972 246.99 105.536 247.867 104.614C248.738 103.698 250.062 103.154 251.9 103.154V101.154ZM244.443 109.008V126H246.443V109.008H244.443ZM245.443 125H237.174V127H245.443V125ZM271.215 125.623C266.817 125.623 263.338 124.219 260.955 121.736C258.568 119.248 257.177 115.568 257.177 110.82H255.177C255.177 115.957 256.688 120.178 259.512 123.12C262.34 126.068 266.38 127.623 271.215 127.623V125.623ZM257.177 110.82V110.764H255.177V110.82H257.177ZM257.177 110.764C257.177 106.082 258.598 102.413 261.003 99.921C263.404 97.4318 266.881 96.0176 271.187 96.0176V94.0176C266.43 94.0176 262.401 95.5911 259.564 98.5324C256.729 101.47 255.177 105.675 255.177 110.764H257.177ZM271.187 96.0176C275.51 96.0176 279.001 97.4201 281.411 99.9022C283.825 102.387 285.253 106.054 285.253 110.764H287.253C287.253 105.646 285.694 101.44 282.846 98.5087C279.996 95.5746 275.954 94.0176 271.187 94.0176V96.0176ZM285.253 110.764V110.82H287.253V110.764H285.253ZM285.253 110.82C285.253 115.58 283.849 119.26 281.455 121.745C279.064 124.226 275.584 125.623 271.215 125.623V127.623C276.021 127.623 280.06 126.075 282.895 123.133C285.726 120.194 287.253 115.973 287.253 110.82H285.253ZM271.243 121.138C273.572 121.138 275.525 120.136 276.861 118.284C278.172 116.468 278.842 113.908 278.842 110.82H276.842C276.842 113.652 276.223 115.75 275.24 117.113C274.282 118.44 272.935 119.138 271.243 119.138V121.138ZM278.842 110.82V110.764H276.842V110.82H278.842ZM278.842 110.764C278.842 107.698 278.155 105.151 276.828 103.343C275.478 101.503 273.514 100.503 271.187 100.503V102.503C272.881 102.503 274.244 103.202 275.216 104.527C276.212 105.883 276.842 107.967 276.842 110.764H278.842ZM271.187 100.503C268.87 100.503 266.92 101.505 265.581 103.347C264.267 105.155 263.588 107.7 263.588 110.764H265.588C265.588 107.965 266.212 105.88 267.199 104.523C268.161 103.2 269.51 102.503 271.187 102.503V100.503ZM263.588 110.764V110.82H265.588V110.764H263.588ZM263.588 110.82C263.588 113.921 264.257 116.483 265.578 118.298C266.925 120.149 268.893 121.138 271.243 121.138V119.138C269.515 119.138 268.155 118.441 267.195 117.121C266.207 115.763 265.588 113.667 265.588 110.82H263.588Z" fill="url(#paint0_linear_2049_96)"/>
<mask id="path-2-outside-1_2049_96" maskUnits="userSpaceOnUse" x="7" y="105" width="275" height="46" fill="black">
<rect fill="white" x="7" y="105" width="275" height="46"/>
<path d="M8 148.877V108.011H23.0523C34.8538 108.011 41.8472 115.289 41.8472 128.231V128.288C41.8472 141.259 34.8811 148.877 23.0523 148.877H8ZM16.2501 141.797H22.0689C29.4448 141.797 33.4332 137.152 33.4332 128.316V128.26C33.4332 119.735 29.3082 115.062 22.0689 115.062H16.2501V141.797ZM59.8226 149.5C50.8622 149.5 45.4259 143.468 45.4259 133.754V133.726C45.4259 124.068 50.9168 117.895 59.4948 117.895C68.0727 117.895 73.4543 123.927 73.4543 133.103V135.651H53.2935C53.3755 140.494 55.9161 143.326 59.9865 143.326C63.2647 143.326 65.2589 141.457 65.8326 139.758L65.8872 139.588H73.2085L73.1265 139.899C72.225 144.374 68.1819 149.5 59.8226 149.5ZM59.6313 124.068C56.3532 124.068 53.8945 126.334 53.3755 130.44H65.8053C65.3135 126.249 62.9368 124.068 59.6313 124.068ZM84.2177 148.877L74.0827 118.518H82.6059L88.7252 141.57H88.8891L94.9264 118.518H103.258L93.2054 148.877H84.2177ZM106.728 148.877V108.011H123.01C131.861 108.011 137.106 112.882 137.106 121.095V121.151C137.106 126.532 134.347 131.007 129.976 132.791L138.28 148.877H128.938L121.589 134.065H114.978V148.877H106.728ZM114.978 127.58H122.108C126.206 127.58 128.664 125.173 128.664 121.151V121.095C128.664 117.187 126.069 114.694 121.999 114.694H114.978V127.58ZM146.039 114.609C143.635 114.609 141.777 112.655 141.777 110.305C141.777 107.954 143.635 106 146.039 106C148.443 106 150.3 107.954 150.3 110.305C150.3 112.655 148.443 114.609 146.039 114.609ZM142.05 148.877V118.518H150.027V148.877H142.05ZM172.729 149.5C168.522 149.5 165.298 147.291 163.714 143.694H163.55V148.877H155.573V108.011H163.55V123.785H163.714C165.325 120.104 168.576 117.895 172.756 117.895C180.104 117.895 184.667 123.785 184.667 133.669V133.697C184.667 143.553 180.104 149.5 172.729 149.5ZM170.079 142.646C174.04 142.646 176.553 139.22 176.553 133.697V133.669C176.553 128.118 174.04 124.748 170.079 124.748C166.227 124.748 163.55 128.203 163.55 133.669V133.697C163.55 139.191 166.2 142.646 170.079 142.646ZM202.096 149.5C193.135 149.5 187.699 143.468 187.699 133.754V133.726C187.699 124.068 193.19 117.895 201.768 117.895C210.346 117.895 215.727 123.927 215.727 133.103V135.651H195.567C195.649 140.494 198.189 143.326 202.26 143.326C205.538 143.326 207.532 141.457 208.106 139.758L208.16 139.588H215.482L215.4 139.899C214.498 144.374 210.455 149.5 202.096 149.5ZM201.904 124.068C198.626 124.068 196.168 126.334 195.649 130.44H208.078C207.587 126.249 205.21 124.068 201.904 124.068ZM224.005 114.609C221.601 114.609 219.743 112.655 219.743 110.305C219.743 107.954 221.601 106 224.005 106C226.409 106 228.266 107.954 228.266 110.305C228.266 112.655 226.409 114.609 224.005 114.609ZM220.016 148.877V118.518H227.993V148.877H220.016ZM233.348 148.877V118.518H241.325V123.813H241.488C242.363 120.075 244.739 117.895 248.154 117.895C249.028 117.895 249.848 118.036 250.449 118.206V125.484C249.793 125.201 248.7 125.031 247.553 125.031C243.619 125.031 241.325 127.467 241.325 131.885V148.877H233.348ZM266.184 149.5C257.278 149.5 251.678 143.581 251.678 133.697V133.641C251.678 123.87 257.415 117.895 266.157 117.895C274.926 117.895 280.69 123.813 280.69 133.641V133.697C280.69 143.609 275.035 149.5 266.184 149.5ZM266.211 143.015C270.091 143.015 272.577 139.616 272.577 133.697V133.641C272.577 127.778 270.036 124.38 266.157 124.38C262.305 124.38 259.792 127.778 259.792 133.641V133.697C259.792 139.645 262.278 143.015 266.211 143.015Z"/>
</mask>
<path d="M8 148.877V108.011H23.0523C34.8538 108.011 41.8472 115.289 41.8472 128.231V128.288C41.8472 141.259 34.8811 148.877 23.0523 148.877H8ZM16.2501 141.797H22.0689C29.4448 141.797 33.4332 137.152 33.4332 128.316V128.26C33.4332 119.735 29.3082 115.062 22.0689 115.062H16.2501V141.797ZM59.8226 149.5C50.8622 149.5 45.4259 143.468 45.4259 133.754V133.726C45.4259 124.068 50.9168 117.895 59.4948 117.895C68.0727 117.895 73.4543 123.927 73.4543 133.103V135.651H53.2935C53.3755 140.494 55.9161 143.326 59.9865 143.326C63.2647 143.326 65.2589 141.457 65.8326 139.758L65.8872 139.588H73.2085L73.1265 139.899C72.225 144.374 68.1819 149.5 59.8226 149.5ZM59.6313 124.068C56.3532 124.068 53.8945 126.334 53.3755 130.44H65.8053C65.3135 126.249 62.9368 124.068 59.6313 124.068ZM84.2177 148.877L74.0827 118.518H82.6059L88.7252 141.57H88.8891L94.9264 118.518H103.258L93.2054 148.877H84.2177ZM106.728 148.877V108.011H123.01C131.861 108.011 137.106 112.882 137.106 121.095V121.151C137.106 126.532 134.347 131.007 129.976 132.791L138.28 148.877H128.938L121.589 134.065H114.978V148.877H106.728ZM114.978 127.58H122.108C126.206 127.58 128.664 125.173 128.664 121.151V121.095C128.664 117.187 126.069 114.694 121.999 114.694H114.978V127.58ZM146.039 114.609C143.635 114.609 141.777 112.655 141.777 110.305C141.777 107.954 143.635 106 146.039 106C148.443 106 150.3 107.954 150.3 110.305C150.3 112.655 148.443 114.609 146.039 114.609ZM142.05 148.877V118.518H150.027V148.877H142.05ZM172.729 149.5C168.522 149.5 165.298 147.291 163.714 143.694H163.55V148.877H155.573V108.011H163.55V123.785H163.714C165.325 120.104 168.576 117.895 172.756 117.895C180.104 117.895 184.667 123.785 184.667 133.669V133.697C184.667 143.553 180.104 149.5 172.729 149.5ZM170.079 142.646C174.04 142.646 176.553 139.22 176.553 133.697V133.669C176.553 128.118 174.04 124.748 170.079 124.748C166.227 124.748 163.55 128.203 163.55 133.669V133.697C163.55 139.191 166.2 142.646 170.079 142.646ZM202.096 149.5C193.135 149.5 187.699 143.468 187.699 133.754V133.726C187.699 124.068 193.19 117.895 201.768 117.895C210.346 117.895 215.727 123.927 215.727 133.103V135.651H195.567C195.649 140.494 198.189 143.326 202.26 143.326C205.538 143.326 207.532 141.457 208.106 139.758L208.16 139.588H215.482L215.4 139.899C214.498 144.374 210.455 149.5 202.096 149.5ZM201.904 124.068C198.626 124.068 196.168 126.334 195.649 130.44H208.078C207.587 126.249 205.21 124.068 201.904 124.068ZM224.005 114.609C221.601 114.609 219.743 112.655 219.743 110.305C219.743 107.954 221.601 106 224.005 106C226.409 106 228.266 107.954 228.266 110.305C228.266 112.655 226.409 114.609 224.005 114.609ZM220.016 148.877V118.518H227.993V148.877H220.016ZM233.348 148.877V118.518H241.325V123.813H241.488C242.363 120.075 244.739 117.895 248.154 117.895C249.028 117.895 249.848 118.036 250.449 118.206V125.484C249.793 125.201 248.7 125.031 247.553 125.031C243.619 125.031 241.325 127.467 241.325 131.885V148.877H233.348ZM266.184 149.5C257.278 149.5 251.678 143.581 251.678 133.697V133.641C251.678 123.87 257.415 117.895 266.157 117.895C274.926 117.895 280.69 123.813 280.69 133.641V133.697C280.69 143.609 275.035 149.5 266.184 149.5ZM266.211 143.015C270.091 143.015 272.577 139.616 272.577 133.697V133.641C272.577 127.778 270.036 124.38 266.157 124.38C262.305 124.38 259.792 127.778 259.792 133.641V133.697C259.792 139.645 262.278 143.015 266.211 143.015Z" stroke="url(#paint1_linear_2049_96)" stroke-width="2" mask="url(#path-2-outside-1_2049_96)"/>
<mask id="path-3-outside-2_2049_96" maskUnits="userSpaceOnUse" x="12" y="128.5" width="265" height="46" fill="black">
<rect fill="white" x="12" y="128.5" width="265" height="46"/>
<path d="M13 172.377V131.511H27.5003C38.869 131.511 45.606 138.789 45.606 151.731V151.788C45.606 164.759 38.8953 172.377 27.5003 172.377H13ZM20.9475 165.297H26.5529C33.6584 165.297 37.5005 160.652 37.5005 151.816V151.76C37.5005 143.235 33.5268 138.562 26.5529 138.562H20.9475V165.297ZM62.9222 173C54.2904 173 49.0534 166.968 49.0534 157.254V157.226C49.0534 147.568 54.343 141.395 62.6064 141.395C70.8697 141.395 76.054 147.427 76.054 156.603V159.151H56.6325C56.7115 163.994 59.1589 166.826 63.0801 166.826C66.238 166.826 68.1591 164.957 68.7118 163.258L68.7644 163.088H75.8172L75.7382 163.399C74.8698 167.874 70.975 173 62.9222 173ZM62.7379 147.568C59.58 147.568 57.2115 149.834 56.7115 153.94H68.6854C68.2117 149.749 65.9222 147.568 62.7379 147.568ZM86.4227 172.377L76.6593 142.018H84.87L90.7649 165.07H90.9228L96.7387 142.018H104.765L95.0808 172.377H86.4227ZM108.107 172.377V131.511H123.792C132.318 131.511 137.371 136.382 137.371 144.595V144.651C137.371 150.032 134.713 154.507 130.503 156.291L138.503 172.377H129.503L122.423 157.565H116.055V172.377H108.107ZM116.055 151.08H122.923C126.871 151.08 129.239 148.673 129.239 144.651V144.595C129.239 140.687 126.739 138.194 122.818 138.194H116.055V151.08ZM145.977 138.109C143.661 138.109 141.871 136.155 141.871 133.805C141.871 131.454 143.661 129.5 145.977 129.5C148.292 129.5 150.082 131.454 150.082 133.805C150.082 136.155 148.292 138.109 145.977 138.109ZM142.134 172.377V142.018H149.819V172.377H142.134ZM171.688 173C167.635 173 164.53 170.791 163.003 167.194H162.845V172.377H155.161V131.511H162.845V147.285H163.003C164.556 143.604 167.688 141.395 171.714 141.395C178.793 141.395 183.188 147.285 183.188 157.169V157.197C183.188 167.053 178.793 173 171.688 173ZM169.135 166.146C172.951 166.146 175.372 162.72 175.372 157.197V157.169C175.372 151.618 172.951 148.248 169.135 148.248C165.424 148.248 162.845 151.703 162.845 157.169V157.197C162.845 162.691 165.398 166.146 169.135 166.146ZM199.978 173C191.346 173 186.109 166.968 186.109 157.254V157.226C186.109 147.568 191.399 141.395 199.662 141.395C207.925 141.395 213.11 147.427 213.11 156.603V159.151H193.688C193.767 163.994 196.215 166.826 200.136 166.826C203.294 166.826 205.215 164.957 205.767 163.258L205.82 163.088H212.873L212.794 163.399C211.925 167.874 208.031 173 199.978 173ZM199.794 147.568C196.636 147.568 194.267 149.834 193.767 153.94H205.741C205.267 149.749 202.978 147.568 199.794 147.568ZM221.084 138.109C218.768 138.109 216.978 136.155 216.978 133.805C216.978 131.454 218.768 129.5 221.084 129.5C223.399 129.5 225.189 131.454 225.189 133.805C225.189 136.155 223.399 138.109 221.084 138.109ZM217.241 172.377V142.018H224.926V172.377H217.241ZM230.084 172.377V142.018H237.768V147.313H237.926C238.768 143.575 241.058 141.395 244.347 141.395C245.189 141.395 245.979 141.536 246.558 141.706V148.984C245.926 148.701 244.874 148.531 243.768 148.531C239.979 148.531 237.768 150.967 237.768 155.385V172.377H230.084ZM261.716 173C253.137 173 247.742 167.081 247.742 157.197V157.141C247.742 147.37 253.268 141.395 261.69 141.395C270.137 141.395 275.69 147.313 275.69 157.141V157.197C275.69 167.109 270.243 173 261.716 173ZM261.742 166.515C265.479 166.515 267.874 163.116 267.874 157.197V157.141C267.874 151.278 265.427 147.88 261.69 147.88C257.979 147.88 255.558 151.278 255.558 157.141V157.197C255.558 163.145 257.953 166.515 261.742 166.515Z"/>
</mask>
<path d="M13 172.377V131.511H27.5003C38.869 131.511 45.606 138.789 45.606 151.731V151.788C45.606 164.759 38.8953 172.377 27.5003 172.377H13ZM20.9475 165.297H26.5529C33.6584 165.297 37.5005 160.652 37.5005 151.816V151.76C37.5005 143.235 33.5268 138.562 26.5529 138.562H20.9475V165.297ZM62.9222 173C54.2904 173 49.0534 166.968 49.0534 157.254V157.226C49.0534 147.568 54.343 141.395 62.6064 141.395C70.8697 141.395 76.054 147.427 76.054 156.603V159.151H56.6325C56.7115 163.994 59.1589 166.826 63.0801 166.826C66.238 166.826 68.1591 164.957 68.7118 163.258L68.7644 163.088H75.8172L75.7382 163.399C74.8698 167.874 70.975 173 62.9222 173ZM62.7379 147.568C59.58 147.568 57.2115 149.834 56.7115 153.94H68.6854C68.2117 149.749 65.9222 147.568 62.7379 147.568ZM86.4227 172.377L76.6593 142.018H84.87L90.7649 165.07H90.9228L96.7387 142.018H104.765L95.0808 172.377H86.4227ZM108.107 172.377V131.511H123.792C132.318 131.511 137.371 136.382 137.371 144.595V144.651C137.371 150.032 134.713 154.507 130.503 156.291L138.503 172.377H129.503L122.423 157.565H116.055V172.377H108.107ZM116.055 151.08H122.923C126.871 151.08 129.239 148.673 129.239 144.651V144.595C129.239 140.687 126.739 138.194 122.818 138.194H116.055V151.08ZM145.977 138.109C143.661 138.109 141.871 136.155 141.871 133.805C141.871 131.454 143.661 129.5 145.977 129.5C148.292 129.5 150.082 131.454 150.082 133.805C150.082 136.155 148.292 138.109 145.977 138.109ZM142.134 172.377V142.018H149.819V172.377H142.134ZM171.688 173C167.635 173 164.53 170.791 163.003 167.194H162.845V172.377H155.161V131.511H162.845V147.285H163.003C164.556 143.604 167.688 141.395 171.714 141.395C178.793 141.395 183.188 147.285 183.188 157.169V157.197C183.188 167.053 178.793 173 171.688 173ZM169.135 166.146C172.951 166.146 175.372 162.72 175.372 157.197V157.169C175.372 151.618 172.951 148.248 169.135 148.248C165.424 148.248 162.845 151.703 162.845 157.169V157.197C162.845 162.691 165.398 166.146 169.135 166.146ZM199.978 173C191.346 173 186.109 166.968 186.109 157.254V157.226C186.109 147.568 191.399 141.395 199.662 141.395C207.925 141.395 213.11 147.427 213.11 156.603V159.151H193.688C193.767 163.994 196.215 166.826 200.136 166.826C203.294 166.826 205.215 164.957 205.767 163.258L205.82 163.088H212.873L212.794 163.399C211.925 167.874 208.031 173 199.978 173ZM199.794 147.568C196.636 147.568 194.267 149.834 193.767 153.94H205.741C205.267 149.749 202.978 147.568 199.794 147.568ZM221.084 138.109C218.768 138.109 216.978 136.155 216.978 133.805C216.978 131.454 218.768 129.5 221.084 129.5C223.399 129.5 225.189 131.454 225.189 133.805C225.189 136.155 223.399 138.109 221.084 138.109ZM217.241 172.377V142.018H224.926V172.377H217.241ZM230.084 172.377V142.018H237.768V147.313H237.926C238.768 143.575 241.058 141.395 244.347 141.395C245.189 141.395 245.979 141.536 246.558 141.706V148.984C245.926 148.701 244.874 148.531 243.768 148.531C239.979 148.531 237.768 150.967 237.768 155.385V172.377H230.084ZM261.716 173C253.137 173 247.742 167.081 247.742 157.197V157.141C247.742 147.37 253.268 141.395 261.69 141.395C270.137 141.395 275.69 147.313 275.69 157.141V157.197C275.69 167.109 270.243 173 261.716 173ZM261.742 166.515C265.479 166.515 267.874 163.116 267.874 157.197V157.141C267.874 151.278 265.427 147.88 261.69 147.88C257.979 147.88 255.558 151.278 255.558 157.141V157.197C255.558 163.145 257.953 166.515 261.742 166.515Z" stroke="url(#paint2_linear_2049_96)" stroke-width="2" mask="url(#path-3-outside-2_2049_96)"/>
<path d="M3.55957 89H2.55957V90H3.55957V89ZM3.55957 48.1338V47.1338H2.55957V48.1338H3.55957ZM12.1123 81.9199H11.1123V82.9199H12.1123V81.9199ZM12.1123 55.1855V54.1855H11.1123V55.1855H12.1123ZM4.55957 89V48.1338H2.55957V89H4.55957ZM3.55957 49.1338H19.1641V47.1338H3.55957V49.1338ZM19.1641 49.1338C25.0824 49.1338 29.6681 50.8898 32.7771 54.0878C35.8898 57.2895 37.6484 62.0661 37.6484 68.3545H39.6484C39.6484 61.7005 37.7821 56.3668 34.2111 52.6937C30.6366 49.0169 25.4801 47.1338 19.1641 47.1338V49.1338ZM37.6484 68.3545V68.4111H39.6484V68.3545H37.6484ZM37.6484 68.4111C37.6484 74.7158 35.8954 79.5901 32.7786 82.8821C29.6687 86.1667 25.0841 88 19.1641 88V90C25.5067 90 30.6643 88.0242 34.2309 84.2571C37.7906 80.4973 39.6484 75.0771 39.6484 68.4111H37.6484ZM19.1641 88H3.55957V90H19.1641V88ZM12.1123 82.9199H18.1445V80.9199H12.1123V82.9199ZM18.1445 82.9199C22.1759 82.9199 25.4278 81.6882 27.654 79.153C29.8609 76.6398 30.9258 72.9967 30.9258 68.4395H28.9258C28.9258 72.7182 27.9233 75.8153 26.1512 77.8333C24.3984 79.8294 21.7596 80.9199 18.1445 80.9199V82.9199ZM30.9258 68.4395V68.3828H28.9258V68.4395H30.9258ZM30.9258 68.3828C30.9258 63.9652 29.8177 60.3946 27.5933 57.9191C25.3543 55.4274 22.1109 54.1855 18.1445 54.1855V56.1855C21.6831 56.1855 24.3303 57.2801 26.1057 59.2559C27.8956 61.2479 28.9258 64.276 28.9258 68.3828H30.9258ZM18.1445 54.1855H12.1123V56.1855H18.1445V54.1855ZM11.1123 55.1855V81.9199H13.1123V55.1855H11.1123ZM71.415 75.7744V76.7744H72.415V75.7744H71.415ZM50.5146 75.7744V74.7744H49.497L49.5148 75.792L50.5146 75.7744ZM63.5137 79.8809L64.4575 80.2112L64.46 80.2042L64.4624 80.1971L63.5137 79.8809ZM63.5703 79.7109V78.7109H62.8496L62.6216 79.3947L63.5703 79.7109ZM71.1602 79.7109L72.1249 79.9741L72.4694 78.7109H71.1602V79.7109ZM71.0752 80.0225L70.1104 79.7593L70.1025 79.7885L70.0963 79.818L71.0752 80.0225ZM50.5996 70.5635L49.6081 70.4336L49.46 71.5635H50.5996V70.5635ZM63.4854 70.5635V71.5635H64.6143L64.478 70.4427L63.4854 70.5635ZM57.2832 88.623C52.862 88.623 49.4128 87.1936 47.0645 84.7062C44.7096 82.2118 43.3584 78.5433 43.3584 73.877H41.3584C41.3584 78.9244 42.8251 83.129 45.6103 86.0792C48.4021 89.0364 52.4154 90.623 57.2832 90.623V88.623ZM43.3584 73.877V73.8486H41.3584V73.877H43.3584ZM43.3584 73.8486C43.3584 69.214 44.7221 65.5172 47.0515 62.9893C49.373 60.47 52.7392 59.0176 56.9434 59.0176V57.0176C52.2549 57.0176 48.3286 58.652 45.5808 61.634C42.8409 64.6073 41.3584 68.826 41.3584 73.8486H43.3584ZM56.9434 59.0176C61.1546 59.0176 64.4952 60.4397 66.7867 62.8671C69.0843 65.301 70.415 68.8395 70.415 73.2256H72.415C72.415 68.4359 70.9562 64.3704 68.2411 61.4942C65.5199 58.6116 61.6247 57.0176 56.9434 57.0176V59.0176ZM70.415 73.2256V75.7744H72.415V73.2256H70.415ZM71.415 74.7744H50.5146V76.7744H71.415V74.7744ZM49.5148 75.792C49.5603 78.3842 50.2911 80.5613 51.6941 82.1013C53.1094 83.6547 55.1084 84.4492 57.4531 84.4492V82.4492C55.5781 82.4492 54.1504 81.8277 53.1726 80.7544C52.1826 79.6677 51.554 78.0074 51.5145 75.7569L49.5148 75.792ZM57.4531 84.4492C61.2308 84.4492 63.7079 82.353 64.4575 80.2112L62.5698 79.5505C62.13 80.8071 60.4724 82.4492 57.4531 82.4492V84.4492ZM64.4624 80.1971L64.519 80.0272L62.6216 79.3947L62.565 79.5646L64.4624 80.1971ZM63.5703 80.7109H71.1602V78.7109H63.5703V80.7109ZM70.1954 79.4478L70.1104 79.7593L72.04 80.2856L72.1249 79.9741L70.1954 79.4478ZM70.0963 79.818C69.2572 83.8354 65.4694 88.623 57.2832 88.623V90.623C66.4291 90.623 71.024 85.1587 72.0541 80.2269L70.0963 79.818ZM57.085 63.1914C55.1535 63.1914 53.4114 63.8404 52.0786 65.1147C50.752 66.3831 49.9003 68.2032 49.6081 70.4336L51.5911 70.6934C51.837 68.8173 52.5287 67.4514 53.4607 66.5603C54.3865 65.6752 55.618 65.1914 57.085 65.1914V63.1914ZM50.5996 71.5635H63.4854V69.5635H50.5996V71.5635ZM64.478 70.4427C64.2027 68.179 63.3854 66.352 62.0734 65.086C60.7534 63.8125 59.0196 63.1914 57.085 63.1914V65.1914C58.5771 65.1914 59.7886 65.6607 60.6847 66.5253C61.5887 67.3975 62.2582 68.7566 62.4927 70.6842L64.478 70.4427ZM82.5732 89L81.6282 89.3271L81.8611 90H82.5732V89ZM72.0664 58.6406V57.6406H70.6621L71.1214 58.9677L72.0664 58.6406ZM80.9023 58.6406L81.8665 58.3753L81.6643 57.6406H80.9023V58.6406ZM87.2461 81.6934L86.2819 81.9587L86.4841 82.6934H87.2461V81.6934ZM87.416 81.6934V82.6934H88.1807L88.3811 81.9554L87.416 81.6934ZM93.6748 58.6406V57.6406H92.9101L92.7097 58.3786L93.6748 58.6406ZM102.312 58.6406L103.258 58.9653L103.713 57.6406H102.312V58.6406ZM91.8906 89V90H92.6046L92.8364 89.3247L91.8906 89ZM83.5182 88.6729L73.0114 58.3136L71.1214 58.9677L81.6282 89.3271L83.5182 88.6729ZM72.0664 59.6406H80.9023V57.6406H72.0664V59.6406ZM79.9382 58.9059L86.2819 81.9587L88.2103 81.428L81.8665 58.3753L79.9382 58.9059ZM87.2461 82.6934H87.416V80.6934H87.2461V82.6934ZM88.3811 81.9554L94.6399 58.9026L92.7097 58.3786L86.451 81.4313L88.3811 81.9554ZM93.6748 59.6406H102.312V57.6406H93.6748V59.6406ZM101.367 58.3159L90.9448 88.6753L92.8364 89.3247L103.258 58.9653L101.367 58.3159ZM91.8906 88H82.5732V90H91.8906V88ZM105.909 89H104.909V90H105.909V89ZM105.909 48.1338V47.1338H104.909V48.1338H105.909ZM130.01 72.9141L129.643 71.9836L128.598 72.3953L129.128 73.3859L130.01 72.9141ZM138.619 89V90H140.289L139.501 88.5281L138.619 89ZM128.934 89L128.044 89.4574L128.323 90H128.934V89ZM121.315 74.1885L122.205 73.7311L121.926 73.1885H121.315V74.1885ZM114.462 74.1885V73.1885H113.462V74.1885H114.462ZM114.462 89V90H115.462V89H114.462ZM114.462 67.7031H113.462V68.7031H114.462V67.7031ZM114.462 54.8174V53.8174H113.462V54.8174H114.462ZM106.909 89V48.1338H104.909V89H106.909ZM105.909 49.1338H122.788V47.1338H105.909V49.1338ZM122.788 49.1338C127.207 49.1338 130.596 50.306 132.869 52.3409C135.126 54.3627 136.401 57.3423 136.401 61.2178H138.401C138.401 56.8804 136.958 53.318 134.203 50.851C131.462 48.3971 127.545 47.1338 122.788 47.1338V49.1338ZM136.401 61.2178V61.2744H138.401V61.2178H136.401ZM136.401 61.2744C136.401 66.2959 133.747 70.368 129.643 71.9836L130.376 73.8445C135.335 71.8918 138.401 67.0146 138.401 61.2744H136.401ZM129.128 73.3859L137.737 89.4719L139.501 88.5281L130.891 72.4422L129.128 73.3859ZM138.619 88H128.934V90H138.619V88ZM129.823 88.5426L122.205 73.7311L120.426 74.6459L128.044 89.4574L129.823 88.5426ZM121.315 73.1885H114.462V75.1885H121.315V73.1885ZM113.462 74.1885V89H115.462V74.1885H113.462ZM114.462 88H105.909V90H114.462V88ZM114.462 68.7031H121.854V66.7031H114.462V68.7031ZM121.854 68.7031C124.162 68.7031 126.132 68.0467 127.532 66.7235C128.939 65.3935 129.65 63.5019 129.65 61.2744H127.65C127.65 63.0685 127.088 64.3912 126.158 65.2702C125.221 66.156 123.793 66.7031 121.854 66.7031V68.7031ZM129.65 61.2744V61.2178H127.65V61.2744H129.65ZM129.65 61.2178C129.65 59.0241 128.889 57.1441 127.457 55.8184C126.034 54.5002 124.045 53.8174 121.74 53.8174V55.8174C123.656 55.8174 125.121 56.3807 126.098 57.2856C127.067 58.183 127.65 59.5033 127.65 61.2178H129.65ZM121.74 53.8174H114.462V55.8174H121.74V53.8174ZM113.462 54.8174V67.7031H115.462V54.8174H113.462ZM142.527 89H141.527V90H142.527V89ZM142.527 58.6406V57.6406H141.527V58.6406H142.527ZM150.797 58.6406H151.797V57.6406H150.797V58.6406ZM150.797 89V90H151.797V89H150.797ZM146.662 53.7324C144.709 53.7324 143.244 52.2134 143.244 50.4277H141.244C141.244 53.3433 143.63 55.7324 146.662 55.7324V53.7324ZM143.244 50.4277C143.244 48.6421 144.709 47.123 146.662 47.123V45.123C143.63 45.123 141.244 47.5122 141.244 50.4277H143.244ZM146.662 47.123C148.615 47.123 150.08 48.6421 150.08 50.4277H152.08C152.08 47.5122 149.694 45.123 146.662 45.123V47.123ZM150.08 50.4277C150.08 52.2134 148.615 53.7324 146.662 53.7324V55.7324C149.694 55.7324 152.08 53.3433 152.08 50.4277H150.08ZM143.527 89V58.6406H141.527V89H143.527ZM142.527 59.6406H150.797V57.6406H142.527V59.6406ZM149.797 58.6406V89H151.797V58.6406H149.797ZM150.797 88H142.527V90H150.797V88ZM164.985 83.8174L165.895 83.402L165.628 82.8174H164.985V83.8174ZM164.815 83.8174V82.8174H163.815V83.8174H164.815ZM164.815 89V90H165.815V89H164.815ZM156.546 89H155.546V90H156.546V89ZM156.546 48.1338V47.1338H155.546V48.1338H156.546ZM164.815 48.1338H165.815V47.1338H164.815V48.1338ZM164.815 63.9082H163.815V64.9082H164.815V63.9082ZM164.985 63.9082V64.9082H165.63L165.896 64.3215L164.985 63.9082ZM174.331 88.623C170.349 88.623 167.37 86.6314 165.895 83.402L164.076 84.2328C165.886 88.1968 169.591 90.623 174.331 90.623V88.623ZM164.985 82.8174H164.815V84.8174H164.985V82.8174ZM163.815 83.8174V89H165.815V83.8174H163.815ZM164.815 88H156.546V90H164.815V88ZM157.546 89V48.1338H155.546V89H157.546ZM156.546 49.1338H164.815V47.1338H156.546V49.1338ZM163.815 48.1338V63.9082H165.815V48.1338H163.815ZM164.815 64.9082H164.985V62.9082H164.815V64.9082ZM165.896 64.3215C167.401 61.0061 170.409 59.0176 174.359 59.0176V57.0176C169.644 57.0176 165.912 59.4471 164.075 63.4949L165.896 64.3215ZM174.359 59.0176C177.885 59.0176 180.673 60.3671 182.605 62.8174C184.558 65.296 185.707 68.996 185.707 73.792H187.707C187.707 68.7042 186.491 64.517 184.175 61.5793C181.837 58.6133 178.452 57.0176 174.359 57.0176V59.0176ZM185.707 73.792V73.8203H187.707V73.792H185.707ZM185.707 73.8203C185.707 78.6016 184.559 82.3095 182.6 84.7993C180.665 87.2609 177.869 88.623 174.331 88.623V90.623C178.44 90.623 181.832 89.0116 184.173 86.0357C186.491 83.088 187.707 78.8945 187.707 73.8203H185.707ZM171.584 83.7695C173.948 83.7695 175.923 82.768 177.279 80.9673C178.612 79.1962 179.296 76.725 179.296 73.8203H177.296C177.296 76.4381 176.677 78.4415 175.681 79.7644C174.707 81.0577 173.327 81.7695 171.584 81.7695V83.7695ZM179.296 73.8203V73.792H177.296V73.8203H179.296ZM179.296 73.792C179.296 70.8742 178.613 68.4081 177.277 66.6459C175.918 64.8537 173.942 63.8711 171.584 63.8711V65.8711C173.332 65.8711 174.712 66.5735 175.683 67.8541C176.676 69.1647 177.296 71.159 177.296 73.792H179.296ZM171.584 63.8711C169.27 63.8711 167.288 64.8848 165.91 66.6712C164.549 68.4365 163.815 70.8999 163.815 73.792H165.815C165.815 71.2183 166.469 69.2212 167.494 67.8925C168.503 66.5849 169.905 65.8711 171.584 65.8711V63.8711ZM163.815 73.792V73.8203H165.815V73.792H163.815ZM163.815 73.8203C163.815 76.7232 164.54 79.1938 165.898 80.9639C167.274 82.7567 169.257 83.7695 171.584 83.7695V81.7695C169.89 81.7695 168.489 81.0548 167.485 79.7466C166.464 78.4156 165.815 76.4115 165.815 73.8203H163.815ZM218.907 75.7744V76.7744H219.907V75.7744H218.907ZM198.007 75.7744V74.7744H196.989L197.007 75.792L198.007 75.7744ZM211.006 79.8809L211.95 80.2112L211.952 80.2042L211.955 80.1971L211.006 79.8809ZM211.062 79.7109V78.7109H210.342L210.114 79.3947L211.062 79.7109ZM218.652 79.7109L219.617 79.9741L219.962 78.7109H218.652V79.7109ZM218.567 80.0225L217.603 79.7593L217.595 79.7885L217.589 79.818L218.567 80.0225ZM198.092 70.5635L197.1 70.4336L196.952 71.5635H198.092V70.5635ZM210.978 70.5635V71.5635H212.107L211.97 70.4427L210.978 70.5635ZM204.775 88.623C200.354 88.623 196.905 87.1936 194.557 84.7062C192.202 82.2118 190.851 78.5433 190.851 73.877H188.851C188.851 78.9244 190.317 83.129 193.102 86.0792C195.894 89.0364 199.908 90.623 204.775 90.623V88.623ZM190.851 73.877V73.8486H188.851V73.877H190.851ZM190.851 73.8486C190.851 69.214 192.214 65.5172 194.544 62.9893C196.865 60.47 200.231 59.0176 204.436 59.0176V57.0176C199.747 57.0176 195.821 58.652 193.073 61.634C190.333 64.6073 188.851 68.826 188.851 73.8486H190.851ZM204.436 59.0176C208.647 59.0176 211.987 60.4397 214.279 62.8671C216.577 65.301 217.907 68.8395 217.907 73.2256H219.907C219.907 68.4359 218.448 64.3704 215.733 61.4942C213.012 58.6116 209.117 57.0176 204.436 57.0176V59.0176ZM217.907 73.2256V75.7744H219.907V73.2256H217.907ZM218.907 74.7744H198.007V76.7744H218.907V74.7744ZM197.007 75.792C197.052 78.3842 197.783 80.5613 199.186 82.1013C200.602 83.6547 202.601 84.4492 204.945 84.4492V82.4492C203.07 82.4492 201.643 81.8277 200.665 80.7544C199.675 79.6677 199.046 78.0074 199.007 75.7569L197.007 75.792ZM204.945 84.4492C208.723 84.4492 211.2 82.353 211.95 80.2112L210.062 79.5505C209.622 80.8071 207.965 82.4492 204.945 82.4492V84.4492ZM211.955 80.1971L212.011 80.0272L210.114 79.3947L210.057 79.5646L211.955 80.1971ZM211.062 80.7109H218.652V78.7109H211.062V80.7109ZM217.688 79.4478L217.603 79.7593L219.532 80.2856L219.617 79.9741L217.688 79.4478ZM217.589 79.818C216.749 83.8354 212.962 88.623 204.775 88.623V90.623C213.921 90.623 218.516 85.1587 219.546 80.2269L217.589 79.818ZM204.577 63.1914C202.646 63.1914 200.904 63.8404 199.571 65.1147C198.244 66.3831 197.393 68.2032 197.1 70.4336L199.083 70.6934C199.329 68.8173 200.021 67.4514 200.953 66.5603C201.879 65.6752 203.11 65.1914 204.577 65.1914V63.1914ZM198.092 71.5635H210.978V69.5635H198.092V71.5635ZM211.97 70.4427C211.695 68.179 210.878 66.352 209.566 65.086C208.246 63.8125 206.512 63.1914 204.577 63.1914V65.1914C206.069 65.1914 207.281 65.6607 208.177 66.5253C209.081 67.3975 209.75 68.7566 209.985 70.6842L211.97 70.4427ZM223.354 89H222.354V90H223.354V89ZM223.354 58.6406V57.6406H222.354V58.6406H223.354ZM231.623 58.6406H232.623V57.6406H231.623V58.6406ZM231.623 89V90H232.623V89H231.623ZM227.488 53.7324C225.536 53.7324 224.07 52.2134 224.07 50.4277H222.07C222.07 53.3433 224.457 55.7324 227.488 55.7324V53.7324ZM224.07 50.4277C224.07 48.6421 225.536 47.123 227.488 47.123V45.123C224.457 45.123 222.07 47.5122 222.07 50.4277H224.07ZM227.488 47.123C229.441 47.123 230.906 48.6421 230.906 50.4277H232.906C232.906 47.5122 230.52 45.123 227.488 45.123V47.123ZM230.906 50.4277C230.906 52.2134 229.441 53.7324 227.488 53.7324V55.7324C230.52 55.7324 232.906 53.3433 232.906 50.4277H230.906ZM224.354 89V58.6406H222.354V89H224.354ZM223.354 59.6406H231.623V57.6406H223.354V59.6406ZM230.623 58.6406V89H232.623V58.6406H230.623ZM231.623 88H223.354V90H231.623V88ZM237.174 89H236.174V90H237.174V89ZM237.174 58.6406V57.6406H236.174V58.6406H237.174ZM245.443 58.6406H246.443V57.6406H245.443V58.6406ZM245.443 63.9365H244.443V64.9365H245.443V63.9365ZM245.613 63.9365V64.9365H246.4L246.585 64.1721L245.613 63.9365ZM254.902 58.3291H255.902V57.5653L255.165 57.3643L254.902 58.3291ZM254.902 65.6074L254.518 66.5305L255.902 67.1074V65.6074H254.902ZM245.443 89V90H246.443V89H245.443ZM238.174 89V58.6406H236.174V89H238.174ZM237.174 59.6406H245.443V57.6406H237.174V59.6406ZM244.443 58.6406V63.9365H246.443V58.6406H244.443ZM245.443 64.9365H245.613V62.9365H245.443V64.9365ZM246.585 64.1721C247 62.4592 247.753 61.1798 248.734 60.3319C249.707 59.4912 250.97 59.0176 252.523 59.0176V57.0176C250.537 57.0176 248.797 57.6343 247.427 58.8185C246.065 59.9955 245.132 61.6756 244.641 63.7009L246.585 64.1721ZM252.523 59.0176C253.333 59.0176 254.094 59.145 254.639 59.2939L255.165 57.3643C254.465 57.1733 253.527 57.0176 252.523 57.0176V59.0176ZM253.902 58.3291V65.6074H255.902V58.3291H253.902ZM255.287 64.6843C254.433 64.3283 253.149 64.1543 251.9 64.1543V66.1543C253.031 66.1543 254.013 66.3201 254.518 66.5305L255.287 64.6843ZM251.9 64.1543C249.661 64.1543 247.756 64.828 246.418 66.2351C245.086 67.6351 244.443 69.6261 244.443 72.0078H246.443C246.443 69.9715 246.99 68.5358 247.867 67.6135C248.738 66.6984 250.062 66.1543 251.9 66.1543V64.1543ZM244.443 72.0078V89H246.443V72.0078H244.443ZM245.443 88H237.174V90H245.443V88ZM271.215 88.623C266.817 88.623 263.338 87.2188 260.955 84.7357C258.568 82.2481 257.177 78.5678 257.177 73.8203H255.177C255.177 78.9566 256.688 83.1777 259.512 86.1205C262.34 89.0678 266.38 90.623 271.215 90.623V88.623ZM257.177 73.8203V73.7637H255.177V73.8203H257.177ZM257.177 73.7637C257.177 69.082 258.598 65.4134 261.003 62.921C263.404 60.4318 266.881 59.0176 271.187 59.0176V57.0176C266.43 57.0176 262.401 58.5911 259.564 61.5324C256.729 64.4704 255.177 68.6748 255.177 73.7637H257.177ZM271.187 59.0176C275.51 59.0176 279.001 60.4201 281.411 62.9022C283.825 65.3867 285.253 69.0537 285.253 73.7637H287.253C287.253 68.6465 285.694 64.4405 282.846 61.5087C279.996 58.5746 275.954 57.0176 271.187 57.0176V59.0176ZM285.253 73.7637V73.8203H287.253V73.7637H285.253ZM285.253 73.8203C285.253 78.58 283.849 82.2602 281.455 84.7449C279.064 87.2258 275.584 88.623 271.215 88.623V90.623C276.021 90.623 280.06 89.075 282.895 86.1325C285.726 83.1939 287.253 78.9727 287.253 73.8203H285.253ZM271.243 84.1377C273.572 84.1377 275.525 83.1359 276.861 81.2838C278.172 79.4678 278.842 76.908 278.842 73.8203H276.842C276.842 76.6516 276.223 78.7505 275.24 80.1134C274.282 81.4403 272.935 82.1377 271.243 82.1377V84.1377ZM278.842 73.8203V73.7637H276.842V73.8203H278.842ZM278.842 73.7637C278.842 70.6982 278.155 68.1513 276.828 66.3433C275.478 64.5026 273.514 63.5029 271.187 63.5029V65.5029C272.881 65.5029 274.244 66.2025 275.216 67.5265C276.212 68.8834 276.842 70.9668 276.842 73.7637H278.842ZM271.187 63.5029C268.87 63.5029 266.92 64.5054 265.581 66.3469C264.267 68.1546 263.588 70.7003 263.588 73.7637H265.588C265.588 70.9648 266.212 68.8801 267.199 67.523C268.161 66.1996 269.51 65.5029 271.187 65.5029V63.5029ZM263.588 73.7637V73.8203H265.588V73.7637H263.588ZM263.588 73.8203C263.588 76.921 264.257 79.4832 265.578 81.2976C266.925 83.1493 268.893 84.1377 271.243 84.1377V82.1377C269.515 82.1377 268.155 81.441 267.195 80.1208C266.207 78.7634 265.588 76.6669 265.588 73.8203H263.588Z" fill="url(#paint3_linear_2049_96)"/>
<mask id="path-5-outside-3_2049_96" maskUnits="userSpaceOnUse" x="7" y="23.5" width="275" height="46" fill="black">
<rect fill="white" x="7" y="23.5" width="275" height="46"/>
<path d="M8 67.377V26.5107H23.0523C34.8538 26.5107 41.8472 33.7891 41.8472 46.7314V46.7881C41.8472 59.7588 34.8811 67.377 23.0523 67.377H8ZM16.2501 60.2969H22.0689C29.4448 60.2969 33.4332 55.6523 33.4332 46.8164V46.7598C33.4332 38.2354 29.3082 33.5625 22.0689 33.5625H16.2501V60.2969ZM59.8226 68C50.8622 68 45.4259 61.9678 45.4259 52.2539V52.2256C45.4259 42.5684 50.9168 36.3945 59.4948 36.3945C68.0727 36.3945 73.4543 42.4268 73.4543 51.6025V54.1514H53.2935C53.3755 58.9941 55.9161 61.8262 59.9865 61.8262C63.2647 61.8262 65.2589 59.957 65.8326 58.2578L65.8872 58.0879H73.2085L73.1265 58.3994C72.225 62.874 68.1819 68 59.8226 68ZM59.6313 42.5684C56.3532 42.5684 53.8945 44.834 53.3755 48.9404H65.8053C65.3135 44.749 62.9368 42.5684 59.6313 42.5684ZM84.2177 67.377L74.0827 37.0176H82.6059L88.7252 60.0703H88.8891L94.9264 37.0176H103.258L93.2054 67.377H84.2177ZM106.728 67.377V26.5107H123.01C131.861 26.5107 137.106 31.3818 137.106 39.5947V39.6514C137.106 45.0322 134.347 49.5068 129.976 51.291L138.28 67.377H128.938L121.589 52.5654H114.978V67.377H106.728ZM114.978 46.0801H122.108C126.206 46.0801 128.664 43.6729 128.664 39.6514V39.5947C128.664 35.6865 126.069 33.1943 121.999 33.1943H114.978V46.0801ZM146.039 33.1094C143.635 33.1094 141.777 31.1553 141.777 28.8047C141.777 26.4541 143.635 24.5 146.039 24.5C148.443 24.5 150.3 26.4541 150.3 28.8047C150.3 31.1553 148.443 33.1094 146.039 33.1094ZM142.05 67.377V37.0176H150.027V67.377H142.05ZM172.729 68C168.522 68 165.298 65.791 163.714 62.1943H163.55V67.377H155.573V26.5107H163.55V42.2852H163.714C165.325 38.6035 168.576 36.3945 172.756 36.3945C180.104 36.3945 184.667 42.2852 184.667 52.1689V52.1973C184.667 62.0527 180.104 68 172.729 68ZM170.079 61.1465C174.04 61.1465 176.553 57.7197 176.553 52.1973V52.1689C176.553 46.6182 174.04 43.248 170.079 43.248C166.227 43.248 163.55 46.7031 163.55 52.1689V52.1973C163.55 57.6914 166.2 61.1465 170.079 61.1465ZM202.096 68C193.135 68 187.699 61.9678 187.699 52.2539V52.2256C187.699 42.5684 193.19 36.3945 201.768 36.3945C210.346 36.3945 215.727 42.4268 215.727 51.6025V54.1514H195.567C195.649 58.9941 198.189 61.8262 202.26 61.8262C205.538 61.8262 207.532 59.957 208.106 58.2578L208.16 58.0879H215.482L215.4 58.3994C214.498 62.874 210.455 68 202.096 68ZM201.904 42.5684C198.626 42.5684 196.168 44.834 195.649 48.9404H208.078C207.587 44.749 205.21 42.5684 201.904 42.5684ZM224.005 33.1094C221.601 33.1094 219.743 31.1553 219.743 28.8047C219.743 26.4541 221.601 24.5 224.005 24.5C226.409 24.5 228.266 26.4541 228.266 28.8047C228.266 31.1553 226.409 33.1094 224.005 33.1094ZM220.016 67.377V37.0176H227.993V67.377H220.016ZM233.348 67.377V37.0176H241.325V42.3135H241.488C242.363 38.5752 244.739 36.3945 248.154 36.3945C249.028 36.3945 249.848 36.5361 250.449 36.7061V43.9844C249.793 43.7012 248.7 43.5312 247.553 43.5312C243.619 43.5312 241.325 45.9668 241.325 50.3848V67.377H233.348ZM266.184 68C257.278 68 251.678 62.0811 251.678 52.1973V52.1406C251.678 42.3701 257.415 36.3945 266.157 36.3945C274.926 36.3945 280.69 42.3135 280.69 52.1406V52.1973C280.69 62.1094 275.035 68 266.184 68ZM266.211 61.5146C270.091 61.5146 272.577 58.1162 272.577 52.1973V52.1406C272.577 46.2783 270.036 42.8799 266.157 42.8799C262.305 42.8799 259.792 46.2783 259.792 52.1406V52.1973C259.792 58.1445 262.278 61.5146 266.211 61.5146Z"/>
</mask>
<path d="M8 67.377V26.5107H23.0523C34.8538 26.5107 41.8472 33.7891 41.8472 46.7314V46.7881C41.8472 59.7588 34.8811 67.377 23.0523 67.377H8ZM16.2501 60.2969H22.0689C29.4448 60.2969 33.4332 55.6523 33.4332 46.8164V46.7598C33.4332 38.2354 29.3082 33.5625 22.0689 33.5625H16.2501V60.2969ZM59.8226 68C50.8622 68 45.4259 61.9678 45.4259 52.2539V52.2256C45.4259 42.5684 50.9168 36.3945 59.4948 36.3945C68.0727 36.3945 73.4543 42.4268 73.4543 51.6025V54.1514H53.2935C53.3755 58.9941 55.9161 61.8262 59.9865 61.8262C63.2647 61.8262 65.2589 59.957 65.8326 58.2578L65.8872 58.0879H73.2085L73.1265 58.3994C72.225 62.874 68.1819 68 59.8226 68ZM59.6313 42.5684C56.3532 42.5684 53.8945 44.834 53.3755 48.9404H65.8053C65.3135 44.749 62.9368 42.5684 59.6313 42.5684ZM84.2177 67.377L74.0827 37.0176H82.6059L88.7252 60.0703H88.8891L94.9264 37.0176H103.258L93.2054 67.377H84.2177ZM106.728 67.377V26.5107H123.01C131.861 26.5107 137.106 31.3818 137.106 39.5947V39.6514C137.106 45.0322 134.347 49.5068 129.976 51.291L138.28 67.377H128.938L121.589 52.5654H114.978V67.377H106.728ZM114.978 46.0801H122.108C126.206 46.0801 128.664 43.6729 128.664 39.6514V39.5947C128.664 35.6865 126.069 33.1943 121.999 33.1943H114.978V46.0801ZM146.039 33.1094C143.635 33.1094 141.777 31.1553 141.777 28.8047C141.777 26.4541 143.635 24.5 146.039 24.5C148.443 24.5 150.3 26.4541 150.3 28.8047C150.3 31.1553 148.443 33.1094 146.039 33.1094ZM142.05 67.377V37.0176H150.027V67.377H142.05ZM172.729 68C168.522 68 165.298 65.791 163.714 62.1943H163.55V67.377H155.573V26.5107H163.55V42.2852H163.714C165.325 38.6035 168.576 36.3945 172.756 36.3945C180.104 36.3945 184.667 42.2852 184.667 52.1689V52.1973C184.667 62.0527 180.104 68 172.729 68ZM170.079 61.1465C174.04 61.1465 176.553 57.7197 176.553 52.1973V52.1689C176.553 46.6182 174.04 43.248 170.079 43.248C166.227 43.248 163.55 46.7031 163.55 52.1689V52.1973C163.55 57.6914 166.2 61.1465 170.079 61.1465ZM202.096 68C193.135 68 187.699 61.9678 187.699 52.2539V52.2256C187.699 42.5684 193.19 36.3945 201.768 36.3945C210.346 36.3945 215.727 42.4268 215.727 51.6025V54.1514H195.567C195.649 58.9941 198.189 61.8262 202.26 61.8262C205.538 61.8262 207.532 59.957 208.106 58.2578L208.16 58.0879H215.482L215.4 58.3994C214.498 62.874 210.455 68 202.096 68ZM201.904 42.5684C198.626 42.5684 196.168 44.834 195.649 48.9404H208.078C207.587 44.749 205.21 42.5684 201.904 42.5684ZM224.005 33.1094C221.601 33.1094 219.743 31.1553 219.743 28.8047C219.743 26.4541 221.601 24.5 224.005 24.5C226.409 24.5 228.266 26.4541 228.266 28.8047C228.266 31.1553 226.409 33.1094 224.005 33.1094ZM220.016 67.377V37.0176H227.993V67.377H220.016ZM233.348 67.377V37.0176H241.325V42.3135H241.488C242.363 38.5752 244.739 36.3945 248.154 36.3945C249.028 36.3945 249.848 36.5361 250.449 36.7061V43.9844C249.793 43.7012 248.7 43.5312 247.553 43.5312C243.619 43.5312 241.325 45.9668 241.325 50.3848V67.377H233.348ZM266.184 68C257.278 68 251.678 62.0811 251.678 52.1973V52.1406C251.678 42.3701 257.415 36.3945 266.157 36.3945C274.926 36.3945 280.69 42.3135 280.69 52.1406V52.1973C280.69 62.1094 275.035 68 266.184 68ZM266.211 61.5146C270.091 61.5146 272.577 58.1162 272.577 52.1973V52.1406C272.577 46.2783 270.036 42.8799 266.157 42.8799C262.305 42.8799 259.792 46.2783 259.792 52.1406V52.1973C259.792 58.1445 262.278 61.5146 266.211 61.5146Z" stroke="url(#paint4_linear_2049_96)" stroke-width="2" mask="url(#path-5-outside-3_2049_96)"/>
<mask id="path-6-outside-4_2049_96" maskUnits="userSpaceOnUse" x="12" y="0" width="265" height="46" fill="black">
<rect fill="white" x="12" width="265" height="46"/>
<path d="M13 43.877V3.01074H27.5003C38.869 3.01074 45.606 10.2891 45.606 23.2314V23.2881C45.606 36.2588 38.8953 43.877 27.5003 43.877H13ZM20.9475 36.7969H26.5529C33.6584 36.7969 37.5005 32.1523 37.5005 23.3164V23.2598C37.5005 14.7354 33.5268 10.0625 26.5529 10.0625H20.9475V36.7969ZM62.9222 44.5C54.2904 44.5 49.0534 38.4678 49.0534 28.7539V28.7256C49.0534 19.0684 54.343 12.8945 62.6064 12.8945C70.8697 12.8945 76.054 18.9268 76.054 28.1025V30.6514H56.6325C56.7115 35.4941 59.1589 38.3262 63.0801 38.3262C66.238 38.3262 68.1591 36.457 68.7118 34.7578L68.7644 34.5879H75.8172L75.7382 34.8994C74.8698 39.374 70.975 44.5 62.9222 44.5ZM62.7379 19.0684C59.58 19.0684 57.2115 21.334 56.7115 25.4404H68.6854C68.2117 21.249 65.9222 19.0684 62.7379 19.0684ZM86.4227 43.877L76.6593 13.5176H84.87L90.7649 36.5703H90.9228L96.7387 13.5176H104.765L95.0808 43.877H86.4227ZM108.107 43.877V3.01074H123.792C132.318 3.01074 137.371 7.88184 137.371 16.0947V16.1514C137.371 21.5322 134.713 26.0068 130.503 27.791L138.503 43.877H129.503L122.423 29.0654H116.055V43.877H108.107ZM116.055 22.5801H122.923C126.871 22.5801 129.239 20.1729 129.239 16.1514V16.0947C129.239 12.1865 126.739 9.69434 122.818 9.69434H116.055V22.5801ZM145.977 9.60938C143.661 9.60938 141.871 7.65527 141.871 5.30469C141.871 2.9541 143.661 1 145.977 1C148.292 1 150.082 2.9541 150.082 5.30469C150.082 7.65527 148.292 9.60938 145.977 9.60938ZM142.134 43.877V13.5176H149.819V43.877H142.134ZM171.688 44.5C167.635 44.5 164.53 42.291 163.003 38.6943H162.845V43.877H155.161V3.01074H162.845V18.7852H163.003C164.556 15.1035 167.688 12.8945 171.714 12.8945C178.793 12.8945 183.188 18.7852 183.188 28.6689V28.6973C183.188 38.5527 178.793 44.5 171.688 44.5ZM169.135 37.6465C172.951 37.6465 175.372 34.2197 175.372 28.6973V28.6689C175.372 23.1182 172.951 19.748 169.135 19.748C165.424 19.748 162.845 23.2031 162.845 28.6689V28.6973C162.845 34.1914 165.398 37.6465 169.135 37.6465ZM199.978 44.5C191.346 44.5 186.109 38.4678 186.109 28.7539V28.7256C186.109 19.0684 191.399 12.8945 199.662 12.8945C207.925 12.8945 213.11 18.9268 213.11 28.1025V30.6514H193.688C193.767 35.4941 196.215 38.3262 200.136 38.3262C203.294 38.3262 205.215 36.457 205.767 34.7578L205.82 34.5879H212.873L212.794 34.8994C211.925 39.374 208.031 44.5 199.978 44.5ZM199.794 19.0684C196.636 19.0684 194.267 21.334 193.767 25.4404H205.741C205.267 21.249 202.978 19.0684 199.794 19.0684ZM221.084 9.60938C218.768 9.60938 216.978 7.65527 216.978 5.30469C216.978 2.9541 218.768 1 221.084 1C223.399 1 225.189 2.9541 225.189 5.30469C225.189 7.65527 223.399 9.60938 221.084 9.60938ZM217.241 43.877V13.5176H224.926V43.877H217.241ZM230.084 43.877V13.5176H237.768V18.8135H237.926C238.768 15.0752 241.058 12.8945 244.347 12.8945C245.189 12.8945 245.979 13.0361 246.558 13.2061V20.4844C245.926 20.2012 244.874 20.0312 243.768 20.0312C239.979 20.0312 237.768 22.4668 237.768 26.8848V43.877H230.084ZM261.716 44.5C253.137 44.5 247.742 38.5811 247.742 28.6973V28.6406C247.742 18.8701 253.268 12.8945 261.69 12.8945C270.137 12.8945 275.69 18.8135 275.69 28.6406V28.6973C275.69 38.6094 270.243 44.5 261.716 44.5ZM261.742 38.0146C265.479 38.0146 267.874 34.6162 267.874 28.6973V28.6406C267.874 22.7783 265.427 19.3799 261.69 19.3799C257.979 19.3799 255.558 22.7783 255.558 28.6406V28.6973C255.558 34.6445 257.953 38.0146 261.742 38.0146Z"/>
</mask>
<path d="M13 43.877V3.01074H27.5003C38.869 3.01074 45.606 10.2891 45.606 23.2314V23.2881C45.606 36.2588 38.8953 43.877 27.5003 43.877H13ZM20.9475 36.7969H26.5529C33.6584 36.7969 37.5005 32.1523 37.5005 23.3164V23.2598C37.5005 14.7354 33.5268 10.0625 26.5529 10.0625H20.9475V36.7969ZM62.9222 44.5C54.2904 44.5 49.0534 38.4678 49.0534 28.7539V28.7256C49.0534 19.0684 54.343 12.8945 62.6064 12.8945C70.8697 12.8945 76.054 18.9268 76.054 28.1025V30.6514H56.6325C56.7115 35.4941 59.1589 38.3262 63.0801 38.3262C66.238 38.3262 68.1591 36.457 68.7118 34.7578L68.7644 34.5879H75.8172L75.7382 34.8994C74.8698 39.374 70.975 44.5 62.9222 44.5ZM62.7379 19.0684C59.58 19.0684 57.2115 21.334 56.7115 25.4404H68.6854C68.2117 21.249 65.9222 19.0684 62.7379 19.0684ZM86.4227 43.877L76.6593 13.5176H84.87L90.7649 36.5703H90.9228L96.7387 13.5176H104.765L95.0808 43.877H86.4227ZM108.107 43.877V3.01074H123.792C132.318 3.01074 137.371 7.88184 137.371 16.0947V16.1514C137.371 21.5322 134.713 26.0068 130.503 27.791L138.503 43.877H129.503L122.423 29.0654H116.055V43.877H108.107ZM116.055 22.5801H122.923C126.871 22.5801 129.239 20.1729 129.239 16.1514V16.0947C129.239 12.1865 126.739 9.69434 122.818 9.69434H116.055V22.5801ZM145.977 9.60938C143.661 9.60938 141.871 7.65527 141.871 5.30469C141.871 2.9541 143.661 1 145.977 1C148.292 1 150.082 2.9541 150.082 5.30469C150.082 7.65527 148.292 9.60938 145.977 9.60938ZM142.134 43.877V13.5176H149.819V43.877H142.134ZM171.688 44.5C167.635 44.5 164.53 42.291 163.003 38.6943H162.845V43.877H155.161V3.01074H162.845V18.7852H163.003C164.556 15.1035 167.688 12.8945 171.714 12.8945C178.793 12.8945 183.188 18.7852 183.188 28.6689V28.6973C183.188 38.5527 178.793 44.5 171.688 44.5ZM169.135 37.6465C172.951 37.6465 175.372 34.2197 175.372 28.6973V28.6689C175.372 23.1182 172.951 19.748 169.135 19.748C165.424 19.748 162.845 23.2031 162.845 28.6689V28.6973C162.845 34.1914 165.398 37.6465 169.135 37.6465ZM199.978 44.5C191.346 44.5 186.109 38.4678 186.109 28.7539V28.7256C186.109 19.0684 191.399 12.8945 199.662 12.8945C207.925 12.8945 213.11 18.9268 213.11 28.1025V30.6514H193.688C193.767 35.4941 196.215 38.3262 200.136 38.3262C203.294 38.3262 205.215 36.457 205.767 34.7578L205.82 34.5879H212.873L212.794 34.8994C211.925 39.374 208.031 44.5 199.978 44.5ZM199.794 19.0684C196.636 19.0684 194.267 21.334 193.767 25.4404H205.741C205.267 21.249 202.978 19.0684 199.794 19.0684ZM221.084 9.60938C218.768 9.60938 216.978 7.65527 216.978 5.30469C216.978 2.9541 218.768 1 221.084 1C223.399 1 225.189 2.9541 225.189 5.30469C225.189 7.65527 223.399 9.60938 221.084 9.60938ZM217.241 43.877V13.5176H224.926V43.877H217.241ZM230.084 43.877V13.5176H237.768V18.8135H237.926C238.768 15.0752 241.058 12.8945 244.347 12.8945C245.189 12.8945 245.979 13.0361 246.558 13.2061V20.4844C245.926 20.2012 244.874 20.0312 243.768 20.0312C239.979 20.0312 237.768 22.4668 237.768 26.8848V43.877H230.084ZM261.716 44.5C253.137 44.5 247.742 38.5811 247.742 28.6973V28.6406C247.742 18.8701 253.268 12.8945 261.69 12.8945C270.137 12.8945 275.69 18.8135 275.69 28.6406V28.6973C275.69 38.6094 270.243 44.5 261.716 44.5ZM261.742 38.0146C265.479 38.0146 267.874 34.6162 267.874 28.6973V28.6406C267.874 22.7783 265.427 19.3799 261.69 19.3799C257.979 19.3799 255.558 22.7783 255.558 28.6406V28.6973C255.558 34.6445 257.953 38.0146 261.742 38.0146Z" stroke="url(#paint5_linear_2049_96)" stroke-width="2" mask="url(#path-6-outside-4_2049_96)"/>
<defs>
<linearGradient id="paint0_linear_2049_96" x1="144" y1="85" x2="144" y2="126" gradientUnits="userSpaceOnUse">
<stop offset="0.453125" stop-color="#C4C4C4" stop-opacity="0"/>
<stop offset="1" stop-color="#D9D9D9"/>
</linearGradient>
<linearGradient id="paint1_linear_2049_96" x1="144.345" y1="106" x2="144.345" y2="149.5" gradientUnits="userSpaceOnUse">
<stop offset="0.453125" stop-color="#C4C4C4" stop-opacity="0"/>
<stop offset="1" stop-color="#D9D9D9"/>
</linearGradient>
<linearGradient id="paint2_linear_2049_96" x1="144.345" y1="129.5" x2="144.345" y2="173" gradientUnits="userSpaceOnUse">
<stop offset="0.453125" stop-color="#C4C4C4" stop-opacity="0"/>
<stop offset="1" stop-color="#D9D9D9"/>
</linearGradient>
<linearGradient id="paint3_linear_2049_96" x1="144" y1="48" x2="144" y2="89" gradientUnits="userSpaceOnUse">
<stop stop-color="#D9D9D9"/>
<stop offset="0.916667" stop-color="#DDDDDD" stop-opacity="0"/>
</linearGradient>
<linearGradient id="paint4_linear_2049_96" x1="144.345" y1="24.5" x2="144.345" y2="68" gradientUnits="userSpaceOnUse">
<stop stop-color="#D9D9D9"/>
<stop offset="0.916667" stop-color="#DDDDDD" stop-opacity="0"/>
</linearGradient>
<linearGradient id="paint5_linear_2049_96" x1="144.345" y1="1" x2="144.345" y2="44.5" gradientUnits="userSpaceOnUse">
<stop stop-color="#D9D9D9"/>
<stop offset="0.916667" stop-color="#DDDDDD" stop-opacity="0"/>
</linearGradient>
</defs>
</svg>
