<svg width="308" height="174" viewBox="0 0 308 174" fill="none" xmlns="http://www.w3.org/2000/svg">
<mask id="path-1-outside-1_2116_95" maskUnits="userSpaceOnUse" x="4.80664" y="103.623" width="298" height="46" fill="black">
<rect fill="white" x="4.80664" y="103.623" width="298" height="46"/>
<path d="M5.80664 147.5V106.634H22.0999C34.8744 106.634 42.4444 113.912 42.4444 126.854V126.911C42.4444 139.882 34.9039 147.5 22.0999 147.5H5.80664ZM14.7369 140.42H21.0354C29.0194 140.42 33.3367 135.775 33.3367 126.939V126.883C33.3367 118.358 28.8716 113.686 21.0354 113.686H14.7369V140.42ZM61.9017 148.123C52.2026 148.123 46.3181 142.091 46.3181 132.377V132.349C46.3181 122.691 52.2618 116.518 61.5469 116.518C70.832 116.518 76.6574 122.55 76.6574 131.726V134.274H54.8344C54.9231 139.117 57.6732 141.949 62.0791 141.949C65.6276 141.949 67.7862 140.08 68.4072 138.381L68.4664 138.211H76.3912L76.3025 138.522C75.3267 142.997 70.9503 148.123 61.9017 148.123ZM61.6947 122.691C58.1463 122.691 55.4849 124.957 54.9231 129.063H68.3776C67.8454 124.872 65.2728 122.691 61.6947 122.691ZM88.3081 147.5L77.3375 117.141H86.5635L93.1872 140.193H93.3646L99.8997 117.141H108.919L98.0368 147.5H88.3081ZM112.674 147.5V106.634H130.298C139.879 106.634 145.556 111.505 145.556 119.718V119.774C145.556 125.155 142.57 129.63 137.839 131.414L146.828 147.5H136.715L128.76 132.688H121.604V147.5H112.674ZM121.604 126.203H129.322C133.758 126.203 136.419 123.796 136.419 119.774V119.718C136.419 115.81 133.61 113.317 129.204 113.317H121.604V126.203ZM155.226 113.232C152.624 113.232 150.613 111.278 150.613 108.928C150.613 106.577 152.624 104.623 155.226 104.623C157.828 104.623 159.839 106.577 159.839 108.928C159.839 111.278 157.828 113.232 155.226 113.232ZM150.909 147.5V117.141H159.543V147.5H150.909ZM184.116 148.123C179.562 148.123 176.073 145.914 174.358 142.317H174.181V147.5H165.546V106.634H174.181V122.408H174.358C176.103 118.727 179.622 116.518 184.146 116.518C192.1 116.518 197.039 122.408 197.039 132.292V132.32C197.039 142.176 192.1 148.123 184.116 148.123ZM181.248 141.27C185.536 141.27 188.256 137.843 188.256 132.32V132.292C188.256 126.741 185.536 123.371 181.248 123.371C177.079 123.371 174.181 126.826 174.181 132.292V132.32C174.181 137.814 177.049 141.27 181.248 141.27ZM215.904 148.123C206.205 148.123 200.321 142.091 200.321 132.377V132.349C200.321 122.691 206.265 116.518 215.55 116.518C224.835 116.518 230.66 122.55 230.66 131.726V134.274H208.837C208.926 139.117 211.676 141.949 216.082 141.949C219.63 141.949 221.789 140.08 222.41 138.381L222.469 138.211H230.394L230.305 138.522C229.329 142.997 224.953 148.123 215.904 148.123ZM215.697 122.691C212.149 122.691 209.488 124.957 208.926 129.063H222.38C221.848 124.872 219.275 122.691 215.697 122.691ZM239.62 113.232C237.018 113.232 235.007 111.278 235.007 108.928C235.007 106.577 237.018 104.623 239.62 104.623C242.222 104.623 244.233 106.577 244.233 108.928C244.233 111.278 242.222 113.232 239.62 113.232ZM235.303 147.5V117.141H243.937V147.5H235.303ZM249.733 147.5V117.141H258.368V122.437H258.545C259.491 118.698 262.064 116.518 265.76 116.518C266.706 116.518 267.594 116.659 268.244 116.829V124.107C267.534 123.824 266.352 123.654 265.11 123.654C260.851 123.654 258.368 126.09 258.368 130.508V147.5H249.733ZM285.277 148.123C275.637 148.123 269.575 142.204 269.575 132.32V132.264C269.575 122.493 275.785 116.518 285.247 116.518C294.739 116.518 300.979 122.437 300.979 132.264V132.32C300.979 142.232 294.857 148.123 285.277 148.123ZM285.306 141.638C289.505 141.638 292.196 138.239 292.196 132.32V132.264C292.196 126.401 289.446 123.003 285.247 123.003C281.078 123.003 278.357 126.401 278.357 132.264V132.32C278.357 138.268 281.048 141.638 285.306 141.638Z"/>
</mask>
<path d="M5.80664 147.5V106.634H22.0999C34.8744 106.634 42.4444 113.912 42.4444 126.854V126.911C42.4444 139.882 34.9039 147.5 22.0999 147.5H5.80664ZM14.7369 140.42H21.0354C29.0194 140.42 33.3367 135.775 33.3367 126.939V126.883C33.3367 118.358 28.8716 113.686 21.0354 113.686H14.7369V140.42ZM61.9017 148.123C52.2026 148.123 46.3181 142.091 46.3181 132.377V132.349C46.3181 122.691 52.2618 116.518 61.5469 116.518C70.832 116.518 76.6574 122.55 76.6574 131.726V134.274H54.8344C54.9231 139.117 57.6732 141.949 62.0791 141.949C65.6276 141.949 67.7862 140.08 68.4072 138.381L68.4664 138.211H76.3912L76.3025 138.522C75.3267 142.997 70.9503 148.123 61.9017 148.123ZM61.6947 122.691C58.1463 122.691 55.4849 124.957 54.9231 129.063H68.3776C67.8454 124.872 65.2728 122.691 61.6947 122.691ZM88.3081 147.5L77.3375 117.141H86.5635L93.1872 140.193H93.3646L99.8997 117.141H108.919L98.0368 147.5H88.3081ZM112.674 147.5V106.634H130.298C139.879 106.634 145.556 111.505 145.556 119.718V119.774C145.556 125.155 142.57 129.63 137.839 131.414L146.828 147.5H136.715L128.76 132.688H121.604V147.5H112.674ZM121.604 126.203H129.322C133.758 126.203 136.419 123.796 136.419 119.774V119.718C136.419 115.81 133.61 113.317 129.204 113.317H121.604V126.203ZM155.226 113.232C152.624 113.232 150.613 111.278 150.613 108.928C150.613 106.577 152.624 104.623 155.226 104.623C157.828 104.623 159.839 106.577 159.839 108.928C159.839 111.278 157.828 113.232 155.226 113.232ZM150.909 147.5V117.141H159.543V147.5H150.909ZM184.116 148.123C179.562 148.123 176.073 145.914 174.358 142.317H174.181V147.5H165.546V106.634H174.181V122.408H174.358C176.103 118.727 179.622 116.518 184.146 116.518C192.1 116.518 197.039 122.408 197.039 132.292V132.32C197.039 142.176 192.1 148.123 184.116 148.123ZM181.248 141.27C185.536 141.27 188.256 137.843 188.256 132.32V132.292C188.256 126.741 185.536 123.371 181.248 123.371C177.079 123.371 174.181 126.826 174.181 132.292V132.32C174.181 137.814 177.049 141.27 181.248 141.27ZM215.904 148.123C206.205 148.123 200.321 142.091 200.321 132.377V132.349C200.321 122.691 206.265 116.518 215.55 116.518C224.835 116.518 230.66 122.55 230.66 131.726V134.274H208.837C208.926 139.117 211.676 141.949 216.082 141.949C219.63 141.949 221.789 140.08 222.41 138.381L222.469 138.211H230.394L230.305 138.522C229.329 142.997 224.953 148.123 215.904 148.123ZM215.697 122.691C212.149 122.691 209.488 124.957 208.926 129.063H222.38C221.848 124.872 219.275 122.691 215.697 122.691ZM239.62 113.232C237.018 113.232 235.007 111.278 235.007 108.928C235.007 106.577 237.018 104.623 239.62 104.623C242.222 104.623 244.233 106.577 244.233 108.928C244.233 111.278 242.222 113.232 239.62 113.232ZM235.303 147.5V117.141H243.937V147.5H235.303ZM249.733 147.5V117.141H258.368V122.437H258.545C259.491 118.698 262.064 116.518 265.76 116.518C266.706 116.518 267.594 116.659 268.244 116.829V124.107C267.534 123.824 266.352 123.654 265.11 123.654C260.851 123.654 258.368 126.09 258.368 130.508V147.5H249.733ZM285.277 148.123C275.637 148.123 269.575 142.204 269.575 132.32V132.264C269.575 122.493 275.785 116.518 285.247 116.518C294.739 116.518 300.979 122.437 300.979 132.264V132.32C300.979 142.232 294.857 148.123 285.277 148.123ZM285.306 141.638C289.505 141.638 292.196 138.239 292.196 132.32V132.264C292.196 126.401 289.446 123.003 285.247 123.003C281.078 123.003 278.357 126.401 278.357 132.264V132.32C278.357 138.268 281.048 141.638 285.306 141.638Z" stroke="url(#paint0_linear_2116_95)" stroke-width="2" mask="url(#path-1-outside-1_2116_95)"/>
<mask id="path-2-outside-2_2116_95" maskUnits="userSpaceOnUse" x="10.2188" y="128.5" width="287" height="46" fill="black">
<rect fill="white" x="10.2188" y="128.5" width="287" height="46"/>
<path d="M11.2188 172.377V131.511H26.9145C39.2205 131.511 46.5129 138.789 46.5129 151.731V151.788C46.5129 164.759 39.249 172.377 26.9145 172.377H11.2188ZM19.8215 165.297H25.8891C33.5803 165.297 37.7392 160.652 37.7392 151.816V151.76C37.7392 143.235 33.4378 138.562 25.8891 138.562H19.8215V165.297ZM65.2567 173C55.9133 173 50.2446 166.968 50.2446 157.254V157.226C50.2446 147.568 55.9703 141.395 64.9149 141.395C73.8595 141.395 79.4713 147.427 79.4713 156.603V159.151H58.4486C58.534 163.994 61.1832 166.826 65.4277 166.826C68.846 166.826 70.9255 164.957 71.5237 163.258L71.5806 163.088H79.2149L79.1294 163.399C78.1894 167.874 73.9735 173 65.2567 173ZM65.0573 147.568C61.639 147.568 59.0753 149.834 58.534 153.94H71.4952C70.9824 149.749 68.5041 147.568 65.0573 147.568ZM90.6948 172.377L80.1264 142.018H89.0141L95.3949 165.07H95.5659L101.861 142.018H110.55L100.067 172.377H90.6948ZM114.167 172.377V131.511H131.145C140.374 131.511 145.844 136.382 145.844 144.595V144.651C145.844 150.032 142.967 154.507 138.409 156.291L147.069 172.377H137.326L129.664 157.565H122.77V172.377H114.167ZM122.77 151.08H130.205C134.478 151.08 137.042 148.673 137.042 144.651V144.595C137.042 140.687 134.335 138.194 130.091 138.194H122.77V151.08ZM155.159 138.109C152.652 138.109 150.715 136.155 150.715 133.805C150.715 131.454 152.652 129.5 155.159 129.5C157.665 129.5 159.602 131.454 159.602 133.805C159.602 136.155 157.665 138.109 155.159 138.109ZM151 172.377V142.018H159.318V172.377H151ZM182.989 173C178.603 173 175.241 170.791 173.589 167.194H173.418V172.377H165.1V131.511H173.418V147.285H173.589C175.27 143.604 178.66 141.395 183.018 141.395C190.681 141.395 195.438 147.285 195.438 157.169V157.197C195.438 167.053 190.681 173 182.989 173ZM180.226 166.146C184.357 166.146 186.978 162.72 186.978 157.197V157.169C186.978 151.618 184.357 148.248 180.226 148.248C176.21 148.248 173.418 151.703 173.418 157.169V157.197C173.418 162.691 176.181 166.146 180.226 166.146ZM213.612 173C204.269 173 198.6 166.968 198.6 157.254V157.226C198.6 147.568 204.325 141.395 213.27 141.395C222.215 141.395 227.826 147.427 227.826 156.603V159.151H206.804C206.889 163.994 209.538 166.826 213.783 166.826C217.201 166.826 219.281 164.957 219.879 163.258L219.936 163.088H227.57L227.485 163.399C226.545 167.874 222.329 173 213.612 173ZM213.413 147.568C209.994 147.568 207.43 149.834 206.889 153.94H219.85C219.338 149.749 216.859 147.568 213.413 147.568ZM236.458 138.109C233.951 138.109 232.014 136.155 232.014 133.805C232.014 131.454 233.951 129.5 236.458 129.5C238.964 129.5 240.902 131.454 240.902 133.805C240.902 136.155 238.964 138.109 236.458 138.109ZM232.299 172.377V142.018H240.617V172.377H232.299ZM246.2 172.377V142.018H254.518V147.313H254.689C255.6 143.575 258.079 141.395 261.639 141.395C262.551 141.395 263.406 141.536 264.032 141.706V148.984C263.349 148.701 262.209 148.531 261.013 148.531C256.911 148.531 254.518 150.967 254.518 155.385V172.377H246.2ZM280.44 173C271.154 173 265.314 167.081 265.314 157.197V157.141C265.314 147.37 271.296 141.395 280.412 141.395C289.556 141.395 295.566 147.313 295.566 157.141V157.197C295.566 167.109 289.67 173 280.44 173ZM280.469 166.515C284.514 166.515 287.106 163.116 287.106 157.197V157.141C287.106 151.278 284.457 147.88 280.412 147.88C276.395 147.88 273.774 151.278 273.774 157.141V157.197C273.774 163.145 276.367 166.515 280.469 166.515Z"/>
</mask>
<path d="M11.2188 172.377V131.511H26.9145C39.2205 131.511 46.5129 138.789 46.5129 151.731V151.788C46.5129 164.759 39.249 172.377 26.9145 172.377H11.2188ZM19.8215 165.297H25.8891C33.5803 165.297 37.7392 160.652 37.7392 151.816V151.76C37.7392 143.235 33.4378 138.562 25.8891 138.562H19.8215V165.297ZM65.2567 173C55.9133 173 50.2446 166.968 50.2446 157.254V157.226C50.2446 147.568 55.9703 141.395 64.9149 141.395C73.8595 141.395 79.4713 147.427 79.4713 156.603V159.151H58.4486C58.534 163.994 61.1832 166.826 65.4277 166.826C68.846 166.826 70.9255 164.957 71.5237 163.258L71.5806 163.088H79.2149L79.1294 163.399C78.1894 167.874 73.9735 173 65.2567 173ZM65.0573 147.568C61.639 147.568 59.0753 149.834 58.534 153.94H71.4952C70.9824 149.749 68.5041 147.568 65.0573 147.568ZM90.6948 172.377L80.1264 142.018H89.0141L95.3949 165.07H95.5659L101.861 142.018H110.55L100.067 172.377H90.6948ZM114.167 172.377V131.511H131.145C140.374 131.511 145.844 136.382 145.844 144.595V144.651C145.844 150.032 142.967 154.507 138.409 156.291L147.069 172.377H137.326L129.664 157.565H122.77V172.377H114.167ZM122.77 151.08H130.205C134.478 151.08 137.042 148.673 137.042 144.651V144.595C137.042 140.687 134.335 138.194 130.091 138.194H122.77V151.08ZM155.159 138.109C152.652 138.109 150.715 136.155 150.715 133.805C150.715 131.454 152.652 129.5 155.159 129.5C157.665 129.5 159.602 131.454 159.602 133.805C159.602 136.155 157.665 138.109 155.159 138.109ZM151 172.377V142.018H159.318V172.377H151ZM182.989 173C178.603 173 175.241 170.791 173.589 167.194H173.418V172.377H165.1V131.511H173.418V147.285H173.589C175.27 143.604 178.66 141.395 183.018 141.395C190.681 141.395 195.438 147.285 195.438 157.169V157.197C195.438 167.053 190.681 173 182.989 173ZM180.226 166.146C184.357 166.146 186.978 162.72 186.978 157.197V157.169C186.978 151.618 184.357 148.248 180.226 148.248C176.21 148.248 173.418 151.703 173.418 157.169V157.197C173.418 162.691 176.181 166.146 180.226 166.146ZM213.612 173C204.269 173 198.6 166.968 198.6 157.254V157.226C198.6 147.568 204.325 141.395 213.27 141.395C222.215 141.395 227.826 147.427 227.826 156.603V159.151H206.804C206.889 163.994 209.538 166.826 213.783 166.826C217.201 166.826 219.281 164.957 219.879 163.258L219.936 163.088H227.57L227.485 163.399C226.545 167.874 222.329 173 213.612 173ZM213.413 147.568C209.994 147.568 207.43 149.834 206.889 153.94H219.85C219.338 149.749 216.859 147.568 213.413 147.568ZM236.458 138.109C233.951 138.109 232.014 136.155 232.014 133.805C232.014 131.454 233.951 129.5 236.458 129.5C238.964 129.5 240.902 131.454 240.902 133.805C240.902 136.155 238.964 138.109 236.458 138.109ZM232.299 172.377V142.018H240.617V172.377H232.299ZM246.2 172.377V142.018H254.518V147.313H254.689C255.6 143.575 258.079 141.395 261.639 141.395C262.551 141.395 263.406 141.536 264.032 141.706V148.984C263.349 148.701 262.209 148.531 261.013 148.531C256.911 148.531 254.518 150.967 254.518 155.385V172.377H246.2ZM280.44 173C271.154 173 265.314 167.081 265.314 157.197V157.141C265.314 147.37 271.296 141.395 280.412 141.395C289.556 141.395 295.566 147.313 295.566 157.141V157.197C295.566 167.109 289.67 173 280.44 173ZM280.469 166.515C284.514 166.515 287.106 163.116 287.106 157.197V157.141C287.106 151.278 284.457 147.88 280.412 147.88C276.395 147.88 273.774 151.278 273.774 157.141V157.197C273.774 163.145 276.367 166.515 280.469 166.515Z" stroke="url(#paint1_linear_2116_95)" stroke-width="2" mask="url(#path-2-outside-2_2116_95)"/>
<mask id="path-3-outside-3_2116_95" maskUnits="userSpaceOnUse" x="0" y="45.123" width="308" height="83" fill="black">
<rect fill="white" y="45.123" width="308" height="83"/>
<path d="M1 126V85.1338H17.891C31.134 85.1338 38.9818 92.4121 38.9818 105.354V105.411C38.9818 118.382 31.1647 126 17.891 126H1ZM10.2579 118.92H16.7874C25.0643 118.92 29.54 114.275 29.54 105.439V105.383C29.54 96.8584 24.911 92.1855 16.7874 92.1855H10.2579V118.92ZM59.1529 126.623C49.098 126.623 42.9976 120.591 42.9976 110.877V110.849C42.9976 101.191 49.1593 95.0176 58.785 95.0176C68.4107 95.0176 74.4498 101.05 74.4498 110.226V112.774H51.8263C51.9183 117.617 54.7692 120.449 59.3368 120.449C63.0154 120.449 65.2533 118.58 65.897 116.881L65.9583 116.711H74.1739L74.0819 117.022C73.0703 121.497 68.5334 126.623 59.1529 126.623ZM58.9383 101.191C55.2597 101.191 52.5007 103.457 51.9183 107.563H65.8664C65.3146 103.372 62.6476 101.191 58.9383 101.191ZM86.5279 126L75.1549 95.6406H84.7193L91.5861 118.693H91.77L98.5448 95.6406H107.895L96.6135 126H86.5279ZM111.788 126V85.1338H130.058C139.991 85.1338 145.876 90.0049 145.876 98.2178V98.2744C145.876 103.655 142.78 108.13 137.875 109.914L147.195 126H136.71L128.464 111.188H121.046V126H111.788ZM121.046 104.703H129.047C133.645 104.703 136.404 102.296 136.404 98.2744V98.2178C136.404 94.3096 133.492 91.8174 128.924 91.8174H121.046V104.703ZM155.901 91.7324C153.203 91.7324 151.118 89.7783 151.118 87.4277C151.118 85.0771 153.203 83.123 155.901 83.123C158.598 83.123 160.683 85.0771 160.683 87.4277C160.683 89.7783 158.598 91.7324 155.901 91.7324ZM151.425 126V95.6406H160.376V126H151.425ZM185.851 126.623C181.13 126.623 177.513 124.414 175.735 120.817H175.551V126H166.599V85.1338H175.551V100.908H175.735C177.543 97.2266 181.191 95.0176 185.881 95.0176C194.128 95.0176 199.247 100.908 199.247 110.792V110.82C199.247 120.676 194.128 126.623 185.851 126.623ZM182.877 119.77C187.322 119.77 190.142 116.343 190.142 110.82V110.792C190.142 105.241 187.322 101.871 182.877 101.871C178.555 101.871 175.551 105.326 175.551 110.792V110.82C175.551 116.314 178.524 119.77 182.877 119.77ZM218.805 126.623C208.75 126.623 202.65 120.591 202.65 110.877V110.849C202.65 101.191 208.811 95.0176 218.437 95.0176C228.063 95.0176 234.102 101.05 234.102 110.226V112.774H211.478C211.57 117.617 214.421 120.449 218.989 120.449C222.668 120.449 224.905 118.58 225.549 116.881L225.61 116.711H233.826L233.734 117.022C232.722 121.497 228.186 126.623 218.805 126.623ZM218.59 101.191C214.912 101.191 212.153 103.457 211.57 107.563H225.519C224.967 103.372 222.3 101.191 218.59 101.191ZM243.39 91.7324C240.693 91.7324 238.608 89.7783 238.608 87.4277C238.608 85.0771 240.693 83.123 243.39 83.123C246.088 83.123 248.173 85.0771 248.173 87.4277C248.173 89.7783 246.088 91.7324 243.39 91.7324ZM238.915 126V95.6406H247.866V126H238.915ZM253.875 126V95.6406H262.826V100.937H263.01C263.991 97.1982 266.658 95.0176 270.49 95.0176C271.471 95.0176 272.39 95.1592 273.065 95.3291V102.607C272.329 102.324 271.103 102.154 269.815 102.154C265.401 102.154 262.826 104.59 262.826 109.008V126H253.875ZM290.722 126.623C280.728 126.623 274.444 120.704 274.444 110.82V110.764C274.444 100.993 280.882 95.0176 290.691 95.0176C300.532 95.0176 307 100.937 307 110.764V110.82C307 120.732 300.654 126.623 290.722 126.623ZM290.753 120.138C295.106 120.138 297.895 116.739 297.895 110.82V110.764C297.895 104.901 295.044 101.503 290.691 101.503C286.369 101.503 283.549 104.901 283.549 110.764V110.82C283.549 116.768 286.338 120.138 290.753 120.138Z"/>
<path d="M1 89V48.1338H17.891C31.134 48.1338 38.9818 55.4121 38.9818 68.3545V68.4111C38.9818 81.3818 31.1647 89 17.891 89H1ZM10.2579 81.9199H16.7874C25.0643 81.9199 29.54 77.2754 29.54 68.4395V68.3828C29.54 59.8584 24.911 55.1855 16.7874 55.1855H10.2579V81.9199ZM59.1529 89.623C49.098 89.623 42.9976 83.5908 42.9976 73.877V73.8486C42.9976 64.1914 49.1593 58.0176 58.785 58.0176C68.4107 58.0176 74.4498 64.0498 74.4498 73.2256V75.7744H51.8263C51.9183 80.6172 54.7692 83.4492 59.3368 83.4492C63.0154 83.4492 65.2533 81.5801 65.897 79.8809L65.9583 79.7109H74.1739L74.0819 80.0225C73.0703 84.4971 68.5334 89.623 59.1529 89.623ZM58.9383 64.1914C55.2597 64.1914 52.5007 66.457 51.9183 70.5635H65.8664C65.3146 66.3721 62.6476 64.1914 58.9383 64.1914ZM86.5279 89L75.1549 58.6406H84.7193L91.5861 81.6934H91.77L98.5448 58.6406H107.895L96.6135 89H86.5279ZM111.788 89V48.1338H130.058C139.991 48.1338 145.876 53.0049 145.876 61.2178V61.2744C145.876 66.6553 142.78 71.1299 137.875 72.9141L147.195 89H136.71L128.464 74.1885H121.046V89H111.788ZM121.046 67.7031H129.047C133.645 67.7031 136.404 65.2959 136.404 61.2744V61.2178C136.404 57.3096 133.492 54.8174 128.924 54.8174H121.046V67.7031ZM155.901 54.7324C153.203 54.7324 151.118 52.7783 151.118 50.4277C151.118 48.0771 153.203 46.123 155.901 46.123C158.598 46.123 160.683 48.0771 160.683 50.4277C160.683 52.7783 158.598 54.7324 155.901 54.7324ZM151.425 89V58.6406H160.376V89H151.425ZM185.851 89.623C181.13 89.623 177.513 87.4141 175.735 83.8174H175.551V89H166.599V48.1338H175.551V63.9082H175.735C177.543 60.2266 181.191 58.0176 185.881 58.0176C194.128 58.0176 199.247 63.9082 199.247 73.792V73.8203C199.247 83.6758 194.128 89.623 185.851 89.623ZM182.877 82.7695C187.322 82.7695 190.142 79.3428 190.142 73.8203V73.792C190.142 68.2412 187.322 64.8711 182.877 64.8711C178.555 64.8711 175.551 68.3262 175.551 73.792V73.8203C175.551 79.3145 178.524 82.7695 182.877 82.7695ZM218.805 89.623C208.75 89.623 202.65 83.5908 202.65 73.877V73.8486C202.65 64.1914 208.811 58.0176 218.437 58.0176C228.063 58.0176 234.102 64.0498 234.102 73.2256V75.7744H211.478C211.57 80.6172 214.421 83.4492 218.989 83.4492C222.668 83.4492 224.905 81.5801 225.549 79.8809L225.61 79.7109H233.826L233.734 80.0225C232.722 84.4971 228.186 89.623 218.805 89.623ZM218.59 64.1914C214.912 64.1914 212.153 66.457 211.57 70.5635H225.519C224.967 66.3721 222.3 64.1914 218.59 64.1914ZM243.39 54.7324C240.693 54.7324 238.608 52.7783 238.608 50.4277C238.608 48.0771 240.693 46.123 243.39 46.123C246.088 46.123 248.173 48.0771 248.173 50.4277C248.173 52.7783 246.088 54.7324 243.39 54.7324ZM238.915 89V58.6406H247.866V89H238.915ZM253.875 89V58.6406H262.826V63.9365H263.01C263.991 60.1982 266.658 58.0176 270.49 58.0176C271.471 58.0176 272.39 58.1592 273.065 58.3291V65.6074C272.329 65.3242 271.103 65.1543 269.815 65.1543C265.401 65.1543 262.826 67.5898 262.826 72.0078V89H253.875ZM290.722 89.623C280.728 89.623 274.444 83.7041 274.444 73.8203V73.7637C274.444 63.9932 280.882 58.0176 290.691 58.0176C300.532 58.0176 307 63.9365 307 73.7637V73.8203C307 83.7324 300.654 89.623 290.722 89.623ZM290.753 83.1377C295.106 83.1377 297.895 79.7393 297.895 73.8203V73.7637C297.895 67.9014 295.044 64.5029 290.691 64.5029C286.369 64.5029 283.549 67.9014 283.549 73.7637V73.8203C283.549 79.7676 286.338 83.1377 290.753 83.1377Z"/>
</mask>
<path d="M1 126V85.1338H17.891C31.134 85.1338 38.9818 92.4121 38.9818 105.354V105.411C38.9818 118.382 31.1647 126 17.891 126H1ZM10.2579 118.92H16.7874C25.0643 118.92 29.54 114.275 29.54 105.439V105.383C29.54 96.8584 24.911 92.1855 16.7874 92.1855H10.2579V118.92ZM59.1529 126.623C49.098 126.623 42.9976 120.591 42.9976 110.877V110.849C42.9976 101.191 49.1593 95.0176 58.785 95.0176C68.4107 95.0176 74.4498 101.05 74.4498 110.226V112.774H51.8263C51.9183 117.617 54.7692 120.449 59.3368 120.449C63.0154 120.449 65.2533 118.58 65.897 116.881L65.9583 116.711H74.1739L74.0819 117.022C73.0703 121.497 68.5334 126.623 59.1529 126.623ZM58.9383 101.191C55.2597 101.191 52.5007 103.457 51.9183 107.563H65.8664C65.3146 103.372 62.6476 101.191 58.9383 101.191ZM86.5279 126L75.1549 95.6406H84.7193L91.5861 118.693H91.77L98.5448 95.6406H107.895L96.6135 126H86.5279ZM111.788 126V85.1338H130.058C139.991 85.1338 145.876 90.0049 145.876 98.2178V98.2744C145.876 103.655 142.78 108.13 137.875 109.914L147.195 126H136.71L128.464 111.188H121.046V126H111.788ZM121.046 104.703H129.047C133.645 104.703 136.404 102.296 136.404 98.2744V98.2178C136.404 94.3096 133.492 91.8174 128.924 91.8174H121.046V104.703ZM155.901 91.7324C153.203 91.7324 151.118 89.7783 151.118 87.4277C151.118 85.0771 153.203 83.123 155.901 83.123C158.598 83.123 160.683 85.0771 160.683 87.4277C160.683 89.7783 158.598 91.7324 155.901 91.7324ZM151.425 126V95.6406H160.376V126H151.425ZM185.851 126.623C181.13 126.623 177.513 124.414 175.735 120.817H175.551V126H166.599V85.1338H175.551V100.908H175.735C177.543 97.2266 181.191 95.0176 185.881 95.0176C194.128 95.0176 199.247 100.908 199.247 110.792V110.82C199.247 120.676 194.128 126.623 185.851 126.623ZM182.877 119.77C187.322 119.77 190.142 116.343 190.142 110.82V110.792C190.142 105.241 187.322 101.871 182.877 101.871C178.555 101.871 175.551 105.326 175.551 110.792V110.82C175.551 116.314 178.524 119.77 182.877 119.77ZM218.805 126.623C208.75 126.623 202.65 120.591 202.65 110.877V110.849C202.65 101.191 208.811 95.0176 218.437 95.0176C228.063 95.0176 234.102 101.05 234.102 110.226V112.774H211.478C211.57 117.617 214.421 120.449 218.989 120.449C222.668 120.449 224.905 118.58 225.549 116.881L225.61 116.711H233.826L233.734 117.022C232.722 121.497 228.186 126.623 218.805 126.623ZM218.59 101.191C214.912 101.191 212.153 103.457 211.57 107.563H225.519C224.967 103.372 222.3 101.191 218.59 101.191ZM243.39 91.7324C240.693 91.7324 238.608 89.7783 238.608 87.4277C238.608 85.0771 240.693 83.123 243.39 83.123C246.088 83.123 248.173 85.0771 248.173 87.4277C248.173 89.7783 246.088 91.7324 243.39 91.7324ZM238.915 126V95.6406H247.866V126H238.915ZM253.875 126V95.6406H262.826V100.937H263.01C263.991 97.1982 266.658 95.0176 270.49 95.0176C271.471 95.0176 272.39 95.1592 273.065 95.3291V102.607C272.329 102.324 271.103 102.154 269.815 102.154C265.401 102.154 262.826 104.59 262.826 109.008V126H253.875ZM290.722 126.623C280.728 126.623 274.444 120.704 274.444 110.82V110.764C274.444 100.993 280.882 95.0176 290.691 95.0176C300.532 95.0176 307 100.937 307 110.764V110.82C307 120.732 300.654 126.623 290.722 126.623ZM290.753 120.138C295.106 120.138 297.895 116.739 297.895 110.82V110.764C297.895 104.901 295.044 101.503 290.691 101.503C286.369 101.503 283.549 104.901 283.549 110.764V110.82C283.549 116.768 286.338 120.138 290.753 120.138Z" stroke="url(#paint2_linear_2116_95)" stroke-width="2" mask="url(#path-3-outside-3_2116_95)"/>
<path d="M1 89V48.1338H17.891C31.134 48.1338 38.9818 55.4121 38.9818 68.3545V68.4111C38.9818 81.3818 31.1647 89 17.891 89H1ZM10.2579 81.9199H16.7874C25.0643 81.9199 29.54 77.2754 29.54 68.4395V68.3828C29.54 59.8584 24.911 55.1855 16.7874 55.1855H10.2579V81.9199ZM59.1529 89.623C49.098 89.623 42.9976 83.5908 42.9976 73.877V73.8486C42.9976 64.1914 49.1593 58.0176 58.785 58.0176C68.4107 58.0176 74.4498 64.0498 74.4498 73.2256V75.7744H51.8263C51.9183 80.6172 54.7692 83.4492 59.3368 83.4492C63.0154 83.4492 65.2533 81.5801 65.897 79.8809L65.9583 79.7109H74.1739L74.0819 80.0225C73.0703 84.4971 68.5334 89.623 59.1529 89.623ZM58.9383 64.1914C55.2597 64.1914 52.5007 66.457 51.9183 70.5635H65.8664C65.3146 66.3721 62.6476 64.1914 58.9383 64.1914ZM86.5279 89L75.1549 58.6406H84.7193L91.5861 81.6934H91.77L98.5448 58.6406H107.895L96.6135 89H86.5279ZM111.788 89V48.1338H130.058C139.991 48.1338 145.876 53.0049 145.876 61.2178V61.2744C145.876 66.6553 142.78 71.1299 137.875 72.9141L147.195 89H136.71L128.464 74.1885H121.046V89H111.788ZM121.046 67.7031H129.047C133.645 67.7031 136.404 65.2959 136.404 61.2744V61.2178C136.404 57.3096 133.492 54.8174 128.924 54.8174H121.046V67.7031ZM155.901 54.7324C153.203 54.7324 151.118 52.7783 151.118 50.4277C151.118 48.0771 153.203 46.123 155.901 46.123C158.598 46.123 160.683 48.0771 160.683 50.4277C160.683 52.7783 158.598 54.7324 155.901 54.7324ZM151.425 89V58.6406H160.376V89H151.425ZM185.851 89.623C181.13 89.623 177.513 87.4141 175.735 83.8174H175.551V89H166.599V48.1338H175.551V63.9082H175.735C177.543 60.2266 181.191 58.0176 185.881 58.0176C194.128 58.0176 199.247 63.9082 199.247 73.792V73.8203C199.247 83.6758 194.128 89.623 185.851 89.623ZM182.877 82.7695C187.322 82.7695 190.142 79.3428 190.142 73.8203V73.792C190.142 68.2412 187.322 64.8711 182.877 64.8711C178.555 64.8711 175.551 68.3262 175.551 73.792V73.8203C175.551 79.3145 178.524 82.7695 182.877 82.7695ZM218.805 89.623C208.75 89.623 202.65 83.5908 202.65 73.877V73.8486C202.65 64.1914 208.811 58.0176 218.437 58.0176C228.063 58.0176 234.102 64.0498 234.102 73.2256V75.7744H211.478C211.57 80.6172 214.421 83.4492 218.989 83.4492C222.668 83.4492 224.905 81.5801 225.549 79.8809L225.61 79.7109H233.826L233.734 80.0225C232.722 84.4971 228.186 89.623 218.805 89.623ZM218.59 64.1914C214.912 64.1914 212.153 66.457 211.57 70.5635H225.519C224.967 66.3721 222.3 64.1914 218.59 64.1914ZM243.39 54.7324C240.693 54.7324 238.608 52.7783 238.608 50.4277C238.608 48.0771 240.693 46.123 243.39 46.123C246.088 46.123 248.173 48.0771 248.173 50.4277C248.173 52.7783 246.088 54.7324 243.39 54.7324ZM238.915 89V58.6406H247.866V89H238.915ZM253.875 89V58.6406H262.826V63.9365H263.01C263.991 60.1982 266.658 58.0176 270.49 58.0176C271.471 58.0176 272.39 58.1592 273.065 58.3291V65.6074C272.329 65.3242 271.103 65.1543 269.815 65.1543C265.401 65.1543 262.826 67.5898 262.826 72.0078V89H253.875ZM290.722 89.623C280.728 89.623 274.444 83.7041 274.444 73.8203V73.7637C274.444 63.9932 280.882 58.0176 290.691 58.0176C300.532 58.0176 307 63.9365 307 73.7637V73.8203C307 83.7324 300.654 89.623 290.722 89.623ZM290.753 83.1377C295.106 83.1377 297.895 79.7393 297.895 73.8203V73.7637C297.895 67.9014 295.044 64.5029 290.691 64.5029C286.369 64.5029 283.549 67.9014 283.549 73.7637V73.8203C283.549 79.7676 286.338 83.1377 290.753 83.1377Z" stroke="url(#paint3_linear_2116_95)" stroke-width="2" mask="url(#path-3-outside-3_2116_95)"/>
<mask id="path-4-outside-4_2116_95" maskUnits="userSpaceOnUse" x="4.80664" y="23.5" width="298" height="46" fill="black">
<rect fill="white" x="4.80664" y="23.5" width="298" height="46"/>
<path d="M5.80664 67.377V26.5107H22.0999C34.8744 26.5107 42.4444 33.7891 42.4444 46.7314V46.7881C42.4444 59.7588 34.9039 67.377 22.0999 67.377H5.80664ZM14.7369 60.2969H21.0354C29.0194 60.2969 33.3367 55.6523 33.3367 46.8164V46.7598C33.3367 38.2354 28.8716 33.5625 21.0354 33.5625H14.7369V60.2969ZM61.9017 68C52.2026 68 46.3181 61.9678 46.3181 52.2539V52.2256C46.3181 42.5684 52.2618 36.3945 61.5469 36.3945C70.832 36.3945 76.6574 42.4268 76.6574 51.6025V54.1514H54.8344C54.9231 58.9941 57.6732 61.8262 62.0791 61.8262C65.6276 61.8262 67.7862 59.957 68.4072 58.2578L68.4664 58.0879H76.3912L76.3025 58.3994C75.3267 62.874 70.9503 68 61.9017 68ZM61.6947 42.5684C58.1463 42.5684 55.4849 44.834 54.9231 48.9404H68.3776C67.8454 44.749 65.2728 42.5684 61.6947 42.5684ZM88.3081 67.377L77.3375 37.0176H86.5635L93.1872 60.0703H93.3646L99.8997 37.0176H108.919L98.0368 67.377H88.3081ZM112.674 67.377V26.5107H130.298C139.879 26.5107 145.556 31.3818 145.556 39.5947V39.6514C145.556 45.0322 142.57 49.5068 137.839 51.291L146.828 67.377H136.715L128.76 52.5654H121.604V67.377H112.674ZM121.604 46.0801H129.322C133.758 46.0801 136.419 43.6729 136.419 39.6514V39.5947C136.419 35.6865 133.61 33.1943 129.204 33.1943H121.604V46.0801ZM155.226 33.1094C152.624 33.1094 150.613 31.1553 150.613 28.8047C150.613 26.4541 152.624 24.5 155.226 24.5C157.828 24.5 159.839 26.4541 159.839 28.8047C159.839 31.1553 157.828 33.1094 155.226 33.1094ZM150.909 67.377V37.0176H159.543V67.377H150.909ZM184.116 68C179.562 68 176.073 65.791 174.358 62.1943H174.181V67.377H165.546V26.5107H174.181V42.2852H174.358C176.103 38.6035 179.622 36.3945 184.146 36.3945C192.1 36.3945 197.039 42.2852 197.039 52.1689V52.1973C197.039 62.0527 192.1 68 184.116 68ZM181.248 61.1465C185.536 61.1465 188.256 57.7197 188.256 52.1973V52.1689C188.256 46.6182 185.536 43.248 181.248 43.248C177.079 43.248 174.181 46.7031 174.181 52.1689V52.1973C174.181 57.6914 177.049 61.1465 181.248 61.1465ZM215.904 68C206.205 68 200.321 61.9678 200.321 52.2539V52.2256C200.321 42.5684 206.265 36.3945 215.55 36.3945C224.835 36.3945 230.66 42.4268 230.66 51.6025V54.1514H208.837C208.926 58.9941 211.676 61.8262 216.082 61.8262C219.63 61.8262 221.789 59.957 222.41 58.2578L222.469 58.0879H230.394L230.305 58.3994C229.329 62.874 224.953 68 215.904 68ZM215.697 42.5684C212.149 42.5684 209.488 44.834 208.926 48.9404H222.38C221.848 44.749 219.275 42.5684 215.697 42.5684ZM239.62 33.1094C237.018 33.1094 235.007 31.1553 235.007 28.8047C235.007 26.4541 237.018 24.5 239.62 24.5C242.222 24.5 244.233 26.4541 244.233 28.8047C244.233 31.1553 242.222 33.1094 239.62 33.1094ZM235.303 67.377V37.0176H243.937V67.377H235.303ZM249.733 67.377V37.0176H258.368V42.3135H258.545C259.491 38.5752 262.064 36.3945 265.76 36.3945C266.706 36.3945 267.594 36.5361 268.244 36.7061V43.9844C267.534 43.7012 266.352 43.5312 265.11 43.5312C260.851 43.5312 258.368 45.9668 258.368 50.3848V67.377H249.733ZM285.277 68C275.637 68 269.575 62.0811 269.575 52.1973V52.1406C269.575 42.3701 275.785 36.3945 285.247 36.3945C294.739 36.3945 300.979 42.3135 300.979 52.1406V52.1973C300.979 62.1094 294.857 68 285.277 68ZM285.306 61.5146C289.505 61.5146 292.196 58.1162 292.196 52.1973V52.1406C292.196 46.2783 289.446 42.8799 285.247 42.8799C281.078 42.8799 278.357 46.2783 278.357 52.1406V52.1973C278.357 58.1445 281.048 61.5146 285.306 61.5146Z"/>
</mask>
<path d="M5.80664 67.377V26.5107H22.0999C34.8744 26.5107 42.4444 33.7891 42.4444 46.7314V46.7881C42.4444 59.7588 34.9039 67.377 22.0999 67.377H5.80664ZM14.7369 60.2969H21.0354C29.0194 60.2969 33.3367 55.6523 33.3367 46.8164V46.7598C33.3367 38.2354 28.8716 33.5625 21.0354 33.5625H14.7369V60.2969ZM61.9017 68C52.2026 68 46.3181 61.9678 46.3181 52.2539V52.2256C46.3181 42.5684 52.2618 36.3945 61.5469 36.3945C70.832 36.3945 76.6574 42.4268 76.6574 51.6025V54.1514H54.8344C54.9231 58.9941 57.6732 61.8262 62.0791 61.8262C65.6276 61.8262 67.7862 59.957 68.4072 58.2578L68.4664 58.0879H76.3912L76.3025 58.3994C75.3267 62.874 70.9503 68 61.9017 68ZM61.6947 42.5684C58.1463 42.5684 55.4849 44.834 54.9231 48.9404H68.3776C67.8454 44.749 65.2728 42.5684 61.6947 42.5684ZM88.3081 67.377L77.3375 37.0176H86.5635L93.1872 60.0703H93.3646L99.8997 37.0176H108.919L98.0368 67.377H88.3081ZM112.674 67.377V26.5107H130.298C139.879 26.5107 145.556 31.3818 145.556 39.5947V39.6514C145.556 45.0322 142.57 49.5068 137.839 51.291L146.828 67.377H136.715L128.76 52.5654H121.604V67.377H112.674ZM121.604 46.0801H129.322C133.758 46.0801 136.419 43.6729 136.419 39.6514V39.5947C136.419 35.6865 133.61 33.1943 129.204 33.1943H121.604V46.0801ZM155.226 33.1094C152.624 33.1094 150.613 31.1553 150.613 28.8047C150.613 26.4541 152.624 24.5 155.226 24.5C157.828 24.5 159.839 26.4541 159.839 28.8047C159.839 31.1553 157.828 33.1094 155.226 33.1094ZM150.909 67.377V37.0176H159.543V67.377H150.909ZM184.116 68C179.562 68 176.073 65.791 174.358 62.1943H174.181V67.377H165.546V26.5107H174.181V42.2852H174.358C176.103 38.6035 179.622 36.3945 184.146 36.3945C192.1 36.3945 197.039 42.2852 197.039 52.1689V52.1973C197.039 62.0527 192.1 68 184.116 68ZM181.248 61.1465C185.536 61.1465 188.256 57.7197 188.256 52.1973V52.1689C188.256 46.6182 185.536 43.248 181.248 43.248C177.079 43.248 174.181 46.7031 174.181 52.1689V52.1973C174.181 57.6914 177.049 61.1465 181.248 61.1465ZM215.904 68C206.205 68 200.321 61.9678 200.321 52.2539V52.2256C200.321 42.5684 206.265 36.3945 215.55 36.3945C224.835 36.3945 230.66 42.4268 230.66 51.6025V54.1514H208.837C208.926 58.9941 211.676 61.8262 216.082 61.8262C219.63 61.8262 221.789 59.957 222.41 58.2578L222.469 58.0879H230.394L230.305 58.3994C229.329 62.874 224.953 68 215.904 68ZM215.697 42.5684C212.149 42.5684 209.488 44.834 208.926 48.9404H222.38C221.848 44.749 219.275 42.5684 215.697 42.5684ZM239.62 33.1094C237.018 33.1094 235.007 31.1553 235.007 28.8047C235.007 26.4541 237.018 24.5 239.62 24.5C242.222 24.5 244.233 26.4541 244.233 28.8047C244.233 31.1553 242.222 33.1094 239.62 33.1094ZM235.303 67.377V37.0176H243.937V67.377H235.303ZM249.733 67.377V37.0176H258.368V42.3135H258.545C259.491 38.5752 262.064 36.3945 265.76 36.3945C266.706 36.3945 267.594 36.5361 268.244 36.7061V43.9844C267.534 43.7012 266.352 43.5312 265.11 43.5312C260.851 43.5312 258.368 45.9668 258.368 50.3848V67.377H249.733ZM285.277 68C275.637 68 269.575 62.0811 269.575 52.1973V52.1406C269.575 42.3701 275.785 36.3945 285.247 36.3945C294.739 36.3945 300.979 42.3135 300.979 52.1406V52.1973C300.979 62.1094 294.857 68 285.277 68ZM285.306 61.5146C289.505 61.5146 292.196 58.1162 292.196 52.1973V52.1406C292.196 46.2783 289.446 42.8799 285.247 42.8799C281.078 42.8799 278.357 46.2783 278.357 52.1406V52.1973C278.357 58.1445 281.048 61.5146 285.306 61.5146Z" stroke="url(#paint4_linear_2116_95)" stroke-width="2" mask="url(#path-4-outside-4_2116_95)"/>
<mask id="path-5-outside-5_2116_95" maskUnits="userSpaceOnUse" x="10.2188" y="0" width="287" height="46" fill="black">
<rect fill="white" x="10.2188" width="287" height="46"/>
<path d="M11.2188 43.877V3.01074H26.9145C39.2205 3.01074 46.5129 10.2891 46.5129 23.2314V23.2881C46.5129 36.2588 39.249 43.877 26.9145 43.877H11.2188ZM19.8215 36.7969H25.8891C33.5803 36.7969 37.7392 32.1523 37.7392 23.3164V23.2598C37.7392 14.7354 33.4378 10.0625 25.8891 10.0625H19.8215V36.7969ZM65.2567 44.5C55.9133 44.5 50.2446 38.4678 50.2446 28.7539V28.7256C50.2446 19.0684 55.9703 12.8945 64.9149 12.8945C73.8595 12.8945 79.4713 18.9268 79.4713 28.1025V30.6514H58.4486C58.534 35.4941 61.1832 38.3262 65.4277 38.3262C68.846 38.3262 70.9255 36.457 71.5237 34.7578L71.5806 34.5879H79.2149L79.1294 34.8994C78.1894 39.374 73.9735 44.5 65.2567 44.5ZM65.0573 19.0684C61.639 19.0684 59.0753 21.334 58.534 25.4404H71.4952C70.9824 21.249 68.5041 19.0684 65.0573 19.0684ZM90.6948 43.877L80.1264 13.5176H89.0141L95.3949 36.5703H95.5659L101.861 13.5176H110.55L100.067 43.877H90.6948ZM114.167 43.877V3.01074H131.145C140.374 3.01074 145.844 7.88184 145.844 16.0947V16.1514C145.844 21.5322 142.967 26.0068 138.409 27.791L147.069 43.877H137.326L129.664 29.0654H122.77V43.877H114.167ZM122.77 22.5801H130.205C134.478 22.5801 137.042 20.1729 137.042 16.1514V16.0947C137.042 12.1865 134.335 9.69434 130.091 9.69434H122.77V22.5801ZM155.159 9.60938C152.652 9.60938 150.715 7.65527 150.715 5.30469C150.715 2.9541 152.652 1 155.159 1C157.665 1 159.602 2.9541 159.602 5.30469C159.602 7.65527 157.665 9.60938 155.159 9.60938ZM151 43.877V13.5176H159.318V43.877H151ZM182.989 44.5C178.603 44.5 175.241 42.291 173.589 38.6943H173.418V43.877H165.1V3.01074H173.418V18.7852H173.589C175.27 15.1035 178.66 12.8945 183.018 12.8945C190.681 12.8945 195.438 18.7852 195.438 28.6689V28.6973C195.438 38.5527 190.681 44.5 182.989 44.5ZM180.226 37.6465C184.357 37.6465 186.978 34.2197 186.978 28.6973V28.6689C186.978 23.1182 184.357 19.748 180.226 19.748C176.21 19.748 173.418 23.2031 173.418 28.6689V28.6973C173.418 34.1914 176.181 37.6465 180.226 37.6465ZM213.612 44.5C204.269 44.5 198.6 38.4678 198.6 28.7539V28.7256C198.6 19.0684 204.325 12.8945 213.27 12.8945C222.215 12.8945 227.826 18.9268 227.826 28.1025V30.6514H206.804C206.889 35.4941 209.538 38.3262 213.783 38.3262C217.201 38.3262 219.281 36.457 219.879 34.7578L219.936 34.5879H227.57L227.485 34.8994C226.545 39.374 222.329 44.5 213.612 44.5ZM213.413 19.0684C209.994 19.0684 207.43 21.334 206.889 25.4404H219.85C219.338 21.249 216.859 19.0684 213.413 19.0684ZM236.458 9.60938C233.951 9.60938 232.014 7.65527 232.014 5.30469C232.014 2.9541 233.951 1 236.458 1C238.964 1 240.902 2.9541 240.902 5.30469C240.902 7.65527 238.964 9.60938 236.458 9.60938ZM232.299 43.877V13.5176H240.617V43.877H232.299ZM246.2 43.877V13.5176H254.518V18.8135H254.689C255.6 15.0752 258.079 12.8945 261.639 12.8945C262.551 12.8945 263.406 13.0361 264.032 13.2061V20.4844C263.349 20.2012 262.209 20.0312 261.013 20.0312C256.911 20.0312 254.518 22.4668 254.518 26.8848V43.877H246.2ZM280.44 44.5C271.154 44.5 265.314 38.5811 265.314 28.6973V28.6406C265.314 18.8701 271.296 12.8945 280.412 12.8945C289.556 12.8945 295.566 18.8135 295.566 28.6406V28.6973C295.566 38.6094 289.67 44.5 280.44 44.5ZM280.469 38.0146C284.514 38.0146 287.106 34.6162 287.106 28.6973V28.6406C287.106 22.7783 284.457 19.3799 280.412 19.3799C276.395 19.3799 273.774 22.7783 273.774 28.6406V28.6973C273.774 34.6445 276.367 38.0146 280.469 38.0146Z"/>
</mask>
<path d="M11.2188 43.877V3.01074H26.9145C39.2205 3.01074 46.5129 10.2891 46.5129 23.2314V23.2881C46.5129 36.2588 39.249 43.877 26.9145 43.877H11.2188ZM19.8215 36.7969H25.8891C33.5803 36.7969 37.7392 32.1523 37.7392 23.3164V23.2598C37.7392 14.7354 33.4378 10.0625 25.8891 10.0625H19.8215V36.7969ZM65.2567 44.5C55.9133 44.5 50.2446 38.4678 50.2446 28.7539V28.7256C50.2446 19.0684 55.9703 12.8945 64.9149 12.8945C73.8595 12.8945 79.4713 18.9268 79.4713 28.1025V30.6514H58.4486C58.534 35.4941 61.1832 38.3262 65.4277 38.3262C68.846 38.3262 70.9255 36.457 71.5237 34.7578L71.5806 34.5879H79.2149L79.1294 34.8994C78.1894 39.374 73.9735 44.5 65.2567 44.5ZM65.0573 19.0684C61.639 19.0684 59.0753 21.334 58.534 25.4404H71.4952C70.9824 21.249 68.5041 19.0684 65.0573 19.0684ZM90.6948 43.877L80.1264 13.5176H89.0141L95.3949 36.5703H95.5659L101.861 13.5176H110.55L100.067 43.877H90.6948ZM114.167 43.877V3.01074H131.145C140.374 3.01074 145.844 7.88184 145.844 16.0947V16.1514C145.844 21.5322 142.967 26.0068 138.409 27.791L147.069 43.877H137.326L129.664 29.0654H122.77V43.877H114.167ZM122.77 22.5801H130.205C134.478 22.5801 137.042 20.1729 137.042 16.1514V16.0947C137.042 12.1865 134.335 9.69434 130.091 9.69434H122.77V22.5801ZM155.159 9.60938C152.652 9.60938 150.715 7.65527 150.715 5.30469C150.715 2.9541 152.652 1 155.159 1C157.665 1 159.602 2.9541 159.602 5.30469C159.602 7.65527 157.665 9.60938 155.159 9.60938ZM151 43.877V13.5176H159.318V43.877H151ZM182.989 44.5C178.603 44.5 175.241 42.291 173.589 38.6943H173.418V43.877H165.1V3.01074H173.418V18.7852H173.589C175.27 15.1035 178.66 12.8945 183.018 12.8945C190.681 12.8945 195.438 18.7852 195.438 28.6689V28.6973C195.438 38.5527 190.681 44.5 182.989 44.5ZM180.226 37.6465C184.357 37.6465 186.978 34.2197 186.978 28.6973V28.6689C186.978 23.1182 184.357 19.748 180.226 19.748C176.21 19.748 173.418 23.2031 173.418 28.6689V28.6973C173.418 34.1914 176.181 37.6465 180.226 37.6465ZM213.612 44.5C204.269 44.5 198.6 38.4678 198.6 28.7539V28.7256C198.6 19.0684 204.325 12.8945 213.27 12.8945C222.215 12.8945 227.826 18.9268 227.826 28.1025V30.6514H206.804C206.889 35.4941 209.538 38.3262 213.783 38.3262C217.201 38.3262 219.281 36.457 219.879 34.7578L219.936 34.5879H227.57L227.485 34.8994C226.545 39.374 222.329 44.5 213.612 44.5ZM213.413 19.0684C209.994 19.0684 207.43 21.334 206.889 25.4404H219.85C219.338 21.249 216.859 19.0684 213.413 19.0684ZM236.458 9.60938C233.951 9.60938 232.014 7.65527 232.014 5.30469C232.014 2.9541 233.951 1 236.458 1C238.964 1 240.902 2.9541 240.902 5.30469C240.902 7.65527 238.964 9.60938 236.458 9.60938ZM232.299 43.877V13.5176H240.617V43.877H232.299ZM246.2 43.877V13.5176H254.518V18.8135H254.689C255.6 15.0752 258.079 12.8945 261.639 12.8945C262.551 12.8945 263.406 13.0361 264.032 13.2061V20.4844C263.349 20.2012 262.209 20.0312 261.013 20.0312C256.911 20.0312 254.518 22.4668 254.518 26.8848V43.877H246.2ZM280.44 44.5C271.154 44.5 265.314 38.5811 265.314 28.6973V28.6406C265.314 18.8701 271.296 12.8945 280.412 12.8945C289.556 12.8945 295.566 18.8135 295.566 28.6406V28.6973C295.566 38.6094 289.67 44.5 280.44 44.5ZM280.469 38.0146C284.514 38.0146 287.106 34.6162 287.106 28.6973V28.6406C287.106 22.7783 284.457 19.3799 280.412 19.3799C276.395 19.3799 273.774 22.7783 273.774 28.6406V28.6973C273.774 34.6445 276.367 38.0146 280.469 38.0146Z" stroke="url(#paint5_linear_2116_95)" stroke-width="2" mask="url(#path-5-outside-5_2116_95)"/>
<defs>
<linearGradient id="paint0_linear_2116_95" x1="153.393" y1="104.623" x2="153.393" y2="148.123" gradientUnits="userSpaceOnUse">
<stop offset="0.503785" stop-color="#C4C4C4" stop-opacity="0"/>
<stop offset="1" stop-color="#777777"/>
</linearGradient>
<linearGradient id="paint1_linear_2116_95" x1="153.392" y1="129.5" x2="153.392" y2="173" gradientUnits="userSpaceOnUse">
<stop offset="0.420649" stop-color="#C4C4C4" stop-opacity="0"/>
<stop offset="1" stop-color="#777777"/>
</linearGradient>
<linearGradient id="paint2_linear_2116_95" x1="154" y1="46.123" x2="154" y2="126.623" gradientUnits="userSpaceOnUse">
<stop stop-color="#777777"/>
<stop offset="0.384007" stop-color="#DDDDDD" stop-opacity="0"/>
<stop offset="0.711183" stop-color="#DDDDDD" stop-opacity="0"/>
<stop offset="1" stop-color="#777777"/>
</linearGradient>
<linearGradient id="paint3_linear_2116_95" x1="154" y1="46.123" x2="154" y2="126.623" gradientUnits="userSpaceOnUse">
<stop stop-color="#777777"/>
<stop offset="0.384007" stop-color="#DDDDDD" stop-opacity="0"/>
<stop offset="0.711183" stop-color="#DDDDDD" stop-opacity="0"/>
<stop offset="1" stop-color="#777777"/>
</linearGradient>
<linearGradient id="paint4_linear_2116_95" x1="153.393" y1="24.5" x2="153.393" y2="68" gradientUnits="userSpaceOnUse">
<stop stop-color="#777777"/>
<stop offset="0.711672" stop-color="#DDDDDD" stop-opacity="0"/>
</linearGradient>
<linearGradient id="paint5_linear_2116_95" x1="153.392" y1="1" x2="153.392" y2="44.5" gradientUnits="userSpaceOnUse">
<stop stop-color="#777777"/>
<stop offset="0.726681" stop-color="#DDDDDD" stop-opacity="0"/>
</linearGradient>
</defs>
</svg>
