<svg width="30" height="18" viewBox="0 0 30 18" fill="none" xmlns="http://www.w3.org/2000/svg">
<path d="M15.0001 0.335693C11.1481 0.335693 8.74079 2.26113 7.77771 6.11166C9.22233 4.18621 10.9075 3.46444 12.8334 3.94562C13.9323 4.22017 14.7176 5.01744 15.5871 5.8996C17.0032 7.33664 18.6422 8.99982 22.2225 8.99982C26.0741 8.99982 28.4818 7.07438 29.4446 3.22349C28.0003 5.14893 26.3151 5.87107 24.3889 5.38989C23.2904 5.11534 22.505 4.31807 21.6355 3.43591C20.2194 1.99887 18.5801 0.335693 15.0001 0.335693V0.335693ZM7.77771 8.99982C3.9261 8.99982 1.51839 10.9253 0.555664 14.7761C1.99993 12.8507 3.68514 12.1286 5.61131 12.6101C6.70986 12.885 7.49521 13.6819 8.36473 14.5637C9.78082 16.0008 11.4202 17.6643 15.0001 17.6643C18.8521 17.6643 21.2594 15.7389 22.2225 11.888C20.7779 13.8134 19.0927 14.5356 17.1669 14.054C16.068 13.7798 15.2826 12.9822 14.4131 12.1004C12.997 10.6634 11.358 8.99982 7.77771 8.99982V8.99982Z" fill="#06B6D4"/>
</svg>
